<svg xmlns="http://www.w3.org/2000/svg" id="svg269" version="1.1" width="297.013" viewBox="0 0 222.76 222.76" height="297.013"><defs id="defs4"><style id="style2">*{stroke-linecap:butt;stroke-linejoin:round}</style></defs><g transform="translate(-74.38 -28.876)" id="figure_1"><g stroke="#000" fill="#ddd" id="axes_1"><path id="patch_2" d="M185.76 140.256v-13.86l-13.86 13.86z" clip-path="url(#p19d44b73a1)"/><path id="patch_3" d="M185.76 126.396v-13.86l-13.86 13.86z" clip-path="url(#p19d44b73a1)"/><path id="patch_4" d="M185.76 112.536v-13.86l-13.86 13.86z" clip-path="url(#p19d44b73a1)"/><path id="patch_5" d="M185.76 98.676v-13.86l-13.86 13.86z" clip-path="url(#p19d44b73a1)"/><path id="patch_6" d="M185.76 84.816v-13.86l-13.86 13.86z" clip-path="url(#p19d44b73a1)"/><path id="patch_7" d="M185.76 70.956v-13.86l-13.86 13.86z" clip-path="url(#p19d44b73a1)"/><path id="patch_8" d="M185.76 57.096v-13.86l-13.86 13.86z" clip-path="url(#p19d44b73a1)"/><path id="patch_9" d="M185.76 43.236v-13.86l-13.86 13.86z" clip-path="url(#p19d44b73a1)"/><path id="patch_10" d="M185.76 126.396H171.9v13.86z" clip-path="url(#p19d44b73a1)"/><path id="patch_11" d="M185.76 112.536H171.9v13.86z" clip-path="url(#p19d44b73a1)"/><path id="patch_12" d="M185.76 98.676H171.9v13.86z" clip-path="url(#p19d44b73a1)"/><path id="patch_13" d="M185.76 84.816H171.9v13.86z" clip-path="url(#p19d44b73a1)"/><path id="patch_14" d="M185.76 70.956H171.9v13.86z" clip-path="url(#p19d44b73a1)"/><path id="patch_15" d="M185.76 57.096H171.9v13.86z" clip-path="url(#p19d44b73a1)"/><path id="patch_16" d="M185.76 43.236H171.9v13.86z" clip-path="url(#p19d44b73a1)"/><path id="patch_17" d="M171.9 140.256v-13.86l-13.86 13.86z" clip-path="url(#p19d44b73a1)"/><path id="patch_18" d="M171.9 126.396v-13.86l-13.86 13.86z" clip-path="url(#p19d44b73a1)"/><path id="patch_19" d="M171.9 112.536v-13.86l-13.86 13.86z" clip-path="url(#p19d44b73a1)"/><path id="patch_20" d="M171.9 98.676v-13.86l-13.86 13.86z" clip-path="url(#p19d44b73a1)"/><path id="patch_21" d="M171.9 84.816v-13.86l-13.86 13.86z" clip-path="url(#p19d44b73a1)"/><path id="patch_22" d="M171.9 70.956v-13.86l-13.86 13.86z" clip-path="url(#p19d44b73a1)"/><path id="patch_23" d="M171.9 57.096v-13.86l-13.86 13.86z" clip-path="url(#p19d44b73a1)"/><path id="patch_24" d="M171.9 126.396h-13.86v13.86z" clip-path="url(#p19d44b73a1)"/><path id="patch_25" d="M171.9 112.536h-13.86v13.86z" clip-path="url(#p19d44b73a1)"/><path id="patch_26" d="M171.9 98.676h-13.86v13.86z" clip-path="url(#p19d44b73a1)"/><path id="patch_27" d="M171.9 84.816h-13.86v13.86z" clip-path="url(#p19d44b73a1)"/><path id="patch_28" d="M171.9 70.956h-13.86v13.86z" clip-path="url(#p19d44b73a1)"/><path id="patch_29" d="M171.9 57.096h-13.86v13.86z" clip-path="url(#p19d44b73a1)"/><path id="patch_30" d="M158.04 140.256v-13.86l-13.86 13.86z" clip-path="url(#p19d44b73a1)"/><path id="patch_31" d="M158.04 126.396v-13.86l-13.86 13.86z" clip-path="url(#p19d44b73a1)"/><path id="patch_32" d="M158.04 112.536v-13.86l-13.86 13.86z" clip-path="url(#p19d44b73a1)"/><path id="patch_33" d="M158.04 98.676v-13.86l-13.86 13.86z" clip-path="url(#p19d44b73a1)"/><path id="patch_34" d="M158.04 84.816v-13.86l-13.86 13.86z" clip-path="url(#p19d44b73a1)"/><path id="patch_35" d="M158.04 70.956v-13.86l-13.86 13.86z" clip-path="url(#p19d44b73a1)"/><path id="patch_36" d="M158.04 126.396h-13.86v13.86z" clip-path="url(#p19d44b73a1)"/><path id="patch_37" d="M158.04 112.536h-13.86v13.86z" clip-path="url(#p19d44b73a1)"/><path id="patch_38" d="M158.04 98.676h-13.86v13.86z" clip-path="url(#p19d44b73a1)"/><path id="patch_39" d="M158.04 84.816h-13.86v13.86z" clip-path="url(#p19d44b73a1)"/><path id="patch_40" d="M158.04 70.956h-13.86v13.86z" clip-path="url(#p19d44b73a1)"/><path id="patch_41" d="M144.18 140.256v-13.86l-13.86 13.86z" clip-path="url(#p19d44b73a1)"/><path id="patch_42" d="M144.18 126.396v-13.86l-13.86 13.86z" clip-path="url(#p19d44b73a1)"/><path id="patch_43" d="M144.18 112.536v-13.86l-13.86 13.86z" clip-path="url(#p19d44b73a1)"/><path id="patch_44" d="M144.18 98.676v-13.86l-13.86 13.86z" clip-path="url(#p19d44b73a1)"/><path id="patch_45" d="M144.18 84.816v-13.86l-13.86 13.86z" clip-path="url(#p19d44b73a1)"/><path id="patch_46" d="M144.18 126.396h-13.86v13.86z" clip-path="url(#p19d44b73a1)"/><path id="patch_47" d="M144.18 112.536h-13.86v13.86z" clip-path="url(#p19d44b73a1)"/><path id="patch_48" d="M144.18 98.676h-13.86v13.86z" clip-path="url(#p19d44b73a1)"/><path id="patch_49" d="M144.18 84.816h-13.86v13.86z" clip-path="url(#p19d44b73a1)"/><path id="patch_50" d="M130.32 140.256v-13.86l-13.86 13.86z" clip-path="url(#p19d44b73a1)"/><path id="patch_51" d="M130.32 126.396v-13.86l-13.86 13.86z" clip-path="url(#p19d44b73a1)"/><path id="patch_52" d="M130.32 112.536v-13.86l-13.86 13.86z" clip-path="url(#p19d44b73a1)"/><path id="patch_53" d="M130.32 98.676v-13.86l-13.86 13.86z" clip-path="url(#p19d44b73a1)"/><path id="patch_54" d="M130.32 126.396h-13.86v13.86z" clip-path="url(#p19d44b73a1)"/><path id="patch_55" d="M130.32 112.536h-13.86v13.86z" clip-path="url(#p19d44b73a1)"/><path id="patch_56" d="M130.32 98.676h-13.86v13.86z" clip-path="url(#p19d44b73a1)"/><path id="patch_57" d="M116.46 140.256v-13.86l-13.86 13.86z" clip-path="url(#p19d44b73a1)"/><path id="patch_58" d="M116.46 126.396v-13.86l-13.86 13.86z" clip-path="url(#p19d44b73a1)"/><path id="patch_59" d="M116.46 112.536v-13.86l-13.86 13.86z" clip-path="url(#p19d44b73a1)"/><path id="patch_60" d="M116.46 126.396H102.6v13.86z" clip-path="url(#p19d44b73a1)"/><path id="patch_61" d="M116.46 112.536H102.6v13.86z" clip-path="url(#p19d44b73a1)"/><path id="patch_62" d="M102.6 140.256v-13.86l-13.86 13.86z" clip-path="url(#p19d44b73a1)"/><path id="patch_63" d="M102.6 126.396v-13.86l-13.86 13.86z" clip-path="url(#p19d44b73a1)"/><path id="patch_64" d="M102.6 126.396H88.74v13.86z" clip-path="url(#p19d44b73a1)"/><path id="patch_65" d="M88.74 140.256v-13.86l-13.86 13.86z" clip-path="url(#p19d44b73a1)"/><path id="patch_66" d="M185.76 140.256H171.9l13.86 13.86z" clip-path="url(#p19d44b73a1)"/><path id="patch_67" d="M171.9 140.256h-13.86l13.86 13.86z" clip-path="url(#p19d44b73a1)"/><path id="patch_68" d="M158.04 140.256h-13.86l13.86 13.86z" clip-path="url(#p19d44b73a1)"/><path id="patch_69" d="M144.18 140.256h-13.86l13.86 13.86z" clip-path="url(#p19d44b73a1)"/><path id="patch_70" d="M130.32 140.256h-13.86l13.86 13.86z" clip-path="url(#p19d44b73a1)"/><path id="patch_71" d="M116.46 140.256H102.6l13.86 13.86z" clip-path="url(#p19d44b73a1)"/><path id="patch_72" d="M102.6 140.256H88.74l13.86 13.86z" clip-path="url(#p19d44b73a1)"/><path id="patch_73" d="M88.74 140.256H74.88l13.86 13.86z" clip-path="url(#p19d44b73a1)"/><path id="patch_74" d="M171.9 140.256v13.86h13.86z" clip-path="url(#p19d44b73a1)"/><path id="patch_75" d="M158.04 140.256v13.86h13.86z" clip-path="url(#p19d44b73a1)"/><path id="patch_76" d="M144.18 140.256v13.86h13.86z" clip-path="url(#p19d44b73a1)"/><path id="patch_77" d="M130.32 140.256v13.86h13.86z" clip-path="url(#p19d44b73a1)"/><path id="patch_78" d="M116.46 140.256v13.86h13.86z" clip-path="url(#p19d44b73a1)"/><path id="patch_79" d="M102.6 140.256v13.86h13.86z" clip-path="url(#p19d44b73a1)"/><path id="patch_80" d="M88.74 140.256v13.86h13.86z" clip-path="url(#p19d44b73a1)"/><path id="patch_81" d="M185.76 154.116H171.9l13.86 13.86z" clip-path="url(#p19d44b73a1)"/><path id="patch_82" d="M171.9 154.116h-13.86l13.86 13.86z" clip-path="url(#p19d44b73a1)"/><path id="patch_83" d="M158.04 154.116h-13.86l13.86 13.86z" clip-path="url(#p19d44b73a1)"/><path id="patch_84" d="M144.18 154.116h-13.86l13.86 13.86z" clip-path="url(#p19d44b73a1)"/><path id="patch_85" d="M130.32 154.116h-13.86l13.86 13.86z" clip-path="url(#p19d44b73a1)"/><path id="patch_86" d="M116.46 154.116H102.6l13.86 13.86z" clip-path="url(#p19d44b73a1)"/><path id="patch_87" d="M102.6 154.116H88.74l13.86 13.86z" clip-path="url(#p19d44b73a1)"/><path id="patch_88" d="M171.9 154.116v13.86h13.86z" clip-path="url(#p19d44b73a1)"/><path id="patch_89" d="M158.04 154.116v13.86h13.86z" clip-path="url(#p19d44b73a1)"/><path id="patch_90" d="M144.18 154.116v13.86h13.86z" clip-path="url(#p19d44b73a1)"/><path id="patch_91" d="M130.32 154.116v13.86h13.86z" clip-path="url(#p19d44b73a1)"/><path id="patch_92" d="M116.46 154.116v13.86h13.86z" clip-path="url(#p19d44b73a1)"/><path id="patch_93" d="M102.6 154.116v13.86h13.86z" clip-path="url(#p19d44b73a1)"/><path id="patch_94" d="M185.76 167.976H171.9l13.86 13.86z" clip-path="url(#p19d44b73a1)"/><path id="patch_95" d="M171.9 167.976h-13.86l13.86 13.86z" clip-path="url(#p19d44b73a1)"/><path id="patch_96" d="M158.04 167.976h-13.86l13.86 13.86z" clip-path="url(#p19d44b73a1)"/><path id="patch_97" d="M144.18 167.976h-13.86l13.86 13.86z" clip-path="url(#p19d44b73a1)"/><path id="patch_98" d="M130.32 167.976h-13.86l13.86 13.86z" clip-path="url(#p19d44b73a1)"/><path id="patch_99" d="M116.46 167.976H102.6l13.86 13.86z" clip-path="url(#p19d44b73a1)"/><path id="patch_100" d="M171.9 167.976v13.86h13.86z" clip-path="url(#p19d44b73a1)"/><path id="patch_101" d="M158.04 167.976v13.86h13.86z" clip-path="url(#p19d44b73a1)"/><path id="patch_102" d="M144.18 167.976v13.86h13.86z" clip-path="url(#p19d44b73a1)"/><path id="patch_103" d="M130.32 167.976v13.86h13.86z" clip-path="url(#p19d44b73a1)"/><path id="patch_104" d="M116.46 167.976v13.86h13.86z" clip-path="url(#p19d44b73a1)"/><path id="patch_105" d="M185.76 181.836H171.9l13.86 13.86z" clip-path="url(#p19d44b73a1)"/><path id="patch_106" d="M171.9 181.836h-13.86l13.86 13.86z" clip-path="url(#p19d44b73a1)"/><path id="patch_107" d="M158.04 181.836h-13.86l13.86 13.86z" clip-path="url(#p19d44b73a1)"/><path id="patch_108" d="M144.18 181.836h-13.86l13.86 13.86z" clip-path="url(#p19d44b73a1)"/><path id="patch_109" d="M130.32 181.836h-13.86l13.86 13.86z" clip-path="url(#p19d44b73a1)"/><path id="patch_110" d="M171.9 181.836v13.86h13.86z" clip-path="url(#p19d44b73a1)"/><path id="patch_111" d="M158.04 181.836v13.86h13.86z" clip-path="url(#p19d44b73a1)"/><path id="patch_112" d="M144.18 181.836v13.86h13.86z" clip-path="url(#p19d44b73a1)"/><path id="patch_113" d="M130.32 181.836v13.86h13.86z" clip-path="url(#p19d44b73a1)"/><path id="patch_114" d="M185.76 195.696H171.9l13.86 13.86z" clip-path="url(#p19d44b73a1)"/><path id="patch_115" d="M171.9 195.696h-13.86l13.86 13.86z" clip-path="url(#p19d44b73a1)"/><path id="patch_116" d="M158.04 195.696h-13.86l13.86 13.86z" clip-path="url(#p19d44b73a1)"/><path id="patch_117" d="M144.18 195.696h-13.86l13.86 13.86z" clip-path="url(#p19d44b73a1)"/><path id="patch_118" d="M171.9 195.696v13.86h13.86z" clip-path="url(#p19d44b73a1)"/><path id="patch_119" d="M158.04 195.696v13.86h13.86z" clip-path="url(#p19d44b73a1)"/><path id="patch_120" d="M144.18 195.696v13.86h13.86z" clip-path="url(#p19d44b73a1)"/><path id="patch_121" d="M185.76 209.556H171.9l13.86 13.86z" clip-path="url(#p19d44b73a1)"/><path id="patch_122" d="M171.9 209.556h-13.86l13.86 13.86z" clip-path="url(#p19d44b73a1)"/><path id="patch_123" d="M158.04 209.556h-13.86l13.86 13.86z" clip-path="url(#p19d44b73a1)"/><path id="patch_124" d="M171.9 209.556v13.86h13.86z" clip-path="url(#p19d44b73a1)"/><path id="patch_125" d="M158.04 209.556v13.86h13.86z" clip-path="url(#p19d44b73a1)"/><path id="patch_126" d="M185.76 223.416H171.9l13.86 13.86z" clip-path="url(#p19d44b73a1)"/><path id="patch_127" d="M171.9 223.416h-13.86l13.86 13.86z" clip-path="url(#p19d44b73a1)"/><path id="patch_128" d="M171.9 223.416v13.86h13.86z" clip-path="url(#p19d44b73a1)"/><path id="patch_129" d="M185.76 237.276H171.9l13.86 13.86z" clip-path="url(#p19d44b73a1)"/><path id="patch_130" d="M185.76 140.256v13.86l13.86-13.86z" clip-path="url(#p19d44b73a1)"/><path id="patch_131" d="M185.76 154.116v13.86l13.86-13.86z" clip-path="url(#p19d44b73a1)"/><path id="patch_132" d="M185.76 167.976v13.86l13.86-13.86z" clip-path="url(#p19d44b73a1)"/><path id="patch_133" d="M185.76 181.836v13.86l13.86-13.86z" clip-path="url(#p19d44b73a1)"/><path id="patch_134" d="M185.76 195.696v13.86l13.86-13.86z" clip-path="url(#p19d44b73a1)"/><path id="patch_135" d="M185.76 209.556v13.86l13.86-13.86z" clip-path="url(#p19d44b73a1)"/><path id="patch_136" d="M185.76 223.416v13.86l13.86-13.86z" clip-path="url(#p19d44b73a1)"/><path id="patch_137" d="M185.76 237.276v13.86l13.86-13.86z" clip-path="url(#p19d44b73a1)"/><path id="patch_138" d="M185.76 154.116h13.86v-13.86z" clip-path="url(#p19d44b73a1)"/><path id="patch_139" d="M185.76 167.976h13.86v-13.86z" clip-path="url(#p19d44b73a1)"/><path id="patch_140" d="M185.76 181.836h13.86v-13.86z" clip-path="url(#p19d44b73a1)"/><path id="patch_141" d="M185.76 195.696h13.86v-13.86z" clip-path="url(#p19d44b73a1)"/><path id="patch_142" d="M185.76 209.556h13.86v-13.86z" clip-path="url(#p19d44b73a1)"/><path id="patch_143" d="M185.76 223.416h13.86v-13.86z" clip-path="url(#p19d44b73a1)"/><path id="patch_144" d="M185.76 237.276h13.86v-13.86z" clip-path="url(#p19d44b73a1)"/><path id="patch_145" d="M199.62 140.256v13.86l13.86-13.86z" clip-path="url(#p19d44b73a1)"/><path id="patch_146" d="M199.62 154.116v13.86l13.86-13.86z" clip-path="url(#p19d44b73a1)"/><path id="patch_147" d="M199.62 167.976v13.86l13.86-13.86z" clip-path="url(#p19d44b73a1)"/><path id="patch_148" d="M199.62 181.836v13.86l13.86-13.86z" clip-path="url(#p19d44b73a1)"/><path id="patch_149" d="M199.62 195.696v13.86l13.86-13.86z" clip-path="url(#p19d44b73a1)"/><path id="patch_150" d="M199.62 209.556v13.86l13.86-13.86z" clip-path="url(#p19d44b73a1)"/><path id="patch_151" d="M199.62 223.416v13.86l13.86-13.86z" clip-path="url(#p19d44b73a1)"/><path id="patch_152" d="M199.62 154.116h13.86v-13.86z" clip-path="url(#p19d44b73a1)"/><path id="patch_153" d="M199.62 167.976h13.86v-13.86z" clip-path="url(#p19d44b73a1)"/><path id="patch_154" d="M199.62 181.836h13.86v-13.86z" clip-path="url(#p19d44b73a1)"/><path id="patch_155" d="M199.62 195.696h13.86v-13.86z" clip-path="url(#p19d44b73a1)"/><path id="patch_156" d="M199.62 209.556h13.86v-13.86z" clip-path="url(#p19d44b73a1)"/><path id="patch_157" d="M199.62 223.416h13.86v-13.86z" clip-path="url(#p19d44b73a1)"/><path id="patch_158" d="M213.48 140.256v13.86l13.86-13.86z" clip-path="url(#p19d44b73a1)"/><path id="patch_159" d="M213.48 154.116v13.86l13.86-13.86z" clip-path="url(#p19d44b73a1)"/><path id="patch_160" d="M213.48 167.976v13.86l13.86-13.86z" clip-path="url(#p19d44b73a1)"/><path id="patch_161" d="M213.48 181.836v13.86l13.86-13.86z" clip-path="url(#p19d44b73a1)"/><path id="patch_162" d="M213.48 195.696v13.86l13.86-13.86z" clip-path="url(#p19d44b73a1)"/><path id="patch_163" d="M213.48 209.556v13.86l13.86-13.86z" clip-path="url(#p19d44b73a1)"/><path id="patch_164" d="M213.48 154.116h13.86v-13.86z" clip-path="url(#p19d44b73a1)"/><path id="patch_165" d="M213.48 167.976h13.86v-13.86z" clip-path="url(#p19d44b73a1)"/><path id="patch_166" d="M213.48 181.836h13.86v-13.86z" clip-path="url(#p19d44b73a1)"/><path id="patch_167" d="M213.48 195.696h13.86v-13.86z" clip-path="url(#p19d44b73a1)"/><path id="patch_168" d="M213.48 209.556h13.86v-13.86z" clip-path="url(#p19d44b73a1)"/><path id="patch_169" d="M227.34 140.256v13.86l13.86-13.86z" clip-path="url(#p19d44b73a1)"/><path id="patch_170" d="M227.34 154.116v13.86l13.86-13.86z" clip-path="url(#p19d44b73a1)"/><path id="patch_171" d="M227.34 167.976v13.86l13.86-13.86z" clip-path="url(#p19d44b73a1)"/><path id="patch_172" d="M227.34 181.836v13.86l13.86-13.86z" clip-path="url(#p19d44b73a1)"/><path id="patch_173" d="M227.34 195.696v13.86l13.86-13.86z" clip-path="url(#p19d44b73a1)"/><path id="patch_174" d="M227.34 154.116h13.86v-13.86z" clip-path="url(#p19d44b73a1)"/><path id="patch_175" d="M227.34 167.976h13.86v-13.86z" clip-path="url(#p19d44b73a1)"/><path id="patch_176" d="M227.34 181.836h13.86v-13.86z" clip-path="url(#p19d44b73a1)"/><path id="patch_177" d="M227.34 195.696h13.86v-13.86z" clip-path="url(#p19d44b73a1)"/><path id="patch_178" d="M241.2 140.256v13.86l13.86-13.86z" clip-path="url(#p19d44b73a1)"/><path id="patch_179" d="M241.2 154.116v13.86l13.86-13.86z" clip-path="url(#p19d44b73a1)"/><path id="patch_180" d="M241.2 167.976v13.86l13.86-13.86z" clip-path="url(#p19d44b73a1)"/><path id="patch_181" d="M241.2 181.836v13.86l13.86-13.86z" clip-path="url(#p19d44b73a1)"/><path id="patch_182" d="M241.2 154.116h13.86v-13.86z" clip-path="url(#p19d44b73a1)"/><path id="patch_183" d="M241.2 167.976h13.86v-13.86z" clip-path="url(#p19d44b73a1)"/><path id="patch_184" d="M241.2 181.836h13.86v-13.86z" clip-path="url(#p19d44b73a1)"/><path id="patch_185" d="M255.06 140.256v13.86l13.86-13.86z" clip-path="url(#p19d44b73a1)"/><path id="patch_186" d="M255.06 154.116v13.86l13.86-13.86z" clip-path="url(#p19d44b73a1)"/><path id="patch_187" d="M255.06 167.976v13.86l13.86-13.86z" clip-path="url(#p19d44b73a1)"/><path id="patch_188" d="M255.06 154.116h13.86v-13.86z" clip-path="url(#p19d44b73a1)"/><path id="patch_189" d="M255.06 167.976h13.86v-13.86z" clip-path="url(#p19d44b73a1)"/><path id="patch_190" d="M268.92 140.256v13.86l13.86-13.86z" clip-path="url(#p19d44b73a1)"/><path id="patch_191" d="M268.92 154.116v13.86l13.86-13.86z" clip-path="url(#p19d44b73a1)"/><path id="patch_192" d="M268.92 154.116h13.86v-13.86z" clip-path="url(#p19d44b73a1)"/><path id="patch_193" d="M282.78 140.256v13.86l13.86-13.86z" clip-path="url(#p19d44b73a1)"/><path id="patch_194" d="M185.76 140.256h13.86l-13.86-13.86z" clip-path="url(#p19d44b73a1)"/><path id="patch_195" d="M199.62 140.256h13.86l-13.86-13.86z" clip-path="url(#p19d44b73a1)"/><path id="patch_196" d="M213.48 140.256h13.86l-13.86-13.86z" clip-path="url(#p19d44b73a1)"/><path id="patch_197" d="M227.34 140.256h13.86l-13.86-13.86z" clip-path="url(#p19d44b73a1)"/><path id="patch_198" d="M241.2 140.256h13.86l-13.86-13.86z" clip-path="url(#p19d44b73a1)"/><path id="patch_199" d="M255.06 140.256h13.86l-13.86-13.86z" clip-path="url(#p19d44b73a1)"/><path id="patch_200" d="M268.92 140.256h13.86l-13.86-13.86z" clip-path="url(#p19d44b73a1)"/><path id="patch_201" d="M282.78 140.256h13.86l-13.86-13.86z" clip-path="url(#p19d44b73a1)"/><path id="patch_202" d="M199.62 140.256v-13.86h-13.86z" clip-path="url(#p19d44b73a1)"/><path id="patch_203" d="M213.48 140.256v-13.86h-13.86z" clip-path="url(#p19d44b73a1)"/><path id="patch_204" d="M227.34 140.256v-13.86h-13.86z" clip-path="url(#p19d44b73a1)"/><path id="patch_205" d="M241.2 140.256v-13.86h-13.86z" clip-path="url(#p19d44b73a1)"/><path id="patch_206" d="M255.06 140.256v-13.86H241.2z" clip-path="url(#p19d44b73a1)"/><path id="patch_207" d="M268.92 140.256v-13.86h-13.86z" clip-path="url(#p19d44b73a1)"/><path id="patch_208" d="M282.78 140.256v-13.86h-13.86z" clip-path="url(#p19d44b73a1)"/><path id="patch_209" d="M185.76 126.396h13.86l-13.86-13.86z" clip-path="url(#p19d44b73a1)"/><path id="patch_210" d="M199.62 126.396h13.86l-13.86-13.86z" clip-path="url(#p19d44b73a1)"/><path id="patch_211" d="M213.48 126.396h13.86l-13.86-13.86z" clip-path="url(#p19d44b73a1)"/><path id="patch_212" d="M227.34 126.396h13.86l-13.86-13.86z" clip-path="url(#p19d44b73a1)"/><path id="patch_213" d="M241.2 126.396h13.86l-13.86-13.86z" clip-path="url(#p19d44b73a1)"/><path id="patch_214" d="M255.06 126.396h13.86l-13.86-13.86z" clip-path="url(#p19d44b73a1)"/><path id="patch_215" d="M268.92 126.396h13.86l-13.86-13.86z" clip-path="url(#p19d44b73a1)"/><path id="patch_216" d="M199.62 126.396v-13.86h-13.86z" clip-path="url(#p19d44b73a1)"/><path id="patch_217" d="M213.48 126.396v-13.86h-13.86z" clip-path="url(#p19d44b73a1)"/><path id="patch_218" d="M227.34 126.396v-13.86h-13.86z" clip-path="url(#p19d44b73a1)"/><path id="patch_219" d="M241.2 126.396v-13.86h-13.86z" clip-path="url(#p19d44b73a1)"/><path id="patch_220" d="M255.06 126.396v-13.86H241.2z" clip-path="url(#p19d44b73a1)"/><path id="patch_221" d="M268.92 126.396v-13.86h-13.86z" clip-path="url(#p19d44b73a1)"/><path id="patch_222" d="M185.76 112.536h13.86l-13.86-13.86z" clip-path="url(#p19d44b73a1)"/><path id="patch_223" d="M199.62 112.536h13.86l-13.86-13.86z" clip-path="url(#p19d44b73a1)"/><path id="patch_224" d="M213.48 112.536h13.86l-13.86-13.86z" clip-path="url(#p19d44b73a1)"/><path id="patch_225" d="M227.34 112.536h13.86l-13.86-13.86z" clip-path="url(#p19d44b73a1)"/><path id="patch_226" d="M241.2 112.536h13.86l-13.86-13.86z" clip-path="url(#p19d44b73a1)"/><path id="patch_227" d="M255.06 112.536h13.86l-13.86-13.86z" clip-path="url(#p19d44b73a1)"/><path id="patch_228" d="M199.62 112.536v-13.86h-13.86z" clip-path="url(#p19d44b73a1)"/><path id="patch_229" d="M213.48 112.536v-13.86h-13.86z" clip-path="url(#p19d44b73a1)"/><path id="patch_230" d="M227.34 112.536v-13.86h-13.86z" clip-path="url(#p19d44b73a1)"/><path id="patch_231" d="M241.2 112.536v-13.86h-13.86z" clip-path="url(#p19d44b73a1)"/><path id="patch_232" d="M255.06 112.536v-13.86H241.2z" clip-path="url(#p19d44b73a1)"/><path id="patch_233" d="M185.76 98.676h13.86l-13.86-13.86z" clip-path="url(#p19d44b73a1)"/><path id="patch_234" d="M199.62 98.676h13.86l-13.86-13.86z" clip-path="url(#p19d44b73a1)"/><path id="patch_235" d="M213.48 98.676h13.86l-13.86-13.86z" clip-path="url(#p19d44b73a1)"/><path id="patch_236" d="M227.34 98.676h13.86l-13.86-13.86z" clip-path="url(#p19d44b73a1)"/><path id="patch_237" d="M241.2 98.676h13.86l-13.86-13.86z" clip-path="url(#p19d44b73a1)"/><path id="patch_238" d="M199.62 98.676v-13.86h-13.86z" clip-path="url(#p19d44b73a1)"/><path id="patch_239" d="M213.48 98.676v-13.86h-13.86z" clip-path="url(#p19d44b73a1)"/><path id="patch_240" d="M227.34 98.676v-13.86h-13.86z" clip-path="url(#p19d44b73a1)"/><path id="patch_241" d="M241.2 98.676v-13.86h-13.86z" clip-path="url(#p19d44b73a1)"/><path id="patch_242" d="M185.76 84.816h13.86l-13.86-13.86z" clip-path="url(#p19d44b73a1)"/><path id="patch_243" d="M199.62 84.816h13.86l-13.86-13.86z" clip-path="url(#p19d44b73a1)"/><path id="patch_244" d="M213.48 84.816h13.86l-13.86-13.86z" clip-path="url(#p19d44b73a1)"/><path id="patch_245" d="M227.34 84.816h13.86l-13.86-13.86z" clip-path="url(#p19d44b73a1)"/><path id="patch_246" d="M199.62 84.816v-13.86h-13.86z" clip-path="url(#p19d44b73a1)"/><path id="patch_247" d="M213.48 84.816v-13.86h-13.86z" clip-path="url(#p19d44b73a1)"/><path id="patch_248" d="M227.34 84.816v-13.86h-13.86z" clip-path="url(#p19d44b73a1)"/><path id="patch_249" d="M185.76 70.956h13.86l-13.86-13.86z" clip-path="url(#p19d44b73a1)"/><path id="patch_250" d="M199.62 70.956h13.86l-13.86-13.86z" clip-path="url(#p19d44b73a1)"/><path id="patch_251" d="M213.48 70.956h13.86l-13.86-13.86z" clip-path="url(#p19d44b73a1)"/><path id="patch_252" d="M199.62 70.956v-13.86h-13.86z" clip-path="url(#p19d44b73a1)"/><path id="patch_253" d="M213.48 70.956v-13.86h-13.86z" clip-path="url(#p19d44b73a1)"/><path id="patch_254" d="M185.76 57.096h13.86l-13.86-13.86z" clip-path="url(#p19d44b73a1)"/><path id="patch_255" d="M199.62 57.096h13.86l-13.86-13.86z" clip-path="url(#p19d44b73a1)"/><path id="patch_256" d="M199.62 57.096v-13.86h-13.86z" clip-path="url(#p19d44b73a1)"/><path id="patch_257" d="M185.76 43.236h13.86l-13.86-13.86z" clip-path="url(#p19d44b73a1)"/></g></g><defs id="defs267"><clipPath id="p19d44b73a1"><path id="path264" d="M7.2 7.2h357.12v266.112H7.2z"/></clipPath></defs></svg>