<svg height="374.016" viewBox="0 0 371.52 280.512" width="495.36" xmlns="http://www.w3.org/2000/svg"><defs><style>*{stroke-linecap:butt;stroke-linejoin:round}</style></defs><g id="figure_1"><path d="M0 280.512h371.52V0H0z" fill="none" id="patch_1"/><g id="axes_1" fill="#ddd" stroke="#000"><path clip-path="url(#p19d44b73a1)" d="M185.76 140.256v-13.86l-13.86 13.86z" id="patch_2"/><path clip-path="url(#p19d44b73a1)" d="M185.76 126.396v-13.86l-13.86 13.86z" id="patch_3"/><path clip-path="url(#p19d44b73a1)" d="M185.76 112.536v-13.86l-13.86 13.86z" id="patch_4"/><path clip-path="url(#p19d44b73a1)" d="M185.76 98.676v-13.86l-13.86 13.86z" id="patch_5"/><path clip-path="url(#p19d44b73a1)" d="M185.76 84.816v-13.86l-13.86 13.86z" id="patch_6"/><path clip-path="url(#p19d44b73a1)" d="M185.76 70.956v-13.86l-13.86 13.86z" id="patch_7"/><path clip-path="url(#p19d44b73a1)" d="M185.76 57.096v-13.86l-13.86 13.86z" id="patch_8"/><path clip-path="url(#p19d44b73a1)" d="M185.76 43.236v-13.86l-13.86 13.86z" id="patch_9"/><path clip-path="url(#p19d44b73a1)" d="M185.76 126.396H171.9v13.86z" id="patch_10"/><path clip-path="url(#p19d44b73a1)" d="M185.76 112.536H171.9v13.86z" id="patch_11"/><path clip-path="url(#p19d44b73a1)" d="M185.76 98.676H171.9v13.86z" id="patch_12"/><path clip-path="url(#p19d44b73a1)" d="M185.76 84.816H171.9v13.86z" id="patch_13"/><path clip-path="url(#p19d44b73a1)" d="M185.76 70.956H171.9v13.86z" id="patch_14"/><path clip-path="url(#p19d44b73a1)" d="M185.76 57.096H171.9v13.86z" id="patch_15"/><path clip-path="url(#p19d44b73a1)" d="M185.76 43.236H171.9v13.86z" id="patch_16"/><path clip-path="url(#p19d44b73a1)" d="M171.9 140.256v-13.86l-13.86 13.86z" id="patch_17"/><path clip-path="url(#p19d44b73a1)" d="M171.9 126.396v-13.86l-13.86 13.86z" id="patch_18"/><path clip-path="url(#p19d44b73a1)" d="M171.9 112.536v-13.86l-13.86 13.86z" id="patch_19"/><path clip-path="url(#p19d44b73a1)" d="M171.9 98.676v-13.86l-13.86 13.86z" id="patch_20"/><path clip-path="url(#p19d44b73a1)" d="M171.9 84.816v-13.86l-13.86 13.86z" id="patch_21"/><path clip-path="url(#p19d44b73a1)" d="M171.9 70.956v-13.86l-13.86 13.86z" id="patch_22"/><path clip-path="url(#p19d44b73a1)" d="M171.9 57.096v-13.86l-13.86 13.86z" id="patch_23"/><path clip-path="url(#p19d44b73a1)" d="M171.9 126.396h-13.86v13.86z" id="patch_24"/><path clip-path="url(#p19d44b73a1)" d="M171.9 112.536h-13.86v13.86z" id="patch_25"/><path clip-path="url(#p19d44b73a1)" d="M171.9 98.676h-13.86v13.86z" id="patch_26"/><path clip-path="url(#p19d44b73a1)" d="M171.9 84.816h-13.86v13.86z" id="patch_27"/><path clip-path="url(#p19d44b73a1)" d="M171.9 70.956h-13.86v13.86z" id="patch_28"/><path clip-path="url(#p19d44b73a1)" d="M171.9 57.096h-13.86v13.86z" id="patch_29"/><path clip-path="url(#p19d44b73a1)" d="M158.04 140.256v-13.86l-13.86 13.86z" id="patch_30"/><path clip-path="url(#p19d44b73a1)" d="M158.04 126.396v-13.86l-13.86 13.86z" id="patch_31"/><path clip-path="url(#p19d44b73a1)" d="M158.04 112.536v-13.86l-13.86 13.86z" id="patch_32"/><path clip-path="url(#p19d44b73a1)" d="M158.04 98.676v-13.86l-13.86 13.86z" id="patch_33"/><path clip-path="url(#p19d44b73a1)" d="M158.04 84.816v-13.86l-13.86 13.86z" id="patch_34"/><path clip-path="url(#p19d44b73a1)" d="M158.04 70.956v-13.86l-13.86 13.86z" id="patch_35"/><path clip-path="url(#p19d44b73a1)" d="M158.04 126.396h-13.86v13.86z" id="patch_36"/><path clip-path="url(#p19d44b73a1)" d="M158.04 112.536h-13.86v13.86z" id="patch_37"/><path clip-path="url(#p19d44b73a1)" d="M158.04 98.676h-13.86v13.86z" id="patch_38"/><path clip-path="url(#p19d44b73a1)" d="M158.04 84.816h-13.86v13.86z" id="patch_39"/><path clip-path="url(#p19d44b73a1)" d="M158.04 70.956h-13.86v13.86z" id="patch_40"/><path clip-path="url(#p19d44b73a1)" d="M144.18 140.256v-13.86l-13.86 13.86z" id="patch_41"/><path clip-path="url(#p19d44b73a1)" d="M144.18 126.396v-13.86l-13.86 13.86z" id="patch_42"/><path clip-path="url(#p19d44b73a1)" d="M144.18 112.536v-13.86l-13.86 13.86z" id="patch_43"/><path clip-path="url(#p19d44b73a1)" d="M144.18 98.676v-13.86l-13.86 13.86z" id="patch_44"/><path clip-path="url(#p19d44b73a1)" d="M144.18 84.816v-13.86l-13.86 13.86z" id="patch_45"/><path clip-path="url(#p19d44b73a1)" d="M144.18 126.396h-13.86v13.86z" id="patch_46"/><path clip-path="url(#p19d44b73a1)" d="M144.18 112.536h-13.86v13.86z" id="patch_47"/><path clip-path="url(#p19d44b73a1)" d="M144.18 98.676h-13.86v13.86z" id="patch_48"/><path clip-path="url(#p19d44b73a1)" d="M144.18 84.816h-13.86v13.86z" id="patch_49"/><path clip-path="url(#p19d44b73a1)" d="M130.32 140.256v-13.86l-13.86 13.86z" id="patch_50"/><path clip-path="url(#p19d44b73a1)" d="M130.32 126.396v-13.86l-13.86 13.86z" id="patch_51"/><path clip-path="url(#p19d44b73a1)" d="M130.32 112.536v-13.86l-13.86 13.86z" id="patch_52"/><path clip-path="url(#p19d44b73a1)" d="M130.32 98.676v-13.86l-13.86 13.86z" id="patch_53"/><path clip-path="url(#p19d44b73a1)" d="M130.32 126.396h-13.86v13.86z" id="patch_54"/><path clip-path="url(#p19d44b73a1)" d="M130.32 112.536h-13.86v13.86z" id="patch_55"/><path clip-path="url(#p19d44b73a1)" d="M130.32 98.676h-13.86v13.86z" id="patch_56"/><path clip-path="url(#p19d44b73a1)" d="M116.46 140.256v-13.86l-13.86 13.86z" id="patch_57"/><path clip-path="url(#p19d44b73a1)" d="M116.46 126.396v-13.86l-13.86 13.86z" id="patch_58"/><path clip-path="url(#p19d44b73a1)" d="M116.46 112.536v-13.86l-13.86 13.86z" id="patch_59"/><path clip-path="url(#p19d44b73a1)" d="M116.46 126.396H102.6v13.86z" id="patch_60"/><path clip-path="url(#p19d44b73a1)" d="M116.46 112.536H102.6v13.86z" id="patch_61"/><path clip-path="url(#p19d44b73a1)" d="M102.6 140.256v-13.86l-13.86 13.86z" id="patch_62"/><path clip-path="url(#p19d44b73a1)" d="M102.6 126.396v-13.86l-13.86 13.86z" id="patch_63"/><path clip-path="url(#p19d44b73a1)" d="M102.6 126.396H88.74v13.86z" id="patch_64"/><path clip-path="url(#p19d44b73a1)" d="M88.74 140.256v-13.86l-13.86 13.86z" id="patch_65"/><path clip-path="url(#p19d44b73a1)" d="M185.76 140.256H171.9l13.86 13.86z" id="patch_66"/><path clip-path="url(#p19d44b73a1)" d="M171.9 140.256h-13.86l13.86 13.86z" id="patch_67"/><path clip-path="url(#p19d44b73a1)" d="M158.04 140.256h-13.86l13.86 13.86z" id="patch_68"/><path clip-path="url(#p19d44b73a1)" d="M144.18 140.256h-13.86l13.86 13.86z" id="patch_69"/><path clip-path="url(#p19d44b73a1)" d="M130.32 140.256h-13.86l13.86 13.86z" id="patch_70"/><path clip-path="url(#p19d44b73a1)" d="M116.46 140.256H102.6l13.86 13.86z" id="patch_71"/><path clip-path="url(#p19d44b73a1)" d="M102.6 140.256H88.74l13.86 13.86z" id="patch_72"/><path clip-path="url(#p19d44b73a1)" d="M88.74 140.256H74.88l13.86 13.86z" id="patch_73"/><path clip-path="url(#p19d44b73a1)" d="M171.9 140.256v13.86h13.86z" id="patch_74"/><path clip-path="url(#p19d44b73a1)" d="M158.04 140.256v13.86h13.86z" id="patch_75"/><path clip-path="url(#p19d44b73a1)" d="M144.18 140.256v13.86h13.86z" id="patch_76"/><path clip-path="url(#p19d44b73a1)" d="M130.32 140.256v13.86h13.86z" id="patch_77"/><path clip-path="url(#p19d44b73a1)" d="M116.46 140.256v13.86h13.86z" id="patch_78"/><path clip-path="url(#p19d44b73a1)" d="M102.6 140.256v13.86h13.86z" id="patch_79"/><path clip-path="url(#p19d44b73a1)" d="M88.74 140.256v13.86h13.86z" id="patch_80"/><path clip-path="url(#p19d44b73a1)" d="M185.76 154.116H171.9l13.86 13.86z" id="patch_81"/><path clip-path="url(#p19d44b73a1)" d="M171.9 154.116h-13.86l13.86 13.86z" id="patch_82"/><path clip-path="url(#p19d44b73a1)" d="M158.04 154.116h-13.86l13.86 13.86z" id="patch_83"/><path clip-path="url(#p19d44b73a1)" d="M144.18 154.116h-13.86l13.86 13.86z" id="patch_84"/><path clip-path="url(#p19d44b73a1)" d="M130.32 154.116h-13.86l13.86 13.86z" id="patch_85"/><path clip-path="url(#p19d44b73a1)" d="M116.46 154.116H102.6l13.86 13.86z" id="patch_86"/><path clip-path="url(#p19d44b73a1)" d="M102.6 154.116H88.74l13.86 13.86z" id="patch_87"/><path clip-path="url(#p19d44b73a1)" d="M171.9 154.116v13.86h13.86z" id="patch_88"/><path clip-path="url(#p19d44b73a1)" d="M158.04 154.116v13.86h13.86z" id="patch_89"/><path clip-path="url(#p19d44b73a1)" d="M144.18 154.116v13.86h13.86z" id="patch_90"/><path clip-path="url(#p19d44b73a1)" d="M130.32 154.116v13.86h13.86z" id="patch_91"/><path clip-path="url(#p19d44b73a1)" d="M116.46 154.116v13.86h13.86z" id="patch_92"/><path clip-path="url(#p19d44b73a1)" d="M102.6 154.116v13.86h13.86z" id="patch_93"/><path clip-path="url(#p19d44b73a1)" d="M185.76 167.976H171.9l13.86 13.86z" id="patch_94"/><path clip-path="url(#p19d44b73a1)" d="M171.9 167.976h-13.86l13.86 13.86z" id="patch_95"/><path clip-path="url(#p19d44b73a1)" d="M158.04 167.976h-13.86l13.86 13.86z" id="patch_96"/><path clip-path="url(#p19d44b73a1)" d="M144.18 167.976h-13.86l13.86 13.86z" id="patch_97"/><path clip-path="url(#p19d44b73a1)" d="M130.32 167.976h-13.86l13.86 13.86z" id="patch_98"/><path clip-path="url(#p19d44b73a1)" d="M116.46 167.976H102.6l13.86 13.86z" id="patch_99"/><path clip-path="url(#p19d44b73a1)" d="M171.9 167.976v13.86h13.86z" id="patch_100"/><path clip-path="url(#p19d44b73a1)" d="M158.04 167.976v13.86h13.86z" id="patch_101"/><path clip-path="url(#p19d44b73a1)" d="M144.18 167.976v13.86h13.86z" id="patch_102"/><path clip-path="url(#p19d44b73a1)" d="M130.32 167.976v13.86h13.86z" id="patch_103"/><path clip-path="url(#p19d44b73a1)" d="M116.46 167.976v13.86h13.86z" id="patch_104"/><path clip-path="url(#p19d44b73a1)" d="M185.76 181.836H171.9l13.86 13.86z" id="patch_105"/><path clip-path="url(#p19d44b73a1)" d="M171.9 181.836h-13.86l13.86 13.86z" id="patch_106"/><path clip-path="url(#p19d44b73a1)" d="M158.04 181.836h-13.86l13.86 13.86z" id="patch_107"/><path clip-path="url(#p19d44b73a1)" d="M144.18 181.836h-13.86l13.86 13.86z" id="patch_108"/><path clip-path="url(#p19d44b73a1)" d="M130.32 181.836h-13.86l13.86 13.86z" id="patch_109"/><path clip-path="url(#p19d44b73a1)" d="M171.9 181.836v13.86h13.86z" id="patch_110"/><path clip-path="url(#p19d44b73a1)" d="M158.04 181.836v13.86h13.86z" id="patch_111"/><path clip-path="url(#p19d44b73a1)" d="M144.18 181.836v13.86h13.86z" id="patch_112"/><path clip-path="url(#p19d44b73a1)" d="M130.32 181.836v13.86h13.86z" id="patch_113"/><path clip-path="url(#p19d44b73a1)" d="M185.76 195.696H171.9l13.86 13.86z" id="patch_114"/><path clip-path="url(#p19d44b73a1)" d="M171.9 195.696h-13.86l13.86 13.86z" id="patch_115"/><path clip-path="url(#p19d44b73a1)" d="M158.04 195.696h-13.86l13.86 13.86z" id="patch_116"/><path clip-path="url(#p19d44b73a1)" d="M144.18 195.696h-13.86l13.86 13.86z" id="patch_117"/><path clip-path="url(#p19d44b73a1)" d="M171.9 195.696v13.86h13.86z" id="patch_118"/><path clip-path="url(#p19d44b73a1)" d="M158.04 195.696v13.86h13.86z" id="patch_119"/><path clip-path="url(#p19d44b73a1)" d="M144.18 195.696v13.86h13.86z" id="patch_120"/><path clip-path="url(#p19d44b73a1)" d="M185.76 209.556H171.9l13.86 13.86z" id="patch_121"/><path clip-path="url(#p19d44b73a1)" d="M171.9 209.556h-13.86l13.86 13.86z" id="patch_122"/><path clip-path="url(#p19d44b73a1)" d="M158.04 209.556h-13.86l13.86 13.86z" id="patch_123"/><path clip-path="url(#p19d44b73a1)" d="M171.9 209.556v13.86h13.86z" id="patch_124"/><path clip-path="url(#p19d44b73a1)" d="M158.04 209.556v13.86h13.86z" id="patch_125"/><path clip-path="url(#p19d44b73a1)" d="M185.76 223.416H171.9l13.86 13.86z" id="patch_126"/><path clip-path="url(#p19d44b73a1)" d="M171.9 223.416h-13.86l13.86 13.86z" id="patch_127"/><path clip-path="url(#p19d44b73a1)" d="M171.9 223.416v13.86h13.86z" id="patch_128"/><path clip-path="url(#p19d44b73a1)" d="M185.76 237.276H171.9l13.86 13.86z" id="patch_129"/><path clip-path="url(#p19d44b73a1)" d="M185.76 140.256v13.86l13.86-13.86z" id="patch_130"/><path clip-path="url(#p19d44b73a1)" d="M185.76 154.116v13.86l13.86-13.86z" id="patch_131"/><path clip-path="url(#p19d44b73a1)" d="M185.76 167.976v13.86l13.86-13.86z" id="patch_132"/><path clip-path="url(#p19d44b73a1)" d="M185.76 181.836v13.86l13.86-13.86z" id="patch_133"/><path clip-path="url(#p19d44b73a1)" d="M185.76 195.696v13.86l13.86-13.86z" id="patch_134"/><path clip-path="url(#p19d44b73a1)" d="M185.76 209.556v13.86l13.86-13.86z" id="patch_135"/><path clip-path="url(#p19d44b73a1)" d="M185.76 223.416v13.86l13.86-13.86z" id="patch_136"/><path clip-path="url(#p19d44b73a1)" d="M185.76 237.276v13.86l13.86-13.86z" id="patch_137"/><path clip-path="url(#p19d44b73a1)" d="M185.76 154.116h13.86v-13.86z" id="patch_138"/><path clip-path="url(#p19d44b73a1)" d="M185.76 167.976h13.86v-13.86z" id="patch_139"/><path clip-path="url(#p19d44b73a1)" d="M185.76 181.836h13.86v-13.86z" id="patch_140"/><path clip-path="url(#p19d44b73a1)" d="M185.76 195.696h13.86v-13.86z" id="patch_141"/><path clip-path="url(#p19d44b73a1)" d="M185.76 209.556h13.86v-13.86z" id="patch_142"/><path clip-path="url(#p19d44b73a1)" d="M185.76 223.416h13.86v-13.86z" id="patch_143"/><path clip-path="url(#p19d44b73a1)" d="M185.76 237.276h13.86v-13.86z" id="patch_144"/><path clip-path="url(#p19d44b73a1)" d="M199.62 140.256v13.86l13.86-13.86z" id="patch_145"/><path clip-path="url(#p19d44b73a1)" d="M199.62 154.116v13.86l13.86-13.86z" id="patch_146"/><path clip-path="url(#p19d44b73a1)" d="M199.62 167.976v13.86l13.86-13.86z" id="patch_147"/><path clip-path="url(#p19d44b73a1)" d="M199.62 181.836v13.86l13.86-13.86z" id="patch_148"/><path clip-path="url(#p19d44b73a1)" d="M199.62 195.696v13.86l13.86-13.86z" id="patch_149"/><path clip-path="url(#p19d44b73a1)" d="M199.62 209.556v13.86l13.86-13.86z" id="patch_150"/><path clip-path="url(#p19d44b73a1)" d="M199.62 223.416v13.86l13.86-13.86z" id="patch_151"/><path clip-path="url(#p19d44b73a1)" d="M199.62 154.116h13.86v-13.86z" id="patch_152"/><path clip-path="url(#p19d44b73a1)" d="M199.62 167.976h13.86v-13.86z" id="patch_153"/><path clip-path="url(#p19d44b73a1)" d="M199.62 181.836h13.86v-13.86z" id="patch_154"/><path clip-path="url(#p19d44b73a1)" d="M199.62 195.696h13.86v-13.86z" id="patch_155"/><path clip-path="url(#p19d44b73a1)" d="M199.62 209.556h13.86v-13.86z" id="patch_156"/><path clip-path="url(#p19d44b73a1)" d="M199.62 223.416h13.86v-13.86z" id="patch_157"/><path clip-path="url(#p19d44b73a1)" d="M213.48 140.256v13.86l13.86-13.86z" id="patch_158"/><path clip-path="url(#p19d44b73a1)" d="M213.48 154.116v13.86l13.86-13.86z" id="patch_159"/><path clip-path="url(#p19d44b73a1)" d="M213.48 167.976v13.86l13.86-13.86z" id="patch_160"/><path clip-path="url(#p19d44b73a1)" d="M213.48 181.836v13.86l13.86-13.86z" id="patch_161"/><path clip-path="url(#p19d44b73a1)" d="M213.48 195.696v13.86l13.86-13.86z" id="patch_162"/><path clip-path="url(#p19d44b73a1)" d="M213.48 209.556v13.86l13.86-13.86z" id="patch_163"/><path clip-path="url(#p19d44b73a1)" d="M213.48 154.116h13.86v-13.86z" id="patch_164"/><path clip-path="url(#p19d44b73a1)" d="M213.48 167.976h13.86v-13.86z" id="patch_165"/><path clip-path="url(#p19d44b73a1)" d="M213.48 181.836h13.86v-13.86z" id="patch_166"/><path clip-path="url(#p19d44b73a1)" d="M213.48 195.696h13.86v-13.86z" id="patch_167"/><path clip-path="url(#p19d44b73a1)" d="M213.48 209.556h13.86v-13.86z" id="patch_168"/><path clip-path="url(#p19d44b73a1)" d="M227.34 140.256v13.86l13.86-13.86z" id="patch_169"/><path clip-path="url(#p19d44b73a1)" d="M227.34 154.116v13.86l13.86-13.86z" id="patch_170"/><path clip-path="url(#p19d44b73a1)" d="M227.34 167.976v13.86l13.86-13.86z" id="patch_171"/><path clip-path="url(#p19d44b73a1)" d="M227.34 181.836v13.86l13.86-13.86z" id="patch_172"/><path clip-path="url(#p19d44b73a1)" d="M227.34 195.696v13.86l13.86-13.86z" id="patch_173"/><path clip-path="url(#p19d44b73a1)" d="M227.34 154.116h13.86v-13.86z" id="patch_174"/><path clip-path="url(#p19d44b73a1)" d="M227.34 167.976h13.86v-13.86z" id="patch_175"/><path clip-path="url(#p19d44b73a1)" d="M227.34 181.836h13.86v-13.86z" id="patch_176"/><path clip-path="url(#p19d44b73a1)" d="M227.34 195.696h13.86v-13.86z" id="patch_177"/><path clip-path="url(#p19d44b73a1)" d="M241.2 140.256v13.86l13.86-13.86z" id="patch_178"/><path clip-path="url(#p19d44b73a1)" d="M241.2 154.116v13.86l13.86-13.86z" id="patch_179"/><path clip-path="url(#p19d44b73a1)" d="M241.2 167.976v13.86l13.86-13.86z" id="patch_180"/><path clip-path="url(#p19d44b73a1)" d="M241.2 181.836v13.86l13.86-13.86z" id="patch_181"/><path clip-path="url(#p19d44b73a1)" d="M241.2 154.116h13.86v-13.86z" id="patch_182"/><path clip-path="url(#p19d44b73a1)" d="M241.2 167.976h13.86v-13.86z" id="patch_183"/><path clip-path="url(#p19d44b73a1)" d="M241.2 181.836h13.86v-13.86z" id="patch_184"/><path clip-path="url(#p19d44b73a1)" d="M255.06 140.256v13.86l13.86-13.86z" id="patch_185"/><path clip-path="url(#p19d44b73a1)" d="M255.06 154.116v13.86l13.86-13.86z" id="patch_186"/><path clip-path="url(#p19d44b73a1)" d="M255.06 167.976v13.86l13.86-13.86z" id="patch_187"/><path clip-path="url(#p19d44b73a1)" d="M255.06 154.116h13.86v-13.86z" id="patch_188"/><path clip-path="url(#p19d44b73a1)" d="M255.06 167.976h13.86v-13.86z" id="patch_189"/><path clip-path="url(#p19d44b73a1)" d="M268.92 140.256v13.86l13.86-13.86z" id="patch_190"/><path clip-path="url(#p19d44b73a1)" d="M268.92 154.116v13.86l13.86-13.86z" id="patch_191"/><path clip-path="url(#p19d44b73a1)" d="M268.92 154.116h13.86v-13.86z" id="patch_192"/><path clip-path="url(#p19d44b73a1)" d="M282.78 140.256v13.86l13.86-13.86z" id="patch_193"/><path clip-path="url(#p19d44b73a1)" d="M185.76 140.256h13.86l-13.86-13.86z" id="patch_194"/><path clip-path="url(#p19d44b73a1)" d="M199.62 140.256h13.86l-13.86-13.86z" id="patch_195"/><path clip-path="url(#p19d44b73a1)" d="M213.48 140.256h13.86l-13.86-13.86z" id="patch_196"/><path clip-path="url(#p19d44b73a1)" d="M227.34 140.256h13.86l-13.86-13.86z" id="patch_197"/><path clip-path="url(#p19d44b73a1)" d="M241.2 140.256h13.86l-13.86-13.86z" id="patch_198"/><path clip-path="url(#p19d44b73a1)" d="M255.06 140.256h13.86l-13.86-13.86z" id="patch_199"/><path clip-path="url(#p19d44b73a1)" d="M268.92 140.256h13.86l-13.86-13.86z" id="patch_200"/><path clip-path="url(#p19d44b73a1)" d="M282.78 140.256h13.86l-13.86-13.86z" id="patch_201"/><path clip-path="url(#p19d44b73a1)" d="M199.62 140.256v-13.86h-13.86z" id="patch_202"/><path clip-path="url(#p19d44b73a1)" d="M213.48 140.256v-13.86h-13.86z" id="patch_203"/><path clip-path="url(#p19d44b73a1)" d="M227.34 140.256v-13.86h-13.86z" id="patch_204"/><path clip-path="url(#p19d44b73a1)" d="M241.2 140.256v-13.86h-13.86z" id="patch_205"/><path clip-path="url(#p19d44b73a1)" d="M255.06 140.256v-13.86H241.2z" id="patch_206"/><path clip-path="url(#p19d44b73a1)" d="M268.92 140.256v-13.86h-13.86z" id="patch_207"/><path clip-path="url(#p19d44b73a1)" d="M282.78 140.256v-13.86h-13.86z" id="patch_208"/><path clip-path="url(#p19d44b73a1)" d="M185.76 126.396h13.86l-13.86-13.86z" id="patch_209"/><path clip-path="url(#p19d44b73a1)" d="M199.62 126.396h13.86l-13.86-13.86z" id="patch_210"/><path clip-path="url(#p19d44b73a1)" d="M213.48 126.396h13.86l-13.86-13.86z" id="patch_211"/><path clip-path="url(#p19d44b73a1)" d="M227.34 126.396h13.86l-13.86-13.86z" id="patch_212"/><path clip-path="url(#p19d44b73a1)" d="M241.2 126.396h13.86l-13.86-13.86z" id="patch_213"/><path clip-path="url(#p19d44b73a1)" d="M255.06 126.396h13.86l-13.86-13.86z" id="patch_214"/><path clip-path="url(#p19d44b73a1)" d="M268.92 126.396h13.86l-13.86-13.86z" id="patch_215"/><path clip-path="url(#p19d44b73a1)" d="M199.62 126.396v-13.86h-13.86z" id="patch_216"/><path clip-path="url(#p19d44b73a1)" d="M213.48 126.396v-13.86h-13.86z" id="patch_217"/><path clip-path="url(#p19d44b73a1)" d="M227.34 126.396v-13.86h-13.86z" id="patch_218"/><path clip-path="url(#p19d44b73a1)" d="M241.2 126.396v-13.86h-13.86z" id="patch_219"/><path clip-path="url(#p19d44b73a1)" d="M255.06 126.396v-13.86H241.2z" id="patch_220"/><path clip-path="url(#p19d44b73a1)" d="M268.92 126.396v-13.86h-13.86z" id="patch_221"/><path clip-path="url(#p19d44b73a1)" d="M185.76 112.536h13.86l-13.86-13.86z" id="patch_222"/><path clip-path="url(#p19d44b73a1)" d="M199.62 112.536h13.86l-13.86-13.86z" id="patch_223"/><path clip-path="url(#p19d44b73a1)" d="M213.48 112.536h13.86l-13.86-13.86z" id="patch_224"/><path clip-path="url(#p19d44b73a1)" d="M227.34 112.536h13.86l-13.86-13.86z" id="patch_225"/><path clip-path="url(#p19d44b73a1)" d="M241.2 112.536h13.86l-13.86-13.86z" id="patch_226"/><path clip-path="url(#p19d44b73a1)" d="M255.06 112.536h13.86l-13.86-13.86z" id="patch_227"/><path clip-path="url(#p19d44b73a1)" d="M199.62 112.536v-13.86h-13.86z" id="patch_228"/><path clip-path="url(#p19d44b73a1)" d="M213.48 112.536v-13.86h-13.86z" id="patch_229"/><path clip-path="url(#p19d44b73a1)" d="M227.34 112.536v-13.86h-13.86z" id="patch_230"/><path clip-path="url(#p19d44b73a1)" d="M241.2 112.536v-13.86h-13.86z" id="patch_231"/><path clip-path="url(#p19d44b73a1)" d="M255.06 112.536v-13.86H241.2z" id="patch_232"/><path clip-path="url(#p19d44b73a1)" d="M185.76 98.676h13.86l-13.86-13.86z" id="patch_233"/><path clip-path="url(#p19d44b73a1)" d="M199.62 98.676h13.86l-13.86-13.86z" id="patch_234"/><path clip-path="url(#p19d44b73a1)" d="M213.48 98.676h13.86l-13.86-13.86z" id="patch_235"/><path clip-path="url(#p19d44b73a1)" d="M227.34 98.676h13.86l-13.86-13.86z" id="patch_236"/><path clip-path="url(#p19d44b73a1)" d="M241.2 98.676h13.86l-13.86-13.86z" id="patch_237"/><path clip-path="url(#p19d44b73a1)" d="M199.62 98.676v-13.86h-13.86z" id="patch_238"/><path clip-path="url(#p19d44b73a1)" d="M213.48 98.676v-13.86h-13.86z" id="patch_239"/><path clip-path="url(#p19d44b73a1)" d="M227.34 98.676v-13.86h-13.86z" id="patch_240"/><path clip-path="url(#p19d44b73a1)" d="M241.2 98.676v-13.86h-13.86z" id="patch_241"/><path clip-path="url(#p19d44b73a1)" d="M185.76 84.816h13.86l-13.86-13.86z" id="patch_242"/><path clip-path="url(#p19d44b73a1)" d="M199.62 84.816h13.86l-13.86-13.86z" id="patch_243"/><path clip-path="url(#p19d44b73a1)" d="M213.48 84.816h13.86l-13.86-13.86z" id="patch_244"/><path clip-path="url(#p19d44b73a1)" d="M227.34 84.816h13.86l-13.86-13.86z" id="patch_245"/><path clip-path="url(#p19d44b73a1)" d="M199.62 84.816v-13.86h-13.86z" id="patch_246"/><path clip-path="url(#p19d44b73a1)" d="M213.48 84.816v-13.86h-13.86z" id="patch_247"/><path clip-path="url(#p19d44b73a1)" d="M227.34 84.816v-13.86h-13.86z" id="patch_248"/><path clip-path="url(#p19d44b73a1)" d="M185.76 70.956h13.86l-13.86-13.86z" id="patch_249"/><path clip-path="url(#p19d44b73a1)" d="M199.62 70.956h13.86l-13.86-13.86z" id="patch_250"/><path clip-path="url(#p19d44b73a1)" d="M213.48 70.956h13.86l-13.86-13.86z" id="patch_251"/><path clip-path="url(#p19d44b73a1)" d="M199.62 70.956v-13.86h-13.86z" id="patch_252"/><path clip-path="url(#p19d44b73a1)" d="M213.48 70.956v-13.86h-13.86z" id="patch_253"/><path clip-path="url(#p19d44b73a1)" d="M185.76 57.096h13.86l-13.86-13.86z" id="patch_254"/><path clip-path="url(#p19d44b73a1)" d="M199.62 57.096h13.86l-13.86-13.86z" id="patch_255"/><path clip-path="url(#p19d44b73a1)" d="M199.62 57.096v-13.86h-13.86z" id="patch_256"/><path clip-path="url(#p19d44b73a1)" d="M185.76 43.236h13.86l-13.86-13.86z" id="patch_257"/></g></g><defs><clipPath id="p19d44b73a1"><path d="M7.2 7.2h357.12v266.112H7.2z"/></clipPath></defs></svg>