<svg xmlns="http://www.w3.org/2000/svg" id="svg781" width="297.111" viewBox="0 0 222.834 222.834" version="1.1" height="297.111"><defs id="defs4"><style id="style2" type="text/css">*{stroke-linecap:butt;stroke-linejoin:round}</style></defs><g transform="translate(-74.343 -28.84)" id="figure_1"><g id="axes_1"><g id="patch_2"><path id="path6" d="M185.76 140.256v-13.86l-13.86 13.86z" clip-path="url(#p117f5c89f6)" fill="#ddd" stroke="#000" stroke-linejoin="miter"/></g><g id="patch_3"><path id="path9" d="M185.76 126.396v-13.86l-19.601 8.119z" clip-path="url(#p117f5c89f6)" fill="#ddd" stroke="#000" stroke-linejoin="miter"/></g><g id="patch_4"><path id="path12" d="M185.76 112.536v-13.86l-18.595 4.39z" clip-path="url(#p117f5c89f6)" fill="#ddd" stroke="#000" stroke-linejoin="miter"/></g><g id="patch_5"><path id="path15" d="M185.76 98.676v-13.86l-17.532 2.845z" clip-path="url(#p117f5c89f6)" fill="#ddd" stroke="#000" stroke-linejoin="miter"/></g><g id="patch_6"><path id="path18" d="M185.76 84.816v-13.86l-16.808 2.07z" clip-path="url(#p117f5c89f6)" fill="#ddd" stroke="#000" stroke-linejoin="miter"/></g><g id="patch_7"><path id="path21" d="M185.76 70.956v-13.86l-16.309 1.615z" clip-path="url(#p117f5c89f6)" fill="#ddd" stroke="#000" stroke-linejoin="miter"/></g><g id="patch_8"><path id="path24" d="M185.76 57.096v-13.86l-15.95 1.32z" clip-path="url(#p117f5c89f6)" fill="#ddd" stroke="#000" stroke-linejoin="miter"/></g><g id="patch_9"><path id="path27" d="M185.76 43.236v-13.86l-15.68 1.114z" clip-path="url(#p117f5c89f6)" fill="#ddd" stroke="#000" stroke-linejoin="miter"/></g><g id="patch_10"><path id="path30" d="m185.76 126.396-19.601-5.741 5.741 19.601z" clip-path="url(#p117f5c89f6)" fill="#ddd" stroke="#000" stroke-linejoin="miter"/></g><g id="patch_11"><path id="path33" d="m185.76 112.536-18.595-9.47-1.006 17.589z" clip-path="url(#p117f5c89f6)" fill="#ddd" stroke="#000" stroke-linejoin="miter"/></g><g id="patch_12"><path id="path36" d="m185.76 98.676-17.532-11.015-1.063 15.405z" clip-path="url(#p117f5c89f6)" fill="#ddd" stroke="#000" stroke-linejoin="miter"/></g><g id="patch_13"><path id="path39" d="m185.76 84.816-16.808-11.79-.724 14.635z" clip-path="url(#p117f5c89f6)" fill="#ddd" stroke="#000" stroke-linejoin="miter"/></g><g id="patch_14"><path id="path42" d="m185.76 70.956-16.309-12.245-.499 14.314z" clip-path="url(#p117f5c89f6)" fill="#ddd" stroke="#000" stroke-linejoin="miter"/></g><g id="patch_15"><path id="path45" d="m185.76 57.096-15.95-12.54-.359 14.155z" clip-path="url(#p117f5c89f6)" fill="#ddd" stroke="#000" stroke-linejoin="miter"/></g><g id="patch_16"><path id="path48" d="M185.76 43.236 170.08 30.49l-.27 14.066z" clip-path="url(#p117f5c89f6)" fill="#ddd" stroke="#000" stroke-linejoin="miter"/></g><g id="patch_17"><path id="path51" d="m171.9 140.256-5.741-19.601-8.119 19.601z" clip-path="url(#p117f5c89f6)" fill="#ddd" stroke="#000" stroke-linejoin="miter"/></g><g id="patch_18"><path id="path54" d="m166.159 120.655 1.006-17.59-18.595 18.596z" clip-path="url(#p117f5c89f6)" fill="#ddd" stroke="#000" stroke-linejoin="miter"/></g><g id="patch_19"><path id="path57" d="m167.165 103.066 1.063-15.405-21.67 13.393z" clip-path="url(#p117f5c89f6)" fill="#ddd" stroke="#000" stroke-linejoin="miter"/></g><g id="patch_20"><path id="path60" d="m168.228 87.661.724-14.636-21.633 9.57z" clip-path="url(#p117f5c89f6)" fill="#ddd" stroke="#000" stroke-linejoin="miter"/></g><g id="patch_21"><path id="path63" d="m168.952 73.025.499-14.314-20.881 7.164z" clip-path="url(#p117f5c89f6)" fill="#ddd" stroke="#000" stroke-linejoin="miter"/></g><g id="patch_22"><path id="path66" d="m169.451 58.71.359-14.154-20.082 5.62z" clip-path="url(#p117f5c89f6)" fill="#ddd" stroke="#000" stroke-linejoin="miter"/></g><g id="patch_23"><path id="path69" d="m169.81 44.556.27-14.066-19.383 4.576z" clip-path="url(#p117f5c89f6)" fill="#ddd" stroke="#000" stroke-linejoin="miter"/></g><g id="patch_24"><path id="path72" d="m166.159 120.655-17.59 1.006 9.471 18.595z" clip-path="url(#p117f5c89f6)" fill="#ddd" stroke="#000" stroke-linejoin="miter"/></g><g id="patch_25"><path id="path75" d="m167.165 103.066-20.607-2.012 2.012 20.607z" clip-path="url(#p117f5c89f6)" fill="#ddd" stroke="#000" stroke-linejoin="miter"/></g><g id="patch_26"><path id="path78" d="m168.228 87.661-20.909-5.066-.761 18.459z" clip-path="url(#p117f5c89f6)" fill="#ddd" stroke="#000" stroke-linejoin="miter"/></g><g id="patch_27"><path id="path81" d="m168.952 73.025-20.382-7.15-1.25 16.72z" clip-path="url(#p117f5c89f6)" fill="#ddd" stroke="#000" stroke-linejoin="miter"/></g><g id="patch_28"><path id="path84" d="m169.451 58.71-19.723-8.535-1.158 15.7z" clip-path="url(#p117f5c89f6)" fill="#ddd" stroke="#000" stroke-linejoin="miter"/></g><g id="patch_29"><path id="path87" d="m169.81 44.556-19.113-9.49-.97 15.11z" clip-path="url(#p117f5c89f6)" fill="#ddd" stroke="#000" stroke-linejoin="miter"/></g><g id="patch_30"><path id="path90" d="m158.04 140.256-9.47-18.595-4.39 18.595z" clip-path="url(#p117f5c89f6)" fill="#ddd" stroke="#000" stroke-linejoin="miter"/></g><g id="patch_31"><path id="path93" d="m148.57 121.66-2.012-20.606-13.393 21.67z" clip-path="url(#p117f5c89f6)" fill="#ddd" stroke="#000" stroke-linejoin="miter"/></g><g id="patch_32"><path id="path96" d="m146.558 101.054.761-18.46-19.22 19.221z" clip-path="url(#p117f5c89f6)" fill="#ddd" stroke="#000" stroke-linejoin="miter"/></g><g id="patch_33"><path id="path99" d="m147.32 82.595 1.25-16.72-21.613 15.578z" clip-path="url(#p117f5c89f6)" fill="#ddd" stroke="#000" stroke-linejoin="miter"/></g><g id="patch_34"><path id="path102" d="m148.57 65.875 1.158-15.7-22.18 12.465z" clip-path="url(#p117f5c89f6)" fill="#ddd" stroke="#000" stroke-linejoin="miter"/></g><g id="patch_35"><path id="path105" d="m149.728 50.175.969-15.109-21.984 10.111z" clip-path="url(#p117f5c89f6)" fill="#ddd" stroke="#000" stroke-linejoin="miter"/></g><g id="patch_36"><path id="path108" d="m148.57 121.66-15.405 1.064 11.015 17.532z" clip-path="url(#p117f5c89f6)" fill="#ddd" stroke="#000" stroke-linejoin="miter"/></g><g id="patch_37"><path id="path111" d="m146.558 101.054-18.46.761 5.067 20.91z" clip-path="url(#p117f5c89f6)" fill="#ddd" stroke="#000" stroke-linejoin="miter"/></g><g id="patch_38"><path id="path114" d="m147.32 82.595-20.363-1.142 1.142 20.362z" clip-path="url(#p117f5c89f6)" fill="#ddd" stroke="#000" stroke-linejoin="miter"/></g><g id="patch_39"><path id="path117" d="m148.57 65.875-21.022-3.235-.591 18.813z" clip-path="url(#p117f5c89f6)" fill="#ddd" stroke="#000" stroke-linejoin="miter"/></g><g id="patch_40"><path id="path120" d="m149.728 50.175-21.015-4.998-1.165 17.463z" clip-path="url(#p117f5c89f6)" fill="#ddd" stroke="#000" stroke-linejoin="miter"/></g><g id="patch_41"><path id="path123" d="m144.18 140.256-11.015-17.532-2.845 17.532z" clip-path="url(#p117f5c89f6)" fill="#ddd" stroke="#000" stroke-linejoin="miter"/></g><g id="patch_42"><path id="path126" d="m133.165 122.724-5.066-20.909-9.57 21.633z" clip-path="url(#p117f5c89f6)" fill="#ddd" stroke="#000" stroke-linejoin="miter"/></g><g id="patch_43"><path id="path129" d="m128.099 101.815-1.142-20.362-15.578 21.613z" clip-path="url(#p117f5c89f6)" fill="#ddd" stroke="#000" stroke-linejoin="miter"/></g><g id="patch_44"><path id="path132" d="m126.957 81.453.591-18.813-19.404 19.404z" clip-path="url(#p117f5c89f6)" fill="#ddd" stroke="#000" stroke-linejoin="miter"/></g><g id="patch_45"><path id="path135" d="m127.548 62.64 1.165-17.463-21.357 16.675z" clip-path="url(#p117f5c89f6)" fill="#ddd" stroke="#000" stroke-linejoin="miter"/></g><g id="patch_46"><path id="path138" d="m133.165 122.724-14.636.724 11.791 16.808z" clip-path="url(#p117f5c89f6)" fill="#ddd" stroke="#000" stroke-linejoin="miter"/></g><g id="patch_47"><path id="path141" d="m128.099 101.815-16.72 1.25 7.15 20.383z" clip-path="url(#p117f5c89f6)" fill="#ddd" stroke="#000" stroke-linejoin="miter"/></g><g id="patch_48"><path id="path144" d="m126.957 81.453-18.813.591 3.235 21.022z" clip-path="url(#p117f5c89f6)" fill="#ddd" stroke="#000" stroke-linejoin="miter"/></g><g id="patch_49"><path id="path147" d="m127.548 62.64-20.192-.788.788 20.192z" clip-path="url(#p117f5c89f6)" fill="#ddd" stroke="#000" stroke-linejoin="miter"/></g><g id="patch_50"><path id="path150" d="m130.32 140.256-11.79-16.808-2.07 16.808z" clip-path="url(#p117f5c89f6)" fill="#ddd" stroke="#000" stroke-linejoin="miter"/></g><g id="patch_51"><path id="path153" d="m118.53 123.448-7.15-20.382-7.165 20.881z" clip-path="url(#p117f5c89f6)" fill="#ddd" stroke="#000" stroke-linejoin="miter"/></g><g id="patch_52"><path id="path156" d="m111.38 103.066-3.236-21.022-12.465 22.18z" clip-path="url(#p117f5c89f6)" fill="#ddd" stroke="#000" stroke-linejoin="miter"/></g><g id="patch_53"><path id="path159" d="m108.144 82.044-.788-20.192-16.675 21.357z" clip-path="url(#p117f5c89f6)" fill="#ddd" stroke="#000" stroke-linejoin="miter"/></g><g id="patch_54"><path id="path162" d="m118.53 123.448-14.315.499 12.245 16.309z" clip-path="url(#p117f5c89f6)" fill="#ddd" stroke="#000" stroke-linejoin="miter"/></g><g id="patch_55"><path id="path165" d="m111.38 103.066-15.7 1.158 8.535 19.723z" clip-path="url(#p117f5c89f6)" fill="#ddd" stroke="#000" stroke-linejoin="miter"/></g><g id="patch_56"><path id="path168" d="m108.144 82.044-17.463 1.165 4.998 21.015z" clip-path="url(#p117f5c89f6)" fill="#ddd" stroke="#000" stroke-linejoin="miter"/></g><g id="patch_57"><path id="path171" d="m116.46 140.256-12.245-16.309-1.615 16.309z" clip-path="url(#p117f5c89f6)" fill="#ddd" stroke="#000" stroke-linejoin="miter"/></g><g id="patch_58"><path id="path174" d="m104.215 123.947-8.536-19.723-5.619 20.082z" clip-path="url(#p117f5c89f6)" fill="#ddd" stroke="#000" stroke-linejoin="miter"/></g><g id="patch_59"><path id="path177" d="m95.68 104.224-5-21.015-10.11 21.984z" clip-path="url(#p117f5c89f6)" fill="#ddd" stroke="#000" stroke-linejoin="miter"/></g><g id="patch_60"><path id="path180" d="m104.215 123.947-14.155.359 12.54 15.95z" clip-path="url(#p117f5c89f6)" fill="#ddd" stroke="#000" stroke-linejoin="miter"/></g><g id="patch_61"><path id="path183" d="m95.68 104.224-15.11.969 9.49 19.113z" clip-path="url(#p117f5c89f6)" fill="#ddd" stroke="#000" stroke-linejoin="miter"/></g><g id="patch_62"><path id="path186" d="m102.6 140.256-12.54-15.95-1.32 15.95z" clip-path="url(#p117f5c89f6)" fill="#ddd" stroke="#000" stroke-linejoin="miter"/></g><g id="patch_63"><path id="path189" d="m90.06 124.306-9.49-19.113-4.576 19.382z" clip-path="url(#p117f5c89f6)" fill="#ddd" stroke="#000" stroke-linejoin="miter"/></g><g id="patch_64"><path id="path192" d="m90.06 124.306-14.066.27 12.746 15.68z" clip-path="url(#p117f5c89f6)" fill="#ddd" stroke="#000" stroke-linejoin="miter"/></g><g id="patch_65"><path id="path195" d="m88.74 140.256-12.746-15.68-1.114 15.68z" clip-path="url(#p117f5c89f6)" fill="#ddd" stroke="#000" stroke-linejoin="miter"/></g><g id="patch_66"><path id="path198" d="M185.76 140.256H171.9l13.86 13.86z" clip-path="url(#p117f5c89f6)" fill="#ddd" stroke="#000" stroke-linejoin="miter"/></g><g id="patch_67"><path id="path201" d="M171.9 140.256h-13.86l8.119 19.601z" clip-path="url(#p117f5c89f6)" fill="#ddd" stroke="#000" stroke-linejoin="miter"/></g><g id="patch_68"><path id="path204" d="M158.04 140.256h-13.86l4.39 18.595z" clip-path="url(#p117f5c89f6)" fill="#ddd" stroke="#000" stroke-linejoin="miter"/></g><g id="patch_69"><path id="path207" d="M144.18 140.256h-13.86l2.845 17.532z" clip-path="url(#p117f5c89f6)" fill="#ddd" stroke="#000" stroke-linejoin="miter"/></g><g id="patch_70"><path id="path210" d="M130.32 140.256h-13.86l2.07 16.808z" clip-path="url(#p117f5c89f6)" fill="#ddd" stroke="#000" stroke-linejoin="miter"/></g><g id="patch_71"><path id="path213" d="M116.46 140.256H102.6l1.615 16.309z" clip-path="url(#p117f5c89f6)" fill="#ddd" stroke="#000" stroke-linejoin="miter"/></g><g id="patch_72"><path id="path216" d="M102.6 140.256H88.74l1.32 15.95z" clip-path="url(#p117f5c89f6)" fill="#ddd" stroke="#000" stroke-linejoin="miter"/></g><g id="patch_73"><path id="path219" d="M88.74 140.256H74.88l1.114 15.68z" clip-path="url(#p117f5c89f6)" fill="#ddd" stroke="#000" stroke-linejoin="miter"/></g><g id="patch_74"><path id="path222" d="m171.9 140.256-5.741 19.601 19.601-5.741z" clip-path="url(#p117f5c89f6)" fill="#ddd" stroke="#000" stroke-linejoin="miter"/></g><g id="patch_75"><path id="path225" d="m158.04 140.256-9.47 18.595 17.589 1.006z" clip-path="url(#p117f5c89f6)" fill="#ddd" stroke="#000" stroke-linejoin="miter"/></g><g id="patch_76"><path id="path228" d="m144.18 140.256-11.015 17.532 15.405 1.063z" clip-path="url(#p117f5c89f6)" fill="#ddd" stroke="#000" stroke-linejoin="miter"/></g><g id="patch_77"><path id="path231" d="m130.32 140.256-11.79 16.808 14.635.724z" clip-path="url(#p117f5c89f6)" fill="#ddd" stroke="#000" stroke-linejoin="miter"/></g><g id="patch_78"><path id="path234" d="m116.46 140.256-12.245 16.309 14.314.499z" clip-path="url(#p117f5c89f6)" fill="#ddd" stroke="#000" stroke-linejoin="miter"/></g><g id="patch_79"><path id="path237" d="m102.6 140.256-12.54 15.95 14.155.359z" clip-path="url(#p117f5c89f6)" fill="#ddd" stroke="#000" stroke-linejoin="miter"/></g><g id="patch_80"><path id="path240" d="m88.74 140.256-12.746 15.68 14.066.27z" clip-path="url(#p117f5c89f6)" fill="#ddd" stroke="#000" stroke-linejoin="miter"/></g><g id="patch_81"><path id="path243" d="m185.76 154.116-19.601 5.741 19.601 8.119z" clip-path="url(#p117f5c89f6)" fill="#ddd" stroke="#000" stroke-linejoin="miter"/></g><g id="patch_82"><path id="path246" d="m166.159 159.857-17.59-1.006 18.596 18.595z" clip-path="url(#p117f5c89f6)" fill="#ddd" stroke="#000" stroke-linejoin="miter"/></g><g id="patch_83"><path id="path249" d="m148.57 158.851-15.405-1.063 13.393 21.67z" clip-path="url(#p117f5c89f6)" fill="#ddd" stroke="#000" stroke-linejoin="miter"/></g><g id="patch_84"><path id="path252" d="m133.165 157.788-14.636-.724 9.57 21.633z" clip-path="url(#p117f5c89f6)" fill="#ddd" stroke="#000" stroke-linejoin="miter"/></g><g id="patch_85"><path id="path255" d="m118.53 157.064-14.315-.499 7.164 20.881z" clip-path="url(#p117f5c89f6)" fill="#ddd" stroke="#000" stroke-linejoin="miter"/></g><g id="patch_86"><path id="path258" d="m104.215 156.565-14.155-.359 5.62 20.082z" clip-path="url(#p117f5c89f6)" fill="#ddd" stroke="#000" stroke-linejoin="miter"/></g><g id="patch_87"><path id="path261" d="m90.06 156.206-14.066-.27 4.576 19.383z" clip-path="url(#p117f5c89f6)" fill="#ddd" stroke="#000" stroke-linejoin="miter"/></g><g id="patch_88"><path id="path264" d="m166.159 159.857 1.006 17.59 18.595-9.471z" clip-path="url(#p117f5c89f6)" fill="#ddd" stroke="#000" stroke-linejoin="miter"/></g><g id="patch_89"><path id="path267" d="m148.57 158.851-2.012 20.607 20.607-2.012z" clip-path="url(#p117f5c89f6)" fill="#ddd" stroke="#000" stroke-linejoin="miter"/></g><g id="patch_90"><path id="path270" d="m133.165 157.788-5.066 20.909 18.459.761z" clip-path="url(#p117f5c89f6)" fill="#ddd" stroke="#000" stroke-linejoin="miter"/></g><g id="patch_91"><path id="path273" d="m118.53 157.064-7.15 20.382 16.719 1.25z" clip-path="url(#p117f5c89f6)" fill="#ddd" stroke="#000" stroke-linejoin="miter"/></g><g id="patch_92"><path id="path276" d="m104.215 156.565-8.536 19.723 15.7 1.158z" clip-path="url(#p117f5c89f6)" fill="#ddd" stroke="#000" stroke-linejoin="miter"/></g><g id="patch_93"><path id="path279" d="m90.06 156.206-9.49 19.113 15.11.97z" clip-path="url(#p117f5c89f6)" fill="#ddd" stroke="#000" stroke-linejoin="miter"/></g><g id="patch_94"><path id="path282" d="m185.76 167.976-18.595 9.47 18.595 4.39z" clip-path="url(#p117f5c89f6)" fill="#ddd" stroke="#000" stroke-linejoin="miter"/></g><g id="patch_95"><path id="path285" d="m167.165 177.446-20.607 2.012 21.67 13.393z" clip-path="url(#p117f5c89f6)" fill="#ddd" stroke="#000" stroke-linejoin="miter"/></g><g id="patch_96"><path id="path288" d="m146.558 179.458-18.46-.761 19.221 19.22z" clip-path="url(#p117f5c89f6)" fill="#ddd" stroke="#000" stroke-linejoin="miter"/></g><g id="patch_97"><path id="path291" d="m128.099 178.697-16.72-1.25 15.578 21.612z" clip-path="url(#p117f5c89f6)" fill="#ddd" stroke="#000" stroke-linejoin="miter"/></g><g id="patch_98"><path id="path294" d="m111.38 177.446-15.7-1.158 12.464 22.18z" clip-path="url(#p117f5c89f6)" fill="#ddd" stroke="#000" stroke-linejoin="miter"/></g><g id="patch_99"><path id="path297" d="m95.68 176.288-15.11-.969 10.111 21.984z" clip-path="url(#p117f5c89f6)" fill="#ddd" stroke="#000" stroke-linejoin="miter"/></g><g id="patch_100"><path id="path300" d="m167.165 177.446 1.063 15.405 17.532-11.015z" clip-path="url(#p117f5c89f6)" fill="#ddd" stroke="#000" stroke-linejoin="miter"/></g><g id="patch_101"><path id="path303" d="m146.558 179.458.761 18.46 20.91-5.067z" clip-path="url(#p117f5c89f6)" fill="#ddd" stroke="#000" stroke-linejoin="miter"/></g><g id="patch_102"><path id="path306" d="m128.099 178.697-1.142 20.362 20.362-1.142z" clip-path="url(#p117f5c89f6)" fill="#ddd" stroke="#000" stroke-linejoin="miter"/></g><g id="patch_103"><path id="path309" d="m111.38 177.446-3.236 21.022 18.813.591z" clip-path="url(#p117f5c89f6)" fill="#ddd" stroke="#000" stroke-linejoin="miter"/></g><g id="patch_104"><path id="path312" d="m95.68 176.288-4.999 21.015 17.463 1.165z" clip-path="url(#p117f5c89f6)" fill="#ddd" stroke="#000" stroke-linejoin="miter"/></g><g id="patch_105"><path id="path315" d="m185.76 181.836-17.532 11.015 17.532 2.845z" clip-path="url(#p117f5c89f6)" fill="#ddd" stroke="#000" stroke-linejoin="miter"/></g><g id="patch_106"><path id="path318" d="m168.228 192.851-20.909 5.066 21.633 9.57z" clip-path="url(#p117f5c89f6)" fill="#ddd" stroke="#000" stroke-linejoin="miter"/></g><g id="patch_107"><path id="path321" d="m147.32 197.917-20.363 1.142 21.613 15.578z" clip-path="url(#p117f5c89f6)" fill="#ddd" stroke="#000" stroke-linejoin="miter"/></g><g id="patch_108"><path id="path324" d="m126.957 199.059-18.813-.591 19.404 19.404z" clip-path="url(#p117f5c89f6)" fill="#ddd" stroke="#000" stroke-linejoin="miter"/></g><g id="patch_109"><path id="path327" d="m108.144 198.468-17.463-1.165 16.675 21.357z" clip-path="url(#p117f5c89f6)" fill="#ddd" stroke="#000" stroke-linejoin="miter"/></g><g id="patch_110"><path id="path330" d="m168.228 192.851.724 14.636 16.808-11.791z" clip-path="url(#p117f5c89f6)" fill="#ddd" stroke="#000" stroke-linejoin="miter"/></g><g id="patch_111"><path id="path333" d="m147.32 197.917 1.25 16.72 20.382-7.15z" clip-path="url(#p117f5c89f6)" fill="#ddd" stroke="#000" stroke-linejoin="miter"/></g><g id="patch_112"><path id="path336" d="m126.957 199.059.591 18.813 21.022-3.235z" clip-path="url(#p117f5c89f6)" fill="#ddd" stroke="#000" stroke-linejoin="miter"/></g><g id="patch_113"><path id="path339" d="m108.144 198.468-.788 20.192 20.192-.788z" clip-path="url(#p117f5c89f6)" fill="#ddd" stroke="#000" stroke-linejoin="miter"/></g><g id="patch_114"><path id="path342" d="m185.76 195.696-16.808 11.79 16.808 2.07z" clip-path="url(#p117f5c89f6)" fill="#ddd" stroke="#000" stroke-linejoin="miter"/></g><g id="patch_115"><path id="path345" d="m168.952 207.487-20.382 7.15 20.881 7.164z" clip-path="url(#p117f5c89f6)" fill="#ddd" stroke="#000" stroke-linejoin="miter"/></g><g id="patch_116"><path id="path348" d="m148.57 214.637-21.022 3.235 22.18 12.465z" clip-path="url(#p117f5c89f6)" fill="#ddd" stroke="#000" stroke-linejoin="miter"/></g><g id="patch_117"><path id="path351" d="m127.548 217.872-20.192.788 21.357 16.675z" clip-path="url(#p117f5c89f6)" fill="#ddd" stroke="#000" stroke-linejoin="miter"/></g><g id="patch_118"><path id="path354" d="m168.952 207.487.499 14.314 16.309-12.245z" clip-path="url(#p117f5c89f6)" fill="#ddd" stroke="#000" stroke-linejoin="miter"/></g><g id="patch_119"><path id="path357" d="m148.57 214.637 1.158 15.7 19.723-8.536z" clip-path="url(#p117f5c89f6)" fill="#ddd" stroke="#000" stroke-linejoin="miter"/></g><g id="patch_120"><path id="path360" d="m127.548 217.872 1.165 17.463 21.015-4.998z" clip-path="url(#p117f5c89f6)" fill="#ddd" stroke="#000" stroke-linejoin="miter"/></g><g id="patch_121"><path id="path363" d="m185.76 209.556-16.309 12.245 16.309 1.615z" clip-path="url(#p117f5c89f6)" fill="#ddd" stroke="#000" stroke-linejoin="miter"/></g><g id="patch_122"><path id="path366" d="m169.451 221.801-19.723 8.536 20.082 5.619z" clip-path="url(#p117f5c89f6)" fill="#ddd" stroke="#000" stroke-linejoin="miter"/></g><g id="patch_123"><path id="path369" d="m149.728 230.337-21.015 4.998 21.984 10.111z" clip-path="url(#p117f5c89f6)" fill="#ddd" stroke="#000" stroke-linejoin="miter"/></g><g id="patch_124"><path id="path372" d="m169.451 221.801.359 14.155 15.95-12.54z" clip-path="url(#p117f5c89f6)" fill="#ddd" stroke="#000" stroke-linejoin="miter"/></g><g id="patch_125"><path id="path375" d="m149.728 230.337.969 15.109 19.113-9.49z" clip-path="url(#p117f5c89f6)" fill="#ddd" stroke="#000" stroke-linejoin="miter"/></g><g id="patch_126"><path id="path378" d="m185.76 223.416-15.95 12.54 15.95 1.32z" clip-path="url(#p117f5c89f6)" fill="#ddd" stroke="#000" stroke-linejoin="miter"/></g><g id="patch_127"><path id="path381" d="m169.81 235.956-19.113 9.49 19.382 4.576z" clip-path="url(#p117f5c89f6)" fill="#ddd" stroke="#000" stroke-linejoin="miter"/></g><g id="patch_128"><path id="path384" d="m169.81 235.956.27 14.066 15.68-12.746z" clip-path="url(#p117f5c89f6)" fill="#ddd" stroke="#000" stroke-linejoin="miter"/></g><g id="patch_129"><path id="path387" d="m185.76 237.276-15.68 12.746 15.68 1.114z" clip-path="url(#p117f5c89f6)" fill="#ddd" stroke="#000" stroke-linejoin="miter"/></g><g id="patch_130"><path id="path390" d="M185.76 140.256v13.86l13.86-13.86z" clip-path="url(#p117f5c89f6)" fill="#ddd" stroke="#000" stroke-linejoin="miter"/></g><g id="patch_131"><path id="path393" d="M185.76 154.116v13.86l19.601-8.119z" clip-path="url(#p117f5c89f6)" fill="#ddd" stroke="#000" stroke-linejoin="miter"/></g><g id="patch_132"><path id="path396" d="M185.76 167.976v13.86l18.595-4.39z" clip-path="url(#p117f5c89f6)" fill="#ddd" stroke="#000" stroke-linejoin="miter"/></g><g id="patch_133"><path id="path399" d="M185.76 181.836v13.86l17.532-2.845z" clip-path="url(#p117f5c89f6)" fill="#ddd" stroke="#000" stroke-linejoin="miter"/></g><g id="patch_134"><path id="path402" d="M185.76 195.696v13.86l16.808-2.07z" clip-path="url(#p117f5c89f6)" fill="#ddd" stroke="#000" stroke-linejoin="miter"/></g><g id="patch_135"><path id="path405" d="M185.76 209.556v13.86l16.309-1.615z" clip-path="url(#p117f5c89f6)" fill="#ddd" stroke="#000" stroke-linejoin="miter"/></g><g id="patch_136"><path id="path408" d="M185.76 223.416v13.86l15.95-1.32z" clip-path="url(#p117f5c89f6)" fill="#ddd" stroke="#000" stroke-linejoin="miter"/></g><g id="patch_137"><path id="path411" d="M185.76 237.276v13.86l15.68-1.114z" clip-path="url(#p117f5c89f6)" fill="#ddd" stroke="#000" stroke-linejoin="miter"/></g><g id="patch_138"><path id="path414" d="m185.76 154.116 19.601 5.741-5.741-19.601z" clip-path="url(#p117f5c89f6)" fill="#ddd" stroke="#000" stroke-linejoin="miter"/></g><g id="patch_139"><path id="path417" d="m185.76 167.976 18.595 9.47 1.006-17.589z" clip-path="url(#p117f5c89f6)" fill="#ddd" stroke="#000" stroke-linejoin="miter"/></g><g id="patch_140"><path id="path420" d="m185.76 181.836 17.532 11.015 1.063-15.405z" clip-path="url(#p117f5c89f6)" fill="#ddd" stroke="#000" stroke-linejoin="miter"/></g><g id="patch_141"><path id="path423" d="m185.76 195.696 16.808 11.79.724-14.635z" clip-path="url(#p117f5c89f6)" fill="#ddd" stroke="#000" stroke-linejoin="miter"/></g><g id="patch_142"><path id="path426" d="m185.76 209.556 16.309 12.245.499-14.314z" clip-path="url(#p117f5c89f6)" fill="#ddd" stroke="#000" stroke-linejoin="miter"/></g><g id="patch_143"><path id="path429" d="m185.76 223.416 15.95 12.54.359-14.155z" clip-path="url(#p117f5c89f6)" fill="#ddd" stroke="#000" stroke-linejoin="miter"/></g><g id="patch_144"><path id="path432" d="m185.76 237.276 15.68 12.746.27-14.066z" clip-path="url(#p117f5c89f6)" fill="#ddd" stroke="#000" stroke-linejoin="miter"/></g><g id="patch_145"><path id="path435" d="m199.62 140.256 5.741 19.601 8.119-19.601z" clip-path="url(#p117f5c89f6)" fill="#ddd" stroke="#000" stroke-linejoin="miter"/></g><g id="patch_146"><path id="path438" d="m205.361 159.857-1.006 17.59 18.595-18.596z" clip-path="url(#p117f5c89f6)" fill="#ddd" stroke="#000" stroke-linejoin="miter"/></g><g id="patch_147"><path id="path441" d="m204.355 177.446-1.063 15.405 21.67-13.393z" clip-path="url(#p117f5c89f6)" fill="#ddd" stroke="#000" stroke-linejoin="miter"/></g><g id="patch_148"><path id="path444" d="m203.292 192.851-.724 14.636 21.633-9.57z" clip-path="url(#p117f5c89f6)" fill="#ddd" stroke="#000" stroke-linejoin="miter"/></g><g id="patch_149"><path id="path447" d="m202.568 207.487-.499 14.314 20.881-7.164z" clip-path="url(#p117f5c89f6)" fill="#ddd" stroke="#000" stroke-linejoin="miter"/></g><g id="patch_150"><path id="path450" d="m202.069 221.801-.359 14.155 20.082-5.62z" clip-path="url(#p117f5c89f6)" fill="#ddd" stroke="#000" stroke-linejoin="miter"/></g><g id="patch_151"><path id="path453" d="m201.71 235.956-.27 14.066 19.383-4.576z" clip-path="url(#p117f5c89f6)" fill="#ddd" stroke="#000" stroke-linejoin="miter"/></g><g id="patch_152"><path id="path456" d="m205.361 159.857 17.59-1.006-9.471-18.595z" clip-path="url(#p117f5c89f6)" fill="#ddd" stroke="#000" stroke-linejoin="miter"/></g><g id="patch_153"><path id="path459" d="m204.355 177.446 20.607 2.012-2.012-20.607z" clip-path="url(#p117f5c89f6)" fill="#ddd" stroke="#000" stroke-linejoin="miter"/></g><g id="patch_154"><path id="path462" d="m203.292 192.851 20.909 5.066.761-18.459z" clip-path="url(#p117f5c89f6)" fill="#ddd" stroke="#000" stroke-linejoin="miter"/></g><g id="patch_155"><path id="path465" d="m202.568 207.487 20.382 7.15 1.25-16.72z" clip-path="url(#p117f5c89f6)" fill="#ddd" stroke="#000" stroke-linejoin="miter"/></g><g id="patch_156"><path id="path468" d="m202.069 221.801 19.723 8.536 1.158-15.7z" clip-path="url(#p117f5c89f6)" fill="#ddd" stroke="#000" stroke-linejoin="miter"/></g><g id="patch_157"><path id="path471" d="m201.71 235.956 19.113 9.49.97-15.11z" clip-path="url(#p117f5c89f6)" fill="#ddd" stroke="#000" stroke-linejoin="miter"/></g><g id="patch_158"><path id="path474" d="m213.48 140.256 9.47 18.595 4.39-18.595z" clip-path="url(#p117f5c89f6)" fill="#ddd" stroke="#000" stroke-linejoin="miter"/></g><g id="patch_159"><path id="path477" d="m222.95 158.851 2.012 20.607 13.393-21.67z" clip-path="url(#p117f5c89f6)" fill="#ddd" stroke="#000" stroke-linejoin="miter"/></g><g id="patch_160"><path id="path480" d="m224.962 179.458-.761 18.46 19.22-19.221z" clip-path="url(#p117f5c89f6)" fill="#ddd" stroke="#000" stroke-linejoin="miter"/></g><g id="patch_161"><path id="path483" d="m224.2 197.917-1.25 16.72 21.613-15.578z" clip-path="url(#p117f5c89f6)" fill="#ddd" stroke="#000" stroke-linejoin="miter"/></g><g id="patch_162"><path id="path486" d="m222.95 214.637-1.158 15.7 22.18-12.465z" clip-path="url(#p117f5c89f6)" fill="#ddd" stroke="#000" stroke-linejoin="miter"/></g><g id="patch_163"><path id="path489" d="m221.792 230.337-.969 15.109 21.984-10.111z" clip-path="url(#p117f5c89f6)" fill="#ddd" stroke="#000" stroke-linejoin="miter"/></g><g id="patch_164"><path id="path492" d="m222.95 158.851 15.405-1.063-11.015-17.532z" clip-path="url(#p117f5c89f6)" fill="#ddd" stroke="#000" stroke-linejoin="miter"/></g><g id="patch_165"><path id="path495" d="m224.962 179.458 18.46-.761-5.067-20.91z" clip-path="url(#p117f5c89f6)" fill="#ddd" stroke="#000" stroke-linejoin="miter"/></g><g id="patch_166"><path id="path498" d="m224.2 197.917 20.363 1.142-1.142-20.362z" clip-path="url(#p117f5c89f6)" fill="#ddd" stroke="#000" stroke-linejoin="miter"/></g><g id="patch_167"><path id="path501" d="m222.95 214.637 21.022 3.235.591-18.813z" clip-path="url(#p117f5c89f6)" fill="#ddd" stroke="#000" stroke-linejoin="miter"/></g><g id="patch_168"><path id="path504" d="m221.792 230.337 21.015 4.998 1.165-17.463z" clip-path="url(#p117f5c89f6)" fill="#ddd" stroke="#000" stroke-linejoin="miter"/></g><g id="patch_169"><path id="path507" d="m227.34 140.256 11.015 17.532 2.845-17.532z" clip-path="url(#p117f5c89f6)" fill="#ddd" stroke="#000" stroke-linejoin="miter"/></g><g id="patch_170"><path id="path510" d="m238.355 157.788 5.066 20.909 9.57-21.633z" clip-path="url(#p117f5c89f6)" fill="#ddd" stroke="#000" stroke-linejoin="miter"/></g><g id="patch_171"><path id="path513" d="m243.421 178.697 1.142 20.362 15.578-21.613z" clip-path="url(#p117f5c89f6)" fill="#ddd" stroke="#000" stroke-linejoin="miter"/></g><g id="patch_172"><path id="path516" d="m244.563 199.059-.591 18.813 19.404-19.404z" clip-path="url(#p117f5c89f6)" fill="#ddd" stroke="#000" stroke-linejoin="miter"/></g><g id="patch_173"><path id="path519" d="m243.972 217.872-1.165 17.463 21.357-16.675z" clip-path="url(#p117f5c89f6)" fill="#ddd" stroke="#000" stroke-linejoin="miter"/></g><g id="patch_174"><path id="path522" d="m238.355 157.788 14.636-.724-11.791-16.808z" clip-path="url(#p117f5c89f6)" fill="#ddd" stroke="#000" stroke-linejoin="miter"/></g><g id="patch_175"><path id="path525" d="m243.421 178.697 16.72-1.25-7.15-20.383z" clip-path="url(#p117f5c89f6)" fill="#ddd" stroke="#000" stroke-linejoin="miter"/></g><g id="patch_176"><path id="path528" d="m244.563 199.059 18.813-.591-3.235-21.022z" clip-path="url(#p117f5c89f6)" fill="#ddd" stroke="#000" stroke-linejoin="miter"/></g><g id="patch_177"><path id="path531" d="m243.972 217.872 20.192.788-.788-20.192z" clip-path="url(#p117f5c89f6)" fill="#ddd" stroke="#000" stroke-linejoin="miter"/></g><g id="patch_178"><path id="path534" d="m241.2 140.256 11.79 16.808 2.07-16.808z" clip-path="url(#p117f5c89f6)" fill="#ddd" stroke="#000" stroke-linejoin="miter"/></g><g id="patch_179"><path id="path537" d="m252.99 157.064 7.15 20.382 7.165-20.881z" clip-path="url(#p117f5c89f6)" fill="#ddd" stroke="#000" stroke-linejoin="miter"/></g><g id="patch_180"><path id="path540" d="m260.14 177.446 3.236 21.022 12.465-22.18z" clip-path="url(#p117f5c89f6)" fill="#ddd" stroke="#000" stroke-linejoin="miter"/></g><g id="patch_181"><path id="path543" d="m263.376 198.468.788 20.192 16.675-21.357z" clip-path="url(#p117f5c89f6)" fill="#ddd" stroke="#000" stroke-linejoin="miter"/></g><g id="patch_182"><path id="path546" d="m252.99 157.064 14.315-.499-12.245-16.309z" clip-path="url(#p117f5c89f6)" fill="#ddd" stroke="#000" stroke-linejoin="miter"/></g><g id="patch_183"><path id="path549" d="m260.14 177.446 15.7-1.158-8.535-19.723z" clip-path="url(#p117f5c89f6)" fill="#ddd" stroke="#000" stroke-linejoin="miter"/></g><g id="patch_184"><path id="path552" d="m263.376 198.468 17.463-1.165-4.998-21.015z" clip-path="url(#p117f5c89f6)" fill="#ddd" stroke="#000" stroke-linejoin="miter"/></g><g id="patch_185"><path id="path555" d="m255.06 140.256 12.245 16.309 1.615-16.309z" clip-path="url(#p117f5c89f6)" fill="#ddd" stroke="#000" stroke-linejoin="miter"/></g><g id="patch_186"><path id="path558" d="m267.305 156.565 8.536 19.723 5.619-20.082z" clip-path="url(#p117f5c89f6)" fill="#ddd" stroke="#000" stroke-linejoin="miter"/></g><g id="patch_187"><path id="path561" d="m275.84 176.288 4.999 21.015 10.111-21.984z" clip-path="url(#p117f5c89f6)" fill="#ddd" stroke="#000" stroke-linejoin="miter"/></g><g id="patch_188"><path id="path564" d="m267.305 156.565 14.155-.359-12.54-15.95z" clip-path="url(#p117f5c89f6)" fill="#ddd" stroke="#000" stroke-linejoin="miter"/></g><g id="patch_189"><path id="path567" d="m275.84 176.288 15.11-.969-9.49-19.113z" clip-path="url(#p117f5c89f6)" fill="#ddd" stroke="#000" stroke-linejoin="miter"/></g><g id="patch_190"><path id="path570" d="m268.92 140.256 12.54 15.95 1.32-15.95z" clip-path="url(#p117f5c89f6)" fill="#ddd" stroke="#000" stroke-linejoin="miter"/></g><g id="patch_191"><path id="path573" d="m281.46 156.206 9.49 19.113 4.576-19.382z" clip-path="url(#p117f5c89f6)" fill="#ddd" stroke="#000" stroke-linejoin="miter"/></g><g id="patch_192"><path id="path576" d="m281.46 156.206 14.066-.27-12.746-15.68z" clip-path="url(#p117f5c89f6)" fill="#ddd" stroke="#000" stroke-linejoin="miter"/></g><g id="patch_193"><path id="path579" d="m282.78 140.256 12.746 15.68 1.114-15.68z" clip-path="url(#p117f5c89f6)" fill="#ddd" stroke="#000" stroke-linejoin="miter"/></g><g id="patch_194"><path id="path582" d="M185.76 140.256h13.86l-13.86-13.86z" clip-path="url(#p117f5c89f6)" fill="#ddd" stroke="#000" stroke-linejoin="miter"/></g><g id="patch_195"><path id="path585" d="M199.62 140.256h13.86l-8.119-19.601z" clip-path="url(#p117f5c89f6)" fill="#ddd" stroke="#000" stroke-linejoin="miter"/></g><g id="patch_196"><path id="path588" d="M213.48 140.256h13.86l-4.39-18.595z" clip-path="url(#p117f5c89f6)" fill="#ddd" stroke="#000" stroke-linejoin="miter"/></g><g id="patch_197"><path id="path591" d="M227.34 140.256h13.86l-2.845-17.532z" clip-path="url(#p117f5c89f6)" fill="#ddd" stroke="#000" stroke-linejoin="miter"/></g><g id="patch_198"><path id="path594" d="M241.2 140.256h13.86l-2.07-16.808z" clip-path="url(#p117f5c89f6)" fill="#ddd" stroke="#000" stroke-linejoin="miter"/></g><g id="patch_199"><path id="path597" d="M255.06 140.256h13.86l-1.615-16.309z" clip-path="url(#p117f5c89f6)" fill="#ddd" stroke="#000" stroke-linejoin="miter"/></g><g id="patch_200"><path id="path600" d="M268.92 140.256h13.86l-1.32-15.95z" clip-path="url(#p117f5c89f6)" fill="#ddd" stroke="#000" stroke-linejoin="miter"/></g><g id="patch_201"><path id="path603" d="M282.78 140.256h13.86l-1.114-15.68z" clip-path="url(#p117f5c89f6)" fill="#ddd" stroke="#000" stroke-linejoin="miter"/></g><g id="patch_202"><path id="path606" d="m199.62 140.256 5.741-19.601-19.601 5.741z" clip-path="url(#p117f5c89f6)" fill="#ddd" stroke="#000" stroke-linejoin="miter"/></g><g id="patch_203"><path id="path609" d="m213.48 140.256 9.47-18.595-17.589-1.006z" clip-path="url(#p117f5c89f6)" fill="#ddd" stroke="#000" stroke-linejoin="miter"/></g><g id="patch_204"><path id="path612" d="m227.34 140.256 11.015-17.532-15.405-1.063z" clip-path="url(#p117f5c89f6)" fill="#ddd" stroke="#000" stroke-linejoin="miter"/></g><g id="patch_205"><path id="path615" d="m241.2 140.256 11.79-16.808-14.635-.724z" clip-path="url(#p117f5c89f6)" fill="#ddd" stroke="#000" stroke-linejoin="miter"/></g><g id="patch_206"><path id="path618" d="m255.06 140.256 12.245-16.309-14.314-.499z" clip-path="url(#p117f5c89f6)" fill="#ddd" stroke="#000" stroke-linejoin="miter"/></g><g id="patch_207"><path id="path621" d="m268.92 140.256 12.54-15.95-14.155-.359z" clip-path="url(#p117f5c89f6)" fill="#ddd" stroke="#000" stroke-linejoin="miter"/></g><g id="patch_208"><path id="path624" d="m282.78 140.256 12.746-15.68-14.066-.27z" clip-path="url(#p117f5c89f6)" fill="#ddd" stroke="#000" stroke-linejoin="miter"/></g><g id="patch_209"><path id="path627" d="m185.76 126.396 19.601-5.741-19.601-8.119z" clip-path="url(#p117f5c89f6)" fill="#ddd" stroke="#000" stroke-linejoin="miter"/></g><g id="patch_210"><path id="path630" d="m205.361 120.655 17.59 1.006-18.596-18.595z" clip-path="url(#p117f5c89f6)" fill="#ddd" stroke="#000" stroke-linejoin="miter"/></g><g id="patch_211"><path id="path633" d="m222.95 121.66 15.405 1.064-13.393-21.67z" clip-path="url(#p117f5c89f6)" fill="#ddd" stroke="#000" stroke-linejoin="miter"/></g><g id="patch_212"><path id="path636" d="m238.355 122.724 14.636.724-9.57-21.633z" clip-path="url(#p117f5c89f6)" fill="#ddd" stroke="#000" stroke-linejoin="miter"/></g><g id="patch_213"><path id="path639" d="m252.99 123.448 14.315.499-7.164-20.881z" clip-path="url(#p117f5c89f6)" fill="#ddd" stroke="#000" stroke-linejoin="miter"/></g><g id="patch_214"><path id="path642" d="m267.305 123.947 14.155.359-5.62-20.082z" clip-path="url(#p117f5c89f6)" fill="#ddd" stroke="#000" stroke-linejoin="miter"/></g><g id="patch_215"><path id="path645" d="m281.46 124.306 14.066.27-4.576-19.383z" clip-path="url(#p117f5c89f6)" fill="#ddd" stroke="#000" stroke-linejoin="miter"/></g><g id="patch_216"><path id="path648" d="m205.361 120.655-1.006-17.59-18.595 9.471z" clip-path="url(#p117f5c89f6)" fill="#ddd" stroke="#000" stroke-linejoin="miter"/></g><g id="patch_217"><path id="path651" d="m222.95 121.66 2.012-20.606-20.607 2.012z" clip-path="url(#p117f5c89f6)" fill="#ddd" stroke="#000" stroke-linejoin="miter"/></g><g id="patch_218"><path id="path654" d="m238.355 122.724 5.066-20.909-18.459-.761z" clip-path="url(#p117f5c89f6)" fill="#ddd" stroke="#000" stroke-linejoin="miter"/></g><g id="patch_219"><path id="path657" d="m252.99 123.448 7.15-20.382-16.719-1.25z" clip-path="url(#p117f5c89f6)" fill="#ddd" stroke="#000" stroke-linejoin="miter"/></g><g id="patch_220"><path id="path660" d="m267.305 123.947 8.536-19.723-15.7-1.158z" clip-path="url(#p117f5c89f6)" fill="#ddd" stroke="#000" stroke-linejoin="miter"/></g><g id="patch_221"><path id="path663" d="m281.46 124.306 9.49-19.113-15.11-.97z" clip-path="url(#p117f5c89f6)" fill="#ddd" stroke="#000" stroke-linejoin="miter"/></g><g id="patch_222"><path id="path666" d="m185.76 112.536 18.595-9.47-18.595-4.39z" clip-path="url(#p117f5c89f6)" fill="#ddd" stroke="#000" stroke-linejoin="miter"/></g><g id="patch_223"><path id="path669" d="m204.355 103.066 20.607-2.012-21.67-13.393z" clip-path="url(#p117f5c89f6)" fill="#ddd" stroke="#000" stroke-linejoin="miter"/></g><g id="patch_224"><path id="path672" d="m224.962 101.054 18.46.761-19.221-19.22z" clip-path="url(#p117f5c89f6)" fill="#ddd" stroke="#000" stroke-linejoin="miter"/></g><g id="patch_225"><path id="path675" d="m243.421 101.815 16.72 1.25-15.578-21.612z" clip-path="url(#p117f5c89f6)" fill="#ddd" stroke="#000" stroke-linejoin="miter"/></g><g id="patch_226"><path id="path678" d="m260.14 103.066 15.7 1.158-12.464-22.18z" clip-path="url(#p117f5c89f6)" fill="#ddd" stroke="#000" stroke-linejoin="miter"/></g><g id="patch_227"><path id="path681" d="m275.84 104.224 15.11.969-10.111-21.984z" clip-path="url(#p117f5c89f6)" fill="#ddd" stroke="#000" stroke-linejoin="miter"/></g><g id="patch_228"><path id="path684" d="m204.355 103.066-1.063-15.405-17.532 11.015z" clip-path="url(#p117f5c89f6)" fill="#ddd" stroke="#000" stroke-linejoin="miter"/></g><g id="patch_229"><path id="path687" d="m224.962 101.054-.761-18.46-20.91 5.067z" clip-path="url(#p117f5c89f6)" fill="#ddd" stroke="#000" stroke-linejoin="miter"/></g><g id="patch_230"><path id="path690" d="m243.421 101.815 1.142-20.362-20.362 1.142z" clip-path="url(#p117f5c89f6)" fill="#ddd" stroke="#000" stroke-linejoin="miter"/></g><g id="patch_231"><path id="path693" d="m260.14 103.066 3.236-21.022-18.813-.591z" clip-path="url(#p117f5c89f6)" fill="#ddd" stroke="#000" stroke-linejoin="miter"/></g><g id="patch_232"><path id="path696" d="m275.84 104.224 4.999-21.015-17.463-1.165z" clip-path="url(#p117f5c89f6)" fill="#ddd" stroke="#000" stroke-linejoin="miter"/></g><g id="patch_233"><path id="path699" d="m185.76 98.676 17.532-11.015-17.532-2.845z" clip-path="url(#p117f5c89f6)" fill="#ddd" stroke="#000" stroke-linejoin="miter"/></g><g id="patch_234"><path id="path702" d="m203.292 87.661 20.909-5.066-21.633-9.57z" clip-path="url(#p117f5c89f6)" fill="#ddd" stroke="#000" stroke-linejoin="miter"/></g><g id="patch_235"><path id="path705" d="m224.2 82.595 20.363-1.142-21.613-15.578z" clip-path="url(#p117f5c89f6)" fill="#ddd" stroke="#000" stroke-linejoin="miter"/></g><g id="patch_236"><path id="path708" d="m244.563 81.453 18.813.591-19.404-19.404z" clip-path="url(#p117f5c89f6)" fill="#ddd" stroke="#000" stroke-linejoin="miter"/></g><g id="patch_237"><path id="path711" d="m263.376 82.044 17.463 1.165-16.675-21.357z" clip-path="url(#p117f5c89f6)" fill="#ddd" stroke="#000" stroke-linejoin="miter"/></g><g id="patch_238"><path id="path714" d="m203.292 87.661-.724-14.636-16.808 11.791z" clip-path="url(#p117f5c89f6)" fill="#ddd" stroke="#000" stroke-linejoin="miter"/></g><g id="patch_239"><path id="path717" d="m224.2 82.595-1.25-16.72-20.382 7.15z" clip-path="url(#p117f5c89f6)" fill="#ddd" stroke="#000" stroke-linejoin="miter"/></g><g id="patch_240"><path id="path720" d="m244.563 81.453-.591-18.813-21.022 3.235z" clip-path="url(#p117f5c89f6)" fill="#ddd" stroke="#000" stroke-linejoin="miter"/></g><g id="patch_241"><path id="path723" d="m263.376 82.044.788-20.192-20.192.788z" clip-path="url(#p117f5c89f6)" fill="#ddd" stroke="#000" stroke-linejoin="miter"/></g><g id="patch_242"><path id="path726" d="m185.76 84.816 16.808-11.79-16.808-2.07z" clip-path="url(#p117f5c89f6)" fill="#ddd" stroke="#000" stroke-linejoin="miter"/></g><g id="patch_243"><path id="path729" d="m202.568 73.025 20.382-7.15-20.881-7.164z" clip-path="url(#p117f5c89f6)" fill="#ddd" stroke="#000" stroke-linejoin="miter"/></g><g id="patch_244"><path id="path732" d="m222.95 65.875 21.022-3.235-22.18-12.465z" clip-path="url(#p117f5c89f6)" fill="#ddd" stroke="#000" stroke-linejoin="miter"/></g><g id="patch_245"><path id="path735" d="m243.972 62.64 20.192-.788-21.357-16.675z" clip-path="url(#p117f5c89f6)" fill="#ddd" stroke="#000" stroke-linejoin="miter"/></g><g id="patch_246"><path id="path738" d="m202.568 73.025-.499-14.314-16.309 12.245z" clip-path="url(#p117f5c89f6)" fill="#ddd" stroke="#000" stroke-linejoin="miter"/></g><g id="patch_247"><path id="path741" d="m222.95 65.875-1.158-15.7-19.723 8.536z" clip-path="url(#p117f5c89f6)" fill="#ddd" stroke="#000" stroke-linejoin="miter"/></g><g id="patch_248"><path id="path744" d="m243.972 62.64-1.165-17.463-21.015 4.998z" clip-path="url(#p117f5c89f6)" fill="#ddd" stroke="#000" stroke-linejoin="miter"/></g><g id="patch_249"><path id="path747" d="m185.76 70.956 16.309-12.245-16.309-1.615z" clip-path="url(#p117f5c89f6)" fill="#ddd" stroke="#000" stroke-linejoin="miter"/></g><g id="patch_250"><path id="path750" d="m202.069 58.71 19.723-8.535-20.082-5.619z" clip-path="url(#p117f5c89f6)" fill="#ddd" stroke="#000" stroke-linejoin="miter"/></g><g id="patch_251"><path id="path753" d="m221.792 50.175 21.015-4.998-21.984-10.111z" clip-path="url(#p117f5c89f6)" fill="#ddd" stroke="#000" stroke-linejoin="miter"/></g><g id="patch_252"><path id="path756" d="m202.069 58.71-.359-14.154-15.95 12.54z" clip-path="url(#p117f5c89f6)" fill="#ddd" stroke="#000" stroke-linejoin="miter"/></g><g id="patch_253"><path id="path759" d="m221.792 50.175-.969-15.109-19.113 9.49z" clip-path="url(#p117f5c89f6)" fill="#ddd" stroke="#000" stroke-linejoin="miter"/></g><g id="patch_254"><path id="path762" d="m185.76 57.096 15.95-12.54-15.95-1.32z" clip-path="url(#p117f5c89f6)" fill="#ddd" stroke="#000" stroke-linejoin="miter"/></g><g id="patch_255"><path id="path765" d="m201.71 44.556 19.113-9.49-19.382-4.576z" clip-path="url(#p117f5c89f6)" fill="#ddd" stroke="#000" stroke-linejoin="miter"/></g><g id="patch_256"><path id="path768" d="m201.71 44.556-.27-14.066-15.68 12.746z" clip-path="url(#p117f5c89f6)" fill="#ddd" stroke="#000" stroke-linejoin="miter"/></g><g id="patch_257"><path id="path771" d="m185.76 43.236 15.68-12.746-15.68-1.114z" clip-path="url(#p117f5c89f6)" fill="#ddd" stroke="#000" stroke-linejoin="miter"/></g></g></g><defs id="defs779"><clipPath id="p117f5c89f6"><path id="rect776" d="M7.2 7.2h357.12v266.112H7.2z"/></clipPath></defs></svg>