<svg xmlns="http://www.w3.org/2000/svg" id="svg397" version="1.1" width="297.013" viewBox="0 0 222.76 222.76" height="297.013"><defs id="defs4"><style id="style2">*{stroke-linecap:butt;stroke-linejoin:round}</style></defs><g transform="translate(-74.38 -28.876)" id="figure_1"><g id="axes_1" stroke="#000" fill="#ddd"><path id="patch_2" d="M185.76 140.256v-13.86l-12.003 6.93z" clip-path="url(#p290fa14737)"/><path id="patch_3" d="M185.76 126.396v-13.86l-13.86 3.714z" clip-path="url(#p290fa14737)"/><path id="patch_4" d="M185.76 112.536v-13.86l-13.61 2.29z" clip-path="url(#p290fa14737)"/><path id="patch_5" d="M185.76 98.676v-13.86l-13.316 1.623z" clip-path="url(#p290fa14737)"/><path id="patch_6" d="M185.76 84.816v-13.86l-13.096 1.249z" clip-path="url(#p290fa14737)"/><path id="patch_7" d="M185.76 70.956v-13.86l-12.935 1.012z" clip-path="url(#p290fa14737)"/><path id="patch_8" d="M185.76 57.096v-13.86l-12.813.85z" clip-path="url(#p290fa14737)"/><path id="patch_9" d="M185.76 43.236v-13.86l-12.719.732z" clip-path="url(#p290fa14737)"/><path id="patch_10" d="M185.76 126.396 171.9 116.25l1.857 17.076z" clip-path="url(#p290fa14737)"/><path id="patch_11" d="m185.76 112.536-13.61-11.57-.25 15.284z" clip-path="url(#p290fa14737)"/><path id="patch_12" d="m185.76 98.676-13.316-12.237-.294 14.528z" clip-path="url(#p290fa14737)"/><path id="patch_13" d="m185.76 84.816-13.096-12.611-.22 14.234z" clip-path="url(#p290fa14737)"/><path id="patch_14" d="m185.76 70.956-12.935-12.848-.161 14.097z" clip-path="url(#p290fa14737)"/><path id="patch_15" d="m185.76 57.096-12.813-13.01-.122 14.022z" clip-path="url(#p290fa14737)"/><path id="patch_16" d="m185.76 43.236-12.719-13.128-.094 13.978z" clip-path="url(#p290fa14737)"/><path id="patch_17" d="M173.757 133.326 171.9 116.25l-10.146 10.146z" clip-path="url(#p290fa14737)"/><path id="patch_18" d="m171.9 116.25.25-15.283-13.61 7.857z" clip-path="url(#p290fa14737)"/><path id="patch_19" d="m172.15 100.967.294-14.528-14.404 5.805z" clip-path="url(#p290fa14737)"/><path id="patch_20" d="m172.444 86.439.22-14.234-14.441 4.457z" clip-path="url(#p290fa14737)"/><path id="patch_21" d="m172.664 72.205.161-14.097-14.285 3.57z" clip-path="url(#p290fa14737)"/><path id="patch_22" d="m172.825 58.108.122-14.022-14.096 2.956z" clip-path="url(#p290fa14737)"/><path id="patch_23" d="m172.947 44.086.094-13.978-13.914 2.514z" clip-path="url(#p290fa14737)"/><path id="patch_24" d="m171.9 116.25-13.36-7.426 3.214 17.572z" clip-path="url(#p290fa14737)"/><path id="patch_25" d="m172.15 100.967-14.11-8.723.5 16.58z" clip-path="url(#p290fa14737)"/><path id="patch_26" d="m172.444 86.439-14.221-9.777-.183 15.582z" clip-path="url(#p290fa14737)"/><path id="patch_27" d="M172.664 72.205 158.54 61.677l-.317 14.985z" clip-path="url(#p290fa14737)"/><path id="patch_28" d="m172.825 58.108-13.974-11.066-.311 14.635z" clip-path="url(#p290fa14737)"/><path id="patch_29" d="m172.947 44.086-13.82-11.464-.276 14.42z" clip-path="url(#p290fa14737)"/><path id="patch_30" d="m161.754 126.396-3.214-17.572-8.79 10.642z" clip-path="url(#p290fa14737)"/><path id="patch_31" d="m158.54 108.824-.5-16.58-12.229 9.571z" clip-path="url(#p290fa14737)"/><path id="patch_32" d="m158.04 92.244.183-15.582-13.769 7.95z" clip-path="url(#p290fa14737)"/><path id="patch_33" d="m158.223 76.662.316-14.985-14.359 6.56z" clip-path="url(#p290fa14737)"/><path id="patch_34" d="m158.54 61.677.311-14.635-14.53 5.49z" clip-path="url(#p290fa14737)"/><path id="patch_35" d="m158.851 47.042.276-14.42-14.52 4.674z" clip-path="url(#p290fa14737)"/><path id="patch_36" d="m158.54 108.824-12.729-7.009 3.94 17.651z" clip-path="url(#p290fa14737)"/><path id="patch_37" d="m158.04 92.244-13.586-7.633 1.357 17.204z" clip-path="url(#p290fa14737)"/><path id="patch_38" d="m158.223 76.662-14.043-8.425.274 16.374z" clip-path="url(#p290fa14737)"/><path id="patch_39" d="m158.54 61.677-14.22-9.146-.14 15.706z" clip-path="url(#p290fa14737)"/><path id="patch_40" d="m158.851 47.042-14.245-9.746-.285 15.235z" clip-path="url(#p290fa14737)"/><path id="patch_41" d="m149.75 119.466-3.939-17.65-8.063 10.72z" clip-path="url(#p290fa14737)"/><path id="patch_42" d="m145.811 101.815-1.357-17.204-11.08 10.278z" clip-path="url(#p290fa14737)"/><path id="patch_43" d="m144.454 84.611-.274-16.374-12.861 9.156z" clip-path="url(#p290fa14737)"/><path id="patch_44" d="m144.18 68.237.14-15.706-13.812 7.975z" clip-path="url(#p290fa14737)"/><path id="patch_45" d="m144.32 52.531.286-15.235-14.286 6.935z" clip-path="url(#p290fa14737)"/><path id="patch_46" d="m145.811 101.815-12.437-6.926 4.374 17.647z" clip-path="url(#p290fa14737)"/><path id="patch_47" d="m144.454 84.611-13.135-7.218 2.055 17.496z" clip-path="url(#p290fa14737)"/><path id="patch_48" d="m144.18 68.237-13.672-7.73.811 16.886z" clip-path="url(#p290fa14737)"/><path id="patch_49" d="m144.32 52.531-14-8.3.188 16.275z" clip-path="url(#p290fa14737)"/><path id="patch_50" d="m137.748 112.536-4.374-17.647-7.63 10.717z" clip-path="url(#p290fa14737)"/><path id="patch_51" d="m133.374 94.889-2.055-17.496-10.234 10.587z" clip-path="url(#p290fa14737)"/><path id="patch_52" d="m131.319 77.393-.811-16.887-12.02 9.84z" clip-path="url(#p290fa14737)"/><path id="patch_53" d="m130.508 60.506-.188-16.275-13.15 8.905z" clip-path="url(#p290fa14737)"/><path id="patch_54" d="m133.374 94.889-12.289-6.909 4.66 17.626z" clip-path="url(#p290fa14737)"/><path id="patch_55" d="m131.319 77.393-12.83-7.047 2.596 17.634z" clip-path="url(#p290fa14737)"/><path id="patch_56" d="m130.508 60.506-13.337-7.37 1.318 17.21z" clip-path="url(#p290fa14737)"/><path id="patch_57" d="m125.744 105.606-4.659-17.626-7.344 10.696z" clip-path="url(#p290fa14737)"/><path id="patch_58" d="m121.085 87.98-2.596-17.634-9.608 10.728z" clip-path="url(#p290fa14737)"/><path id="patch_59" d="m118.489 70.346-1.318-17.21-11.309 10.239z" clip-path="url(#p290fa14737)"/><path id="patch_60" d="m121.085 87.98-12.204-6.906 4.86 17.602z" clip-path="url(#p290fa14737)"/><path id="patch_61" d="m118.489 70.346-12.627-6.971 3.019 17.7z" clip-path="url(#p290fa14737)"/><path id="patch_62" d="m113.741 98.676-4.86-17.602-7.143 10.672z" clip-path="url(#p290fa14737)"/><path id="patch_63" d="m108.88 81.074-3.018-17.7-9.134 10.793z" clip-path="url(#p290fa14737)"/><path id="patch_64" d="m108.88 81.074-12.152-6.907 5.01 17.579z" clip-path="url(#p290fa14737)"/><path id="patch_65" d="m101.738 91.746-5.01-17.579-6.993 10.649z" clip-path="url(#p290fa14737)"/><path id="patch_66" d="m185.76 140.256-12.003-6.93v13.86z" clip-path="url(#p290fa14737)"/><path id="patch_67" d="m173.757 133.326-12.003-6.93-3.714 13.86z" clip-path="url(#p290fa14737)"/><path id="patch_68" d="m161.754 126.396-12.003-6.93-4.822 12.932z" clip-path="url(#p290fa14737)"/><path id="patch_69" d="m149.75 119.466-12.002-6.93-5.253 12.344z" clip-path="url(#p290fa14737)"/><path id="patch_70" d="m137.748 112.536-12.004-6.93-5.466 11.966z" clip-path="url(#p290fa14737)"/><path id="patch_71" d="m125.744 105.606-12.003-6.93-5.59 11.708z" clip-path="url(#p290fa14737)"/><path id="patch_72" d="m113.741 98.676-12.003-6.93-5.67 11.521z" clip-path="url(#p290fa14737)"/><path id="patch_73" d="m101.738 91.746-12.003-6.93-5.725 11.38z" clip-path="url(#p290fa14737)"/><path id="patch_74" d="m173.757 133.326-15.717 6.93 15.717 6.93z" clip-path="url(#p290fa14737)"/><path id="patch_75" d="m161.754 126.396-16.825 6.002 13.111 7.858z" clip-path="url(#p290fa14737)"/><path id="patch_76" d="m149.75 119.466-17.255 5.414 12.434 7.518z" clip-path="url(#p290fa14737)"/><path id="patch_77" d="m137.748 112.536-17.47 5.036 12.217 7.308z" clip-path="url(#p290fa14737)"/><path id="patch_78" d="m125.744 105.606-17.594 4.778 12.128 7.188z" clip-path="url(#p290fa14737)"/><path id="patch_79" d="m113.741 98.676-17.673 4.591 12.082 7.117z" clip-path="url(#p290fa14737)"/><path id="patch_80" d="m101.738 91.746-17.728 4.45 12.058 7.071z" clip-path="url(#p290fa14737)"/><path id="patch_81" d="m173.757 147.186-15.717-6.93 3.714 13.86z" clip-path="url(#p290fa14737)"/><path id="patch_82" d="m158.04 140.256-13.11-7.858v15.716z" clip-path="url(#p290fa14737)"/><path id="patch_83" d="m144.93 132.398-12.435-7.518-2.175 15.376z" clip-path="url(#p290fa14737)"/><path id="patch_84" d="m132.495 124.88-12.217-7.308-3.36 14.735z" clip-path="url(#p290fa14737)"/><path id="patch_85" d="m120.278 117.572-12.128-7.188-4.051 14.156z" clip-path="url(#p290fa14737)"/><path id="patch_86" d="m108.15 110.384-12.082-7.117-4.488 13.686z" clip-path="url(#p290fa14737)"/><path id="patch_87" d="m96.068 103.267-12.058-7.07-4.78 13.306z" clip-path="url(#p290fa14737)"/><path id="patch_88" d="m158.04 140.256-13.11 7.858 16.824 6.002z" clip-path="url(#p290fa14737)"/><path id="patch_89" d="m144.93 132.398-14.61 7.858 14.61 7.858z" clip-path="url(#p290fa14737)"/><path id="patch_90" d="m132.495 124.88-15.578 7.427 13.403 7.949z" clip-path="url(#p290fa14737)"/><path id="patch_91" d="m120.278 117.572-16.18 6.968 12.82 7.767z" clip-path="url(#p290fa14737)"/><path id="patch_92" d="m108.15 110.384-16.57 6.569 12.519 7.587z" clip-path="url(#p290fa14737)"/><path id="patch_93" d="m96.068 103.267-16.838 6.236 12.35 7.45z" clip-path="url(#p290fa14737)"/><path id="patch_94" d="m161.754 154.116-16.825-6.002 4.822 12.932z" clip-path="url(#p290fa14737)"/><path id="patch_95" d="m144.93 148.114-14.61-7.858 2.175 15.376z" clip-path="url(#p290fa14737)"/><path id="patch_96" d="m130.32 140.256-13.403-7.95v15.9z" clip-path="url(#p290fa14737)"/><path id="patch_97" d="M116.917 132.307 104.1 124.54l-1.499 15.716z" clip-path="url(#p290fa14737)"/><path id="patch_98" d="m104.099 124.54-12.519-7.587-2.512 15.328z" clip-path="url(#p290fa14737)"/><path id="patch_99" d="m91.58 116.953-12.35-7.45-3.213 14.913z" clip-path="url(#p290fa14737)"/><path id="patch_100" d="m144.93 148.114-12.435 7.518 17.256 5.414z" clip-path="url(#p290fa14737)"/><path id="patch_101" d="m130.32 140.256-13.403 7.95 15.578 7.426z" clip-path="url(#p290fa14737)"/><path id="patch_102" d="m116.917 132.307-14.317 7.949 14.317 7.95z" clip-path="url(#p290fa14737)"/><path id="patch_103" d="m104.099 124.54-15.03 7.741 13.531 7.975z" clip-path="url(#p290fa14737)"/><path id="patch_104" d="m91.58 116.953-15.563 7.463 13.051 7.865z" clip-path="url(#p290fa14737)"/><path id="patch_105" d="m149.75 161.046-17.255-5.414 5.253 12.344z" clip-path="url(#p290fa14737)"/><path id="patch_106" d="m132.495 155.632-15.578-7.427 3.36 14.735z" clip-path="url(#p290fa14737)"/><path id="patch_107" d="m116.917 148.205-14.317-7.949 1.499 15.716z" clip-path="url(#p290fa14737)"/><path id="patch_108" d="m102.6 140.256-13.532-7.975v15.95z" clip-path="url(#p290fa14737)"/><path id="patch_109" d="m89.068 132.281-13.05-7.865-1.138 15.84z" clip-path="url(#p290fa14737)"/><path id="patch_110" d="m132.495 155.632-12.217 7.308 17.47 5.036z" clip-path="url(#p290fa14737)"/><path id="patch_111" d="m116.917 148.205-12.818 7.767 16.179 6.968z" clip-path="url(#p290fa14737)"/><path id="patch_112" d="m102.6 140.256-13.532 7.975 15.03 7.74z" clip-path="url(#p290fa14737)"/><path id="patch_113" d="m89.068 132.281-14.188 7.975 14.188 7.975z" clip-path="url(#p290fa14737)"/><path id="patch_114" d="m137.748 167.976-17.47-5.036 5.466 11.966z" clip-path="url(#p290fa14737)"/><path id="patch_115" d="m120.278 162.94-16.18-6.968 4.052 14.156z" clip-path="url(#p290fa14737)"/><path id="patch_116" d="m104.099 155.972-15.03-7.741 2.511 15.328z" clip-path="url(#p290fa14737)"/><path id="patch_117" d="m89.068 148.231-14.188-7.975 1.137 15.84z" clip-path="url(#p290fa14737)"/><path id="patch_118" d="m120.278 162.94-12.128 7.188 17.594 4.778z" clip-path="url(#p290fa14737)"/><path id="patch_119" d="m104.099 155.972-12.519 7.587 16.57 6.569z" clip-path="url(#p290fa14737)"/><path id="patch_120" d="m89.068 148.231-13.05 7.865 15.562 7.463z" clip-path="url(#p290fa14737)"/><path id="patch_121" d="m125.744 174.906-17.594-4.778 5.591 11.708z" clip-path="url(#p290fa14737)"/><path id="patch_122" d="m108.15 170.128-16.57-6.569 4.488 13.686z" clip-path="url(#p290fa14737)"/><path id="patch_123" d="m91.58 163.56-15.563-7.464 3.213 14.913z" clip-path="url(#p290fa14737)"/><path id="patch_124" d="m108.15 170.128-12.082 7.117 17.673 4.591z" clip-path="url(#p290fa14737)"/><path id="patch_125" d="m91.58 163.56-12.35 7.449 16.838 6.236z" clip-path="url(#p290fa14737)"/><path id="patch_126" d="m113.741 181.836-17.673-4.591 5.67 11.521z" clip-path="url(#p290fa14737)"/><path id="patch_127" d="m96.068 177.245-16.838-6.236 4.78 13.306z" clip-path="url(#p290fa14737)"/><path id="patch_128" d="m96.068 177.245-12.058 7.07 17.728 4.451z" clip-path="url(#p290fa14737)"/><path id="patch_129" d="m101.738 188.766-17.728-4.45 5.725 11.38z" clip-path="url(#p290fa14737)"/><path id="patch_130" d="m185.76 140.256-12.003 6.93 12.003 6.93z" clip-path="url(#p290fa14737)"/><path id="patch_131" d="m173.757 147.186-12.003 6.93 10.146 10.146z" clip-path="url(#p290fa14737)"/><path id="patch_132" d="m161.754 154.116-12.003 6.93 8.788 10.642z" clip-path="url(#p290fa14737)"/><path id="patch_133" d="m149.75 161.046-12.002 6.93 8.063 10.72z" clip-path="url(#p290fa14737)"/><path id="patch_134" d="m137.748 167.976-12.004 6.93 7.63 10.717z" clip-path="url(#p290fa14737)"/><path id="patch_135" d="m125.744 174.906-12.003 6.93 7.344 10.696z" clip-path="url(#p290fa14737)"/><path id="patch_136" d="m113.741 181.836-12.003 6.93 7.143 10.672z" clip-path="url(#p290fa14737)"/><path id="patch_137" d="m101.738 188.766-12.003 6.93 6.993 10.649z" clip-path="url(#p290fa14737)"/><path id="patch_138" d="m173.757 147.186-1.857 17.076 13.86-10.146z" clip-path="url(#p290fa14737)"/><path id="patch_139" d="m161.754 154.116-3.214 17.572 13.36-7.426z" clip-path="url(#p290fa14737)"/><path id="patch_140" d="m149.75 161.046-3.939 17.65 12.728-7.008z" clip-path="url(#p290fa14737)"/><path id="patch_141" d="m137.748 167.976-4.374 17.647 12.437-6.926z" clip-path="url(#p290fa14737)"/><path id="patch_142" d="m125.744 174.906-4.659 17.626 12.29-6.909z" clip-path="url(#p290fa14737)"/><path id="patch_143" d="m113.741 181.836-4.86 17.602 12.204-6.906z" clip-path="url(#p290fa14737)"/><path id="patch_144" d="m101.738 188.766-5.01 17.579 12.153-6.907z" clip-path="url(#p290fa14737)"/><path id="patch_145" d="m185.76 154.116-13.86 10.146 13.86 3.714z" clip-path="url(#p290fa14737)"/><path id="patch_146" d="m171.9 164.262-13.36 7.426 13.61 7.857z" clip-path="url(#p290fa14737)"/><path id="patch_147" d="m158.54 171.688-12.729 7.009 12.229 9.571z" clip-path="url(#p290fa14737)"/><path id="patch_148" d="m145.811 178.697-12.437 6.926 11.08 10.278z" clip-path="url(#p290fa14737)"/><path id="patch_149" d="m133.374 185.623-12.289 6.909 10.234 10.587z" clip-path="url(#p290fa14737)"/><path id="patch_150" d="m121.085 192.532-12.204 6.906 9.608 10.728z" clip-path="url(#p290fa14737)"/><path id="patch_151" d="m108.88 199.438-12.152 6.907 9.134 10.792z" clip-path="url(#p290fa14737)"/><path id="patch_152" d="m171.9 164.262.25 15.283 13.61-11.569z" clip-path="url(#p290fa14737)"/><path id="patch_153" d="m158.54 171.688-.5 16.58 14.11-8.723z" clip-path="url(#p290fa14737)"/><path id="patch_154" d="m145.811 178.697-1.357 17.204 13.586-7.633z" clip-path="url(#p290fa14737)"/><path id="patch_155" d="m133.374 185.623-2.055 17.496 13.135-7.218z" clip-path="url(#p290fa14737)"/><path id="patch_156" d="m121.085 192.532-2.596 17.634 12.83-7.047z" clip-path="url(#p290fa14737)"/><path id="patch_157" d="m108.88 199.438-3.018 17.7 12.627-6.972z" clip-path="url(#p290fa14737)"/><path id="patch_158" d="m185.76 167.976-13.61 11.57 13.61 2.29z" clip-path="url(#p290fa14737)"/><path id="patch_159" d="m172.15 179.545-14.11 8.723 14.404 5.805z" clip-path="url(#p290fa14737)"/><path id="patch_160" d="m158.04 188.268-13.586 7.633 13.769 7.949z" clip-path="url(#p290fa14737)"/><path id="patch_161" d="m144.454 195.9-13.135 7.22 12.861 9.155z" clip-path="url(#p290fa14737)"/><path id="patch_162" d="m131.319 203.12-12.83 7.046 12.019 9.84z" clip-path="url(#p290fa14737)"/><path id="patch_163" d="m118.489 210.166-12.627 6.971 11.309 10.239z" clip-path="url(#p290fa14737)"/><path id="patch_164" d="m172.15 179.545.294 14.528 13.316-12.237z" clip-path="url(#p290fa14737)"/><path id="patch_165" d="m158.04 188.268.183 15.582 14.22-9.777z" clip-path="url(#p290fa14737)"/><path id="patch_166" d="m144.454 195.9-.274 16.375 14.043-8.425z" clip-path="url(#p290fa14737)"/><path id="patch_167" d="m131.319 203.12-.811 16.886 13.672-7.731z" clip-path="url(#p290fa14737)"/><path id="patch_168" d="m118.489 210.166-1.318 17.21 13.337-7.37z" clip-path="url(#p290fa14737)"/><path id="patch_169" d="m185.76 181.836-13.316 12.237 13.316 1.623z" clip-path="url(#p290fa14737)"/><path id="patch_170" d="m172.444 194.073-14.221 9.777 14.44 4.457z" clip-path="url(#p290fa14737)"/><path id="patch_171" d="m158.223 203.85-14.043 8.425 14.36 6.56z" clip-path="url(#p290fa14737)"/><path id="patch_172" d="m144.18 212.275-13.672 7.73 13.813 7.976z" clip-path="url(#p290fa14737)"/><path id="patch_173" d="m130.508 220.006-13.337 7.37 13.149 8.905z" clip-path="url(#p290fa14737)"/><path id="patch_174" d="m172.444 194.073.22 14.234 13.096-12.611z" clip-path="url(#p290fa14737)"/><path id="patch_175" d="m158.223 203.85.316 14.985 14.125-10.528z" clip-path="url(#p290fa14737)"/><path id="patch_176" d="m144.18 212.275.14 15.706 14.22-9.146z" clip-path="url(#p290fa14737)"/><path id="patch_177" d="m130.508 220.006-.188 16.275 14-8.3z" clip-path="url(#p290fa14737)"/><path id="patch_178" d="m185.76 195.696-13.096 12.611 13.096 1.249z" clip-path="url(#p290fa14737)"/><path id="patch_179" d="m172.664 208.307-14.124 10.528 14.285 3.569z" clip-path="url(#p290fa14737)"/><path id="patch_180" d="m158.54 218.835-14.22 9.146 14.531 5.489z" clip-path="url(#p290fa14737)"/><path id="patch_181" d="m144.32 227.98-14 8.3 14.286 6.936z" clip-path="url(#p290fa14737)"/><path id="patch_182" d="m172.664 208.307.161 14.097 12.935-12.848z" clip-path="url(#p290fa14737)"/><path id="patch_183" d="m158.54 218.835.311 14.635 13.974-11.066z" clip-path="url(#p290fa14737)"/><path id="patch_184" d="m144.32 227.98.286 15.236 14.245-9.746z" clip-path="url(#p290fa14737)"/><path id="patch_185" d="m185.76 209.556-12.935 12.848 12.935 1.012z" clip-path="url(#p290fa14737)"/><path id="patch_186" d="m172.825 222.404-13.974 11.066 14.096 2.956z" clip-path="url(#p290fa14737)"/><path id="patch_187" d="m158.851 233.47-14.245 9.746 14.521 4.674z" clip-path="url(#p290fa14737)"/><path id="patch_188" d="m172.825 222.404.122 14.022 12.813-13.01z" clip-path="url(#p290fa14737)"/><path id="patch_189" d="m158.851 233.47.276 14.42 13.82-11.464z" clip-path="url(#p290fa14737)"/><path id="patch_190" d="m185.76 223.416-12.813 13.01 12.813.85z" clip-path="url(#p290fa14737)"/><path id="patch_191" d="m172.947 236.426-13.82 11.464 13.914 2.514z" clip-path="url(#p290fa14737)"/><path id="patch_192" d="m172.947 236.426.094 13.978 12.719-13.128z" clip-path="url(#p290fa14737)"/><path id="patch_193" d="m185.76 237.276-12.719 13.128 12.719.732z" clip-path="url(#p290fa14737)"/><path id="patch_194" d="M185.76 140.256v13.86l12.003-6.93z" clip-path="url(#p290fa14737)"/><path id="patch_195" d="M185.76 154.116v13.86l13.86-3.714z" clip-path="url(#p290fa14737)"/><path id="patch_196" d="M185.76 167.976v13.86l13.61-2.29z" clip-path="url(#p290fa14737)"/><path id="patch_197" d="M185.76 181.836v13.86l13.316-1.623z" clip-path="url(#p290fa14737)"/><path id="patch_198" d="M185.76 195.696v13.86l13.096-1.249z" clip-path="url(#p290fa14737)"/><path id="patch_199" d="M185.76 209.556v13.86l12.935-1.012z" clip-path="url(#p290fa14737)"/><path id="patch_200" d="M185.76 223.416v13.86l12.813-.85z" clip-path="url(#p290fa14737)"/><path id="patch_201" d="M185.76 237.276v13.86l12.719-.732z" clip-path="url(#p290fa14737)"/><path id="patch_202" d="m185.76 154.116 13.86 10.146-1.857-17.076z" clip-path="url(#p290fa14737)"/><path id="patch_203" d="m185.76 167.976 13.61 11.57.25-15.284z" clip-path="url(#p290fa14737)"/><path id="patch_204" d="m185.76 181.836 13.316 12.237.294-14.528z" clip-path="url(#p290fa14737)"/><path id="patch_205" d="m185.76 195.696 13.096 12.611.22-14.234z" clip-path="url(#p290fa14737)"/><path id="patch_206" d="m185.76 209.556 12.935 12.848.161-14.097z" clip-path="url(#p290fa14737)"/><path id="patch_207" d="m185.76 223.416 12.813 13.01.122-14.022z" clip-path="url(#p290fa14737)"/><path id="patch_208" d="m185.76 237.276 12.719 13.128.094-13.978z" clip-path="url(#p290fa14737)"/><path id="patch_209" d="m197.763 147.186 1.857 17.076 10.146-10.146z" clip-path="url(#p290fa14737)"/><path id="patch_210" d="m199.62 164.262-.25 15.283 13.61-7.857z" clip-path="url(#p290fa14737)"/><path id="patch_211" d="m199.37 179.545-.294 14.528 14.404-5.805z" clip-path="url(#p290fa14737)"/><path id="patch_212" d="m199.076 194.073-.22 14.234 14.441-4.457z" clip-path="url(#p290fa14737)"/><path id="patch_213" d="m198.856 208.307-.161 14.097 14.286-3.57z" clip-path="url(#p290fa14737)"/><path id="patch_214" d="m198.695 222.404-.122 14.022 14.096-2.956z" clip-path="url(#p290fa14737)"/><path id="patch_215" d="m198.573 236.426-.094 13.978 13.914-2.514z" clip-path="url(#p290fa14737)"/><path id="patch_216" d="m199.62 164.262 13.36 7.426-3.214-17.572z" clip-path="url(#p290fa14737)"/><path id="patch_217" d="m199.37 179.545 14.11 8.723-.5-16.58z" clip-path="url(#p290fa14737)"/><path id="patch_218" d="m199.076 194.073 14.221 9.777.183-15.582z" clip-path="url(#p290fa14737)"/><path id="patch_219" d="m198.856 208.307 14.125 10.528.316-14.985z" clip-path="url(#p290fa14737)"/><path id="patch_220" d="m198.695 222.404 13.974 11.066.311-14.635z" clip-path="url(#p290fa14737)"/><path id="patch_221" d="m198.573 236.426 13.82 11.464.276-14.42z" clip-path="url(#p290fa14737)"/><path id="patch_222" d="m209.766 154.116 3.215 17.572 8.788-10.642z" clip-path="url(#p290fa14737)"/><path id="patch_223" d="m212.98 171.688.5 16.58 12.229-9.571z" clip-path="url(#p290fa14737)"/><path id="patch_224" d="m213.48 188.268-.183 15.582 13.769-7.95z" clip-path="url(#p290fa14737)"/><path id="patch_225" d="m213.297 203.85-.316 14.985 14.359-6.56z" clip-path="url(#p290fa14737)"/><path id="patch_226" d="m212.98 218.835-.311 14.635 14.53-5.49z" clip-path="url(#p290fa14737)"/><path id="patch_227" d="m212.669 233.47-.276 14.42 14.52-4.674z" clip-path="url(#p290fa14737)"/><path id="patch_228" d="m212.98 171.688 12.729 7.009-3.94-17.651z" clip-path="url(#p290fa14737)"/><path id="patch_229" d="m213.48 188.268 13.586 7.633-1.357-17.204z" clip-path="url(#p290fa14737)"/><path id="patch_230" d="m213.297 203.85 14.043 8.425-.274-16.374z" clip-path="url(#p290fa14737)"/><path id="patch_231" d="m212.98 218.835 14.22 9.146.14-15.706z" clip-path="url(#p290fa14737)"/><path id="patch_232" d="m212.669 233.47 14.245 9.746.285-15.235z" clip-path="url(#p290fa14737)"/><path id="patch_233" d="m221.77 161.046 3.939 17.65 8.063-10.72z" clip-path="url(#p290fa14737)"/><path id="patch_234" d="m225.709 178.697 1.357 17.204 11.08-10.278z" clip-path="url(#p290fa14737)"/><path id="patch_235" d="m227.066 195.9.274 16.375 12.861-9.156z" clip-path="url(#p290fa14737)"/><path id="patch_236" d="m227.34 212.275-.14 15.706 13.812-7.975z" clip-path="url(#p290fa14737)"/><path id="patch_237" d="m227.2 227.98-.286 15.236 14.286-6.935z" clip-path="url(#p290fa14737)"/><path id="patch_238" d="m225.709 178.697 12.437 6.926-4.374-17.647z" clip-path="url(#p290fa14737)"/><path id="patch_239" d="m227.066 195.9 13.135 7.22-2.055-17.497z" clip-path="url(#p290fa14737)"/><path id="patch_240" d="m227.34 212.275 13.672 7.73-.811-16.886z" clip-path="url(#p290fa14737)"/><path id="patch_241" d="m227.2 227.98 14 8.3-.188-16.274z" clip-path="url(#p290fa14737)"/><path id="patch_242" d="m233.772 167.976 4.374 17.647 7.63-10.717z" clip-path="url(#p290fa14737)"/><path id="patch_243" d="m238.146 185.623 2.055 17.496 10.234-10.587z" clip-path="url(#p290fa14737)"/><path id="patch_244" d="m240.201 203.12.811 16.886 12.02-9.84z" clip-path="url(#p290fa14737)"/><path id="patch_245" d="m241.012 220.006.188 16.275 13.15-8.905z" clip-path="url(#p290fa14737)"/><path id="patch_246" d="m238.146 185.623 12.289 6.909-4.66-17.626z" clip-path="url(#p290fa14737)"/><path id="patch_247" d="m240.201 203.12 12.83 7.046-2.596-17.634z" clip-path="url(#p290fa14737)"/><path id="patch_248" d="m241.012 220.006 13.337 7.37-1.318-17.21z" clip-path="url(#p290fa14737)"/><path id="patch_249" d="m245.776 174.906 4.659 17.626 7.344-10.696z" clip-path="url(#p290fa14737)"/><path id="patch_250" d="m250.435 192.532 2.596 17.634 9.608-10.728z" clip-path="url(#p290fa14737)"/><path id="patch_251" d="m253.031 210.166 1.318 17.21 11.309-10.239z" clip-path="url(#p290fa14737)"/><path id="patch_252" d="m250.435 192.532 12.204 6.906-4.86-17.602z" clip-path="url(#p290fa14737)"/><path id="patch_253" d="m253.031 210.166 12.627 6.971-3.019-17.7z" clip-path="url(#p290fa14737)"/><path id="patch_254" d="m257.779 181.836 4.86 17.602 7.143-10.672z" clip-path="url(#p290fa14737)"/><path id="patch_255" d="m262.64 199.438 3.018 17.7 9.134-10.793z" clip-path="url(#p290fa14737)"/><path id="patch_256" d="m262.64 199.438 12.152 6.907-5.01-17.579z" clip-path="url(#p290fa14737)"/><path id="patch_257" d="m269.782 188.766 5.01 17.579 6.993-10.649z" clip-path="url(#p290fa14737)"/><path id="patch_258" d="m185.76 140.256 12.003 6.93v-13.86z" clip-path="url(#p290fa14737)"/><path id="patch_259" d="m197.763 147.186 12.003 6.93 3.714-13.86z" clip-path="url(#p290fa14737)"/><path id="patch_260" d="m209.766 154.116 12.003 6.93 4.822-12.932z" clip-path="url(#p290fa14737)"/><path id="patch_261" d="m221.77 161.046 12.002 6.93 5.253-12.344z" clip-path="url(#p290fa14737)"/><path id="patch_262" d="m233.772 167.976 12.004 6.93 5.466-11.966z" clip-path="url(#p290fa14737)"/><path id="patch_263" d="m245.776 174.906 12.003 6.93 5.59-11.708z" clip-path="url(#p290fa14737)"/><path id="patch_264" d="m257.779 181.836 12.003 6.93 5.67-11.521z" clip-path="url(#p290fa14737)"/><path id="patch_265" d="m269.782 188.766 12.003 6.93 5.725-11.38z" clip-path="url(#p290fa14737)"/><path id="patch_266" d="m197.763 147.186 15.717-6.93-15.717-6.93z" clip-path="url(#p290fa14737)"/><path id="patch_267" d="m209.766 154.116 16.825-6.002-13.111-7.858z" clip-path="url(#p290fa14737)"/><path id="patch_268" d="m221.77 161.046 17.255-5.414-12.434-7.518z" clip-path="url(#p290fa14737)"/><path id="patch_269" d="m233.772 167.976 17.47-5.036-12.217-7.308z" clip-path="url(#p290fa14737)"/><path id="patch_270" d="m245.776 174.906 17.594-4.778-12.128-7.188z" clip-path="url(#p290fa14737)"/><path id="patch_271" d="m257.779 181.836 17.673-4.591-12.082-7.117z" clip-path="url(#p290fa14737)"/><path id="patch_272" d="m269.782 188.766 17.728-4.45-12.058-7.071z" clip-path="url(#p290fa14737)"/><path id="patch_273" d="m197.763 133.326 15.717 6.93-3.714-13.86z" clip-path="url(#p290fa14737)"/><path id="patch_274" d="m213.48 140.256 13.11 7.858v-15.716z" clip-path="url(#p290fa14737)"/><path id="patch_275" d="m226.59 148.114 12.435 7.518 2.175-15.376z" clip-path="url(#p290fa14737)"/><path id="patch_276" d="m239.025 155.632 12.217 7.308 3.36-14.735z" clip-path="url(#p290fa14737)"/><path id="patch_277" d="m251.242 162.94 12.128 7.188 4.051-14.156z" clip-path="url(#p290fa14737)"/><path id="patch_278" d="m263.37 170.128 12.082 7.117 4.488-13.686z" clip-path="url(#p290fa14737)"/><path id="patch_279" d="m275.452 177.245 12.058 7.07 4.78-13.306z" clip-path="url(#p290fa14737)"/><path id="patch_280" d="m213.48 140.256 13.11-7.858-16.824-6.002z" clip-path="url(#p290fa14737)"/><path id="patch_281" d="m226.59 148.114 14.61-7.858-14.61-7.858z" clip-path="url(#p290fa14737)"/><path id="patch_282" d="m239.025 155.632 15.578-7.427-13.403-7.949z" clip-path="url(#p290fa14737)"/><path id="patch_283" d="m251.242 162.94 16.18-6.968-12.82-7.767z" clip-path="url(#p290fa14737)"/><path id="patch_284" d="m263.37 170.128 16.57-6.569-12.519-7.587z" clip-path="url(#p290fa14737)"/><path id="patch_285" d="m275.452 177.245 16.838-6.236-12.35-7.45z" clip-path="url(#p290fa14737)"/><path id="patch_286" d="m209.766 126.396 16.825 6.002-4.822-12.932z" clip-path="url(#p290fa14737)"/><path id="patch_287" d="m226.59 132.398 14.61 7.858-2.175-15.376z" clip-path="url(#p290fa14737)"/><path id="patch_288" d="m241.2 140.256 13.403 7.95v-15.9z" clip-path="url(#p290fa14737)"/><path id="patch_289" d="m254.603 148.205 12.818 7.767 1.499-15.716z" clip-path="url(#p290fa14737)"/><path id="patch_290" d="m267.421 155.972 12.519 7.587 2.512-15.328z" clip-path="url(#p290fa14737)"/><path id="patch_291" d="m279.94 163.56 12.35 7.449 3.213-14.913z" clip-path="url(#p290fa14737)"/><path id="patch_292" d="m226.59 132.398 12.435-7.518-17.256-5.414z" clip-path="url(#p290fa14737)"/><path id="patch_293" d="m241.2 140.256 13.403-7.95-15.578-7.426z" clip-path="url(#p290fa14737)"/><path id="patch_294" d="m254.603 148.205 14.317-7.949-14.317-7.95z" clip-path="url(#p290fa14737)"/><path id="patch_295" d="m267.421 155.972 15.03-7.741-13.531-7.975z" clip-path="url(#p290fa14737)"/><path id="patch_296" d="m279.94 163.56 15.563-7.464-13.051-7.865z" clip-path="url(#p290fa14737)"/><path id="patch_297" d="m221.77 119.466 17.255 5.414-5.253-12.344z" clip-path="url(#p290fa14737)"/><path id="patch_298" d="m239.025 124.88 15.578 7.427-3.36-14.735z" clip-path="url(#p290fa14737)"/><path id="patch_299" d="m254.603 132.307 14.317 7.949-1.499-15.716z" clip-path="url(#p290fa14737)"/><path id="patch_300" d="m268.92 140.256 13.532 7.975v-15.95z" clip-path="url(#p290fa14737)"/><path id="patch_301" d="m282.452 148.231 13.05 7.865 1.138-15.84z" clip-path="url(#p290fa14737)"/><path id="patch_302" d="m239.025 124.88 12.217-7.308-17.47-5.036z" clip-path="url(#p290fa14737)"/><path id="patch_303" d="m254.603 132.307 12.818-7.767-16.179-6.968z" clip-path="url(#p290fa14737)"/><path id="patch_304" d="m268.92 140.256 13.532-7.975-15.03-7.74z" clip-path="url(#p290fa14737)"/><path id="patch_305" d="m282.452 148.231 14.188-7.975-14.188-7.975z" clip-path="url(#p290fa14737)"/><path id="patch_306" d="m233.772 112.536 17.47 5.036-5.466-11.966z" clip-path="url(#p290fa14737)"/><path id="patch_307" d="m251.242 117.572 16.18 6.968-4.052-14.156z" clip-path="url(#p290fa14737)"/><path id="patch_308" d="m267.421 124.54 15.03 7.741-2.511-15.328z" clip-path="url(#p290fa14737)"/><path id="patch_309" d="m282.452 132.281 14.188 7.975-1.137-15.84z" clip-path="url(#p290fa14737)"/><path id="patch_310" d="m251.242 117.572 12.128-7.188-17.594-4.778z" clip-path="url(#p290fa14737)"/><path id="patch_311" d="m267.421 124.54 12.519-7.587-16.57-6.569z" clip-path="url(#p290fa14737)"/><path id="patch_312" d="m282.452 132.281 13.05-7.865-15.562-7.463z" clip-path="url(#p290fa14737)"/><path id="patch_313" d="m245.776 105.606 17.594 4.778-5.591-11.708z" clip-path="url(#p290fa14737)"/><path id="patch_314" d="m263.37 110.384 16.57 6.569-4.488-13.686z" clip-path="url(#p290fa14737)"/><path id="patch_315" d="m279.94 116.953 15.563 7.463-3.213-14.913z" clip-path="url(#p290fa14737)"/><path id="patch_316" d="m263.37 110.384 12.082-7.117-17.673-4.591z" clip-path="url(#p290fa14737)"/><path id="patch_317" d="m279.94 116.953 12.35-7.45-16.838-6.236z" clip-path="url(#p290fa14737)"/><path id="patch_318" d="m257.779 98.676 17.673 4.591-5.67-11.521z" clip-path="url(#p290fa14737)"/><path id="patch_319" d="m275.452 103.267 16.838 6.236-4.78-13.306z" clip-path="url(#p290fa14737)"/><path id="patch_320" d="m275.452 103.267 12.058-7.07-17.728-4.451z" clip-path="url(#p290fa14737)"/><path id="patch_321" d="m269.782 91.746 17.728 4.45-5.725-11.38z" clip-path="url(#p290fa14737)"/><path id="patch_322" d="m185.76 140.256 12.003-6.93-12.003-6.93z" clip-path="url(#p290fa14737)"/><path id="patch_323" d="m197.763 133.326 12.003-6.93-10.146-10.146z" clip-path="url(#p290fa14737)"/><path id="patch_324" d="m209.766 126.396 12.003-6.93-8.788-10.642z" clip-path="url(#p290fa14737)"/><path id="patch_325" d="m221.77 119.466 12.002-6.93-8.063-10.72z" clip-path="url(#p290fa14737)"/><path id="patch_326" d="m233.772 112.536 12.004-6.93-7.63-10.717z" clip-path="url(#p290fa14737)"/><path id="patch_327" d="m245.776 105.606 12.003-6.93-7.344-10.696z" clip-path="url(#p290fa14737)"/><path id="patch_328" d="m257.779 98.676 12.003-6.93-7.143-10.672z" clip-path="url(#p290fa14737)"/><path id="patch_329" d="m269.782 91.746 12.003-6.93-6.993-10.649z" clip-path="url(#p290fa14737)"/><path id="patch_330" d="m197.763 133.326 1.857-17.076-13.86 10.146z" clip-path="url(#p290fa14737)"/><path id="patch_331" d="m209.766 126.396 3.215-17.572-13.361 7.426z" clip-path="url(#p290fa14737)"/><path id="patch_332" d="m221.77 119.466 3.939-17.65-12.728 7.008z" clip-path="url(#p290fa14737)"/><path id="patch_333" d="m233.772 112.536 4.374-17.647-12.437 6.926z" clip-path="url(#p290fa14737)"/><path id="patch_334" d="m245.776 105.606 4.659-17.626-12.29 6.909z" clip-path="url(#p290fa14737)"/><path id="patch_335" d="m257.779 98.676 4.86-17.602-12.204 6.906z" clip-path="url(#p290fa14737)"/><path id="patch_336" d="m269.782 91.746 5.01-17.579-12.153 6.907z" clip-path="url(#p290fa14737)"/><path id="patch_337" d="m185.76 126.396 13.86-10.146-13.86-3.714z" clip-path="url(#p290fa14737)"/><path id="patch_338" d="m199.62 116.25 13.36-7.426-13.61-7.857z" clip-path="url(#p290fa14737)"/><path id="patch_339" d="m212.98 108.824 12.729-7.009-12.229-9.571z" clip-path="url(#p290fa14737)"/><path id="patch_340" d="m225.709 101.815 12.437-6.926-11.08-10.278z" clip-path="url(#p290fa14737)"/><path id="patch_341" d="m238.146 94.889 12.289-6.909L240.2 77.393z" clip-path="url(#p290fa14737)"/><path id="patch_342" d="m250.435 87.98 12.204-6.906-9.608-10.728z" clip-path="url(#p290fa14737)"/><path id="patch_343" d="m262.64 81.074 12.152-6.907-9.134-10.792z" clip-path="url(#p290fa14737)"/><path id="patch_344" d="m199.62 116.25-.25-15.283-13.61 11.569z" clip-path="url(#p290fa14737)"/><path id="patch_345" d="m212.98 108.824.5-16.58-14.11 8.723z" clip-path="url(#p290fa14737)"/><path id="patch_346" d="m225.709 101.815 1.357-17.204-13.586 7.633z" clip-path="url(#p290fa14737)"/><path id="patch_347" d="m238.146 94.889 2.055-17.496-13.135 7.218z" clip-path="url(#p290fa14737)"/><path id="patch_348" d="m250.435 87.98 2.596-17.634-12.83 7.047z" clip-path="url(#p290fa14737)"/><path id="patch_349" d="m262.64 81.074 3.018-17.7-12.627 6.972z" clip-path="url(#p290fa14737)"/><path id="patch_350" d="m185.76 112.536 13.61-11.57-13.61-2.29z" clip-path="url(#p290fa14737)"/><path id="patch_351" d="m199.37 100.967 14.11-8.723-14.404-5.805z" clip-path="url(#p290fa14737)"/><path id="patch_352" d="m213.48 92.244 13.586-7.633-13.769-7.949z" clip-path="url(#p290fa14737)"/><path id="patch_353" d="m227.066 84.611 13.135-7.218-12.861-9.156z" clip-path="url(#p290fa14737)"/><path id="patch_354" d="m240.201 77.393 12.83-7.047-12.019-9.84z" clip-path="url(#p290fa14737)"/><path id="patch_355" d="m253.031 70.346 12.627-6.971-11.309-10.239z" clip-path="url(#p290fa14737)"/><path id="patch_356" d="m199.37 100.967-.294-14.528-13.316 12.237z" clip-path="url(#p290fa14737)"/><path id="patch_357" d="m213.48 92.244-.183-15.582-14.22 9.777z" clip-path="url(#p290fa14737)"/><path id="patch_358" d="m227.066 84.611.274-16.374-14.043 8.425z" clip-path="url(#p290fa14737)"/><path id="patch_359" d="m240.201 77.393.811-16.887-13.672 7.731z" clip-path="url(#p290fa14737)"/><path id="patch_360" d="m253.031 70.346 1.318-17.21-13.337 7.37z" clip-path="url(#p290fa14737)"/><path id="patch_361" d="m185.76 98.676 13.316-12.237-13.316-1.623z" clip-path="url(#p290fa14737)"/><path id="patch_362" d="m199.076 86.439 14.221-9.777-14.44-4.457z" clip-path="url(#p290fa14737)"/><path id="patch_363" d="m213.297 76.662 14.043-8.425-14.36-6.56z" clip-path="url(#p290fa14737)"/><path id="patch_364" d="m227.34 68.237 13.672-7.73L227.2 52.53z" clip-path="url(#p290fa14737)"/><path id="patch_365" d="m241.012 60.506 13.337-7.37-13.149-8.905z" clip-path="url(#p290fa14737)"/><path id="patch_366" d="m199.076 86.439-.22-14.234-13.096 12.611z" clip-path="url(#p290fa14737)"/><path id="patch_367" d="m213.297 76.662-.316-14.985-14.125 10.528z" clip-path="url(#p290fa14737)"/><path id="patch_368" d="m227.34 68.237-.14-15.706-14.22 9.146z" clip-path="url(#p290fa14737)"/><path id="patch_369" d="m241.012 60.506.188-16.275-14 8.3z" clip-path="url(#p290fa14737)"/><path id="patch_370" d="m185.76 84.816 13.096-12.611-13.096-1.249z" clip-path="url(#p290fa14737)"/><path id="patch_371" d="m198.856 72.205 14.125-10.528-14.286-3.569z" clip-path="url(#p290fa14737)"/><path id="patch_372" d="m212.98 61.677 14.22-9.146-14.531-5.489z" clip-path="url(#p290fa14737)"/><path id="patch_373" d="m227.2 52.531 14-8.3-14.286-6.935z" clip-path="url(#p290fa14737)"/><path id="patch_374" d="m198.856 72.205-.161-14.097-12.935 12.848z" clip-path="url(#p290fa14737)"/><path id="patch_375" d="m212.98 61.677-.311-14.635-13.974 11.066z" clip-path="url(#p290fa14737)"/><path id="patch_376" d="m227.2 52.531-.286-15.235-14.245 9.746z" clip-path="url(#p290fa14737)"/><path id="patch_377" d="m185.76 70.956 12.935-12.848-12.935-1.012z" clip-path="url(#p290fa14737)"/><path id="patch_378" d="m198.695 58.108 13.974-11.066-14.096-2.956z" clip-path="url(#p290fa14737)"/><path id="patch_379" d="m212.669 47.042 14.245-9.746-14.521-4.674z" clip-path="url(#p290fa14737)"/><path id="patch_380" d="m198.695 58.108-.122-14.022-12.813 13.01z" clip-path="url(#p290fa14737)"/><path id="patch_381" d="m212.669 47.042-.276-14.42-13.82 11.464z" clip-path="url(#p290fa14737)"/><path id="patch_382" d="m185.76 57.096 12.813-13.01-12.813-.85z" clip-path="url(#p290fa14737)"/><path id="patch_383" d="m198.573 44.086 13.82-11.464-13.914-2.514z" clip-path="url(#p290fa14737)"/><path id="patch_384" d="m198.573 44.086-.094-13.978-12.719 13.128z" clip-path="url(#p290fa14737)"/><path id="patch_385" d="m185.76 43.236 12.719-13.128-12.719-.732z" clip-path="url(#p290fa14737)"/></g></g><defs id="defs395"><clipPath id="p290fa14737"><path id="path392" d="M7.2 7.2h357.12v266.112H7.2z"/></clipPath></defs></svg>