<svg height="374.016" viewBox="0 0 371.52 280.512" width="495.36" xmlns="http://www.w3.org/2000/svg"><defs><style>*{stroke-linecap:butt;stroke-linejoin:round}</style></defs><g id="figure_1"><path d="M0 280.512h371.52V0H0z" fill="none" id="patch_1"/><g id="axes_1"><path clip-path="url(#p290fa14737)" d="M185.76 140.256v-13.86l-12.003 6.93z" fill="#ddd" stroke="#000" id="patch_2"/><path clip-path="url(#p290fa14737)" d="M185.76 126.396v-13.86l-13.86 3.714z" fill="#ddd" stroke="#000" id="patch_3"/><path clip-path="url(#p290fa14737)" d="M185.76 112.536v-13.86l-13.61 2.29z" fill="#ddd" stroke="#000" id="patch_4"/><path clip-path="url(#p290fa14737)" d="M185.76 98.676v-13.86l-13.316 1.623z" fill="#ddd" stroke="#000" id="patch_5"/><path clip-path="url(#p290fa14737)" d="M185.76 84.816v-13.86l-13.096 1.249z" fill="#ddd" stroke="#000" id="patch_6"/><path clip-path="url(#p290fa14737)" d="M185.76 70.956v-13.86l-12.935 1.012z" fill="#ddd" stroke="#000" id="patch_7"/><path clip-path="url(#p290fa14737)" d="M185.76 57.096v-13.86l-12.813.85z" fill="#ddd" stroke="#000" id="patch_8"/><path clip-path="url(#p290fa14737)" d="M185.76 43.236v-13.86l-12.719.732z" fill="#ddd" stroke="#000" id="patch_9"/><path clip-path="url(#p290fa14737)" d="M185.76 126.396L171.9 116.25l1.857 17.076z" fill="#ddd" stroke="#000" id="patch_10"/><path clip-path="url(#p290fa14737)" d="M185.76 112.536l-13.61-11.57-.25 15.284z" fill="#ddd" stroke="#000" id="patch_11"/><path clip-path="url(#p290fa14737)" d="M185.76 98.676l-13.316-12.237-.294 14.528z" fill="#ddd" stroke="#000" id="patch_12"/><path clip-path="url(#p290fa14737)" d="M185.76 84.816l-13.096-12.611-.22 14.234z" fill="#ddd" stroke="#000" id="patch_13"/><path clip-path="url(#p290fa14737)" d="M185.76 70.956l-12.935-12.848-.161 14.097z" fill="#ddd" stroke="#000" id="patch_14"/><path clip-path="url(#p290fa14737)" d="M185.76 57.096l-12.813-13.01-.122 14.022z" fill="#ddd" stroke="#000" id="patch_15"/><path clip-path="url(#p290fa14737)" d="M185.76 43.236l-12.719-13.128-.094 13.978z" fill="#ddd" stroke="#000" id="patch_16"/><path clip-path="url(#p290fa14737)" d="M173.757 133.326L171.9 116.25l-10.146 10.146z" fill="#ddd" stroke="#000" id="patch_17"/><path clip-path="url(#p290fa14737)" d="M171.9 116.25l.25-15.283-13.61 7.857z" fill="#ddd" stroke="#000" id="patch_18"/><path clip-path="url(#p290fa14737)" d="M172.15 100.967l.294-14.528-14.404 5.805z" fill="#ddd" stroke="#000" id="patch_19"/><path clip-path="url(#p290fa14737)" d="M172.444 86.439l.22-14.234-14.441 4.457z" fill="#ddd" stroke="#000" id="patch_20"/><path clip-path="url(#p290fa14737)" d="M172.664 72.205l.161-14.097-14.285 3.57z" fill="#ddd" stroke="#000" id="patch_21"/><path clip-path="url(#p290fa14737)" d="M172.825 58.108l.122-14.022-14.096 2.956z" fill="#ddd" stroke="#000" id="patch_22"/><path clip-path="url(#p290fa14737)" d="M172.947 44.086l.094-13.978-13.914 2.514z" fill="#ddd" stroke="#000" id="patch_23"/><path clip-path="url(#p290fa14737)" d="M171.9 116.25l-13.36-7.426 3.214 17.572z" fill="#ddd" stroke="#000" id="patch_24"/><path clip-path="url(#p290fa14737)" d="M172.15 100.967l-14.11-8.723.5 16.58z" fill="#ddd" stroke="#000" id="patch_25"/><path clip-path="url(#p290fa14737)" d="M172.444 86.439l-14.221-9.777-.183 15.582z" fill="#ddd" stroke="#000" id="patch_26"/><path clip-path="url(#p290fa14737)" d="M172.664 72.205L158.54 61.677l-.317 14.985z" fill="#ddd" stroke="#000" id="patch_27"/><path clip-path="url(#p290fa14737)" d="M172.825 58.108l-13.974-11.066-.311 14.635z" fill="#ddd" stroke="#000" id="patch_28"/><path clip-path="url(#p290fa14737)" d="M172.947 44.086l-13.82-11.464-.276 14.42z" fill="#ddd" stroke="#000" id="patch_29"/><path clip-path="url(#p290fa14737)" d="M161.754 126.396l-3.214-17.572-8.79 10.642z" fill="#ddd" stroke="#000" id="patch_30"/><path clip-path="url(#p290fa14737)" d="M158.54 108.824l-.5-16.58-12.229 9.571z" fill="#ddd" stroke="#000" id="patch_31"/><path clip-path="url(#p290fa14737)" d="M158.04 92.244l.183-15.582-13.769 7.95z" fill="#ddd" stroke="#000" id="patch_32"/><path clip-path="url(#p290fa14737)" d="M158.223 76.662l.316-14.985-14.359 6.56z" fill="#ddd" stroke="#000" id="patch_33"/><path clip-path="url(#p290fa14737)" d="M158.54 61.677l.311-14.635-14.53 5.49z" fill="#ddd" stroke="#000" id="patch_34"/><path clip-path="url(#p290fa14737)" d="M158.851 47.042l.276-14.42-14.52 4.674z" fill="#ddd" stroke="#000" id="patch_35"/><path clip-path="url(#p290fa14737)" d="M158.54 108.824l-12.729-7.009 3.94 17.651z" fill="#ddd" stroke="#000" id="patch_36"/><path clip-path="url(#p290fa14737)" d="M158.04 92.244l-13.586-7.633 1.357 17.204z" fill="#ddd" stroke="#000" id="patch_37"/><path clip-path="url(#p290fa14737)" d="M158.223 76.662l-14.043-8.425.274 16.374z" fill="#ddd" stroke="#000" id="patch_38"/><path clip-path="url(#p290fa14737)" d="M158.54 61.677l-14.22-9.146-.14 15.706z" fill="#ddd" stroke="#000" id="patch_39"/><path clip-path="url(#p290fa14737)" d="M158.851 47.042l-14.245-9.746-.285 15.235z" fill="#ddd" stroke="#000" id="patch_40"/><path clip-path="url(#p290fa14737)" d="M149.75 119.466l-3.939-17.65-8.063 10.72z" fill="#ddd" stroke="#000" id="patch_41"/><path clip-path="url(#p290fa14737)" d="M145.811 101.815l-1.357-17.204-11.08 10.278z" fill="#ddd" stroke="#000" id="patch_42"/><path clip-path="url(#p290fa14737)" d="M144.454 84.611l-.274-16.374-12.861 9.156z" fill="#ddd" stroke="#000" id="patch_43"/><path clip-path="url(#p290fa14737)" d="M144.18 68.237l.14-15.706-13.812 7.975z" fill="#ddd" stroke="#000" id="patch_44"/><path clip-path="url(#p290fa14737)" d="M144.32 52.531l.286-15.235-14.286 6.935z" fill="#ddd" stroke="#000" id="patch_45"/><path clip-path="url(#p290fa14737)" d="M145.811 101.815l-12.437-6.926 4.374 17.647z" fill="#ddd" stroke="#000" id="patch_46"/><path clip-path="url(#p290fa14737)" d="M144.454 84.611l-13.135-7.218 2.055 17.496z" fill="#ddd" stroke="#000" id="patch_47"/><path clip-path="url(#p290fa14737)" d="M144.18 68.237l-13.672-7.73.811 16.886z" fill="#ddd" stroke="#000" id="patch_48"/><path clip-path="url(#p290fa14737)" d="M144.32 52.531l-14-8.3.188 16.275z" fill="#ddd" stroke="#000" id="patch_49"/><path clip-path="url(#p290fa14737)" d="M137.748 112.536l-4.374-17.647-7.63 10.717z" fill="#ddd" stroke="#000" id="patch_50"/><path clip-path="url(#p290fa14737)" d="M133.374 94.889l-2.055-17.496-10.234 10.587z" fill="#ddd" stroke="#000" id="patch_51"/><path clip-path="url(#p290fa14737)" d="M131.319 77.393l-.811-16.887-12.02 9.84z" fill="#ddd" stroke="#000" id="patch_52"/><path clip-path="url(#p290fa14737)" d="M130.508 60.506l-.188-16.275-13.15 8.905z" fill="#ddd" stroke="#000" id="patch_53"/><path clip-path="url(#p290fa14737)" d="M133.374 94.889l-12.289-6.909 4.66 17.626z" fill="#ddd" stroke="#000" id="patch_54"/><path clip-path="url(#p290fa14737)" d="M131.319 77.393l-12.83-7.047 2.596 17.634z" fill="#ddd" stroke="#000" id="patch_55"/><path clip-path="url(#p290fa14737)" d="M130.508 60.506l-13.337-7.37 1.318 17.21z" fill="#ddd" stroke="#000" id="patch_56"/><path clip-path="url(#p290fa14737)" d="M125.744 105.606l-4.659-17.626-7.344 10.696z" fill="#ddd" stroke="#000" id="patch_57"/><path clip-path="url(#p290fa14737)" d="M121.085 87.98l-2.596-17.634-9.608 10.728z" fill="#ddd" stroke="#000" id="patch_58"/><path clip-path="url(#p290fa14737)" d="M118.489 70.346l-1.318-17.21-11.309 10.239z" fill="#ddd" stroke="#000" id="patch_59"/><path clip-path="url(#p290fa14737)" d="M121.085 87.98l-12.204-6.906 4.86 17.602z" fill="#ddd" stroke="#000" id="patch_60"/><path clip-path="url(#p290fa14737)" d="M118.489 70.346l-12.627-6.971 3.019 17.7z" fill="#ddd" stroke="#000" id="patch_61"/><path clip-path="url(#p290fa14737)" d="M113.741 98.676l-4.86-17.602-7.143 10.672z" fill="#ddd" stroke="#000" id="patch_62"/><path clip-path="url(#p290fa14737)" d="M108.88 81.074l-3.018-17.7-9.134 10.793z" fill="#ddd" stroke="#000" id="patch_63"/><path clip-path="url(#p290fa14737)" d="M108.88 81.074l-12.152-6.907 5.01 17.579z" fill="#ddd" stroke="#000" id="patch_64"/><path clip-path="url(#p290fa14737)" d="M101.738 91.746l-5.01-17.579-6.993 10.649z" fill="#ddd" stroke="#000" id="patch_65"/><path clip-path="url(#p290fa14737)" d="M185.76 140.256l-12.003-6.93v13.86z" fill="#ddd" stroke="#000" id="patch_66"/><path clip-path="url(#p290fa14737)" d="M173.757 133.326l-12.003-6.93-3.714 13.86z" fill="#ddd" stroke="#000" id="patch_67"/><path clip-path="url(#p290fa14737)" d="M161.754 126.396l-12.003-6.93-4.822 12.932z" fill="#ddd" stroke="#000" id="patch_68"/><path clip-path="url(#p290fa14737)" d="M149.75 119.466l-12.002-6.93-5.253 12.344z" fill="#ddd" stroke="#000" id="patch_69"/><path clip-path="url(#p290fa14737)" d="M137.748 112.536l-12.004-6.93-5.466 11.966z" fill="#ddd" stroke="#000" id="patch_70"/><path clip-path="url(#p290fa14737)" d="M125.744 105.606l-12.003-6.93-5.59 11.708z" fill="#ddd" stroke="#000" id="patch_71"/><path clip-path="url(#p290fa14737)" d="M113.741 98.676l-12.003-6.93-5.67 11.521z" fill="#ddd" stroke="#000" id="patch_72"/><path clip-path="url(#p290fa14737)" d="M101.738 91.746l-12.003-6.93-5.725 11.38z" fill="#ddd" stroke="#000" id="patch_73"/><path clip-path="url(#p290fa14737)" d="M173.757 133.326l-15.717 6.93 15.717 6.93z" fill="#ddd" stroke="#000" id="patch_74"/><path clip-path="url(#p290fa14737)" d="M161.754 126.396l-16.825 6.002 13.111 7.858z" fill="#ddd" stroke="#000" id="patch_75"/><path clip-path="url(#p290fa14737)" d="M149.75 119.466l-17.255 5.414 12.434 7.518z" fill="#ddd" stroke="#000" id="patch_76"/><path clip-path="url(#p290fa14737)" d="M137.748 112.536l-17.47 5.036 12.217 7.308z" fill="#ddd" stroke="#000" id="patch_77"/><path clip-path="url(#p290fa14737)" d="M125.744 105.606l-17.594 4.778 12.128 7.188z" fill="#ddd" stroke="#000" id="patch_78"/><path clip-path="url(#p290fa14737)" d="M113.741 98.676l-17.673 4.591 12.082 7.117z" fill="#ddd" stroke="#000" id="patch_79"/><path clip-path="url(#p290fa14737)" d="M101.738 91.746l-17.728 4.45 12.058 7.071z" fill="#ddd" stroke="#000" id="patch_80"/><path clip-path="url(#p290fa14737)" d="M173.757 147.186l-15.717-6.93 3.714 13.86z" fill="#ddd" stroke="#000" id="patch_81"/><path clip-path="url(#p290fa14737)" d="M158.04 140.256l-13.11-7.858v15.716z" fill="#ddd" stroke="#000" id="patch_82"/><path clip-path="url(#p290fa14737)" d="M144.93 132.398l-12.435-7.518-2.175 15.376z" fill="#ddd" stroke="#000" id="patch_83"/><path clip-path="url(#p290fa14737)" d="M132.495 124.88l-12.217-7.308-3.36 14.735z" fill="#ddd" stroke="#000" id="patch_84"/><path clip-path="url(#p290fa14737)" d="M120.278 117.572l-12.128-7.188-4.051 14.156z" fill="#ddd" stroke="#000" id="patch_85"/><path clip-path="url(#p290fa14737)" d="M108.15 110.384l-12.082-7.117-4.488 13.686z" fill="#ddd" stroke="#000" id="patch_86"/><path clip-path="url(#p290fa14737)" d="M96.068 103.267l-12.058-7.07-4.78 13.306z" fill="#ddd" stroke="#000" id="patch_87"/><path clip-path="url(#p290fa14737)" d="M158.04 140.256l-13.11 7.858 16.824 6.002z" fill="#ddd" stroke="#000" id="patch_88"/><path clip-path="url(#p290fa14737)" d="M144.93 132.398l-14.61 7.858 14.61 7.858z" fill="#ddd" stroke="#000" id="patch_89"/><path clip-path="url(#p290fa14737)" d="M132.495 124.88l-15.578 7.427 13.403 7.949z" fill="#ddd" stroke="#000" id="patch_90"/><path clip-path="url(#p290fa14737)" d="M120.278 117.572l-16.18 6.968 12.82 7.767z" fill="#ddd" stroke="#000" id="patch_91"/><path clip-path="url(#p290fa14737)" d="M108.15 110.384l-16.57 6.569 12.519 7.587z" fill="#ddd" stroke="#000" id="patch_92"/><path clip-path="url(#p290fa14737)" d="M96.068 103.267l-16.838 6.236 12.35 7.45z" fill="#ddd" stroke="#000" id="patch_93"/><path clip-path="url(#p290fa14737)" d="M161.754 154.116l-16.825-6.002 4.822 12.932z" fill="#ddd" stroke="#000" id="patch_94"/><path clip-path="url(#p290fa14737)" d="M144.93 148.114l-14.61-7.858 2.175 15.376z" fill="#ddd" stroke="#000" id="patch_95"/><path clip-path="url(#p290fa14737)" d="M130.32 140.256l-13.403-7.95v15.9z" fill="#ddd" stroke="#000" id="patch_96"/><path clip-path="url(#p290fa14737)" d="M116.917 132.307L104.1 124.54l-1.499 15.716z" fill="#ddd" stroke="#000" id="patch_97"/><path clip-path="url(#p290fa14737)" d="M104.099 124.54l-12.519-7.587-2.512 15.328z" fill="#ddd" stroke="#000" id="patch_98"/><path clip-path="url(#p290fa14737)" d="M91.58 116.953l-12.35-7.45-3.213 14.913z" fill="#ddd" stroke="#000" id="patch_99"/><path clip-path="url(#p290fa14737)" d="M144.93 148.114l-12.435 7.518 17.256 5.414z" fill="#ddd" stroke="#000" id="patch_100"/><path clip-path="url(#p290fa14737)" d="M130.32 140.256l-13.403 7.95 15.578 7.426z" fill="#ddd" stroke="#000" id="patch_101"/><path clip-path="url(#p290fa14737)" d="M116.917 132.307l-14.317 7.949 14.317 7.95z" fill="#ddd" stroke="#000" id="patch_102"/><path clip-path="url(#p290fa14737)" d="M104.099 124.54l-15.03 7.741 13.531 7.975z" fill="#ddd" stroke="#000" id="patch_103"/><path clip-path="url(#p290fa14737)" d="M91.58 116.953l-15.563 7.463 13.051 7.865z" fill="#ddd" stroke="#000" id="patch_104"/><path clip-path="url(#p290fa14737)" d="M149.75 161.046l-17.255-5.414 5.253 12.344z" fill="#ddd" stroke="#000" id="patch_105"/><path clip-path="url(#p290fa14737)" d="M132.495 155.632l-15.578-7.427 3.36 14.735z" fill="#ddd" stroke="#000" id="patch_106"/><path clip-path="url(#p290fa14737)" d="M116.917 148.205l-14.317-7.949 1.499 15.716z" fill="#ddd" stroke="#000" id="patch_107"/><path clip-path="url(#p290fa14737)" d="M102.6 140.256l-13.532-7.975v15.95z" fill="#ddd" stroke="#000" id="patch_108"/><path clip-path="url(#p290fa14737)" d="M89.068 132.281l-13.05-7.865-1.138 15.84z" fill="#ddd" stroke="#000" id="patch_109"/><path clip-path="url(#p290fa14737)" d="M132.495 155.632l-12.217 7.308 17.47 5.036z" fill="#ddd" stroke="#000" id="patch_110"/><path clip-path="url(#p290fa14737)" d="M116.917 148.205l-12.818 7.767 16.179 6.968z" fill="#ddd" stroke="#000" id="patch_111"/><path clip-path="url(#p290fa14737)" d="M102.6 140.256l-13.532 7.975 15.03 7.74z" fill="#ddd" stroke="#000" id="patch_112"/><path clip-path="url(#p290fa14737)" d="M89.068 132.281l-14.188 7.975 14.188 7.975z" fill="#ddd" stroke="#000" id="patch_113"/><path clip-path="url(#p290fa14737)" d="M137.748 167.976l-17.47-5.036 5.466 11.966z" fill="#ddd" stroke="#000" id="patch_114"/><path clip-path="url(#p290fa14737)" d="M120.278 162.94l-16.18-6.968 4.052 14.156z" fill="#ddd" stroke="#000" id="patch_115"/><path clip-path="url(#p290fa14737)" d="M104.099 155.972l-15.03-7.741 2.511 15.328z" fill="#ddd" stroke="#000" id="patch_116"/><path clip-path="url(#p290fa14737)" d="M89.068 148.231l-14.188-7.975 1.137 15.84z" fill="#ddd" stroke="#000" id="patch_117"/><path clip-path="url(#p290fa14737)" d="M120.278 162.94l-12.128 7.188 17.594 4.778z" fill="#ddd" stroke="#000" id="patch_118"/><path clip-path="url(#p290fa14737)" d="M104.099 155.972l-12.519 7.587 16.57 6.569z" fill="#ddd" stroke="#000" id="patch_119"/><path clip-path="url(#p290fa14737)" d="M89.068 148.231l-13.05 7.865 15.562 7.463z" fill="#ddd" stroke="#000" id="patch_120"/><path clip-path="url(#p290fa14737)" d="M125.744 174.906l-17.594-4.778 5.591 11.708z" fill="#ddd" stroke="#000" id="patch_121"/><path clip-path="url(#p290fa14737)" d="M108.15 170.128l-16.57-6.569 4.488 13.686z" fill="#ddd" stroke="#000" id="patch_122"/><path clip-path="url(#p290fa14737)" d="M91.58 163.56l-15.563-7.464 3.213 14.913z" fill="#ddd" stroke="#000" id="patch_123"/><path clip-path="url(#p290fa14737)" d="M108.15 170.128l-12.082 7.117 17.673 4.591z" fill="#ddd" stroke="#000" id="patch_124"/><path clip-path="url(#p290fa14737)" d="M91.58 163.56l-12.35 7.449 16.838 6.236z" fill="#ddd" stroke="#000" id="patch_125"/><path clip-path="url(#p290fa14737)" d="M113.741 181.836l-17.673-4.591 5.67 11.521z" fill="#ddd" stroke="#000" id="patch_126"/><path clip-path="url(#p290fa14737)" d="M96.068 177.245l-16.838-6.236 4.78 13.306z" fill="#ddd" stroke="#000" id="patch_127"/><path clip-path="url(#p290fa14737)" d="M96.068 177.245l-12.058 7.07 17.728 4.451z" fill="#ddd" stroke="#000" id="patch_128"/><path clip-path="url(#p290fa14737)" d="M101.738 188.766l-17.728-4.45 5.725 11.38z" fill="#ddd" stroke="#000" id="patch_129"/><path clip-path="url(#p290fa14737)" d="M185.76 140.256l-12.003 6.93 12.003 6.93z" fill="#ddd" stroke="#000" id="patch_130"/><path clip-path="url(#p290fa14737)" d="M173.757 147.186l-12.003 6.93 10.146 10.146z" fill="#ddd" stroke="#000" id="patch_131"/><path clip-path="url(#p290fa14737)" d="M161.754 154.116l-12.003 6.93 8.788 10.642z" fill="#ddd" stroke="#000" id="patch_132"/><path clip-path="url(#p290fa14737)" d="M149.75 161.046l-12.002 6.93 8.063 10.72z" fill="#ddd" stroke="#000" id="patch_133"/><path clip-path="url(#p290fa14737)" d="M137.748 167.976l-12.004 6.93 7.63 10.717z" fill="#ddd" stroke="#000" id="patch_134"/><path clip-path="url(#p290fa14737)" d="M125.744 174.906l-12.003 6.93 7.344 10.696z" fill="#ddd" stroke="#000" id="patch_135"/><path clip-path="url(#p290fa14737)" d="M113.741 181.836l-12.003 6.93 7.143 10.672z" fill="#ddd" stroke="#000" id="patch_136"/><path clip-path="url(#p290fa14737)" d="M101.738 188.766l-12.003 6.93 6.993 10.649z" fill="#ddd" stroke="#000" id="patch_137"/><path clip-path="url(#p290fa14737)" d="M173.757 147.186l-1.857 17.076 13.86-10.146z" fill="#ddd" stroke="#000" id="patch_138"/><path clip-path="url(#p290fa14737)" d="M161.754 154.116l-3.214 17.572 13.36-7.426z" fill="#ddd" stroke="#000" id="patch_139"/><path clip-path="url(#p290fa14737)" d="M149.75 161.046l-3.939 17.65 12.728-7.008z" fill="#ddd" stroke="#000" id="patch_140"/><path clip-path="url(#p290fa14737)" d="M137.748 167.976l-4.374 17.647 12.437-6.926z" fill="#ddd" stroke="#000" id="patch_141"/><path clip-path="url(#p290fa14737)" d="M125.744 174.906l-4.659 17.626 12.29-6.909z" fill="#ddd" stroke="#000" id="patch_142"/><path clip-path="url(#p290fa14737)" d="M113.741 181.836l-4.86 17.602 12.204-6.906z" fill="#ddd" stroke="#000" id="patch_143"/><path clip-path="url(#p290fa14737)" d="M101.738 188.766l-5.01 17.579 12.153-6.907z" fill="#ddd" stroke="#000" id="patch_144"/><path clip-path="url(#p290fa14737)" d="M185.76 154.116l-13.86 10.146 13.86 3.714z" fill="#ddd" stroke="#000" id="patch_145"/><path clip-path="url(#p290fa14737)" d="M171.9 164.262l-13.36 7.426 13.61 7.857z" fill="#ddd" stroke="#000" id="patch_146"/><path clip-path="url(#p290fa14737)" d="M158.54 171.688l-12.729 7.009 12.229 9.571z" fill="#ddd" stroke="#000" id="patch_147"/><path clip-path="url(#p290fa14737)" d="M145.811 178.697l-12.437 6.926 11.08 10.278z" fill="#ddd" stroke="#000" id="patch_148"/><path clip-path="url(#p290fa14737)" d="M133.374 185.623l-12.289 6.909 10.234 10.587z" fill="#ddd" stroke="#000" id="patch_149"/><path clip-path="url(#p290fa14737)" d="M121.085 192.532l-12.204 6.906 9.608 10.728z" fill="#ddd" stroke="#000" id="patch_150"/><path clip-path="url(#p290fa14737)" d="M108.88 199.438l-12.152 6.907 9.134 10.792z" fill="#ddd" stroke="#000" id="patch_151"/><path clip-path="url(#p290fa14737)" d="M171.9 164.262l.25 15.283 13.61-11.569z" fill="#ddd" stroke="#000" id="patch_152"/><path clip-path="url(#p290fa14737)" d="M158.54 171.688l-.5 16.58 14.11-8.723z" fill="#ddd" stroke="#000" id="patch_153"/><path clip-path="url(#p290fa14737)" d="M145.811 178.697l-1.357 17.204 13.586-7.633z" fill="#ddd" stroke="#000" id="patch_154"/><path clip-path="url(#p290fa14737)" d="M133.374 185.623l-2.055 17.496 13.135-7.218z" fill="#ddd" stroke="#000" id="patch_155"/><path clip-path="url(#p290fa14737)" d="M121.085 192.532l-2.596 17.634 12.83-7.047z" fill="#ddd" stroke="#000" id="patch_156"/><path clip-path="url(#p290fa14737)" d="M108.88 199.438l-3.018 17.7 12.627-6.972z" fill="#ddd" stroke="#000" id="patch_157"/><path clip-path="url(#p290fa14737)" d="M185.76 167.976l-13.61 11.57 13.61 2.29z" fill="#ddd" stroke="#000" id="patch_158"/><path clip-path="url(#p290fa14737)" d="M172.15 179.545l-14.11 8.723 14.404 5.805z" fill="#ddd" stroke="#000" id="patch_159"/><path clip-path="url(#p290fa14737)" d="M158.04 188.268l-13.586 7.633 13.769 7.949z" fill="#ddd" stroke="#000" id="patch_160"/><path clip-path="url(#p290fa14737)" d="M144.454 195.9l-13.135 7.22 12.861 9.155z" fill="#ddd" stroke="#000" id="patch_161"/><path clip-path="url(#p290fa14737)" d="M131.319 203.12l-12.83 7.046 12.019 9.84z" fill="#ddd" stroke="#000" id="patch_162"/><path clip-path="url(#p290fa14737)" d="M118.489 210.166l-12.627 6.971 11.309 10.239z" fill="#ddd" stroke="#000" id="patch_163"/><path clip-path="url(#p290fa14737)" d="M172.15 179.545l.294 14.528 13.316-12.237z" fill="#ddd" stroke="#000" id="patch_164"/><path clip-path="url(#p290fa14737)" d="M158.04 188.268l.183 15.582 14.22-9.777z" fill="#ddd" stroke="#000" id="patch_165"/><path clip-path="url(#p290fa14737)" d="M144.454 195.9l-.274 16.375 14.043-8.425z" fill="#ddd" stroke="#000" id="patch_166"/><path clip-path="url(#p290fa14737)" d="M131.319 203.12l-.811 16.886 13.672-7.731z" fill="#ddd" stroke="#000" id="patch_167"/><path clip-path="url(#p290fa14737)" d="M118.489 210.166l-1.318 17.21 13.337-7.37z" fill="#ddd" stroke="#000" id="patch_168"/><path clip-path="url(#p290fa14737)" d="M185.76 181.836l-13.316 12.237 13.316 1.623z" fill="#ddd" stroke="#000" id="patch_169"/><path clip-path="url(#p290fa14737)" d="M172.444 194.073l-14.221 9.777 14.44 4.457z" fill="#ddd" stroke="#000" id="patch_170"/><path clip-path="url(#p290fa14737)" d="M158.223 203.85l-14.043 8.425 14.36 6.56z" fill="#ddd" stroke="#000" id="patch_171"/><path clip-path="url(#p290fa14737)" d="M144.18 212.275l-13.672 7.73 13.813 7.976z" fill="#ddd" stroke="#000" id="patch_172"/><path clip-path="url(#p290fa14737)" d="M130.508 220.006l-13.337 7.37 13.149 8.905z" fill="#ddd" stroke="#000" id="patch_173"/><path clip-path="url(#p290fa14737)" d="M172.444 194.073l.22 14.234 13.096-12.611z" fill="#ddd" stroke="#000" id="patch_174"/><path clip-path="url(#p290fa14737)" d="M158.223 203.85l.316 14.985 14.125-10.528z" fill="#ddd" stroke="#000" id="patch_175"/><path clip-path="url(#p290fa14737)" d="M144.18 212.275l.14 15.706 14.22-9.146z" fill="#ddd" stroke="#000" id="patch_176"/><path clip-path="url(#p290fa14737)" d="M130.508 220.006l-.188 16.275 14-8.3z" fill="#ddd" stroke="#000" id="patch_177"/><path clip-path="url(#p290fa14737)" d="M185.76 195.696l-13.096 12.611 13.096 1.249z" fill="#ddd" stroke="#000" id="patch_178"/><path clip-path="url(#p290fa14737)" d="M172.664 208.307l-14.124 10.528 14.285 3.569z" fill="#ddd" stroke="#000" id="patch_179"/><path clip-path="url(#p290fa14737)" d="M158.54 218.835l-14.22 9.146 14.531 5.489z" fill="#ddd" stroke="#000" id="patch_180"/><path clip-path="url(#p290fa14737)" d="M144.32 227.98l-14 8.3 14.286 6.936z" fill="#ddd" stroke="#000" id="patch_181"/><path clip-path="url(#p290fa14737)" d="M172.664 208.307l.161 14.097 12.935-12.848z" fill="#ddd" stroke="#000" id="patch_182"/><path clip-path="url(#p290fa14737)" d="M158.54 218.835l.311 14.635 13.974-11.066z" fill="#ddd" stroke="#000" id="patch_183"/><path clip-path="url(#p290fa14737)" d="M144.32 227.98l.286 15.236 14.245-9.746z" fill="#ddd" stroke="#000" id="patch_184"/><path clip-path="url(#p290fa14737)" d="M185.76 209.556l-12.935 12.848 12.935 1.012z" fill="#ddd" stroke="#000" id="patch_185"/><path clip-path="url(#p290fa14737)" d="M172.825 222.404l-13.974 11.066 14.096 2.956z" fill="#ddd" stroke="#000" id="patch_186"/><path clip-path="url(#p290fa14737)" d="M158.851 233.47l-14.245 9.746 14.521 4.674z" fill="#ddd" stroke="#000" id="patch_187"/><path clip-path="url(#p290fa14737)" d="M172.825 222.404l.122 14.022 12.813-13.01z" fill="#ddd" stroke="#000" id="patch_188"/><path clip-path="url(#p290fa14737)" d="M158.851 233.47l.276 14.42 13.82-11.464z" fill="#ddd" stroke="#000" id="patch_189"/><path clip-path="url(#p290fa14737)" d="M185.76 223.416l-12.813 13.01 12.813.85z" fill="#ddd" stroke="#000" id="patch_190"/><path clip-path="url(#p290fa14737)" d="M172.947 236.426l-13.82 11.464 13.914 2.514z" fill="#ddd" stroke="#000" id="patch_191"/><path clip-path="url(#p290fa14737)" d="M172.947 236.426l.094 13.978 12.719-13.128z" fill="#ddd" stroke="#000" id="patch_192"/><path clip-path="url(#p290fa14737)" d="M185.76 237.276l-12.719 13.128 12.719.732z" fill="#ddd" stroke="#000" id="patch_193"/><path clip-path="url(#p290fa14737)" d="M185.76 140.256v13.86l12.003-6.93z" fill="#ddd" stroke="#000" id="patch_194"/><path clip-path="url(#p290fa14737)" d="M185.76 154.116v13.86l13.86-3.714z" fill="#ddd" stroke="#000" id="patch_195"/><path clip-path="url(#p290fa14737)" d="M185.76 167.976v13.86l13.61-2.29z" fill="#ddd" stroke="#000" id="patch_196"/><path clip-path="url(#p290fa14737)" d="M185.76 181.836v13.86l13.316-1.623z" fill="#ddd" stroke="#000" id="patch_197"/><path clip-path="url(#p290fa14737)" d="M185.76 195.696v13.86l13.096-1.249z" fill="#ddd" stroke="#000" id="patch_198"/><path clip-path="url(#p290fa14737)" d="M185.76 209.556v13.86l12.935-1.012z" fill="#ddd" stroke="#000" id="patch_199"/><path clip-path="url(#p290fa14737)" d="M185.76 223.416v13.86l12.813-.85z" fill="#ddd" stroke="#000" id="patch_200"/><path clip-path="url(#p290fa14737)" d="M185.76 237.276v13.86l12.719-.732z" fill="#ddd" stroke="#000" id="patch_201"/><path clip-path="url(#p290fa14737)" d="M185.76 154.116l13.86 10.146-1.857-17.076z" fill="#ddd" stroke="#000" id="patch_202"/><path clip-path="url(#p290fa14737)" d="M185.76 167.976l13.61 11.57.25-15.284z" fill="#ddd" stroke="#000" id="patch_203"/><path clip-path="url(#p290fa14737)" d="M185.76 181.836l13.316 12.237.294-14.528z" fill="#ddd" stroke="#000" id="patch_204"/><path clip-path="url(#p290fa14737)" d="M185.76 195.696l13.096 12.611.22-14.234z" fill="#ddd" stroke="#000" id="patch_205"/><path clip-path="url(#p290fa14737)" d="M185.76 209.556l12.935 12.848.161-14.097z" fill="#ddd" stroke="#000" id="patch_206"/><path clip-path="url(#p290fa14737)" d="M185.76 223.416l12.813 13.01.122-14.022z" fill="#ddd" stroke="#000" id="patch_207"/><path clip-path="url(#p290fa14737)" d="M185.76 237.276l12.719 13.128.094-13.978z" fill="#ddd" stroke="#000" id="patch_208"/><path clip-path="url(#p290fa14737)" d="M197.763 147.186l1.857 17.076 10.146-10.146z" fill="#ddd" stroke="#000" id="patch_209"/><path clip-path="url(#p290fa14737)" d="M199.62 164.262l-.25 15.283 13.61-7.857z" fill="#ddd" stroke="#000" id="patch_210"/><path clip-path="url(#p290fa14737)" d="M199.37 179.545l-.294 14.528 14.404-5.805z" fill="#ddd" stroke="#000" id="patch_211"/><path clip-path="url(#p290fa14737)" d="M199.076 194.073l-.22 14.234 14.441-4.457z" fill="#ddd" stroke="#000" id="patch_212"/><path clip-path="url(#p290fa14737)" d="M198.856 208.307l-.161 14.097 14.286-3.57z" fill="#ddd" stroke="#000" id="patch_213"/><path clip-path="url(#p290fa14737)" d="M198.695 222.404l-.122 14.022 14.096-2.956z" fill="#ddd" stroke="#000" id="patch_214"/><path clip-path="url(#p290fa14737)" d="M198.573 236.426l-.094 13.978 13.914-2.514z" fill="#ddd" stroke="#000" id="patch_215"/><path clip-path="url(#p290fa14737)" d="M199.62 164.262l13.36 7.426-3.214-17.572z" fill="#ddd" stroke="#000" id="patch_216"/><path clip-path="url(#p290fa14737)" d="M199.37 179.545l14.11 8.723-.5-16.58z" fill="#ddd" stroke="#000" id="patch_217"/><path clip-path="url(#p290fa14737)" d="M199.076 194.073l14.221 9.777.183-15.582z" fill="#ddd" stroke="#000" id="patch_218"/><path clip-path="url(#p290fa14737)" d="M198.856 208.307l14.125 10.528.316-14.985z" fill="#ddd" stroke="#000" id="patch_219"/><path clip-path="url(#p290fa14737)" d="M198.695 222.404l13.974 11.066.311-14.635z" fill="#ddd" stroke="#000" id="patch_220"/><path clip-path="url(#p290fa14737)" d="M198.573 236.426l13.82 11.464.276-14.42z" fill="#ddd" stroke="#000" id="patch_221"/><path clip-path="url(#p290fa14737)" d="M209.766 154.116l3.215 17.572 8.788-10.642z" fill="#ddd" stroke="#000" id="patch_222"/><path clip-path="url(#p290fa14737)" d="M212.98 171.688l.5 16.58 12.229-9.571z" fill="#ddd" stroke="#000" id="patch_223"/><path clip-path="url(#p290fa14737)" d="M213.48 188.268l-.183 15.582 13.769-7.95z" fill="#ddd" stroke="#000" id="patch_224"/><path clip-path="url(#p290fa14737)" d="M213.297 203.85l-.316 14.985 14.359-6.56z" fill="#ddd" stroke="#000" id="patch_225"/><path clip-path="url(#p290fa14737)" d="M212.98 218.835l-.311 14.635 14.53-5.49z" fill="#ddd" stroke="#000" id="patch_226"/><path clip-path="url(#p290fa14737)" d="M212.669 233.47l-.276 14.42 14.52-4.674z" fill="#ddd" stroke="#000" id="patch_227"/><path clip-path="url(#p290fa14737)" d="M212.98 171.688l12.729 7.009-3.94-17.651z" fill="#ddd" stroke="#000" id="patch_228"/><path clip-path="url(#p290fa14737)" d="M213.48 188.268l13.586 7.633-1.357-17.204z" fill="#ddd" stroke="#000" id="patch_229"/><path clip-path="url(#p290fa14737)" d="M213.297 203.85l14.043 8.425-.274-16.374z" fill="#ddd" stroke="#000" id="patch_230"/><path clip-path="url(#p290fa14737)" d="M212.98 218.835l14.22 9.146.14-15.706z" fill="#ddd" stroke="#000" id="patch_231"/><path clip-path="url(#p290fa14737)" d="M212.669 233.47l14.245 9.746.285-15.235z" fill="#ddd" stroke="#000" id="patch_232"/><path clip-path="url(#p290fa14737)" d="M221.77 161.046l3.939 17.65 8.063-10.72z" fill="#ddd" stroke="#000" id="patch_233"/><path clip-path="url(#p290fa14737)" d="M225.709 178.697l1.357 17.204 11.08-10.278z" fill="#ddd" stroke="#000" id="patch_234"/><path clip-path="url(#p290fa14737)" d="M227.066 195.9l.274 16.375 12.861-9.156z" fill="#ddd" stroke="#000" id="patch_235"/><path clip-path="url(#p290fa14737)" d="M227.34 212.275l-.14 15.706 13.812-7.975z" fill="#ddd" stroke="#000" id="patch_236"/><path clip-path="url(#p290fa14737)" d="M227.2 227.98l-.286 15.236 14.286-6.935z" fill="#ddd" stroke="#000" id="patch_237"/><path clip-path="url(#p290fa14737)" d="M225.709 178.697l12.437 6.926-4.374-17.647z" fill="#ddd" stroke="#000" id="patch_238"/><path clip-path="url(#p290fa14737)" d="M227.066 195.9l13.135 7.22-2.055-17.497z" fill="#ddd" stroke="#000" id="patch_239"/><path clip-path="url(#p290fa14737)" d="M227.34 212.275l13.672 7.73-.811-16.886z" fill="#ddd" stroke="#000" id="patch_240"/><path clip-path="url(#p290fa14737)" d="M227.2 227.98l14 8.3-.188-16.274z" fill="#ddd" stroke="#000" id="patch_241"/><path clip-path="url(#p290fa14737)" d="M233.772 167.976l4.374 17.647 7.63-10.717z" fill="#ddd" stroke="#000" id="patch_242"/><path clip-path="url(#p290fa14737)" d="M238.146 185.623l2.055 17.496 10.234-10.587z" fill="#ddd" stroke="#000" id="patch_243"/><path clip-path="url(#p290fa14737)" d="M240.201 203.12l.811 16.886 12.02-9.84z" fill="#ddd" stroke="#000" id="patch_244"/><path clip-path="url(#p290fa14737)" d="M241.012 220.006l.188 16.275 13.15-8.905z" fill="#ddd" stroke="#000" id="patch_245"/><path clip-path="url(#p290fa14737)" d="M238.146 185.623l12.289 6.909-4.66-17.626z" fill="#ddd" stroke="#000" id="patch_246"/><path clip-path="url(#p290fa14737)" d="M240.201 203.12l12.83 7.046-2.596-17.634z" fill="#ddd" stroke="#000" id="patch_247"/><path clip-path="url(#p290fa14737)" d="M241.012 220.006l13.337 7.37-1.318-17.21z" fill="#ddd" stroke="#000" id="patch_248"/><path clip-path="url(#p290fa14737)" d="M245.776 174.906l4.659 17.626 7.344-10.696z" fill="#ddd" stroke="#000" id="patch_249"/><path clip-path="url(#p290fa14737)" d="M250.435 192.532l2.596 17.634 9.608-10.728z" fill="#ddd" stroke="#000" id="patch_250"/><path clip-path="url(#p290fa14737)" d="M253.031 210.166l1.318 17.21 11.309-10.239z" fill="#ddd" stroke="#000" id="patch_251"/><path clip-path="url(#p290fa14737)" d="M250.435 192.532l12.204 6.906-4.86-17.602z" fill="#ddd" stroke="#000" id="patch_252"/><path clip-path="url(#p290fa14737)" d="M253.031 210.166l12.627 6.971-3.019-17.7z" fill="#ddd" stroke="#000" id="patch_253"/><path clip-path="url(#p290fa14737)" d="M257.779 181.836l4.86 17.602 7.143-10.672z" fill="#ddd" stroke="#000" id="patch_254"/><path clip-path="url(#p290fa14737)" d="M262.64 199.438l3.018 17.7 9.134-10.793z" fill="#ddd" stroke="#000" id="patch_255"/><path clip-path="url(#p290fa14737)" d="M262.64 199.438l12.152 6.907-5.01-17.579z" fill="#ddd" stroke="#000" id="patch_256"/><path clip-path="url(#p290fa14737)" d="M269.782 188.766l5.01 17.579 6.993-10.649z" fill="#ddd" stroke="#000" id="patch_257"/><path clip-path="url(#p290fa14737)" d="M185.76 140.256l12.003 6.93v-13.86z" fill="#ddd" stroke="#000" id="patch_258"/><path clip-path="url(#p290fa14737)" d="M197.763 147.186l12.003 6.93 3.714-13.86z" fill="#ddd" stroke="#000" id="patch_259"/><path clip-path="url(#p290fa14737)" d="M209.766 154.116l12.003 6.93 4.822-12.932z" fill="#ddd" stroke="#000" id="patch_260"/><path clip-path="url(#p290fa14737)" d="M221.77 161.046l12.002 6.93 5.253-12.344z" fill="#ddd" stroke="#000" id="patch_261"/><path clip-path="url(#p290fa14737)" d="M233.772 167.976l12.004 6.93 5.466-11.966z" fill="#ddd" stroke="#000" id="patch_262"/><path clip-path="url(#p290fa14737)" d="M245.776 174.906l12.003 6.93 5.59-11.708z" fill="#ddd" stroke="#000" id="patch_263"/><path clip-path="url(#p290fa14737)" d="M257.779 181.836l12.003 6.93 5.67-11.521z" fill="#ddd" stroke="#000" id="patch_264"/><path clip-path="url(#p290fa14737)" d="M269.782 188.766l12.003 6.93 5.725-11.38z" fill="#ddd" stroke="#000" id="patch_265"/><path clip-path="url(#p290fa14737)" d="M197.763 147.186l15.717-6.93-15.717-6.93z" fill="#ddd" stroke="#000" id="patch_266"/><path clip-path="url(#p290fa14737)" d="M209.766 154.116l16.825-6.002-13.111-7.858z" fill="#ddd" stroke="#000" id="patch_267"/><path clip-path="url(#p290fa14737)" d="M221.77 161.046l17.255-5.414-12.434-7.518z" fill="#ddd" stroke="#000" id="patch_268"/><path clip-path="url(#p290fa14737)" d="M233.772 167.976l17.47-5.036-12.217-7.308z" fill="#ddd" stroke="#000" id="patch_269"/><path clip-path="url(#p290fa14737)" d="M245.776 174.906l17.594-4.778-12.128-7.188z" fill="#ddd" stroke="#000" id="patch_270"/><path clip-path="url(#p290fa14737)" d="M257.779 181.836l17.673-4.591-12.082-7.117z" fill="#ddd" stroke="#000" id="patch_271"/><path clip-path="url(#p290fa14737)" d="M269.782 188.766l17.728-4.45-12.058-7.071z" fill="#ddd" stroke="#000" id="patch_272"/><path clip-path="url(#p290fa14737)" d="M197.763 133.326l15.717 6.93-3.714-13.86z" fill="#ddd" stroke="#000" id="patch_273"/><path clip-path="url(#p290fa14737)" d="M213.48 140.256l13.11 7.858v-15.716z" fill="#ddd" stroke="#000" id="patch_274"/><path clip-path="url(#p290fa14737)" d="M226.59 148.114l12.435 7.518 2.175-15.376z" fill="#ddd" stroke="#000" id="patch_275"/><path clip-path="url(#p290fa14737)" d="M239.025 155.632l12.217 7.308 3.36-14.735z" fill="#ddd" stroke="#000" id="patch_276"/><path clip-path="url(#p290fa14737)" d="M251.242 162.94l12.128 7.188 4.051-14.156z" fill="#ddd" stroke="#000" id="patch_277"/><path clip-path="url(#p290fa14737)" d="M263.37 170.128l12.082 7.117 4.488-13.686z" fill="#ddd" stroke="#000" id="patch_278"/><path clip-path="url(#p290fa14737)" d="M275.452 177.245l12.058 7.07 4.78-13.306z" fill="#ddd" stroke="#000" id="patch_279"/><path clip-path="url(#p290fa14737)" d="M213.48 140.256l13.11-7.858-16.824-6.002z" fill="#ddd" stroke="#000" id="patch_280"/><path clip-path="url(#p290fa14737)" d="M226.59 148.114l14.61-7.858-14.61-7.858z" fill="#ddd" stroke="#000" id="patch_281"/><path clip-path="url(#p290fa14737)" d="M239.025 155.632l15.578-7.427-13.403-7.949z" fill="#ddd" stroke="#000" id="patch_282"/><path clip-path="url(#p290fa14737)" d="M251.242 162.94l16.18-6.968-12.82-7.767z" fill="#ddd" stroke="#000" id="patch_283"/><path clip-path="url(#p290fa14737)" d="M263.37 170.128l16.57-6.569-12.519-7.587z" fill="#ddd" stroke="#000" id="patch_284"/><path clip-path="url(#p290fa14737)" d="M275.452 177.245l16.838-6.236-12.35-7.45z" fill="#ddd" stroke="#000" id="patch_285"/><path clip-path="url(#p290fa14737)" d="M209.766 126.396l16.825 6.002-4.822-12.932z" fill="#ddd" stroke="#000" id="patch_286"/><path clip-path="url(#p290fa14737)" d="M226.59 132.398l14.61 7.858-2.175-15.376z" fill="#ddd" stroke="#000" id="patch_287"/><path clip-path="url(#p290fa14737)" d="M241.2 140.256l13.403 7.95v-15.9z" fill="#ddd" stroke="#000" id="patch_288"/><path clip-path="url(#p290fa14737)" d="M254.603 148.205l12.818 7.767 1.499-15.716z" fill="#ddd" stroke="#000" id="patch_289"/><path clip-path="url(#p290fa14737)" d="M267.421 155.972l12.519 7.587 2.512-15.328z" fill="#ddd" stroke="#000" id="patch_290"/><path clip-path="url(#p290fa14737)" d="M279.94 163.56l12.35 7.449 3.213-14.913z" fill="#ddd" stroke="#000" id="patch_291"/><path clip-path="url(#p290fa14737)" d="M226.59 132.398l12.435-7.518-17.256-5.414z" fill="#ddd" stroke="#000" id="patch_292"/><path clip-path="url(#p290fa14737)" d="M241.2 140.256l13.403-7.95-15.578-7.426z" fill="#ddd" stroke="#000" id="patch_293"/><path clip-path="url(#p290fa14737)" d="M254.603 148.205l14.317-7.949-14.317-7.95z" fill="#ddd" stroke="#000" id="patch_294"/><path clip-path="url(#p290fa14737)" d="M267.421 155.972l15.03-7.741-13.531-7.975z" fill="#ddd" stroke="#000" id="patch_295"/><path clip-path="url(#p290fa14737)" d="M279.94 163.56l15.563-7.464-13.051-7.865z" fill="#ddd" stroke="#000" id="patch_296"/><path clip-path="url(#p290fa14737)" d="M221.77 119.466l17.255 5.414-5.253-12.344z" fill="#ddd" stroke="#000" id="patch_297"/><path clip-path="url(#p290fa14737)" d="M239.025 124.88l15.578 7.427-3.36-14.735z" fill="#ddd" stroke="#000" id="patch_298"/><path clip-path="url(#p290fa14737)" d="M254.603 132.307l14.317 7.949-1.499-15.716z" fill="#ddd" stroke="#000" id="patch_299"/><path clip-path="url(#p290fa14737)" d="M268.92 140.256l13.532 7.975v-15.95z" fill="#ddd" stroke="#000" id="patch_300"/><path clip-path="url(#p290fa14737)" d="M282.452 148.231l13.05 7.865 1.138-15.84z" fill="#ddd" stroke="#000" id="patch_301"/><path clip-path="url(#p290fa14737)" d="M239.025 124.88l12.217-7.308-17.47-5.036z" fill="#ddd" stroke="#000" id="patch_302"/><path clip-path="url(#p290fa14737)" d="M254.603 132.307l12.818-7.767-16.179-6.968z" fill="#ddd" stroke="#000" id="patch_303"/><path clip-path="url(#p290fa14737)" d="M268.92 140.256l13.532-7.975-15.03-7.74z" fill="#ddd" stroke="#000" id="patch_304"/><path clip-path="url(#p290fa14737)" d="M282.452 148.231l14.188-7.975-14.188-7.975z" fill="#ddd" stroke="#000" id="patch_305"/><path clip-path="url(#p290fa14737)" d="M233.772 112.536l17.47 5.036-5.466-11.966z" fill="#ddd" stroke="#000" id="patch_306"/><path clip-path="url(#p290fa14737)" d="M251.242 117.572l16.18 6.968-4.052-14.156z" fill="#ddd" stroke="#000" id="patch_307"/><path clip-path="url(#p290fa14737)" d="M267.421 124.54l15.03 7.741-2.511-15.328z" fill="#ddd" stroke="#000" id="patch_308"/><path clip-path="url(#p290fa14737)" d="M282.452 132.281l14.188 7.975-1.137-15.84z" fill="#ddd" stroke="#000" id="patch_309"/><path clip-path="url(#p290fa14737)" d="M251.242 117.572l12.128-7.188-17.594-4.778z" fill="#ddd" stroke="#000" id="patch_310"/><path clip-path="url(#p290fa14737)" d="M267.421 124.54l12.519-7.587-16.57-6.569z" fill="#ddd" stroke="#000" id="patch_311"/><path clip-path="url(#p290fa14737)" d="M282.452 132.281l13.05-7.865-15.562-7.463z" fill="#ddd" stroke="#000" id="patch_312"/><path clip-path="url(#p290fa14737)" d="M245.776 105.606l17.594 4.778-5.591-11.708z" fill="#ddd" stroke="#000" id="patch_313"/><path clip-path="url(#p290fa14737)" d="M263.37 110.384l16.57 6.569-4.488-13.686z" fill="#ddd" stroke="#000" id="patch_314"/><path clip-path="url(#p290fa14737)" d="M279.94 116.953l15.563 7.463-3.213-14.913z" fill="#ddd" stroke="#000" id="patch_315"/><path clip-path="url(#p290fa14737)" d="M263.37 110.384l12.082-7.117-17.673-4.591z" fill="#ddd" stroke="#000" id="patch_316"/><path clip-path="url(#p290fa14737)" d="M279.94 116.953l12.35-7.45-16.838-6.236z" fill="#ddd" stroke="#000" id="patch_317"/><path clip-path="url(#p290fa14737)" d="M257.779 98.676l17.673 4.591-5.67-11.521z" fill="#ddd" stroke="#000" id="patch_318"/><path clip-path="url(#p290fa14737)" d="M275.452 103.267l16.838 6.236-4.78-13.306z" fill="#ddd" stroke="#000" id="patch_319"/><path clip-path="url(#p290fa14737)" d="M275.452 103.267l12.058-7.07-17.728-4.451z" fill="#ddd" stroke="#000" id="patch_320"/><path clip-path="url(#p290fa14737)" d="M269.782 91.746l17.728 4.45-5.725-11.38z" fill="#ddd" stroke="#000" id="patch_321"/><path clip-path="url(#p290fa14737)" d="M185.76 140.256l12.003-6.93-12.003-6.93z" fill="#ddd" stroke="#000" id="patch_322"/><path clip-path="url(#p290fa14737)" d="M197.763 133.326l12.003-6.93-10.146-10.146z" fill="#ddd" stroke="#000" id="patch_323"/><path clip-path="url(#p290fa14737)" d="M209.766 126.396l12.003-6.93-8.788-10.642z" fill="#ddd" stroke="#000" id="patch_324"/><path clip-path="url(#p290fa14737)" d="M221.77 119.466l12.002-6.93-8.063-10.72z" fill="#ddd" stroke="#000" id="patch_325"/><path clip-path="url(#p290fa14737)" d="M233.772 112.536l12.004-6.93-7.63-10.717z" fill="#ddd" stroke="#000" id="patch_326"/><path clip-path="url(#p290fa14737)" d="M245.776 105.606l12.003-6.93-7.344-10.696z" fill="#ddd" stroke="#000" id="patch_327"/><path clip-path="url(#p290fa14737)" d="M257.779 98.676l12.003-6.93-7.143-10.672z" fill="#ddd" stroke="#000" id="patch_328"/><path clip-path="url(#p290fa14737)" d="M269.782 91.746l12.003-6.93-6.993-10.649z" fill="#ddd" stroke="#000" id="patch_329"/><path clip-path="url(#p290fa14737)" d="M197.763 133.326l1.857-17.076-13.86 10.146z" fill="#ddd" stroke="#000" id="patch_330"/><path clip-path="url(#p290fa14737)" d="M209.766 126.396l3.215-17.572-13.361 7.426z" fill="#ddd" stroke="#000" id="patch_331"/><path clip-path="url(#p290fa14737)" d="M221.77 119.466l3.939-17.65-12.728 7.008z" fill="#ddd" stroke="#000" id="patch_332"/><path clip-path="url(#p290fa14737)" d="M233.772 112.536l4.374-17.647-12.437 6.926z" fill="#ddd" stroke="#000" id="patch_333"/><path clip-path="url(#p290fa14737)" d="M245.776 105.606l4.659-17.626-12.29 6.909z" fill="#ddd" stroke="#000" id="patch_334"/><path clip-path="url(#p290fa14737)" d="M257.779 98.676l4.86-17.602-12.204 6.906z" fill="#ddd" stroke="#000" id="patch_335"/><path clip-path="url(#p290fa14737)" d="M269.782 91.746l5.01-17.579-12.153 6.907z" fill="#ddd" stroke="#000" id="patch_336"/><path clip-path="url(#p290fa14737)" d="M185.76 126.396l13.86-10.146-13.86-3.714z" fill="#ddd" stroke="#000" id="patch_337"/><path clip-path="url(#p290fa14737)" d="M199.62 116.25l13.36-7.426-13.61-7.857z" fill="#ddd" stroke="#000" id="patch_338"/><path clip-path="url(#p290fa14737)" d="M212.98 108.824l12.729-7.009-12.229-9.571z" fill="#ddd" stroke="#000" id="patch_339"/><path clip-path="url(#p290fa14737)" d="M225.709 101.815l12.437-6.926-11.08-10.278z" fill="#ddd" stroke="#000" id="patch_340"/><path clip-path="url(#p290fa14737)" d="M238.146 94.889l12.289-6.909L240.2 77.393z" fill="#ddd" stroke="#000" id="patch_341"/><path clip-path="url(#p290fa14737)" d="M250.435 87.98l12.204-6.906-9.608-10.728z" fill="#ddd" stroke="#000" id="patch_342"/><path clip-path="url(#p290fa14737)" d="M262.64 81.074l12.152-6.907-9.134-10.792z" fill="#ddd" stroke="#000" id="patch_343"/><path clip-path="url(#p290fa14737)" d="M199.62 116.25l-.25-15.283-13.61 11.569z" fill="#ddd" stroke="#000" id="patch_344"/><path clip-path="url(#p290fa14737)" d="M212.98 108.824l.5-16.58-14.11 8.723z" fill="#ddd" stroke="#000" id="patch_345"/><path clip-path="url(#p290fa14737)" d="M225.709 101.815l1.357-17.204-13.586 7.633z" fill="#ddd" stroke="#000" id="patch_346"/><path clip-path="url(#p290fa14737)" d="M238.146 94.889l2.055-17.496-13.135 7.218z" fill="#ddd" stroke="#000" id="patch_347"/><path clip-path="url(#p290fa14737)" d="M250.435 87.98l2.596-17.634-12.83 7.047z" fill="#ddd" stroke="#000" id="patch_348"/><path clip-path="url(#p290fa14737)" d="M262.64 81.074l3.018-17.7-12.627 6.972z" fill="#ddd" stroke="#000" id="patch_349"/><path clip-path="url(#p290fa14737)" d="M185.76 112.536l13.61-11.57-13.61-2.29z" fill="#ddd" stroke="#000" id="patch_350"/><path clip-path="url(#p290fa14737)" d="M199.37 100.967l14.11-8.723-14.404-5.805z" fill="#ddd" stroke="#000" id="patch_351"/><path clip-path="url(#p290fa14737)" d="M213.48 92.244l13.586-7.633-13.769-7.949z" fill="#ddd" stroke="#000" id="patch_352"/><path clip-path="url(#p290fa14737)" d="M227.066 84.611l13.135-7.218-12.861-9.156z" fill="#ddd" stroke="#000" id="patch_353"/><path clip-path="url(#p290fa14737)" d="M240.201 77.393l12.83-7.047-12.019-9.84z" fill="#ddd" stroke="#000" id="patch_354"/><path clip-path="url(#p290fa14737)" d="M253.031 70.346l12.627-6.971-11.309-10.239z" fill="#ddd" stroke="#000" id="patch_355"/><path clip-path="url(#p290fa14737)" d="M199.37 100.967l-.294-14.528-13.316 12.237z" fill="#ddd" stroke="#000" id="patch_356"/><path clip-path="url(#p290fa14737)" d="M213.48 92.244l-.183-15.582-14.22 9.777z" fill="#ddd" stroke="#000" id="patch_357"/><path clip-path="url(#p290fa14737)" d="M227.066 84.611l.274-16.374-14.043 8.425z" fill="#ddd" stroke="#000" id="patch_358"/><path clip-path="url(#p290fa14737)" d="M240.201 77.393l.811-16.887-13.672 7.731z" fill="#ddd" stroke="#000" id="patch_359"/><path clip-path="url(#p290fa14737)" d="M253.031 70.346l1.318-17.21-13.337 7.37z" fill="#ddd" stroke="#000" id="patch_360"/><path clip-path="url(#p290fa14737)" d="M185.76 98.676l13.316-12.237-13.316-1.623z" fill="#ddd" stroke="#000" id="patch_361"/><path clip-path="url(#p290fa14737)" d="M199.076 86.439l14.221-9.777-14.44-4.457z" fill="#ddd" stroke="#000" id="patch_362"/><path clip-path="url(#p290fa14737)" d="M213.297 76.662l14.043-8.425-14.36-6.56z" fill="#ddd" stroke="#000" id="patch_363"/><path clip-path="url(#p290fa14737)" d="M227.34 68.237l13.672-7.73L227.2 52.53z" fill="#ddd" stroke="#000" id="patch_364"/><path clip-path="url(#p290fa14737)" d="M241.012 60.506l13.337-7.37-13.149-8.905z" fill="#ddd" stroke="#000" id="patch_365"/><path clip-path="url(#p290fa14737)" d="M199.076 86.439l-.22-14.234-13.096 12.611z" fill="#ddd" stroke="#000" id="patch_366"/><path clip-path="url(#p290fa14737)" d="M213.297 76.662l-.316-14.985-14.125 10.528z" fill="#ddd" stroke="#000" id="patch_367"/><path clip-path="url(#p290fa14737)" d="M227.34 68.237l-.14-15.706-14.22 9.146z" fill="#ddd" stroke="#000" id="patch_368"/><path clip-path="url(#p290fa14737)" d="M241.012 60.506l.188-16.275-14 8.3z" fill="#ddd" stroke="#000" id="patch_369"/><path clip-path="url(#p290fa14737)" d="M185.76 84.816l13.096-12.611-13.096-1.249z" fill="#ddd" stroke="#000" id="patch_370"/><path clip-path="url(#p290fa14737)" d="M198.856 72.205l14.125-10.528-14.286-3.569z" fill="#ddd" stroke="#000" id="patch_371"/><path clip-path="url(#p290fa14737)" d="M212.98 61.677l14.22-9.146-14.531-5.489z" fill="#ddd" stroke="#000" id="patch_372"/><path clip-path="url(#p290fa14737)" d="M227.2 52.531l14-8.3-14.286-6.935z" fill="#ddd" stroke="#000" id="patch_373"/><path clip-path="url(#p290fa14737)" d="M198.856 72.205l-.161-14.097-12.935 12.848z" fill="#ddd" stroke="#000" id="patch_374"/><path clip-path="url(#p290fa14737)" d="M212.98 61.677l-.311-14.635-13.974 11.066z" fill="#ddd" stroke="#000" id="patch_375"/><path clip-path="url(#p290fa14737)" d="M227.2 52.531l-.286-15.235-14.245 9.746z" fill="#ddd" stroke="#000" id="patch_376"/><path clip-path="url(#p290fa14737)" d="M185.76 70.956l12.935-12.848-12.935-1.012z" fill="#ddd" stroke="#000" id="patch_377"/><path clip-path="url(#p290fa14737)" d="M198.695 58.108l13.974-11.066-14.096-2.956z" fill="#ddd" stroke="#000" id="patch_378"/><path clip-path="url(#p290fa14737)" d="M212.669 47.042l14.245-9.746-14.521-4.674z" fill="#ddd" stroke="#000" id="patch_379"/><path clip-path="url(#p290fa14737)" d="M198.695 58.108l-.122-14.022-12.813 13.01z" fill="#ddd" stroke="#000" id="patch_380"/><path clip-path="url(#p290fa14737)" d="M212.669 47.042l-.276-14.42-13.82 11.464z" fill="#ddd" stroke="#000" id="patch_381"/><path clip-path="url(#p290fa14737)" d="M185.76 57.096l12.813-13.01-12.813-.85z" fill="#ddd" stroke="#000" id="patch_382"/><path clip-path="url(#p290fa14737)" d="M198.573 44.086l13.82-11.464-13.914-2.514z" fill="#ddd" stroke="#000" id="patch_383"/><path clip-path="url(#p290fa14737)" d="M198.573 44.086l-.094-13.978-12.719 13.128z" fill="#ddd" stroke="#000" id="patch_384"/><path clip-path="url(#p290fa14737)" d="M185.76 43.236l12.719-13.128-12.719-.732z" fill="#ddd" stroke="#000" id="patch_385"/></g></g><defs><clipPath id="p290fa14737"><path d="M7.2 7.2h357.12v266.112H7.2z"/></clipPath></defs></svg>