<svg xmlns="http://www.w3.org/2000/svg" id="svg798" version="1.1" width="257.4" viewBox="0 0 193.05 222.76" height="297.013"><defs id="defs405"><style id="style403">*{stroke-linecap:butt;stroke-linejoin:round}</style></defs><g transform="translate(-89.235 -28.876)" id="figure_1"><g stroke="#000" fill="#ddd" id="axes_1"><path id="patch_2" d="M185.76 140.256v-13.86l-12.003 6.93z" clip-path="url(#p87c712a977)"/><path id="patch_3" d="M185.76 126.396v-13.86l-12.003 6.93z" clip-path="url(#p87c712a977)"/><path id="patch_4" d="M185.76 112.536v-13.86l-12.003 6.93z" clip-path="url(#p87c712a977)"/><path id="patch_5" d="M185.76 98.676v-13.86l-12.003 6.93z" clip-path="url(#p87c712a977)"/><path id="patch_6" d="M185.76 84.816v-13.86l-12.003 6.93z" clip-path="url(#p87c712a977)"/><path id="patch_7" d="M185.76 70.956v-13.86l-12.003 6.93z" clip-path="url(#p87c712a977)"/><path id="patch_8" d="M185.76 57.096v-13.86l-12.003 6.93z" clip-path="url(#p87c712a977)"/><path id="patch_9" d="M185.76 43.236v-13.86l-12.003 6.93z" clip-path="url(#p87c712a977)"/><path id="patch_10" d="M185.76 126.396l-12.003-6.93v13.86z" clip-path="url(#p87c712a977)"/><path id="patch_11" d="M185.76 112.536l-12.003-6.93v13.86z" clip-path="url(#p87c712a977)"/><path id="patch_12" d="M185.76 98.676l-12.003-6.93v13.86z" clip-path="url(#p87c712a977)"/><path id="patch_13" d="M185.76 84.816l-12.003-6.93v13.86z" clip-path="url(#p87c712a977)"/><path id="patch_14" d="M185.76 70.956l-12.003-6.93v13.86z" clip-path="url(#p87c712a977)"/><path id="patch_15" d="M185.76 57.096l-12.003-6.93v13.86z" clip-path="url(#p87c712a977)"/><path id="patch_16" d="M185.76 43.236l-12.003-6.93v13.86z" clip-path="url(#p87c712a977)"/><path id="patch_17" d="M173.757 133.326v-13.86l-12.003 6.93z" clip-path="url(#p87c712a977)"/><path id="patch_18" d="M173.757 119.466v-13.86l-12.003 6.93z" clip-path="url(#p87c712a977)"/><path id="patch_19" d="M173.757 105.606v-13.86l-12.003 6.93z" clip-path="url(#p87c712a977)"/><path id="patch_20" d="M173.757 91.746v-13.86l-12.003 6.93z" clip-path="url(#p87c712a977)"/><path id="patch_21" d="M173.757 77.886v-13.86l-12.003 6.93z" clip-path="url(#p87c712a977)"/><path id="patch_22" d="M173.757 64.026v-13.86l-12.003 6.93z" clip-path="url(#p87c712a977)"/><path id="patch_23" d="M173.757 50.166v-13.86l-12.003 6.93z" clip-path="url(#p87c712a977)"/><path id="patch_24" d="M173.757 119.466l-12.003-6.93v13.86z" clip-path="url(#p87c712a977)"/><path id="patch_25" d="M173.757 105.606l-12.003-6.93v13.86z" clip-path="url(#p87c712a977)"/><path id="patch_26" d="M173.757 91.746l-12.003-6.93v13.86z" clip-path="url(#p87c712a977)"/><path id="patch_27" d="M173.757 77.886l-12.003-6.93v13.86z" clip-path="url(#p87c712a977)"/><path id="patch_28" d="M173.757 64.026l-12.003-6.93v13.86z" clip-path="url(#p87c712a977)"/><path id="patch_29" d="M173.757 50.166l-12.003-6.93v13.86z" clip-path="url(#p87c712a977)"/><path id="patch_30" d="M161.754 126.396v-13.86l-12.003 6.93z" clip-path="url(#p87c712a977)"/><path id="patch_31" d="M161.754 112.536v-13.86l-12.003 6.93z" clip-path="url(#p87c712a977)"/><path id="patch_32" d="M161.754 98.676v-13.86l-12.003 6.93z" clip-path="url(#p87c712a977)"/><path id="patch_33" d="M161.754 84.816v-13.86l-12.003 6.93z" clip-path="url(#p87c712a977)"/><path id="patch_34" d="M161.754 70.956v-13.86l-12.003 6.93z" clip-path="url(#p87c712a977)"/><path id="patch_35" d="M161.754 57.096v-13.86l-12.003 6.93z" clip-path="url(#p87c712a977)"/><path id="patch_36" d="M161.754 112.536l-12.003-6.93v13.86z" clip-path="url(#p87c712a977)"/><path id="patch_37" d="M161.754 98.676l-12.003-6.93v13.86z" clip-path="url(#p87c712a977)"/><path id="patch_38" d="M161.754 84.816l-12.003-6.93v13.86z" clip-path="url(#p87c712a977)"/><path id="patch_39" d="M161.754 70.956l-12.003-6.93v13.86z" clip-path="url(#p87c712a977)"/><path id="patch_40" d="M161.754 57.096l-12.003-6.93v13.86z" clip-path="url(#p87c712a977)"/><path id="patch_41" d="M149.75 119.466v-13.86l-12.002 6.93z" clip-path="url(#p87c712a977)"/><path id="patch_42" d="M149.75 105.606v-13.86l-12.002 6.93z" clip-path="url(#p87c712a977)"/><path id="patch_43" d="M149.75 91.746v-13.86l-12.002 6.93z" clip-path="url(#p87c712a977)"/><path id="patch_44" d="M149.75 77.886v-13.86l-12.002 6.93z" clip-path="url(#p87c712a977)"/><path id="patch_45" d="M149.75 64.026v-13.86l-12.002 6.93z" clip-path="url(#p87c712a977)"/><path id="patch_46" d="M149.75 105.606l-12.002-6.93v13.86z" clip-path="url(#p87c712a977)"/><path id="patch_47" d="M149.75 91.746l-12.002-6.93v13.86z" clip-path="url(#p87c712a977)"/><path id="patch_48" d="M149.75 77.886l-12.002-6.93v13.86z" clip-path="url(#p87c712a977)"/><path id="patch_49" d="M149.75 64.026l-12.002-6.93v13.86z" clip-path="url(#p87c712a977)"/><path id="patch_50" d="M137.748 112.536v-13.86l-12.004 6.93z" clip-path="url(#p87c712a977)"/><path id="patch_51" d="M137.748 98.676v-13.86l-12.004 6.93z" clip-path="url(#p87c712a977)"/><path id="patch_52" d="M137.748 84.816v-13.86l-12.004 6.93z" clip-path="url(#p87c712a977)"/><path id="patch_53" d="M137.748 70.956v-13.86l-12.004 6.93z" clip-path="url(#p87c712a977)"/><path id="patch_54" d="M137.748 98.676l-12.004-6.93v13.86z" clip-path="url(#p87c712a977)"/><path id="patch_55" d="M137.748 84.816l-12.004-6.93v13.86z" clip-path="url(#p87c712a977)"/><path id="patch_56" d="M137.748 70.956l-12.004-6.93v13.86z" clip-path="url(#p87c712a977)"/><path id="patch_57" d="M125.744 105.606v-13.86l-12.003 6.93z" clip-path="url(#p87c712a977)"/><path id="patch_58" d="M125.744 91.746v-13.86l-12.003 6.93z" clip-path="url(#p87c712a977)"/><path id="patch_59" d="M125.744 77.886v-13.86l-12.003 6.93z" clip-path="url(#p87c712a977)"/><path id="patch_60" d="M125.744 91.746l-12.003-6.93v13.86z" clip-path="url(#p87c712a977)"/><path id="patch_61" d="M125.744 77.886l-12.003-6.93v13.86z" clip-path="url(#p87c712a977)"/><path id="patch_62" d="M113.741 98.676v-13.86l-12.003 6.93z" clip-path="url(#p87c712a977)"/><path id="patch_63" d="M113.741 84.816v-13.86l-12.003 6.93z" clip-path="url(#p87c712a977)"/><path id="patch_64" d="M113.741 84.816l-12.003-6.93v13.86z" clip-path="url(#p87c712a977)"/><path id="patch_65" d="M101.738 91.746v-13.86l-12.003 6.93z" clip-path="url(#p87c712a977)"/><path id="patch_66" d="M185.76 140.256l-12.003-6.93v13.86z" clip-path="url(#p87c712a977)"/><path id="patch_67" d="M173.757 133.326l-12.003-6.93v13.86z" clip-path="url(#p87c712a977)"/><path id="patch_68" d="M161.754 126.396l-12.003-6.93v13.86z" clip-path="url(#p87c712a977)"/><path id="patch_69" d="M149.75 119.466l-12.002-6.93v13.86z" clip-path="url(#p87c712a977)"/><path id="patch_70" d="M137.748 112.536l-12.004-6.93v13.86z" clip-path="url(#p87c712a977)"/><path id="patch_71" d="M125.744 105.606l-12.003-6.93v13.86z" clip-path="url(#p87c712a977)"/><path id="patch_72" d="M113.741 98.676l-12.003-6.93v13.86z" clip-path="url(#p87c712a977)"/><path id="patch_73" d="M101.738 91.746l-12.003-6.93v13.86z" clip-path="url(#p87c712a977)"/><path id="patch_74" d="M173.757 133.326l-12.003 6.93 12.003 6.93z" clip-path="url(#p87c712a977)"/><path id="patch_75" d="M161.754 126.396l-12.003 6.93 12.003 6.93z" clip-path="url(#p87c712a977)"/><path id="patch_76" d="M149.75 119.466l-12.002 6.93 12.003 6.93z" clip-path="url(#p87c712a977)"/><path id="patch_77" d="M137.748 112.536l-12.004 6.93 12.004 6.93z" clip-path="url(#p87c712a977)"/><path id="patch_78" d="M125.744 105.606l-12.003 6.93 12.003 6.93z" clip-path="url(#p87c712a977)"/><path id="patch_79" d="M113.741 98.676l-12.003 6.93 12.003 6.93z" clip-path="url(#p87c712a977)"/><path id="patch_80" d="M101.738 91.746l-12.003 6.93 12.003 6.93z" clip-path="url(#p87c712a977)"/><path id="patch_81" d="M173.757 147.186l-12.003-6.93v13.86z" clip-path="url(#p87c712a977)"/><path id="patch_82" d="M161.754 140.256l-12.003-6.93v13.86z" clip-path="url(#p87c712a977)"/><path id="patch_83" d="M149.75 133.326l-12.002-6.93v13.86z" clip-path="url(#p87c712a977)"/><path id="patch_84" d="M137.748 126.396l-12.004-6.93v13.86z" clip-path="url(#p87c712a977)"/><path id="patch_85" d="M125.744 119.466l-12.003-6.93v13.86z" clip-path="url(#p87c712a977)"/><path id="patch_86" d="M113.741 112.536l-12.003-6.93v13.86z" clip-path="url(#p87c712a977)"/><path id="patch_87" d="M101.738 105.606l-12.003-6.93v13.86z" clip-path="url(#p87c712a977)"/><path id="patch_88" d="M161.754 140.256l-12.003 6.93 12.003 6.93z" clip-path="url(#p87c712a977)"/><path id="patch_89" d="M149.75 133.326l-12.002 6.93 12.003 6.93z" clip-path="url(#p87c712a977)"/><path id="patch_90" d="M137.748 126.396l-12.004 6.93 12.004 6.93z" clip-path="url(#p87c712a977)"/><path id="patch_91" d="M125.744 119.466l-12.003 6.93 12.003 6.93z" clip-path="url(#p87c712a977)"/><path id="patch_92" d="M113.741 112.536l-12.003 6.93 12.003 6.93z" clip-path="url(#p87c712a977)"/><path id="patch_93" d="M101.738 105.606l-12.003 6.93 12.003 6.93z" clip-path="url(#p87c712a977)"/><path id="patch_94" d="M161.754 154.116l-12.003-6.93v13.86z" clip-path="url(#p87c712a977)"/><path id="patch_95" d="M149.75 147.186l-12.002-6.93v13.86z" clip-path="url(#p87c712a977)"/><path id="patch_96" d="M137.748 140.256l-12.004-6.93v13.86z" clip-path="url(#p87c712a977)"/><path id="patch_97" d="M125.744 133.326l-12.003-6.93v13.86z" clip-path="url(#p87c712a977)"/><path id="patch_98" d="M113.741 126.396l-12.003-6.93v13.86z" clip-path="url(#p87c712a977)"/><path id="patch_99" d="M101.738 119.466l-12.003-6.93v13.86z" clip-path="url(#p87c712a977)"/><path id="patch_100" d="M149.75 147.186l-12.002 6.93 12.003 6.93z" clip-path="url(#p87c712a977)"/><path id="patch_101" d="M137.748 140.256l-12.004 6.93 12.004 6.93z" clip-path="url(#p87c712a977)"/><path id="patch_102" d="M125.744 133.326l-12.003 6.93 12.003 6.93z" clip-path="url(#p87c712a977)"/><path id="patch_103" d="M113.741 126.396l-12.003 6.93 12.003 6.93z" clip-path="url(#p87c712a977)"/><path id="patch_104" d="M101.738 119.466l-12.003 6.93 12.003 6.93z" clip-path="url(#p87c712a977)"/><path id="patch_105" d="M149.75 161.046l-12.002-6.93v13.86z" clip-path="url(#p87c712a977)"/><path id="patch_106" d="M137.748 154.116l-12.004-6.93v13.86z" clip-path="url(#p87c712a977)"/><path id="patch_107" d="M125.744 147.186l-12.003-6.93v13.86z" clip-path="url(#p87c712a977)"/><path id="patch_108" d="M113.741 140.256l-12.003-6.93v13.86z" clip-path="url(#p87c712a977)"/><path id="patch_109" d="M101.738 133.326l-12.003-6.93v13.86z" clip-path="url(#p87c712a977)"/><path id="patch_110" d="M137.748 154.116l-12.004 6.93 12.004 6.93z" clip-path="url(#p87c712a977)"/><path id="patch_111" d="M125.744 147.186l-12.003 6.93 12.003 6.93z" clip-path="url(#p87c712a977)"/><path id="patch_112" d="M113.741 140.256l-12.003 6.93 12.003 6.93z" clip-path="url(#p87c712a977)"/><path id="patch_113" d="M101.738 133.326l-12.003 6.93 12.003 6.93z" clip-path="url(#p87c712a977)"/><path id="patch_114" d="M137.748 167.976l-12.004-6.93v13.86z" clip-path="url(#p87c712a977)"/><path id="patch_115" d="M125.744 161.046l-12.003-6.93v13.86z" clip-path="url(#p87c712a977)"/><path id="patch_116" d="M113.741 154.116l-12.003-6.93v13.86z" clip-path="url(#p87c712a977)"/><path id="patch_117" d="M101.738 147.186l-12.003-6.93v13.86z" clip-path="url(#p87c712a977)"/><path id="patch_118" d="M125.744 161.046l-12.003 6.93 12.003 6.93z" clip-path="url(#p87c712a977)"/><path id="patch_119" d="M113.741 154.116l-12.003 6.93 12.003 6.93z" clip-path="url(#p87c712a977)"/><path id="patch_120" d="M101.738 147.186l-12.003 6.93 12.003 6.93z" clip-path="url(#p87c712a977)"/><path id="patch_121" d="M125.744 174.906l-12.003-6.93v13.86z" clip-path="url(#p87c712a977)"/><path id="patch_122" d="M113.741 167.976l-12.003-6.93v13.86z" clip-path="url(#p87c712a977)"/><path id="patch_123" d="M101.738 161.046l-12.003-6.93v13.86z" clip-path="url(#p87c712a977)"/><path id="patch_124" d="M113.741 167.976l-12.003 6.93 12.003 6.93z" clip-path="url(#p87c712a977)"/><path id="patch_125" d="M101.738 161.046l-12.003 6.93 12.003 6.93z" clip-path="url(#p87c712a977)"/><path id="patch_126" d="M113.741 181.836l-12.003-6.93v13.86z" clip-path="url(#p87c712a977)"/><path id="patch_127" d="M101.738 174.906l-12.003-6.93v13.86z" clip-path="url(#p87c712a977)"/><path id="patch_128" d="M101.738 174.906l-12.003 6.93 12.003 6.93z" clip-path="url(#p87c712a977)"/><path id="patch_129" d="M101.738 188.766l-12.003-6.93v13.86z" clip-path="url(#p87c712a977)"/><path id="patch_130" d="M185.76 140.256l-12.003 6.93 12.003 6.93z" clip-path="url(#p87c712a977)"/><path id="patch_131" d="M173.757 147.186l-12.003 6.93 12.003 6.93z" clip-path="url(#p87c712a977)"/><path id="patch_132" d="M161.754 154.116l-12.003 6.93 12.003 6.93z" clip-path="url(#p87c712a977)"/><path id="patch_133" d="M149.75 161.046l-12.002 6.93 12.003 6.93z" clip-path="url(#p87c712a977)"/><path id="patch_134" d="M137.748 167.976l-12.004 6.93 12.004 6.93z" clip-path="url(#p87c712a977)"/><path id="patch_135" d="M125.744 174.906l-12.003 6.93 12.003 6.93z" clip-path="url(#p87c712a977)"/><path id="patch_136" d="M113.741 181.836l-12.003 6.93 12.003 6.93z" clip-path="url(#p87c712a977)"/><path id="patch_137" d="M101.738 188.766l-12.003 6.93 12.003 6.93z" clip-path="url(#p87c712a977)"/><path id="patch_138" d="M173.757 147.186v13.86l12.003-6.93z" clip-path="url(#p87c712a977)"/><path id="patch_139" d="M161.754 154.116v13.86l12.003-6.93z" clip-path="url(#p87c712a977)"/><path id="patch_140" d="M149.75 161.046v13.86l12.004-6.93z" clip-path="url(#p87c712a977)"/><path id="patch_141" d="M137.748 167.976v13.86l12.003-6.93z" clip-path="url(#p87c712a977)"/><path id="patch_142" d="M125.744 174.906v13.86l12.004-6.93z" clip-path="url(#p87c712a977)"/><path id="patch_143" d="M113.741 181.836v13.86l12.003-6.93z" clip-path="url(#p87c712a977)"/><path id="patch_144" d="M101.738 188.766v13.86l12.003-6.93z" clip-path="url(#p87c712a977)"/><path id="patch_145" d="M185.76 154.116l-12.003 6.93 12.003 6.93z" clip-path="url(#p87c712a977)"/><path id="patch_146" d="M173.757 161.046l-12.003 6.93 12.003 6.93z" clip-path="url(#p87c712a977)"/><path id="patch_147" d="M161.754 167.976l-12.003 6.93 12.003 6.93z" clip-path="url(#p87c712a977)"/><path id="patch_148" d="M149.75 174.906l-12.002 6.93 12.003 6.93z" clip-path="url(#p87c712a977)"/><path id="patch_149" d="M137.748 181.836l-12.004 6.93 12.004 6.93z" clip-path="url(#p87c712a977)"/><path id="patch_150" d="M125.744 188.766l-12.003 6.93 12.003 6.93z" clip-path="url(#p87c712a977)"/><path id="patch_151" d="M113.741 195.696l-12.003 6.93 12.003 6.93z" clip-path="url(#p87c712a977)"/><path id="patch_152" d="M173.757 161.046v13.86l12.003-6.93z" clip-path="url(#p87c712a977)"/><path id="patch_153" d="M161.754 167.976v13.86l12.003-6.93z" clip-path="url(#p87c712a977)"/><path id="patch_154" d="M149.75 174.906v13.86l12.004-6.93z" clip-path="url(#p87c712a977)"/><path id="patch_155" d="M137.748 181.836v13.86l12.003-6.93z" clip-path="url(#p87c712a977)"/><path id="patch_156" d="M125.744 188.766v13.86l12.004-6.93z" clip-path="url(#p87c712a977)"/><path id="patch_157" d="M113.741 195.696v13.86l12.003-6.93z" clip-path="url(#p87c712a977)"/><path id="patch_158" d="M185.76 167.976l-12.003 6.93 12.003 6.93z" clip-path="url(#p87c712a977)"/><path id="patch_159" d="M173.757 174.906l-12.003 6.93 12.003 6.93z" clip-path="url(#p87c712a977)"/><path id="patch_160" d="M161.754 181.836l-12.003 6.93 12.003 6.93z" clip-path="url(#p87c712a977)"/><path id="patch_161" d="M149.75 188.766l-12.002 6.93 12.003 6.93z" clip-path="url(#p87c712a977)"/><path id="patch_162" d="M137.748 195.696l-12.004 6.93 12.004 6.93z" clip-path="url(#p87c712a977)"/><path id="patch_163" d="M125.744 202.626l-12.003 6.93 12.003 6.93z" clip-path="url(#p87c712a977)"/><path id="patch_164" d="M173.757 174.906v13.86l12.003-6.93z" clip-path="url(#p87c712a977)"/><path id="patch_165" d="M161.754 181.836v13.86l12.003-6.93z" clip-path="url(#p87c712a977)"/><path id="patch_166" d="M149.75 188.766v13.86l12.004-6.93z" clip-path="url(#p87c712a977)"/><path id="patch_167" d="M137.748 195.696v13.86l12.003-6.93z" clip-path="url(#p87c712a977)"/><path id="patch_168" d="M125.744 202.626v13.86l12.004-6.93z" clip-path="url(#p87c712a977)"/><path id="patch_169" d="M185.76 181.836l-12.003 6.93 12.003 6.93z" clip-path="url(#p87c712a977)"/><path id="patch_170" d="M173.757 188.766l-12.003 6.93 12.003 6.93z" clip-path="url(#p87c712a977)"/><path id="patch_171" d="M161.754 195.696l-12.003 6.93 12.003 6.93z" clip-path="url(#p87c712a977)"/><path id="patch_172" d="M149.75 202.626l-12.002 6.93 12.003 6.93z" clip-path="url(#p87c712a977)"/><path id="patch_173" d="M137.748 209.556l-12.004 6.93 12.004 6.93z" clip-path="url(#p87c712a977)"/><path id="patch_174" d="M173.757 188.766v13.86l12.003-6.93z" clip-path="url(#p87c712a977)"/><path id="patch_175" d="M161.754 195.696v13.86l12.003-6.93z" clip-path="url(#p87c712a977)"/><path id="patch_176" d="M149.75 202.626v13.86l12.004-6.93z" clip-path="url(#p87c712a977)"/><path id="patch_177" d="M137.748 209.556v13.86l12.003-6.93z" clip-path="url(#p87c712a977)"/><path id="patch_178" d="M185.76 195.696l-12.003 6.93 12.003 6.93z" clip-path="url(#p87c712a977)"/><path id="patch_179" d="M173.757 202.626l-12.003 6.93 12.003 6.93z" clip-path="url(#p87c712a977)"/><path id="patch_180" d="M161.754 209.556l-12.003 6.93 12.003 6.93z" clip-path="url(#p87c712a977)"/><path id="patch_181" d="M149.75 216.486l-12.002 6.93 12.003 6.93z" clip-path="url(#p87c712a977)"/><path id="patch_182" d="M173.757 202.626v13.86l12.003-6.93z" clip-path="url(#p87c712a977)"/><path id="patch_183" d="M161.754 209.556v13.86l12.003-6.93z" clip-path="url(#p87c712a977)"/><path id="patch_184" d="M149.75 216.486v13.86l12.004-6.93z" clip-path="url(#p87c712a977)"/><path id="patch_185" d="M185.76 209.556l-12.003 6.93 12.003 6.93z" clip-path="url(#p87c712a977)"/><path id="patch_186" d="M173.757 216.486l-12.003 6.93 12.003 6.93z" clip-path="url(#p87c712a977)"/><path id="patch_187" d="M161.754 223.416l-12.003 6.93 12.003 6.93z" clip-path="url(#p87c712a977)"/><path id="patch_188" d="M173.757 216.486v13.86l12.003-6.93z" clip-path="url(#p87c712a977)"/><path id="patch_189" d="M161.754 223.416v13.86l12.003-6.93z" clip-path="url(#p87c712a977)"/><path id="patch_190" d="M185.76 223.416l-12.003 6.93 12.003 6.93z" clip-path="url(#p87c712a977)"/><path id="patch_191" d="M173.757 230.346l-12.003 6.93 12.003 6.93z" clip-path="url(#p87c712a977)"/><path id="patch_192" d="M173.757 230.346v13.86l12.003-6.93z" clip-path="url(#p87c712a977)"/><path id="patch_193" d="M185.76 237.276l-12.003 6.93 12.003 6.93z" clip-path="url(#p87c712a977)"/><path id="patch_194" d="M185.76 140.256v13.86l12.003-6.93z" clip-path="url(#p87c712a977)"/><path id="patch_195" d="M185.76 154.116v13.86l12.003-6.93z" clip-path="url(#p87c712a977)"/><path id="patch_196" d="M185.76 167.976v13.86l12.003-6.93z" clip-path="url(#p87c712a977)"/><path id="patch_197" d="M185.76 181.836v13.86l12.003-6.93z" clip-path="url(#p87c712a977)"/><path id="patch_198" d="M185.76 195.696v13.86l12.003-6.93z" clip-path="url(#p87c712a977)"/><path id="patch_199" d="M185.76 209.556v13.86l12.003-6.93z" clip-path="url(#p87c712a977)"/><path id="patch_200" d="M185.76 223.416v13.86l12.003-6.93z" clip-path="url(#p87c712a977)"/><path id="patch_201" d="M185.76 237.276v13.86l12.003-6.93z" clip-path="url(#p87c712a977)"/><path id="patch_202" d="M185.76 154.116l12.003 6.93v-13.86z" clip-path="url(#p87c712a977)"/><path id="patch_203" d="M185.76 167.976l12.003 6.93v-13.86z" clip-path="url(#p87c712a977)"/><path id="patch_204" d="M185.76 181.836l12.003 6.93v-13.86z" clip-path="url(#p87c712a977)"/><path id="patch_205" d="M185.76 195.696l12.003 6.93v-13.86z" clip-path="url(#p87c712a977)"/><path id="patch_206" d="M185.76 209.556l12.003 6.93v-13.86z" clip-path="url(#p87c712a977)"/><path id="patch_207" d="M185.76 223.416l12.003 6.93v-13.86z" clip-path="url(#p87c712a977)"/><path id="patch_208" d="M185.76 237.276l12.003 6.93v-13.86z" clip-path="url(#p87c712a977)"/><path id="patch_209" d="M197.763 147.186v13.86l12.003-6.93z" clip-path="url(#p87c712a977)"/><path id="patch_210" d="M197.763 161.046v13.86l12.003-6.93z" clip-path="url(#p87c712a977)"/><path id="patch_211" d="M197.763 174.906v13.86l12.003-6.93z" clip-path="url(#p87c712a977)"/><path id="patch_212" d="M197.763 188.766v13.86l12.003-6.93z" clip-path="url(#p87c712a977)"/><path id="patch_213" d="M197.763 202.626v13.86l12.003-6.93z" clip-path="url(#p87c712a977)"/><path id="patch_214" d="M197.763 216.486v13.86l12.003-6.93z" clip-path="url(#p87c712a977)"/><path id="patch_215" d="M197.763 230.346v13.86l12.003-6.93z" clip-path="url(#p87c712a977)"/><path id="patch_216" d="M197.763 161.046l12.003 6.93v-13.86z" clip-path="url(#p87c712a977)"/><path id="patch_217" d="M197.763 174.906l12.003 6.93v-13.86z" clip-path="url(#p87c712a977)"/><path id="patch_218" d="M197.763 188.766l12.003 6.93v-13.86z" clip-path="url(#p87c712a977)"/><path id="patch_219" d="M197.763 202.626l12.003 6.93v-13.86z" clip-path="url(#p87c712a977)"/><path id="patch_220" d="M197.763 216.486l12.003 6.93v-13.86z" clip-path="url(#p87c712a977)"/><path id="patch_221" d="M197.763 230.346l12.003 6.93v-13.86z" clip-path="url(#p87c712a977)"/><path id="patch_222" d="M209.766 154.116v13.86l12.003-6.93z" clip-path="url(#p87c712a977)"/><path id="patch_223" d="M209.766 167.976v13.86l12.003-6.93z" clip-path="url(#p87c712a977)"/><path id="patch_224" d="M209.766 181.836v13.86l12.003-6.93z" clip-path="url(#p87c712a977)"/><path id="patch_225" d="M209.766 195.696v13.86l12.003-6.93z" clip-path="url(#p87c712a977)"/><path id="patch_226" d="M209.766 209.556v13.86l12.003-6.93z" clip-path="url(#p87c712a977)"/><path id="patch_227" d="M209.766 223.416v13.86l12.003-6.93z" clip-path="url(#p87c712a977)"/><path id="patch_228" d="M209.766 167.976l12.003 6.93v-13.86z" clip-path="url(#p87c712a977)"/><path id="patch_229" d="M209.766 181.836l12.003 6.93v-13.86z" clip-path="url(#p87c712a977)"/><path id="patch_230" d="M209.766 195.696l12.003 6.93v-13.86z" clip-path="url(#p87c712a977)"/><path id="patch_231" d="M209.766 209.556l12.003 6.93v-13.86z" clip-path="url(#p87c712a977)"/><path id="patch_232" d="M209.766 223.416l12.003 6.93v-13.86z" clip-path="url(#p87c712a977)"/><path id="patch_233" d="M221.77 161.046v13.86l12.002-6.93z" clip-path="url(#p87c712a977)"/><path id="patch_234" d="M221.77 174.906v13.86l12.002-6.93z" clip-path="url(#p87c712a977)"/><path id="patch_235" d="M221.77 188.766v13.86l12.002-6.93z" clip-path="url(#p87c712a977)"/><path id="patch_236" d="M221.77 202.626v13.86l12.002-6.93z" clip-path="url(#p87c712a977)"/><path id="patch_237" d="M221.77 216.486v13.86l12.002-6.93z" clip-path="url(#p87c712a977)"/><path id="patch_238" d="M221.77 174.906l12.002 6.93v-13.86z" clip-path="url(#p87c712a977)"/><path id="patch_239" d="M221.77 188.766l12.002 6.93v-13.86z" clip-path="url(#p87c712a977)"/><path id="patch_240" d="M221.77 202.626l12.002 6.93v-13.86z" clip-path="url(#p87c712a977)"/><path id="patch_241" d="M221.77 216.486l12.002 6.93v-13.86z" clip-path="url(#p87c712a977)"/><path id="patch_242" d="M233.772 167.976v13.86l12.004-6.93z" clip-path="url(#p87c712a977)"/><path id="patch_243" d="M233.772 181.836v13.86l12.004-6.93z" clip-path="url(#p87c712a977)"/><path id="patch_244" d="M233.772 195.696v13.86l12.004-6.93z" clip-path="url(#p87c712a977)"/><path id="patch_245" d="M233.772 209.556v13.86l12.004-6.93z" clip-path="url(#p87c712a977)"/><path id="patch_246" d="M233.772 181.836l12.004 6.93v-13.86z" clip-path="url(#p87c712a977)"/><path id="patch_247" d="M233.772 195.696l12.004 6.93v-13.86z" clip-path="url(#p87c712a977)"/><path id="patch_248" d="M233.772 209.556l12.004 6.93v-13.86z" clip-path="url(#p87c712a977)"/><path id="patch_249" d="M245.776 174.906v13.86l12.003-6.93z" clip-path="url(#p87c712a977)"/><path id="patch_250" d="M245.776 188.766v13.86l12.003-6.93z" clip-path="url(#p87c712a977)"/><path id="patch_251" d="M245.776 202.626v13.86l12.003-6.93z" clip-path="url(#p87c712a977)"/><path id="patch_252" d="M245.776 188.766l12.003 6.93v-13.86z" clip-path="url(#p87c712a977)"/><path id="patch_253" d="M245.776 202.626l12.003 6.93v-13.86z" clip-path="url(#p87c712a977)"/><path id="patch_254" d="M257.779 181.836v13.86l12.003-6.93z" clip-path="url(#p87c712a977)"/><path id="patch_255" d="M257.779 195.696v13.86l12.003-6.93z" clip-path="url(#p87c712a977)"/><path id="patch_256" d="M257.779 195.696l12.003 6.93v-13.86z" clip-path="url(#p87c712a977)"/><path id="patch_257" d="M269.782 188.766v13.86l12.003-6.93z" clip-path="url(#p87c712a977)"/><path id="patch_258" d="M185.76 140.256l12.003 6.93v-13.86z" clip-path="url(#p87c712a977)"/><path id="patch_259" d="M197.763 147.186l12.003 6.93v-13.86z" clip-path="url(#p87c712a977)"/><path id="patch_260" d="M209.766 154.116l12.003 6.93v-13.86z" clip-path="url(#p87c712a977)"/><path id="patch_261" d="M221.77 161.046l12.002 6.93v-13.86z" clip-path="url(#p87c712a977)"/><path id="patch_262" d="M233.772 167.976l12.004 6.93v-13.86z" clip-path="url(#p87c712a977)"/><path id="patch_263" d="M245.776 174.906l12.003 6.93v-13.86z" clip-path="url(#p87c712a977)"/><path id="patch_264" d="M257.779 181.836l12.003 6.93v-13.86z" clip-path="url(#p87c712a977)"/><path id="patch_265" d="M269.782 188.766l12.003 6.93v-13.86z" clip-path="url(#p87c712a977)"/><path id="patch_266" d="M197.763 147.186l12.003-6.93-12.003-6.93z" clip-path="url(#p87c712a977)"/><path id="patch_267" d="M209.766 154.116l12.003-6.93-12.003-6.93z" clip-path="url(#p87c712a977)"/><path id="patch_268" d="M221.77 161.046l12.002-6.93-12.003-6.93z" clip-path="url(#p87c712a977)"/><path id="patch_269" d="M233.772 167.976l12.004-6.93-12.004-6.93z" clip-path="url(#p87c712a977)"/><path id="patch_270" d="M245.776 174.906l12.003-6.93-12.003-6.93z" clip-path="url(#p87c712a977)"/><path id="patch_271" d="M257.779 181.836l12.003-6.93-12.003-6.93z" clip-path="url(#p87c712a977)"/><path id="patch_272" d="M269.782 188.766l12.003-6.93-12.003-6.93z" clip-path="url(#p87c712a977)"/><path id="patch_273" d="M197.763 133.326l12.003 6.93v-13.86z" clip-path="url(#p87c712a977)"/><path id="patch_274" d="M209.766 140.256l12.003 6.93v-13.86z" clip-path="url(#p87c712a977)"/><path id="patch_275" d="M221.77 147.186l12.002 6.93v-13.86z" clip-path="url(#p87c712a977)"/><path id="patch_276" d="M233.772 154.116l12.004 6.93v-13.86z" clip-path="url(#p87c712a977)"/><path id="patch_277" d="M245.776 161.046l12.003 6.93v-13.86z" clip-path="url(#p87c712a977)"/><path id="patch_278" d="M257.779 167.976l12.003 6.93v-13.86z" clip-path="url(#p87c712a977)"/><path id="patch_279" d="M269.782 174.906l12.003 6.93v-13.86z" clip-path="url(#p87c712a977)"/><path id="patch_280" d="M209.766 140.256l12.003-6.93-12.003-6.93z" clip-path="url(#p87c712a977)"/><path id="patch_281" d="M221.77 147.186l12.002-6.93-12.003-6.93z" clip-path="url(#p87c712a977)"/><path id="patch_282" d="M233.772 154.116l12.004-6.93-12.004-6.93z" clip-path="url(#p87c712a977)"/><path id="patch_283" d="M245.776 161.046l12.003-6.93-12.003-6.93z" clip-path="url(#p87c712a977)"/><path id="patch_284" d="M257.779 167.976l12.003-6.93-12.003-6.93z" clip-path="url(#p87c712a977)"/><path id="patch_285" d="M269.782 174.906l12.003-6.93-12.003-6.93z" clip-path="url(#p87c712a977)"/><path id="patch_286" d="M209.766 126.396l12.003 6.93v-13.86z" clip-path="url(#p87c712a977)"/><path id="patch_287" d="M221.77 133.326l12.002 6.93v-13.86z" clip-path="url(#p87c712a977)"/><path id="patch_288" d="M233.772 140.256l12.004 6.93v-13.86z" clip-path="url(#p87c712a977)"/><path id="patch_289" d="M245.776 147.186l12.003 6.93v-13.86z" clip-path="url(#p87c712a977)"/><path id="patch_290" d="M257.779 154.116l12.003 6.93v-13.86z" clip-path="url(#p87c712a977)"/><path id="patch_291" d="M269.782 161.046l12.003 6.93v-13.86z" clip-path="url(#p87c712a977)"/><path id="patch_292" d="M221.77 133.326l12.002-6.93-12.003-6.93z" clip-path="url(#p87c712a977)"/><path id="patch_293" d="M233.772 140.256l12.004-6.93-12.004-6.93z" clip-path="url(#p87c712a977)"/><path id="patch_294" d="M245.776 147.186l12.003-6.93-12.003-6.93z" clip-path="url(#p87c712a977)"/><path id="patch_295" d="M257.779 154.116l12.003-6.93-12.003-6.93z" clip-path="url(#p87c712a977)"/><path id="patch_296" d="M269.782 161.046l12.003-6.93-12.003-6.93z" clip-path="url(#p87c712a977)"/><path id="patch_297" d="M221.77 119.466l12.002 6.93v-13.86z" clip-path="url(#p87c712a977)"/><path id="patch_298" d="M233.772 126.396l12.004 6.93v-13.86z" clip-path="url(#p87c712a977)"/><path id="patch_299" d="M245.776 133.326l12.003 6.93v-13.86z" clip-path="url(#p87c712a977)"/><path id="patch_300" d="M257.779 140.256l12.003 6.93v-13.86z" clip-path="url(#p87c712a977)"/><path id="patch_301" d="M269.782 147.186l12.003 6.93v-13.86z" clip-path="url(#p87c712a977)"/><path id="patch_302" d="M233.772 126.396l12.004-6.93-12.004-6.93z" clip-path="url(#p87c712a977)"/><path id="patch_303" d="M245.776 133.326l12.003-6.93-12.003-6.93z" clip-path="url(#p87c712a977)"/><path id="patch_304" d="M257.779 140.256l12.003-6.93-12.003-6.93z" clip-path="url(#p87c712a977)"/><path id="patch_305" d="M269.782 147.186l12.003-6.93-12.003-6.93z" clip-path="url(#p87c712a977)"/><path id="patch_306" d="M233.772 112.536l12.004 6.93v-13.86z" clip-path="url(#p87c712a977)"/><path id="patch_307" d="M245.776 119.466l12.003 6.93v-13.86z" clip-path="url(#p87c712a977)"/><path id="patch_308" d="M257.779 126.396l12.003 6.93v-13.86z" clip-path="url(#p87c712a977)"/><path id="patch_309" d="M269.782 133.326l12.003 6.93v-13.86z" clip-path="url(#p87c712a977)"/><path id="patch_310" d="M245.776 119.466l12.003-6.93-12.003-6.93z" clip-path="url(#p87c712a977)"/><path id="patch_311" d="M257.779 126.396l12.003-6.93-12.003-6.93z" clip-path="url(#p87c712a977)"/><path id="patch_312" d="M269.782 133.326l12.003-6.93-12.003-6.93z" clip-path="url(#p87c712a977)"/><path id="patch_313" d="M245.776 105.606l12.003 6.93v-13.86z" clip-path="url(#p87c712a977)"/><path id="patch_314" d="M257.779 112.536l12.003 6.93v-13.86z" clip-path="url(#p87c712a977)"/><path id="patch_315" d="M269.782 119.466l12.003 6.93v-13.86z" clip-path="url(#p87c712a977)"/><path id="patch_316" d="M257.779 112.536l12.003-6.93-12.003-6.93z" clip-path="url(#p87c712a977)"/><path id="patch_317" d="M269.782 119.466l12.003-6.93-12.003-6.93z" clip-path="url(#p87c712a977)"/><path id="patch_318" d="M257.779 98.676l12.003 6.93v-13.86z" clip-path="url(#p87c712a977)"/><path id="patch_319" d="M269.782 105.606l12.003 6.93v-13.86z" clip-path="url(#p87c712a977)"/><path id="patch_320" d="M269.782 105.606l12.003-6.93-12.003-6.93z" clip-path="url(#p87c712a977)"/><path id="patch_321" d="M269.782 91.746l12.003 6.93v-13.86z" clip-path="url(#p87c712a977)"/><path id="patch_322" d="M185.76 140.256l12.003-6.93-12.003-6.93z" clip-path="url(#p87c712a977)"/><path id="patch_323" d="M197.763 133.326l12.003-6.93-12.003-6.93z" clip-path="url(#p87c712a977)"/><path id="patch_324" d="M209.766 126.396l12.003-6.93-12.003-6.93z" clip-path="url(#p87c712a977)"/><path id="patch_325" d="M221.77 119.466l12.002-6.93-12.003-6.93z" clip-path="url(#p87c712a977)"/><path id="patch_326" d="M233.772 112.536l12.004-6.93-12.004-6.93z" clip-path="url(#p87c712a977)"/><path id="patch_327" d="M245.776 105.606l12.003-6.93-12.003-6.93z" clip-path="url(#p87c712a977)"/><path id="patch_328" d="M257.779 98.676l12.003-6.93-12.003-6.93z" clip-path="url(#p87c712a977)"/><path id="patch_329" d="M269.782 91.746l12.003-6.93-12.003-6.93z" clip-path="url(#p87c712a977)"/><path id="patch_330" d="M197.763 133.326v-13.86l-12.003 6.93z" clip-path="url(#p87c712a977)"/><path id="patch_331" d="M209.766 126.396v-13.86l-12.003 6.93z" clip-path="url(#p87c712a977)"/><path id="patch_332" d="M221.77 119.466v-13.86l-12.004 6.93z" clip-path="url(#p87c712a977)"/><path id="patch_333" d="M233.772 112.536v-13.86l-12.003 6.93z" clip-path="url(#p87c712a977)"/><path id="patch_334" d="M245.776 105.606v-13.86l-12.004 6.93z" clip-path="url(#p87c712a977)"/><path id="patch_335" d="M257.779 98.676v-13.86l-12.003 6.93z" clip-path="url(#p87c712a977)"/><path id="patch_336" d="M269.782 91.746v-13.86l-12.003 6.93z" clip-path="url(#p87c712a977)"/><path id="patch_337" d="M185.76 126.396l12.003-6.93-12.003-6.93z" clip-path="url(#p87c712a977)"/><path id="patch_338" d="M197.763 119.466l12.003-6.93-12.003-6.93z" clip-path="url(#p87c712a977)"/><path id="patch_339" d="M209.766 112.536l12.003-6.93-12.003-6.93z" clip-path="url(#p87c712a977)"/><path id="patch_340" d="M221.77 105.606l12.002-6.93-12.003-6.93z" clip-path="url(#p87c712a977)"/><path id="patch_341" d="M233.772 98.676l12.004-6.93-12.004-6.93z" clip-path="url(#p87c712a977)"/><path id="patch_342" d="M245.776 91.746l12.003-6.93-12.003-6.93z" clip-path="url(#p87c712a977)"/><path id="patch_343" d="M257.779 84.816l12.003-6.93-12.003-6.93z" clip-path="url(#p87c712a977)"/><path id="patch_344" d="M197.763 119.466v-13.86l-12.003 6.93z" clip-path="url(#p87c712a977)"/><path id="patch_345" d="M209.766 112.536v-13.86l-12.003 6.93z" clip-path="url(#p87c712a977)"/><path id="patch_346" d="M221.77 105.606v-13.86l-12.004 6.93z" clip-path="url(#p87c712a977)"/><path id="patch_347" d="M233.772 98.676v-13.86l-12.003 6.93z" clip-path="url(#p87c712a977)"/><path id="patch_348" d="M245.776 91.746v-13.86l-12.004 6.93z" clip-path="url(#p87c712a977)"/><path id="patch_349" d="M257.779 84.816v-13.86l-12.003 6.93z" clip-path="url(#p87c712a977)"/><path id="patch_350" d="M185.76 112.536l12.003-6.93-12.003-6.93z" clip-path="url(#p87c712a977)"/><path id="patch_351" d="M197.763 105.606l12.003-6.93-12.003-6.93z" clip-path="url(#p87c712a977)"/><path id="patch_352" d="M209.766 98.676l12.003-6.93-12.003-6.93z" clip-path="url(#p87c712a977)"/><path id="patch_353" d="M221.77 91.746l12.002-6.93-12.003-6.93z" clip-path="url(#p87c712a977)"/><path id="patch_354" d="M233.772 84.816l12.004-6.93-12.004-6.93z" clip-path="url(#p87c712a977)"/><path id="patch_355" d="M245.776 77.886l12.003-6.93-12.003-6.93z" clip-path="url(#p87c712a977)"/><path id="patch_356" d="M197.763 105.606v-13.86l-12.003 6.93z" clip-path="url(#p87c712a977)"/><path id="patch_357" d="M209.766 98.676v-13.86l-12.003 6.93z" clip-path="url(#p87c712a977)"/><path id="patch_358" d="M221.77 91.746v-13.86l-12.004 6.93z" clip-path="url(#p87c712a977)"/><path id="patch_359" d="M233.772 84.816v-13.86l-12.003 6.93z" clip-path="url(#p87c712a977)"/><path id="patch_360" d="M245.776 77.886v-13.86l-12.004 6.93z" clip-path="url(#p87c712a977)"/><path id="patch_361" d="M185.76 98.676l12.003-6.93-12.003-6.93z" clip-path="url(#p87c712a977)"/><path id="patch_362" d="M197.763 91.746l12.003-6.93-12.003-6.93z" clip-path="url(#p87c712a977)"/><path id="patch_363" d="M209.766 84.816l12.003-6.93-12.003-6.93z" clip-path="url(#p87c712a977)"/><path id="patch_364" d="M221.77 77.886l12.002-6.93-12.003-6.93z" clip-path="url(#p87c712a977)"/><path id="patch_365" d="M233.772 70.956l12.004-6.93-12.004-6.93z" clip-path="url(#p87c712a977)"/><path id="patch_366" d="M197.763 91.746v-13.86l-12.003 6.93z" clip-path="url(#p87c712a977)"/><path id="patch_367" d="M209.766 84.816v-13.86l-12.003 6.93z" clip-path="url(#p87c712a977)"/><path id="patch_368" d="M221.77 77.886v-13.86l-12.004 6.93z" clip-path="url(#p87c712a977)"/><path id="patch_369" d="M233.772 70.956v-13.86l-12.003 6.93z" clip-path="url(#p87c712a977)"/><path id="patch_370" d="M185.76 84.816l12.003-6.93-12.003-6.93z" clip-path="url(#p87c712a977)"/><path id="patch_371" d="M197.763 77.886l12.003-6.93-12.003-6.93z" clip-path="url(#p87c712a977)"/><path id="patch_372" d="M209.766 70.956l12.003-6.93-12.003-6.93z" clip-path="url(#p87c712a977)"/><path id="patch_373" d="M221.77 64.026l12.002-6.93-12.003-6.93z" clip-path="url(#p87c712a977)"/><path id="patch_374" d="M197.763 77.886v-13.86l-12.003 6.93z" clip-path="url(#p87c712a977)"/><path id="patch_375" d="M209.766 70.956v-13.86l-12.003 6.93z" clip-path="url(#p87c712a977)"/><path id="patch_376" d="M221.77 64.026v-13.86l-12.004 6.93z" clip-path="url(#p87c712a977)"/><path id="patch_377" d="M185.76 70.956l12.003-6.93-12.003-6.93z" clip-path="url(#p87c712a977)"/><path id="patch_378" d="M197.763 64.026l12.003-6.93-12.003-6.93z" clip-path="url(#p87c712a977)"/><path id="patch_379" d="M209.766 57.096l12.003-6.93-12.003-6.93z" clip-path="url(#p87c712a977)"/><path id="patch_380" d="M197.763 64.026v-13.86l-12.003 6.93z" clip-path="url(#p87c712a977)"/><path id="patch_381" d="M209.766 57.096v-13.86l-12.003 6.93z" clip-path="url(#p87c712a977)"/><path id="patch_382" d="M185.76 57.096l12.003-6.93-12.003-6.93z" clip-path="url(#p87c712a977)"/><path id="patch_383" d="M197.763 50.166l12.003-6.93-12.003-6.93z" clip-path="url(#p87c712a977)"/><path id="patch_384" d="M197.763 50.166v-13.86l-12.003 6.93z" clip-path="url(#p87c712a977)"/><path id="patch_385" d="M185.76 43.236l12.003-6.93-12.003-6.93z" clip-path="url(#p87c712a977)"/></g></g><defs id="defs796"><clipPath id="p87c712a977"><path id="path793" d="M7.2 7.2h357.12v266.112H7.2z"/></clipPath></defs></svg>