<svg height="374.016" viewBox="0 0 371.52 280.512" width="495.36" xmlns="http://www.w3.org/2000/svg"><defs><style>*{stroke-linecap:butt;stroke-linejoin:round}</style></defs><g id="figure_1"><path d="M0 280.512h371.52V0H0z" fill="none" id="patch_1"/><g id="axes_1" fill="#ddd" stroke="#000"><path clip-path="url(#p87c712a977)" d="M185.76 140.256v-13.86l-12.003 6.93z" id="patch_2"/><path clip-path="url(#p87c712a977)" d="M185.76 126.396v-13.86l-12.003 6.93z" id="patch_3"/><path clip-path="url(#p87c712a977)" d="M185.76 112.536v-13.86l-12.003 6.93z" id="patch_4"/><path clip-path="url(#p87c712a977)" d="M185.76 98.676v-13.86l-12.003 6.93z" id="patch_5"/><path clip-path="url(#p87c712a977)" d="M185.76 84.816v-13.86l-12.003 6.93z" id="patch_6"/><path clip-path="url(#p87c712a977)" d="M185.76 70.956v-13.86l-12.003 6.93z" id="patch_7"/><path clip-path="url(#p87c712a977)" d="M185.76 57.096v-13.86l-12.003 6.93z" id="patch_8"/><path clip-path="url(#p87c712a977)" d="M185.76 43.236v-13.86l-12.003 6.93z" id="patch_9"/><path clip-path="url(#p87c712a977)" d="M185.76 126.396l-12.003-6.93v13.86z" id="patch_10"/><path clip-path="url(#p87c712a977)" d="M185.76 112.536l-12.003-6.93v13.86z" id="patch_11"/><path clip-path="url(#p87c712a977)" d="M185.76 98.676l-12.003-6.93v13.86z" id="patch_12"/><path clip-path="url(#p87c712a977)" d="M185.76 84.816l-12.003-6.93v13.86z" id="patch_13"/><path clip-path="url(#p87c712a977)" d="M185.76 70.956l-12.003-6.93v13.86z" id="patch_14"/><path clip-path="url(#p87c712a977)" d="M185.76 57.096l-12.003-6.93v13.86z" id="patch_15"/><path clip-path="url(#p87c712a977)" d="M185.76 43.236l-12.003-6.93v13.86z" id="patch_16"/><path clip-path="url(#p87c712a977)" d="M173.757 133.326v-13.86l-12.003 6.93z" id="patch_17"/><path clip-path="url(#p87c712a977)" d="M173.757 119.466v-13.86l-12.003 6.93z" id="patch_18"/><path clip-path="url(#p87c712a977)" d="M173.757 105.606v-13.86l-12.003 6.93z" id="patch_19"/><path clip-path="url(#p87c712a977)" d="M173.757 91.746v-13.86l-12.003 6.93z" id="patch_20"/><path clip-path="url(#p87c712a977)" d="M173.757 77.886v-13.86l-12.003 6.93z" id="patch_21"/><path clip-path="url(#p87c712a977)" d="M173.757 64.026v-13.86l-12.003 6.93z" id="patch_22"/><path clip-path="url(#p87c712a977)" d="M173.757 50.166v-13.86l-12.003 6.93z" id="patch_23"/><path clip-path="url(#p87c712a977)" d="M173.757 119.466l-12.003-6.93v13.86z" id="patch_24"/><path clip-path="url(#p87c712a977)" d="M173.757 105.606l-12.003-6.93v13.86z" id="patch_25"/><path clip-path="url(#p87c712a977)" d="M173.757 91.746l-12.003-6.93v13.86z" id="patch_26"/><path clip-path="url(#p87c712a977)" d="M173.757 77.886l-12.003-6.93v13.86z" id="patch_27"/><path clip-path="url(#p87c712a977)" d="M173.757 64.026l-12.003-6.93v13.86z" id="patch_28"/><path clip-path="url(#p87c712a977)" d="M173.757 50.166l-12.003-6.93v13.86z" id="patch_29"/><path clip-path="url(#p87c712a977)" d="M161.754 126.396v-13.86l-12.003 6.93z" id="patch_30"/><path clip-path="url(#p87c712a977)" d="M161.754 112.536v-13.86l-12.003 6.93z" id="patch_31"/><path clip-path="url(#p87c712a977)" d="M161.754 98.676v-13.86l-12.003 6.93z" id="patch_32"/><path clip-path="url(#p87c712a977)" d="M161.754 84.816v-13.86l-12.003 6.93z" id="patch_33"/><path clip-path="url(#p87c712a977)" d="M161.754 70.956v-13.86l-12.003 6.93z" id="patch_34"/><path clip-path="url(#p87c712a977)" d="M161.754 57.096v-13.86l-12.003 6.93z" id="patch_35"/><path clip-path="url(#p87c712a977)" d="M161.754 112.536l-12.003-6.93v13.86z" id="patch_36"/><path clip-path="url(#p87c712a977)" d="M161.754 98.676l-12.003-6.93v13.86z" id="patch_37"/><path clip-path="url(#p87c712a977)" d="M161.754 84.816l-12.003-6.93v13.86z" id="patch_38"/><path clip-path="url(#p87c712a977)" d="M161.754 70.956l-12.003-6.93v13.86z" id="patch_39"/><path clip-path="url(#p87c712a977)" d="M161.754 57.096l-12.003-6.93v13.86z" id="patch_40"/><path clip-path="url(#p87c712a977)" d="M149.75 119.466v-13.86l-12.002 6.93z" id="patch_41"/><path clip-path="url(#p87c712a977)" d="M149.75 105.606v-13.86l-12.002 6.93z" id="patch_42"/><path clip-path="url(#p87c712a977)" d="M149.75 91.746v-13.86l-12.002 6.93z" id="patch_43"/><path clip-path="url(#p87c712a977)" d="M149.75 77.886v-13.86l-12.002 6.93z" id="patch_44"/><path clip-path="url(#p87c712a977)" d="M149.75 64.026v-13.86l-12.002 6.93z" id="patch_45"/><path clip-path="url(#p87c712a977)" d="M149.75 105.606l-12.002-6.93v13.86z" id="patch_46"/><path clip-path="url(#p87c712a977)" d="M149.75 91.746l-12.002-6.93v13.86z" id="patch_47"/><path clip-path="url(#p87c712a977)" d="M149.75 77.886l-12.002-6.93v13.86z" id="patch_48"/><path clip-path="url(#p87c712a977)" d="M149.75 64.026l-12.002-6.93v13.86z" id="patch_49"/><path clip-path="url(#p87c712a977)" d="M137.748 112.536v-13.86l-12.004 6.93z" id="patch_50"/><path clip-path="url(#p87c712a977)" d="M137.748 98.676v-13.86l-12.004 6.93z" id="patch_51"/><path clip-path="url(#p87c712a977)" d="M137.748 84.816v-13.86l-12.004 6.93z" id="patch_52"/><path clip-path="url(#p87c712a977)" d="M137.748 70.956v-13.86l-12.004 6.93z" id="patch_53"/><path clip-path="url(#p87c712a977)" d="M137.748 98.676l-12.004-6.93v13.86z" id="patch_54"/><path clip-path="url(#p87c712a977)" d="M137.748 84.816l-12.004-6.93v13.86z" id="patch_55"/><path clip-path="url(#p87c712a977)" d="M137.748 70.956l-12.004-6.93v13.86z" id="patch_56"/><path clip-path="url(#p87c712a977)" d="M125.744 105.606v-13.86l-12.003 6.93z" id="patch_57"/><path clip-path="url(#p87c712a977)" d="M125.744 91.746v-13.86l-12.003 6.93z" id="patch_58"/><path clip-path="url(#p87c712a977)" d="M125.744 77.886v-13.86l-12.003 6.93z" id="patch_59"/><path clip-path="url(#p87c712a977)" d="M125.744 91.746l-12.003-6.93v13.86z" id="patch_60"/><path clip-path="url(#p87c712a977)" d="M125.744 77.886l-12.003-6.93v13.86z" id="patch_61"/><path clip-path="url(#p87c712a977)" d="M113.741 98.676v-13.86l-12.003 6.93z" id="patch_62"/><path clip-path="url(#p87c712a977)" d="M113.741 84.816v-13.86l-12.003 6.93z" id="patch_63"/><path clip-path="url(#p87c712a977)" d="M113.741 84.816l-12.003-6.93v13.86z" id="patch_64"/><path clip-path="url(#p87c712a977)" d="M101.738 91.746v-13.86l-12.003 6.93z" id="patch_65"/><path clip-path="url(#p87c712a977)" d="M185.76 140.256l-12.003-6.93v13.86z" id="patch_66"/><path clip-path="url(#p87c712a977)" d="M173.757 133.326l-12.003-6.93v13.86z" id="patch_67"/><path clip-path="url(#p87c712a977)" d="M161.754 126.396l-12.003-6.93v13.86z" id="patch_68"/><path clip-path="url(#p87c712a977)" d="M149.75 119.466l-12.002-6.93v13.86z" id="patch_69"/><path clip-path="url(#p87c712a977)" d="M137.748 112.536l-12.004-6.93v13.86z" id="patch_70"/><path clip-path="url(#p87c712a977)" d="M125.744 105.606l-12.003-6.93v13.86z" id="patch_71"/><path clip-path="url(#p87c712a977)" d="M113.741 98.676l-12.003-6.93v13.86z" id="patch_72"/><path clip-path="url(#p87c712a977)" d="M101.738 91.746l-12.003-6.93v13.86z" id="patch_73"/><path clip-path="url(#p87c712a977)" d="M173.757 133.326l-12.003 6.93 12.003 6.93z" id="patch_74"/><path clip-path="url(#p87c712a977)" d="M161.754 126.396l-12.003 6.93 12.003 6.93z" id="patch_75"/><path clip-path="url(#p87c712a977)" d="M149.75 119.466l-12.002 6.93 12.003 6.93z" id="patch_76"/><path clip-path="url(#p87c712a977)" d="M137.748 112.536l-12.004 6.93 12.004 6.93z" id="patch_77"/><path clip-path="url(#p87c712a977)" d="M125.744 105.606l-12.003 6.93 12.003 6.93z" id="patch_78"/><path clip-path="url(#p87c712a977)" d="M113.741 98.676l-12.003 6.93 12.003 6.93z" id="patch_79"/><path clip-path="url(#p87c712a977)" d="M101.738 91.746l-12.003 6.93 12.003 6.93z" id="patch_80"/><path clip-path="url(#p87c712a977)" d="M173.757 147.186l-12.003-6.93v13.86z" id="patch_81"/><path clip-path="url(#p87c712a977)" d="M161.754 140.256l-12.003-6.93v13.86z" id="patch_82"/><path clip-path="url(#p87c712a977)" d="M149.75 133.326l-12.002-6.93v13.86z" id="patch_83"/><path clip-path="url(#p87c712a977)" d="M137.748 126.396l-12.004-6.93v13.86z" id="patch_84"/><path clip-path="url(#p87c712a977)" d="M125.744 119.466l-12.003-6.93v13.86z" id="patch_85"/><path clip-path="url(#p87c712a977)" d="M113.741 112.536l-12.003-6.93v13.86z" id="patch_86"/><path clip-path="url(#p87c712a977)" d="M101.738 105.606l-12.003-6.93v13.86z" id="patch_87"/><path clip-path="url(#p87c712a977)" d="M161.754 140.256l-12.003 6.93 12.003 6.93z" id="patch_88"/><path clip-path="url(#p87c712a977)" d="M149.75 133.326l-12.002 6.93 12.003 6.93z" id="patch_89"/><path clip-path="url(#p87c712a977)" d="M137.748 126.396l-12.004 6.93 12.004 6.93z" id="patch_90"/><path clip-path="url(#p87c712a977)" d="M125.744 119.466l-12.003 6.93 12.003 6.93z" id="patch_91"/><path clip-path="url(#p87c712a977)" d="M113.741 112.536l-12.003 6.93 12.003 6.93z" id="patch_92"/><path clip-path="url(#p87c712a977)" d="M101.738 105.606l-12.003 6.93 12.003 6.93z" id="patch_93"/><path clip-path="url(#p87c712a977)" d="M161.754 154.116l-12.003-6.93v13.86z" id="patch_94"/><path clip-path="url(#p87c712a977)" d="M149.75 147.186l-12.002-6.93v13.86z" id="patch_95"/><path clip-path="url(#p87c712a977)" d="M137.748 140.256l-12.004-6.93v13.86z" id="patch_96"/><path clip-path="url(#p87c712a977)" d="M125.744 133.326l-12.003-6.93v13.86z" id="patch_97"/><path clip-path="url(#p87c712a977)" d="M113.741 126.396l-12.003-6.93v13.86z" id="patch_98"/><path clip-path="url(#p87c712a977)" d="M101.738 119.466l-12.003-6.93v13.86z" id="patch_99"/><path clip-path="url(#p87c712a977)" d="M149.75 147.186l-12.002 6.93 12.003 6.93z" id="patch_100"/><path clip-path="url(#p87c712a977)" d="M137.748 140.256l-12.004 6.93 12.004 6.93z" id="patch_101"/><path clip-path="url(#p87c712a977)" d="M125.744 133.326l-12.003 6.93 12.003 6.93z" id="patch_102"/><path clip-path="url(#p87c712a977)" d="M113.741 126.396l-12.003 6.93 12.003 6.93z" id="patch_103"/><path clip-path="url(#p87c712a977)" d="M101.738 119.466l-12.003 6.93 12.003 6.93z" id="patch_104"/><path clip-path="url(#p87c712a977)" d="M149.75 161.046l-12.002-6.93v13.86z" id="patch_105"/><path clip-path="url(#p87c712a977)" d="M137.748 154.116l-12.004-6.93v13.86z" id="patch_106"/><path clip-path="url(#p87c712a977)" d="M125.744 147.186l-12.003-6.93v13.86z" id="patch_107"/><path clip-path="url(#p87c712a977)" d="M113.741 140.256l-12.003-6.93v13.86z" id="patch_108"/><path clip-path="url(#p87c712a977)" d="M101.738 133.326l-12.003-6.93v13.86z" id="patch_109"/><path clip-path="url(#p87c712a977)" d="M137.748 154.116l-12.004 6.93 12.004 6.93z" id="patch_110"/><path clip-path="url(#p87c712a977)" d="M125.744 147.186l-12.003 6.93 12.003 6.93z" id="patch_111"/><path clip-path="url(#p87c712a977)" d="M113.741 140.256l-12.003 6.93 12.003 6.93z" id="patch_112"/><path clip-path="url(#p87c712a977)" d="M101.738 133.326l-12.003 6.93 12.003 6.93z" id="patch_113"/><path clip-path="url(#p87c712a977)" d="M137.748 167.976l-12.004-6.93v13.86z" id="patch_114"/><path clip-path="url(#p87c712a977)" d="M125.744 161.046l-12.003-6.93v13.86z" id="patch_115"/><path clip-path="url(#p87c712a977)" d="M113.741 154.116l-12.003-6.93v13.86z" id="patch_116"/><path clip-path="url(#p87c712a977)" d="M101.738 147.186l-12.003-6.93v13.86z" id="patch_117"/><path clip-path="url(#p87c712a977)" d="M125.744 161.046l-12.003 6.93 12.003 6.93z" id="patch_118"/><path clip-path="url(#p87c712a977)" d="M113.741 154.116l-12.003 6.93 12.003 6.93z" id="patch_119"/><path clip-path="url(#p87c712a977)" d="M101.738 147.186l-12.003 6.93 12.003 6.93z" id="patch_120"/><path clip-path="url(#p87c712a977)" d="M125.744 174.906l-12.003-6.93v13.86z" id="patch_121"/><path clip-path="url(#p87c712a977)" d="M113.741 167.976l-12.003-6.93v13.86z" id="patch_122"/><path clip-path="url(#p87c712a977)" d="M101.738 161.046l-12.003-6.93v13.86z" id="patch_123"/><path clip-path="url(#p87c712a977)" d="M113.741 167.976l-12.003 6.93 12.003 6.93z" id="patch_124"/><path clip-path="url(#p87c712a977)" d="M101.738 161.046l-12.003 6.93 12.003 6.93z" id="patch_125"/><path clip-path="url(#p87c712a977)" d="M113.741 181.836l-12.003-6.93v13.86z" id="patch_126"/><path clip-path="url(#p87c712a977)" d="M101.738 174.906l-12.003-6.93v13.86z" id="patch_127"/><path clip-path="url(#p87c712a977)" d="M101.738 174.906l-12.003 6.93 12.003 6.93z" id="patch_128"/><path clip-path="url(#p87c712a977)" d="M101.738 188.766l-12.003-6.93v13.86z" id="patch_129"/><path clip-path="url(#p87c712a977)" d="M185.76 140.256l-12.003 6.93 12.003 6.93z" id="patch_130"/><path clip-path="url(#p87c712a977)" d="M173.757 147.186l-12.003 6.93 12.003 6.93z" id="patch_131"/><path clip-path="url(#p87c712a977)" d="M161.754 154.116l-12.003 6.93 12.003 6.93z" id="patch_132"/><path clip-path="url(#p87c712a977)" d="M149.75 161.046l-12.002 6.93 12.003 6.93z" id="patch_133"/><path clip-path="url(#p87c712a977)" d="M137.748 167.976l-12.004 6.93 12.004 6.93z" id="patch_134"/><path clip-path="url(#p87c712a977)" d="M125.744 174.906l-12.003 6.93 12.003 6.93z" id="patch_135"/><path clip-path="url(#p87c712a977)" d="M113.741 181.836l-12.003 6.93 12.003 6.93z" id="patch_136"/><path clip-path="url(#p87c712a977)" d="M101.738 188.766l-12.003 6.93 12.003 6.93z" id="patch_137"/><path clip-path="url(#p87c712a977)" d="M173.757 147.186v13.86l12.003-6.93z" id="patch_138"/><path clip-path="url(#p87c712a977)" d="M161.754 154.116v13.86l12.003-6.93z" id="patch_139"/><path clip-path="url(#p87c712a977)" d="M149.75 161.046v13.86l12.004-6.93z" id="patch_140"/><path clip-path="url(#p87c712a977)" d="M137.748 167.976v13.86l12.003-6.93z" id="patch_141"/><path clip-path="url(#p87c712a977)" d="M125.744 174.906v13.86l12.004-6.93z" id="patch_142"/><path clip-path="url(#p87c712a977)" d="M113.741 181.836v13.86l12.003-6.93z" id="patch_143"/><path clip-path="url(#p87c712a977)" d="M101.738 188.766v13.86l12.003-6.93z" id="patch_144"/><path clip-path="url(#p87c712a977)" d="M185.76 154.116l-12.003 6.93 12.003 6.93z" id="patch_145"/><path clip-path="url(#p87c712a977)" d="M173.757 161.046l-12.003 6.93 12.003 6.93z" id="patch_146"/><path clip-path="url(#p87c712a977)" d="M161.754 167.976l-12.003 6.93 12.003 6.93z" id="patch_147"/><path clip-path="url(#p87c712a977)" d="M149.75 174.906l-12.002 6.93 12.003 6.93z" id="patch_148"/><path clip-path="url(#p87c712a977)" d="M137.748 181.836l-12.004 6.93 12.004 6.93z" id="patch_149"/><path clip-path="url(#p87c712a977)" d="M125.744 188.766l-12.003 6.93 12.003 6.93z" id="patch_150"/><path clip-path="url(#p87c712a977)" d="M113.741 195.696l-12.003 6.93 12.003 6.93z" id="patch_151"/><path clip-path="url(#p87c712a977)" d="M173.757 161.046v13.86l12.003-6.93z" id="patch_152"/><path clip-path="url(#p87c712a977)" d="M161.754 167.976v13.86l12.003-6.93z" id="patch_153"/><path clip-path="url(#p87c712a977)" d="M149.75 174.906v13.86l12.004-6.93z" id="patch_154"/><path clip-path="url(#p87c712a977)" d="M137.748 181.836v13.86l12.003-6.93z" id="patch_155"/><path clip-path="url(#p87c712a977)" d="M125.744 188.766v13.86l12.004-6.93z" id="patch_156"/><path clip-path="url(#p87c712a977)" d="M113.741 195.696v13.86l12.003-6.93z" id="patch_157"/><path clip-path="url(#p87c712a977)" d="M185.76 167.976l-12.003 6.93 12.003 6.93z" id="patch_158"/><path clip-path="url(#p87c712a977)" d="M173.757 174.906l-12.003 6.93 12.003 6.93z" id="patch_159"/><path clip-path="url(#p87c712a977)" d="M161.754 181.836l-12.003 6.93 12.003 6.93z" id="patch_160"/><path clip-path="url(#p87c712a977)" d="M149.75 188.766l-12.002 6.93 12.003 6.93z" id="patch_161"/><path clip-path="url(#p87c712a977)" d="M137.748 195.696l-12.004 6.93 12.004 6.93z" id="patch_162"/><path clip-path="url(#p87c712a977)" d="M125.744 202.626l-12.003 6.93 12.003 6.93z" id="patch_163"/><path clip-path="url(#p87c712a977)" d="M173.757 174.906v13.86l12.003-6.93z" id="patch_164"/><path clip-path="url(#p87c712a977)" d="M161.754 181.836v13.86l12.003-6.93z" id="patch_165"/><path clip-path="url(#p87c712a977)" d="M149.75 188.766v13.86l12.004-6.93z" id="patch_166"/><path clip-path="url(#p87c712a977)" d="M137.748 195.696v13.86l12.003-6.93z" id="patch_167"/><path clip-path="url(#p87c712a977)" d="M125.744 202.626v13.86l12.004-6.93z" id="patch_168"/><path clip-path="url(#p87c712a977)" d="M185.76 181.836l-12.003 6.93 12.003 6.93z" id="patch_169"/><path clip-path="url(#p87c712a977)" d="M173.757 188.766l-12.003 6.93 12.003 6.93z" id="patch_170"/><path clip-path="url(#p87c712a977)" d="M161.754 195.696l-12.003 6.93 12.003 6.93z" id="patch_171"/><path clip-path="url(#p87c712a977)" d="M149.75 202.626l-12.002 6.93 12.003 6.93z" id="patch_172"/><path clip-path="url(#p87c712a977)" d="M137.748 209.556l-12.004 6.93 12.004 6.93z" id="patch_173"/><path clip-path="url(#p87c712a977)" d="M173.757 188.766v13.86l12.003-6.93z" id="patch_174"/><path clip-path="url(#p87c712a977)" d="M161.754 195.696v13.86l12.003-6.93z" id="patch_175"/><path clip-path="url(#p87c712a977)" d="M149.75 202.626v13.86l12.004-6.93z" id="patch_176"/><path clip-path="url(#p87c712a977)" d="M137.748 209.556v13.86l12.003-6.93z" id="patch_177"/><path clip-path="url(#p87c712a977)" d="M185.76 195.696l-12.003 6.93 12.003 6.93z" id="patch_178"/><path clip-path="url(#p87c712a977)" d="M173.757 202.626l-12.003 6.93 12.003 6.93z" id="patch_179"/><path clip-path="url(#p87c712a977)" d="M161.754 209.556l-12.003 6.93 12.003 6.93z" id="patch_180"/><path clip-path="url(#p87c712a977)" d="M149.75 216.486l-12.002 6.93 12.003 6.93z" id="patch_181"/><path clip-path="url(#p87c712a977)" d="M173.757 202.626v13.86l12.003-6.93z" id="patch_182"/><path clip-path="url(#p87c712a977)" d="M161.754 209.556v13.86l12.003-6.93z" id="patch_183"/><path clip-path="url(#p87c712a977)" d="M149.75 216.486v13.86l12.004-6.93z" id="patch_184"/><path clip-path="url(#p87c712a977)" d="M185.76 209.556l-12.003 6.93 12.003 6.93z" id="patch_185"/><path clip-path="url(#p87c712a977)" d="M173.757 216.486l-12.003 6.93 12.003 6.93z" id="patch_186"/><path clip-path="url(#p87c712a977)" d="M161.754 223.416l-12.003 6.93 12.003 6.93z" id="patch_187"/><path clip-path="url(#p87c712a977)" d="M173.757 216.486v13.86l12.003-6.93z" id="patch_188"/><path clip-path="url(#p87c712a977)" d="M161.754 223.416v13.86l12.003-6.93z" id="patch_189"/><path clip-path="url(#p87c712a977)" d="M185.76 223.416l-12.003 6.93 12.003 6.93z" id="patch_190"/><path clip-path="url(#p87c712a977)" d="M173.757 230.346l-12.003 6.93 12.003 6.93z" id="patch_191"/><path clip-path="url(#p87c712a977)" d="M173.757 230.346v13.86l12.003-6.93z" id="patch_192"/><path clip-path="url(#p87c712a977)" d="M185.76 237.276l-12.003 6.93 12.003 6.93z" id="patch_193"/><path clip-path="url(#p87c712a977)" d="M185.76 140.256v13.86l12.003-6.93z" id="patch_194"/><path clip-path="url(#p87c712a977)" d="M185.76 154.116v13.86l12.003-6.93z" id="patch_195"/><path clip-path="url(#p87c712a977)" d="M185.76 167.976v13.86l12.003-6.93z" id="patch_196"/><path clip-path="url(#p87c712a977)" d="M185.76 181.836v13.86l12.003-6.93z" id="patch_197"/><path clip-path="url(#p87c712a977)" d="M185.76 195.696v13.86l12.003-6.93z" id="patch_198"/><path clip-path="url(#p87c712a977)" d="M185.76 209.556v13.86l12.003-6.93z" id="patch_199"/><path clip-path="url(#p87c712a977)" d="M185.76 223.416v13.86l12.003-6.93z" id="patch_200"/><path clip-path="url(#p87c712a977)" d="M185.76 237.276v13.86l12.003-6.93z" id="patch_201"/><path clip-path="url(#p87c712a977)" d="M185.76 154.116l12.003 6.93v-13.86z" id="patch_202"/><path clip-path="url(#p87c712a977)" d="M185.76 167.976l12.003 6.93v-13.86z" id="patch_203"/><path clip-path="url(#p87c712a977)" d="M185.76 181.836l12.003 6.93v-13.86z" id="patch_204"/><path clip-path="url(#p87c712a977)" d="M185.76 195.696l12.003 6.93v-13.86z" id="patch_205"/><path clip-path="url(#p87c712a977)" d="M185.76 209.556l12.003 6.93v-13.86z" id="patch_206"/><path clip-path="url(#p87c712a977)" d="M185.76 223.416l12.003 6.93v-13.86z" id="patch_207"/><path clip-path="url(#p87c712a977)" d="M185.76 237.276l12.003 6.93v-13.86z" id="patch_208"/><path clip-path="url(#p87c712a977)" d="M197.763 147.186v13.86l12.003-6.93z" id="patch_209"/><path clip-path="url(#p87c712a977)" d="M197.763 161.046v13.86l12.003-6.93z" id="patch_210"/><path clip-path="url(#p87c712a977)" d="M197.763 174.906v13.86l12.003-6.93z" id="patch_211"/><path clip-path="url(#p87c712a977)" d="M197.763 188.766v13.86l12.003-6.93z" id="patch_212"/><path clip-path="url(#p87c712a977)" d="M197.763 202.626v13.86l12.003-6.93z" id="patch_213"/><path clip-path="url(#p87c712a977)" d="M197.763 216.486v13.86l12.003-6.93z" id="patch_214"/><path clip-path="url(#p87c712a977)" d="M197.763 230.346v13.86l12.003-6.93z" id="patch_215"/><path clip-path="url(#p87c712a977)" d="M197.763 161.046l12.003 6.93v-13.86z" id="patch_216"/><path clip-path="url(#p87c712a977)" d="M197.763 174.906l12.003 6.93v-13.86z" id="patch_217"/><path clip-path="url(#p87c712a977)" d="M197.763 188.766l12.003 6.93v-13.86z" id="patch_218"/><path clip-path="url(#p87c712a977)" d="M197.763 202.626l12.003 6.93v-13.86z" id="patch_219"/><path clip-path="url(#p87c712a977)" d="M197.763 216.486l12.003 6.93v-13.86z" id="patch_220"/><path clip-path="url(#p87c712a977)" d="M197.763 230.346l12.003 6.93v-13.86z" id="patch_221"/><path clip-path="url(#p87c712a977)" d="M209.766 154.116v13.86l12.003-6.93z" id="patch_222"/><path clip-path="url(#p87c712a977)" d="M209.766 167.976v13.86l12.003-6.93z" id="patch_223"/><path clip-path="url(#p87c712a977)" d="M209.766 181.836v13.86l12.003-6.93z" id="patch_224"/><path clip-path="url(#p87c712a977)" d="M209.766 195.696v13.86l12.003-6.93z" id="patch_225"/><path clip-path="url(#p87c712a977)" d="M209.766 209.556v13.86l12.003-6.93z" id="patch_226"/><path clip-path="url(#p87c712a977)" d="M209.766 223.416v13.86l12.003-6.93z" id="patch_227"/><path clip-path="url(#p87c712a977)" d="M209.766 167.976l12.003 6.93v-13.86z" id="patch_228"/><path clip-path="url(#p87c712a977)" d="M209.766 181.836l12.003 6.93v-13.86z" id="patch_229"/><path clip-path="url(#p87c712a977)" d="M209.766 195.696l12.003 6.93v-13.86z" id="patch_230"/><path clip-path="url(#p87c712a977)" d="M209.766 209.556l12.003 6.93v-13.86z" id="patch_231"/><path clip-path="url(#p87c712a977)" d="M209.766 223.416l12.003 6.93v-13.86z" id="patch_232"/><path clip-path="url(#p87c712a977)" d="M221.77 161.046v13.86l12.002-6.93z" id="patch_233"/><path clip-path="url(#p87c712a977)" d="M221.77 174.906v13.86l12.002-6.93z" id="patch_234"/><path clip-path="url(#p87c712a977)" d="M221.77 188.766v13.86l12.002-6.93z" id="patch_235"/><path clip-path="url(#p87c712a977)" d="M221.77 202.626v13.86l12.002-6.93z" id="patch_236"/><path clip-path="url(#p87c712a977)" d="M221.77 216.486v13.86l12.002-6.93z" id="patch_237"/><path clip-path="url(#p87c712a977)" d="M221.77 174.906l12.002 6.93v-13.86z" id="patch_238"/><path clip-path="url(#p87c712a977)" d="M221.77 188.766l12.002 6.93v-13.86z" id="patch_239"/><path clip-path="url(#p87c712a977)" d="M221.77 202.626l12.002 6.93v-13.86z" id="patch_240"/><path clip-path="url(#p87c712a977)" d="M221.77 216.486l12.002 6.93v-13.86z" id="patch_241"/><path clip-path="url(#p87c712a977)" d="M233.772 167.976v13.86l12.004-6.93z" id="patch_242"/><path clip-path="url(#p87c712a977)" d="M233.772 181.836v13.86l12.004-6.93z" id="patch_243"/><path clip-path="url(#p87c712a977)" d="M233.772 195.696v13.86l12.004-6.93z" id="patch_244"/><path clip-path="url(#p87c712a977)" d="M233.772 209.556v13.86l12.004-6.93z" id="patch_245"/><path clip-path="url(#p87c712a977)" d="M233.772 181.836l12.004 6.93v-13.86z" id="patch_246"/><path clip-path="url(#p87c712a977)" d="M233.772 195.696l12.004 6.93v-13.86z" id="patch_247"/><path clip-path="url(#p87c712a977)" d="M233.772 209.556l12.004 6.93v-13.86z" id="patch_248"/><path clip-path="url(#p87c712a977)" d="M245.776 174.906v13.86l12.003-6.93z" id="patch_249"/><path clip-path="url(#p87c712a977)" d="M245.776 188.766v13.86l12.003-6.93z" id="patch_250"/><path clip-path="url(#p87c712a977)" d="M245.776 202.626v13.86l12.003-6.93z" id="patch_251"/><path clip-path="url(#p87c712a977)" d="M245.776 188.766l12.003 6.93v-13.86z" id="patch_252"/><path clip-path="url(#p87c712a977)" d="M245.776 202.626l12.003 6.93v-13.86z" id="patch_253"/><path clip-path="url(#p87c712a977)" d="M257.779 181.836v13.86l12.003-6.93z" id="patch_254"/><path clip-path="url(#p87c712a977)" d="M257.779 195.696v13.86l12.003-6.93z" id="patch_255"/><path clip-path="url(#p87c712a977)" d="M257.779 195.696l12.003 6.93v-13.86z" id="patch_256"/><path clip-path="url(#p87c712a977)" d="M269.782 188.766v13.86l12.003-6.93z" id="patch_257"/><path clip-path="url(#p87c712a977)" d="M185.76 140.256l12.003 6.93v-13.86z" id="patch_258"/><path clip-path="url(#p87c712a977)" d="M197.763 147.186l12.003 6.93v-13.86z" id="patch_259"/><path clip-path="url(#p87c712a977)" d="M209.766 154.116l12.003 6.93v-13.86z" id="patch_260"/><path clip-path="url(#p87c712a977)" d="M221.77 161.046l12.002 6.93v-13.86z" id="patch_261"/><path clip-path="url(#p87c712a977)" d="M233.772 167.976l12.004 6.93v-13.86z" id="patch_262"/><path clip-path="url(#p87c712a977)" d="M245.776 174.906l12.003 6.93v-13.86z" id="patch_263"/><path clip-path="url(#p87c712a977)" d="M257.779 181.836l12.003 6.93v-13.86z" id="patch_264"/><path clip-path="url(#p87c712a977)" d="M269.782 188.766l12.003 6.93v-13.86z" id="patch_265"/><path clip-path="url(#p87c712a977)" d="M197.763 147.186l12.003-6.93-12.003-6.93z" id="patch_266"/><path clip-path="url(#p87c712a977)" d="M209.766 154.116l12.003-6.93-12.003-6.93z" id="patch_267"/><path clip-path="url(#p87c712a977)" d="M221.77 161.046l12.002-6.93-12.003-6.93z" id="patch_268"/><path clip-path="url(#p87c712a977)" d="M233.772 167.976l12.004-6.93-12.004-6.93z" id="patch_269"/><path clip-path="url(#p87c712a977)" d="M245.776 174.906l12.003-6.93-12.003-6.93z" id="patch_270"/><path clip-path="url(#p87c712a977)" d="M257.779 181.836l12.003-6.93-12.003-6.93z" id="patch_271"/><path clip-path="url(#p87c712a977)" d="M269.782 188.766l12.003-6.93-12.003-6.93z" id="patch_272"/><path clip-path="url(#p87c712a977)" d="M197.763 133.326l12.003 6.93v-13.86z" id="patch_273"/><path clip-path="url(#p87c712a977)" d="M209.766 140.256l12.003 6.93v-13.86z" id="patch_274"/><path clip-path="url(#p87c712a977)" d="M221.77 147.186l12.002 6.93v-13.86z" id="patch_275"/><path clip-path="url(#p87c712a977)" d="M233.772 154.116l12.004 6.93v-13.86z" id="patch_276"/><path clip-path="url(#p87c712a977)" d="M245.776 161.046l12.003 6.93v-13.86z" id="patch_277"/><path clip-path="url(#p87c712a977)" d="M257.779 167.976l12.003 6.93v-13.86z" id="patch_278"/><path clip-path="url(#p87c712a977)" d="M269.782 174.906l12.003 6.93v-13.86z" id="patch_279"/><path clip-path="url(#p87c712a977)" d="M209.766 140.256l12.003-6.93-12.003-6.93z" id="patch_280"/><path clip-path="url(#p87c712a977)" d="M221.77 147.186l12.002-6.93-12.003-6.93z" id="patch_281"/><path clip-path="url(#p87c712a977)" d="M233.772 154.116l12.004-6.93-12.004-6.93z" id="patch_282"/><path clip-path="url(#p87c712a977)" d="M245.776 161.046l12.003-6.93-12.003-6.93z" id="patch_283"/><path clip-path="url(#p87c712a977)" d="M257.779 167.976l12.003-6.93-12.003-6.93z" id="patch_284"/><path clip-path="url(#p87c712a977)" d="M269.782 174.906l12.003-6.93-12.003-6.93z" id="patch_285"/><path clip-path="url(#p87c712a977)" d="M209.766 126.396l12.003 6.93v-13.86z" id="patch_286"/><path clip-path="url(#p87c712a977)" d="M221.77 133.326l12.002 6.93v-13.86z" id="patch_287"/><path clip-path="url(#p87c712a977)" d="M233.772 140.256l12.004 6.93v-13.86z" id="patch_288"/><path clip-path="url(#p87c712a977)" d="M245.776 147.186l12.003 6.93v-13.86z" id="patch_289"/><path clip-path="url(#p87c712a977)" d="M257.779 154.116l12.003 6.93v-13.86z" id="patch_290"/><path clip-path="url(#p87c712a977)" d="M269.782 161.046l12.003 6.93v-13.86z" id="patch_291"/><path clip-path="url(#p87c712a977)" d="M221.77 133.326l12.002-6.93-12.003-6.93z" id="patch_292"/><path clip-path="url(#p87c712a977)" d="M233.772 140.256l12.004-6.93-12.004-6.93z" id="patch_293"/><path clip-path="url(#p87c712a977)" d="M245.776 147.186l12.003-6.93-12.003-6.93z" id="patch_294"/><path clip-path="url(#p87c712a977)" d="M257.779 154.116l12.003-6.93-12.003-6.93z" id="patch_295"/><path clip-path="url(#p87c712a977)" d="M269.782 161.046l12.003-6.93-12.003-6.93z" id="patch_296"/><path clip-path="url(#p87c712a977)" d="M221.77 119.466l12.002 6.93v-13.86z" id="patch_297"/><path clip-path="url(#p87c712a977)" d="M233.772 126.396l12.004 6.93v-13.86z" id="patch_298"/><path clip-path="url(#p87c712a977)" d="M245.776 133.326l12.003 6.93v-13.86z" id="patch_299"/><path clip-path="url(#p87c712a977)" d="M257.779 140.256l12.003 6.93v-13.86z" id="patch_300"/><path clip-path="url(#p87c712a977)" d="M269.782 147.186l12.003 6.93v-13.86z" id="patch_301"/><path clip-path="url(#p87c712a977)" d="M233.772 126.396l12.004-6.93-12.004-6.93z" id="patch_302"/><path clip-path="url(#p87c712a977)" d="M245.776 133.326l12.003-6.93-12.003-6.93z" id="patch_303"/><path clip-path="url(#p87c712a977)" d="M257.779 140.256l12.003-6.93-12.003-6.93z" id="patch_304"/><path clip-path="url(#p87c712a977)" d="M269.782 147.186l12.003-6.93-12.003-6.93z" id="patch_305"/><path clip-path="url(#p87c712a977)" d="M233.772 112.536l12.004 6.93v-13.86z" id="patch_306"/><path clip-path="url(#p87c712a977)" d="M245.776 119.466l12.003 6.93v-13.86z" id="patch_307"/><path clip-path="url(#p87c712a977)" d="M257.779 126.396l12.003 6.93v-13.86z" id="patch_308"/><path clip-path="url(#p87c712a977)" d="M269.782 133.326l12.003 6.93v-13.86z" id="patch_309"/><path clip-path="url(#p87c712a977)" d="M245.776 119.466l12.003-6.93-12.003-6.93z" id="patch_310"/><path clip-path="url(#p87c712a977)" d="M257.779 126.396l12.003-6.93-12.003-6.93z" id="patch_311"/><path clip-path="url(#p87c712a977)" d="M269.782 133.326l12.003-6.93-12.003-6.93z" id="patch_312"/><path clip-path="url(#p87c712a977)" d="M245.776 105.606l12.003 6.93v-13.86z" id="patch_313"/><path clip-path="url(#p87c712a977)" d="M257.779 112.536l12.003 6.93v-13.86z" id="patch_314"/><path clip-path="url(#p87c712a977)" d="M269.782 119.466l12.003 6.93v-13.86z" id="patch_315"/><path clip-path="url(#p87c712a977)" d="M257.779 112.536l12.003-6.93-12.003-6.93z" id="patch_316"/><path clip-path="url(#p87c712a977)" d="M269.782 119.466l12.003-6.93-12.003-6.93z" id="patch_317"/><path clip-path="url(#p87c712a977)" d="M257.779 98.676l12.003 6.93v-13.86z" id="patch_318"/><path clip-path="url(#p87c712a977)" d="M269.782 105.606l12.003 6.93v-13.86z" id="patch_319"/><path clip-path="url(#p87c712a977)" d="M269.782 105.606l12.003-6.93-12.003-6.93z" id="patch_320"/><path clip-path="url(#p87c712a977)" d="M269.782 91.746l12.003 6.93v-13.86z" id="patch_321"/><path clip-path="url(#p87c712a977)" d="M185.76 140.256l12.003-6.93-12.003-6.93z" id="patch_322"/><path clip-path="url(#p87c712a977)" d="M197.763 133.326l12.003-6.93-12.003-6.93z" id="patch_323"/><path clip-path="url(#p87c712a977)" d="M209.766 126.396l12.003-6.93-12.003-6.93z" id="patch_324"/><path clip-path="url(#p87c712a977)" d="M221.77 119.466l12.002-6.93-12.003-6.93z" id="patch_325"/><path clip-path="url(#p87c712a977)" d="M233.772 112.536l12.004-6.93-12.004-6.93z" id="patch_326"/><path clip-path="url(#p87c712a977)" d="M245.776 105.606l12.003-6.93-12.003-6.93z" id="patch_327"/><path clip-path="url(#p87c712a977)" d="M257.779 98.676l12.003-6.93-12.003-6.93z" id="patch_328"/><path clip-path="url(#p87c712a977)" d="M269.782 91.746l12.003-6.93-12.003-6.93z" id="patch_329"/><path clip-path="url(#p87c712a977)" d="M197.763 133.326v-13.86l-12.003 6.93z" id="patch_330"/><path clip-path="url(#p87c712a977)" d="M209.766 126.396v-13.86l-12.003 6.93z" id="patch_331"/><path clip-path="url(#p87c712a977)" d="M221.77 119.466v-13.86l-12.004 6.93z" id="patch_332"/><path clip-path="url(#p87c712a977)" d="M233.772 112.536v-13.86l-12.003 6.93z" id="patch_333"/><path clip-path="url(#p87c712a977)" d="M245.776 105.606v-13.86l-12.004 6.93z" id="patch_334"/><path clip-path="url(#p87c712a977)" d="M257.779 98.676v-13.86l-12.003 6.93z" id="patch_335"/><path clip-path="url(#p87c712a977)" d="M269.782 91.746v-13.86l-12.003 6.93z" id="patch_336"/><path clip-path="url(#p87c712a977)" d="M185.76 126.396l12.003-6.93-12.003-6.93z" id="patch_337"/><path clip-path="url(#p87c712a977)" d="M197.763 119.466l12.003-6.93-12.003-6.93z" id="patch_338"/><path clip-path="url(#p87c712a977)" d="M209.766 112.536l12.003-6.93-12.003-6.93z" id="patch_339"/><path clip-path="url(#p87c712a977)" d="M221.77 105.606l12.002-6.93-12.003-6.93z" id="patch_340"/><path clip-path="url(#p87c712a977)" d="M233.772 98.676l12.004-6.93-12.004-6.93z" id="patch_341"/><path clip-path="url(#p87c712a977)" d="M245.776 91.746l12.003-6.93-12.003-6.93z" id="patch_342"/><path clip-path="url(#p87c712a977)" d="M257.779 84.816l12.003-6.93-12.003-6.93z" id="patch_343"/><path clip-path="url(#p87c712a977)" d="M197.763 119.466v-13.86l-12.003 6.93z" id="patch_344"/><path clip-path="url(#p87c712a977)" d="M209.766 112.536v-13.86l-12.003 6.93z" id="patch_345"/><path clip-path="url(#p87c712a977)" d="M221.77 105.606v-13.86l-12.004 6.93z" id="patch_346"/><path clip-path="url(#p87c712a977)" d="M233.772 98.676v-13.86l-12.003 6.93z" id="patch_347"/><path clip-path="url(#p87c712a977)" d="M245.776 91.746v-13.86l-12.004 6.93z" id="patch_348"/><path clip-path="url(#p87c712a977)" d="M257.779 84.816v-13.86l-12.003 6.93z" id="patch_349"/><path clip-path="url(#p87c712a977)" d="M185.76 112.536l12.003-6.93-12.003-6.93z" id="patch_350"/><path clip-path="url(#p87c712a977)" d="M197.763 105.606l12.003-6.93-12.003-6.93z" id="patch_351"/><path clip-path="url(#p87c712a977)" d="M209.766 98.676l12.003-6.93-12.003-6.93z" id="patch_352"/><path clip-path="url(#p87c712a977)" d="M221.77 91.746l12.002-6.93-12.003-6.93z" id="patch_353"/><path clip-path="url(#p87c712a977)" d="M233.772 84.816l12.004-6.93-12.004-6.93z" id="patch_354"/><path clip-path="url(#p87c712a977)" d="M245.776 77.886l12.003-6.93-12.003-6.93z" id="patch_355"/><path clip-path="url(#p87c712a977)" d="M197.763 105.606v-13.86l-12.003 6.93z" id="patch_356"/><path clip-path="url(#p87c712a977)" d="M209.766 98.676v-13.86l-12.003 6.93z" id="patch_357"/><path clip-path="url(#p87c712a977)" d="M221.77 91.746v-13.86l-12.004 6.93z" id="patch_358"/><path clip-path="url(#p87c712a977)" d="M233.772 84.816v-13.86l-12.003 6.93z" id="patch_359"/><path clip-path="url(#p87c712a977)" d="M245.776 77.886v-13.86l-12.004 6.93z" id="patch_360"/><path clip-path="url(#p87c712a977)" d="M185.76 98.676l12.003-6.93-12.003-6.93z" id="patch_361"/><path clip-path="url(#p87c712a977)" d="M197.763 91.746l12.003-6.93-12.003-6.93z" id="patch_362"/><path clip-path="url(#p87c712a977)" d="M209.766 84.816l12.003-6.93-12.003-6.93z" id="patch_363"/><path clip-path="url(#p87c712a977)" d="M221.77 77.886l12.002-6.93-12.003-6.93z" id="patch_364"/><path clip-path="url(#p87c712a977)" d="M233.772 70.956l12.004-6.93-12.004-6.93z" id="patch_365"/><path clip-path="url(#p87c712a977)" d="M197.763 91.746v-13.86l-12.003 6.93z" id="patch_366"/><path clip-path="url(#p87c712a977)" d="M209.766 84.816v-13.86l-12.003 6.93z" id="patch_367"/><path clip-path="url(#p87c712a977)" d="M221.77 77.886v-13.86l-12.004 6.93z" id="patch_368"/><path clip-path="url(#p87c712a977)" d="M233.772 70.956v-13.86l-12.003 6.93z" id="patch_369"/><path clip-path="url(#p87c712a977)" d="M185.76 84.816l12.003-6.93-12.003-6.93z" id="patch_370"/><path clip-path="url(#p87c712a977)" d="M197.763 77.886l12.003-6.93-12.003-6.93z" id="patch_371"/><path clip-path="url(#p87c712a977)" d="M209.766 70.956l12.003-6.93-12.003-6.93z" id="patch_372"/><path clip-path="url(#p87c712a977)" d="M221.77 64.026l12.002-6.93-12.003-6.93z" id="patch_373"/><path clip-path="url(#p87c712a977)" d="M197.763 77.886v-13.86l-12.003 6.93z" id="patch_374"/><path clip-path="url(#p87c712a977)" d="M209.766 70.956v-13.86l-12.003 6.93z" id="patch_375"/><path clip-path="url(#p87c712a977)" d="M221.77 64.026v-13.86l-12.004 6.93z" id="patch_376"/><path clip-path="url(#p87c712a977)" d="M185.76 70.956l12.003-6.93-12.003-6.93z" id="patch_377"/><path clip-path="url(#p87c712a977)" d="M197.763 64.026l12.003-6.93-12.003-6.93z" id="patch_378"/><path clip-path="url(#p87c712a977)" d="M209.766 57.096l12.003-6.93-12.003-6.93z" id="patch_379"/><path clip-path="url(#p87c712a977)" d="M197.763 64.026v-13.86l-12.003 6.93z" id="patch_380"/><path clip-path="url(#p87c712a977)" d="M209.766 57.096v-13.86l-12.003 6.93z" id="patch_381"/><path clip-path="url(#p87c712a977)" d="M185.76 57.096l12.003-6.93-12.003-6.93z" id="patch_382"/><path clip-path="url(#p87c712a977)" d="M197.763 50.166l12.003-6.93-12.003-6.93z" id="patch_383"/><path clip-path="url(#p87c712a977)" d="M197.763 50.166v-13.86l-12.003 6.93z" id="patch_384"/><path clip-path="url(#p87c712a977)" d="M185.76 43.236l12.003-6.93-12.003-6.93z" id="patch_385"/></g></g><defs><clipPath id="p87c712a977"><path d="M7.2 7.2h357.12v266.112H7.2z"/></clipPath></defs></svg>