<svg xmlns="http://www.w3.org/2000/svg" id="svg589" version="1.1" width="301.576" viewBox="0 0 226.182 222.76" height="297.013"><defs id="defs4"><style id="style2">*{stroke-linecap:butt;stroke-linejoin:round}</style></defs><g transform="translate(-72.669 -28.876)" id="figure_1"><g stroke="#000" fill="#ddd" id="axes_1"><path id="patch_2" d="M185.76 143.703v-14.29l-9.186 3.343z" clip-path="url(#pd37f9131a7)"/><path id="patch_3" d="M185.76 129.412v-14.29l-9.186 3.343z" clip-path="url(#pd37f9131a7)"/><path id="patch_4" d="M185.76 115.122V100.83l-9.186 3.343z" clip-path="url(#pd37f9131a7)"/><path id="patch_5" d="M185.76 100.83V86.54l-9.186 3.343z" clip-path="url(#pd37f9131a7)"/><path id="patch_6" d="M185.76 86.54V72.249l-9.186 3.343z" clip-path="url(#pd37f9131a7)"/><path id="patch_7" d="M185.76 72.249V57.958l-9.186 3.343z" clip-path="url(#pd37f9131a7)"/><path id="patch_8" d="M185.76 57.958V43.667l-9.186 3.343z" clip-path="url(#pd37f9131a7)"/><path id="patch_9" d="M185.76 43.667V29.376l-9.186 3.343z" clip-path="url(#pd37f9131a7)"/><path id="patch_10" d="m185.76 129.412-9.186-10.947v14.29z" clip-path="url(#pd37f9131a7)"/><path id="patch_11" d="m185.76 115.122-9.186-10.948v14.291z" clip-path="url(#pd37f9131a7)"/><path id="patch_12" d="m185.76 100.83-9.186-10.947v14.291z" clip-path="url(#pd37f9131a7)"/><path id="patch_13" d="m185.76 86.54-9.186-10.948v14.291z" clip-path="url(#pd37f9131a7)"/><path id="patch_14" d="M185.76 72.249 176.574 61.3v14.291z" clip-path="url(#pd37f9131a7)"/><path id="patch_15" d="m185.76 57.958-9.186-10.948v14.291z" clip-path="url(#pd37f9131a7)"/><path id="patch_16" d="m185.76 43.667-9.186-10.948V47.01z" clip-path="url(#pd37f9131a7)"/><path id="patch_17" d="M176.574 132.756v-14.291l-9.186 3.343z" clip-path="url(#pd37f9131a7)"/><path id="patch_18" d="M176.574 118.465v-14.29l-9.186 3.343z" clip-path="url(#pd37f9131a7)"/><path id="patch_19" d="M176.574 104.174v-14.29l-9.186 3.343z" clip-path="url(#pd37f9131a7)"/><path id="patch_20" d="M176.574 89.883v-14.29l-9.186 3.343z" clip-path="url(#pd37f9131a7)"/><path id="patch_21" d="M176.574 75.592v-14.29l-9.186 3.343z" clip-path="url(#pd37f9131a7)"/><path id="patch_22" d="M176.574 61.301v-14.29l-9.186 3.343z" clip-path="url(#pd37f9131a7)"/><path id="patch_23" d="M176.574 47.01V32.72l-9.186 3.343z" clip-path="url(#pd37f9131a7)"/><path id="patch_24" d="m176.574 118.465-9.186-10.947v14.29z" clip-path="url(#pd37f9131a7)"/><path id="patch_25" d="m176.574 104.174-9.186-10.947v14.29z" clip-path="url(#pd37f9131a7)"/><path id="patch_26" d="m176.574 89.883-9.186-10.947v14.29z" clip-path="url(#pd37f9131a7)"/><path id="patch_27" d="m176.574 75.592-9.186-10.947v14.29z" clip-path="url(#pd37f9131a7)"/><path id="patch_28" d="m176.574 61.301-9.186-10.947v14.29z" clip-path="url(#pd37f9131a7)"/><path id="patch_29" d="m176.574 47.01-9.186-10.947v14.29z" clip-path="url(#pd37f9131a7)"/><path id="patch_30" d="M167.388 121.808v-14.29l-9.186 3.343z" clip-path="url(#pd37f9131a7)"/><path id="patch_31" d="M167.388 107.518V93.227l-9.186 3.343z" clip-path="url(#pd37f9131a7)"/><path id="patch_32" d="M167.388 93.227V78.936l-9.186 3.343z" clip-path="url(#pd37f9131a7)"/><path id="patch_33" d="M167.388 78.936V64.645l-9.186 3.343z" clip-path="url(#pd37f9131a7)"/><path id="patch_34" d="M167.388 64.645V50.354l-9.186 3.343z" clip-path="url(#pd37f9131a7)"/><path id="patch_35" d="M167.388 50.354V36.063l-9.186 3.343z" clip-path="url(#pd37f9131a7)"/><path id="patch_36" d="m167.388 107.518-9.186-10.948v14.29z" clip-path="url(#pd37f9131a7)"/><path id="patch_37" d="m167.388 93.227-9.186-10.948V96.57z" clip-path="url(#pd37f9131a7)"/><path id="patch_38" d="m167.388 78.936-9.186-10.948V82.28z" clip-path="url(#pd37f9131a7)"/><path id="patch_39" d="m167.388 64.645-9.186-10.948v14.291z" clip-path="url(#pd37f9131a7)"/><path id="patch_40" d="m167.388 50.354-9.186-10.948v14.291z" clip-path="url(#pd37f9131a7)"/><path id="patch_41" d="M158.202 110.86V96.57l-9.186 3.343z" clip-path="url(#pd37f9131a7)"/><path id="patch_42" d="M158.202 96.57V82.28l-9.186 3.343z" clip-path="url(#pd37f9131a7)"/><path id="patch_43" d="M158.202 82.28V67.987l-9.186 3.344z" clip-path="url(#pd37f9131a7)"/><path id="patch_44" d="M158.202 67.988v-14.29l-9.186 3.343z" clip-path="url(#pd37f9131a7)"/><path id="patch_45" d="M158.202 53.697v-14.29l-9.186 3.343z" clip-path="url(#pd37f9131a7)"/><path id="patch_46" d="m158.202 96.57-9.186-10.947v14.29z" clip-path="url(#pd37f9131a7)"/><path id="patch_47" d="m158.202 82.28-9.186-10.948v14.29z" clip-path="url(#pd37f9131a7)"/><path id="patch_48" d="m158.202 67.988-9.186-10.947v14.29z" clip-path="url(#pd37f9131a7)"/><path id="patch_49" d="m158.202 53.697-9.186-10.947v14.29z" clip-path="url(#pd37f9131a7)"/><path id="patch_50" d="M149.016 99.913v-14.29l-9.186 3.343z" clip-path="url(#pd37f9131a7)"/><path id="patch_51" d="M149.016 85.623V71.332l-9.186 3.343z" clip-path="url(#pd37f9131a7)"/><path id="patch_52" d="M149.016 71.332V57.04l-9.186 3.343z" clip-path="url(#pd37f9131a7)"/><path id="patch_53" d="M149.016 57.04V42.75l-9.186 3.343z" clip-path="url(#pd37f9131a7)"/><path id="patch_54" d="m149.016 85.623-9.186-10.948v14.291z" clip-path="url(#pd37f9131a7)"/><path id="patch_55" d="m149.016 71.332-9.186-10.948v14.291z" clip-path="url(#pd37f9131a7)"/><path id="patch_56" d="m149.016 57.04-9.186-10.947v14.291z" clip-path="url(#pd37f9131a7)"/><path id="patch_57" d="M139.83 88.966v-14.29l-9.186 3.342z" clip-path="url(#pd37f9131a7)"/><path id="patch_58" d="M139.83 74.675v-14.29l-9.186 3.343z" clip-path="url(#pd37f9131a7)"/><path id="patch_59" d="M139.83 60.384v-14.29l-9.186 3.343z" clip-path="url(#pd37f9131a7)"/><path id="patch_60" d="m139.83 74.675-9.186-10.947v14.29z" clip-path="url(#pd37f9131a7)"/><path id="patch_61" d="m139.83 60.384-9.186-10.947v14.29z" clip-path="url(#pd37f9131a7)"/><path id="patch_62" d="M130.644 78.018v-14.29l-9.186 3.343z" clip-path="url(#pd37f9131a7)"/><path id="patch_63" d="M130.644 63.728V49.437l-9.186 3.343z" clip-path="url(#pd37f9131a7)"/><path id="patch_64" d="m130.644 63.728-9.186-10.948v14.291z" clip-path="url(#pd37f9131a7)"/><path id="patch_65" d="M121.458 67.071v-14.29l-9.186 3.343z" clip-path="url(#pd37f9131a7)"/><path id="patch_66" d="m185.76 143.703-9.186-10.947-4.888 8.466z" clip-path="url(#pd37f9131a7)"/><path id="patch_67" d="m176.574 132.756-9.186-10.948-4.888 8.466z" clip-path="url(#pd37f9131a7)"/><path id="patch_68" d="m167.388 121.808-9.186-10.947-4.888 8.466z" clip-path="url(#pd37f9131a7)"/><path id="patch_69" d="m158.202 110.86-9.186-10.947-4.888 8.466z" clip-path="url(#pd37f9131a7)"/><path id="patch_70" d="m149.016 99.913-9.186-10.947-4.888 8.466z" clip-path="url(#pd37f9131a7)"/><path id="patch_71" d="m139.83 88.966-9.186-10.948-4.888 8.466z" clip-path="url(#pd37f9131a7)"/><path id="patch_72" d="m130.644 78.018-9.186-10.947-4.888 8.466z" clip-path="url(#pd37f9131a7)"/><path id="patch_73" d="m121.458 67.071-9.186-10.947-4.888 8.465z" clip-path="url(#pd37f9131a7)"/><path id="patch_74" d="m176.574 132.756-14.074-2.482 9.186 10.948z" clip-path="url(#pd37f9131a7)"/><path id="patch_75" d="m167.388 121.808-14.074-2.481 9.186 10.947z" clip-path="url(#pd37f9131a7)"/><path id="patch_76" d="m158.202 110.86-14.074-2.48 9.186 10.947z" clip-path="url(#pd37f9131a7)"/><path id="patch_77" d="m149.016 99.913-14.074-2.481 9.186 10.947z" clip-path="url(#pd37f9131a7)"/><path id="patch_78" d="m139.83 88.966-14.074-2.482 9.186 10.948z" clip-path="url(#pd37f9131a7)"/><path id="patch_79" d="m130.644 78.018-14.074-2.481 9.186 10.947z" clip-path="url(#pd37f9131a7)"/><path id="patch_80" d="m121.458 67.071-14.074-2.482 9.186 10.948z" clip-path="url(#pd37f9131a7)"/><path id="patch_81" d="m171.686 141.222-9.186-10.948-4.888 8.466z" clip-path="url(#pd37f9131a7)"/><path id="patch_82" d="m162.5 130.274-9.186-10.947-4.888 8.466z" clip-path="url(#pd37f9131a7)"/><path id="patch_83" d="m153.314 119.327-9.186-10.948-4.888 8.466z" clip-path="url(#pd37f9131a7)"/><path id="patch_84" d="m144.128 108.38-9.186-10.948-4.888 8.466z" clip-path="url(#pd37f9131a7)"/><path id="patch_85" d="m134.942 97.432-9.186-10.948-4.888 8.466z" clip-path="url(#pd37f9131a7)"/><path id="patch_86" d="m125.756 86.484-9.186-10.947-4.888 8.466z" clip-path="url(#pd37f9131a7)"/><path id="patch_87" d="m116.57 75.537-9.186-10.948-4.888 8.466z" clip-path="url(#pd37f9131a7)"/><path id="patch_88" d="m162.5 130.274-14.074-2.481 9.186 10.947z" clip-path="url(#pd37f9131a7)"/><path id="patch_89" d="m153.314 119.327-14.074-2.482 9.186 10.948z" clip-path="url(#pd37f9131a7)"/><path id="patch_90" d="m144.128 108.38-14.074-2.482 9.186 10.947z" clip-path="url(#pd37f9131a7)"/><path id="patch_91" d="m134.942 97.432-14.074-2.482 9.186 10.948z" clip-path="url(#pd37f9131a7)"/><path id="patch_92" d="m125.756 86.484-14.074-2.481 9.186 10.947z" clip-path="url(#pd37f9131a7)"/><path id="patch_93" d="m116.57 75.537-14.074-2.482 9.186 10.948z" clip-path="url(#pd37f9131a7)"/><path id="patch_94" d="m157.612 138.74-9.186-10.947-4.887 8.466z" clip-path="url(#pd37f9131a7)"/><path id="patch_95" d="m148.426 127.793-9.186-10.948-4.887 8.466z" clip-path="url(#pd37f9131a7)"/><path id="patch_96" d="m139.24 116.845-9.186-10.947-4.887 8.466z" clip-path="url(#pd37f9131a7)"/><path id="patch_97" d="m130.054 105.898-9.186-10.948-4.888 8.466z" clip-path="url(#pd37f9131a7)"/><path id="patch_98" d="m120.868 94.95-9.186-10.947-4.888 8.466z" clip-path="url(#pd37f9131a7)"/><path id="patch_99" d="m111.682 84.003-9.186-10.948-4.888 8.466z" clip-path="url(#pd37f9131a7)"/><path id="patch_100" d="m148.426 127.793-14.073-2.482 9.186 10.948z" clip-path="url(#pd37f9131a7)"/><path id="patch_101" d="m139.24 116.845-14.073-2.481 9.186 10.947z" clip-path="url(#pd37f9131a7)"/><path id="patch_102" d="m130.054 105.898-14.074-2.482 9.187 10.948z" clip-path="url(#pd37f9131a7)"/><path id="patch_103" d="m120.868 94.95-14.074-2.481 9.186 10.947z" clip-path="url(#pd37f9131a7)"/><path id="patch_104" d="M111.682 84.003 97.608 81.52l9.186 10.948z" clip-path="url(#pd37f9131a7)"/><path id="patch_105" d="m143.539 136.259-9.186-10.948-4.888 8.466z" clip-path="url(#pd37f9131a7)"/><path id="patch_106" d="m134.353 125.311-9.186-10.947-4.888 8.466z" clip-path="url(#pd37f9131a7)"/><path id="patch_107" d="m125.167 114.364-9.187-10.948-4.887 8.466z" clip-path="url(#pd37f9131a7)"/><path id="patch_108" d="m115.98 103.416-9.186-10.947-4.887 8.466z" clip-path="url(#pd37f9131a7)"/><path id="patch_109" d="M106.794 92.469 97.608 81.52l-4.887 8.466z" clip-path="url(#pd37f9131a7)"/><path id="patch_110" d="m134.353 125.311-14.074-2.481 9.186 10.947z" clip-path="url(#pd37f9131a7)"/><path id="patch_111" d="m125.167 114.364-14.074-2.482 9.186 10.948z" clip-path="url(#pd37f9131a7)"/><path id="patch_112" d="m115.98 103.416-14.073-2.481 9.186 10.947z" clip-path="url(#pd37f9131a7)"/><path id="patch_113" d="m106.794 92.469-14.073-2.482 9.186 10.948z" clip-path="url(#pd37f9131a7)"/><path id="patch_114" d="m129.465 133.777-9.186-10.947-4.888 8.465z" clip-path="url(#pd37f9131a7)"/><path id="patch_115" d="m120.279 122.83-9.186-10.948-4.888 8.466z" clip-path="url(#pd37f9131a7)"/><path id="patch_116" d="m111.093 111.882-9.186-10.947-4.888 8.465z" clip-path="url(#pd37f9131a7)"/><path id="patch_117" d="M101.907 100.935 92.72 89.987l-4.888 8.466z" clip-path="url(#pd37f9131a7)"/><path id="patch_118" d="m120.279 122.83-14.074-2.482 9.186 10.947z" clip-path="url(#pd37f9131a7)"/><path id="patch_119" d="M111.093 111.882 97.019 109.4l9.186 10.948z" clip-path="url(#pd37f9131a7)"/><path id="patch_120" d="m101.907 100.935-14.074-2.482 9.186 10.947z" clip-path="url(#pd37f9131a7)"/><path id="patch_121" d="m115.39 131.295-9.185-10.947-4.888 8.466z" clip-path="url(#pd37f9131a7)"/><path id="patch_122" d="M106.205 120.348 97.019 109.4l-4.888 8.466z" clip-path="url(#pd37f9131a7)"/><path id="patch_123" d="m97.019 109.4-9.186-10.947-4.888 8.466z" clip-path="url(#pd37f9131a7)"/><path id="patch_124" d="m106.205 120.348-14.074-2.482 9.186 10.948z" clip-path="url(#pd37f9131a7)"/><path id="patch_125" d="m97.019 109.4-14.074-2.481 9.186 10.947z" clip-path="url(#pd37f9131a7)"/><path id="patch_126" d="m101.317 128.814-9.186-10.948-4.888 8.466z" clip-path="url(#pd37f9131a7)"/><path id="patch_127" d="m92.131 117.866-9.186-10.947-4.888 8.466z" clip-path="url(#pd37f9131a7)"/><path id="patch_128" d="m92.131 117.866-14.074-2.481 9.186 10.947z" clip-path="url(#pd37f9131a7)"/><path id="patch_129" d="m87.243 126.332-9.186-10.947-4.888 8.466z" clip-path="url(#pd37f9131a7)"/><path id="patch_130" d="m185.76 143.703-14.074-2.481 1.698 9.627z" clip-path="url(#pd37f9131a7)"/><path id="patch_131" d="m171.686 141.222-14.074-2.482 1.698 9.627z" clip-path="url(#pd37f9131a7)"/><path id="patch_132" d="m157.612 138.74-14.073-2.481 1.697 9.627z" clip-path="url(#pd37f9131a7)"/><path id="patch_133" d="m143.539 136.259-14.074-2.482 1.697 9.627z" clip-path="url(#pd37f9131a7)"/><path id="patch_134" d="m129.465 133.777-14.074-2.482 1.697 9.627z" clip-path="url(#pd37f9131a7)"/><path id="patch_135" d="m115.39 131.295-14.073-2.481 1.698 9.627z" clip-path="url(#pd37f9131a7)"/><path id="patch_136" d="m101.317 128.814-14.074-2.482 1.698 9.627z" clip-path="url(#pd37f9131a7)"/><path id="patch_137" d="m87.243 126.332-14.074-2.481 1.698 9.627z" clip-path="url(#pd37f9131a7)"/><path id="patch_138" d="m171.686 141.222-12.376 7.145 14.074 2.482z" clip-path="url(#pd37f9131a7)"/><path id="patch_139" d="m157.612 138.74-12.376 7.146 14.074 2.481z" clip-path="url(#pd37f9131a7)"/><path id="patch_140" d="m143.539 136.259-12.377 7.145 14.074 2.482z" clip-path="url(#pd37f9131a7)"/><path id="patch_141" d="m129.465 133.777-12.377 7.145 14.074 2.482z" clip-path="url(#pd37f9131a7)"/><path id="patch_142" d="m115.39 131.295-12.375 7.146 14.073 2.481z" clip-path="url(#pd37f9131a7)"/><path id="patch_143" d="m101.317 128.814-12.376 7.145 14.074 2.482z" clip-path="url(#pd37f9131a7)"/><path id="patch_144" d="m87.243 126.332-12.376 7.146 14.074 2.481z" clip-path="url(#pd37f9131a7)"/><path id="patch_145" d="m173.384 150.849-14.074-2.482 1.697 9.627z" clip-path="url(#pd37f9131a7)"/><path id="patch_146" d="m159.31 148.367-14.074-2.481 1.698 9.627z" clip-path="url(#pd37f9131a7)"/><path id="patch_147" d="m145.236 145.886-14.074-2.482 1.698 9.627z" clip-path="url(#pd37f9131a7)"/><path id="patch_148" d="m131.162 143.404-14.074-2.482 1.698 9.628z" clip-path="url(#pd37f9131a7)"/><path id="patch_149" d="m117.088 140.922-14.073-2.481 1.697 9.627z" clip-path="url(#pd37f9131a7)"/><path id="patch_150" d="m103.015 138.44-14.074-2.48 1.697 9.626z" clip-path="url(#pd37f9131a7)"/><path id="patch_151" d="m88.94 135.96-14.073-2.482 1.698 9.627z" clip-path="url(#pd37f9131a7)"/><path id="patch_152" d="m159.31 148.367-12.376 7.146 14.073 2.481z" clip-path="url(#pd37f9131a7)"/><path id="patch_153" d="m145.236 145.886-12.376 7.145 14.074 2.482z" clip-path="url(#pd37f9131a7)"/><path id="patch_154" d="m131.162 143.404-12.376 7.146 14.074 2.481z" clip-path="url(#pd37f9131a7)"/><path id="patch_155" d="m117.088 140.922-12.376 7.146 14.074 2.482z" clip-path="url(#pd37f9131a7)"/><path id="patch_156" d="m103.015 138.44-12.377 7.146 14.074 2.482z" clip-path="url(#pd37f9131a7)"/><path id="patch_157" d="m88.94 135.96-12.375 7.145 14.073 2.481z" clip-path="url(#pd37f9131a7)"/><path id="patch_158" d="m161.007 157.994-14.073-2.481 1.697 9.627z" clip-path="url(#pd37f9131a7)"/><path id="patch_159" d="m146.934 155.513-14.074-2.482 1.697 9.627z" clip-path="url(#pd37f9131a7)"/><path id="patch_160" d="m132.86 153.031-14.074-2.481 1.697 9.627z" clip-path="url(#pd37f9131a7)"/><path id="patch_161" d="m118.786 150.55-14.074-2.482 1.698 9.627z" clip-path="url(#pd37f9131a7)"/><path id="patch_162" d="m104.712 148.068-14.074-2.482 1.698 9.627z" clip-path="url(#pd37f9131a7)"/><path id="patch_163" d="m90.638 145.586-14.073-2.481 1.697 9.627z" clip-path="url(#pd37f9131a7)"/><path id="patch_164" d="m146.934 155.513-12.377 7.145 14.074 2.482z" clip-path="url(#pd37f9131a7)"/><path id="patch_165" d="m132.86 153.031-12.377 7.146 14.074 2.481z" clip-path="url(#pd37f9131a7)"/><path id="patch_166" d="m118.786 150.55-12.376 7.145 14.073 2.482z" clip-path="url(#pd37f9131a7)"/><path id="patch_167" d="m104.712 148.068-12.376 7.145 14.074 2.482z" clip-path="url(#pd37f9131a7)"/><path id="patch_168" d="m90.638 145.586-12.376 7.146 14.074 2.481z" clip-path="url(#pd37f9131a7)"/><path id="patch_169" d="m148.631 165.14-14.074-2.482 1.698 9.627z" clip-path="url(#pd37f9131a7)"/><path id="patch_170" d="m134.557 162.658-14.074-2.481 1.698 9.627z" clip-path="url(#pd37f9131a7)"/><path id="patch_171" d="m120.483 160.177-14.073-2.482 1.697 9.627z" clip-path="url(#pd37f9131a7)"/><path id="patch_172" d="m106.41 157.695-14.074-2.482 1.697 9.627z" clip-path="url(#pd37f9131a7)"/><path id="patch_173" d="m92.336 155.213-14.074-2.481 1.698 9.627z" clip-path="url(#pd37f9131a7)"/><path id="patch_174" d="m134.557 162.658-12.376 7.146 14.074 2.481z" clip-path="url(#pd37f9131a7)"/><path id="patch_175" d="m120.483 160.177-12.376 7.145 14.074 2.482z" clip-path="url(#pd37f9131a7)"/><path id="patch_176" d="m106.41 157.695-12.377 7.145 14.074 2.482z" clip-path="url(#pd37f9131a7)"/><path id="patch_177" d="M92.336 155.213 79.96 162.36l14.073 2.481z" clip-path="url(#pd37f9131a7)"/><path id="patch_178" d="m136.255 172.285-14.074-2.481 1.697 9.627z" clip-path="url(#pd37f9131a7)"/><path id="patch_179" d="m122.181 169.804-14.074-2.482 1.698 9.627z" clip-path="url(#pd37f9131a7)"/><path id="patch_180" d="m108.107 167.322-14.074-2.482 1.698 9.628z" clip-path="url(#pd37f9131a7)"/><path id="patch_181" d="m94.033 164.84-14.073-2.48 1.697 9.627z" clip-path="url(#pd37f9131a7)"/><path id="patch_182" d="m122.181 169.804-12.376 7.145 14.073 2.482z" clip-path="url(#pd37f9131a7)"/><path id="patch_183" d="m108.107 167.322-12.376 7.146 14.074 2.481z" clip-path="url(#pd37f9131a7)"/><path id="patch_184" d="m94.033 164.84-12.376 7.146 14.074 2.482z" clip-path="url(#pd37f9131a7)"/><path id="patch_185" d="m123.878 179.43-14.073-2.48 1.697 9.626z" clip-path="url(#pd37f9131a7)"/><path id="patch_186" d="m109.805 176.95-14.074-2.482 1.697 9.627z" clip-path="url(#pd37f9131a7)"/><path id="patch_187" d="m95.73 174.468-14.073-2.482 1.698 9.627z" clip-path="url(#pd37f9131a7)"/><path id="patch_188" d="m109.805 176.95-12.377 7.145 14.074 2.481z" clip-path="url(#pd37f9131a7)"/><path id="patch_189" d="m95.73 174.468-12.375 7.145 14.073 2.482z" clip-path="url(#pd37f9131a7)"/><path id="patch_190" d="m111.502 186.576-14.074-2.481 1.698 9.627z" clip-path="url(#pd37f9131a7)"/><path id="patch_191" d="m97.428 184.095-14.073-2.482 1.697 9.627z" clip-path="url(#pd37f9131a7)"/><path id="patch_192" d="m97.428 184.095-12.376 7.145 14.074 2.482z" clip-path="url(#pd37f9131a7)"/><path id="patch_193" d="m99.126 193.722-14.074-2.482 1.698 9.627z" clip-path="url(#pd37f9131a7)"/><path id="patch_194" d="m185.76 143.703-12.376 7.146 7.488 6.283z" clip-path="url(#pd37f9131a7)"/><path id="patch_195" d="m173.384 150.849-12.377 7.145 7.489 6.284z" clip-path="url(#pd37f9131a7)"/><path id="patch_196" d="m161.007 157.994-12.376 7.146 7.489 6.283z" clip-path="url(#pd37f9131a7)"/><path id="patch_197" d="m148.631 165.14-12.376 7.145 7.488 6.284z" clip-path="url(#pd37f9131a7)"/><path id="patch_198" d="m136.255 172.285-12.377 7.146 7.489 6.283z" clip-path="url(#pd37f9131a7)"/><path id="patch_199" d="m123.878 179.43-12.376 7.146 7.489 6.284z" clip-path="url(#pd37f9131a7)"/><path id="patch_200" d="m111.502 186.576-12.376 7.146 7.488 6.283z" clip-path="url(#pd37f9131a7)"/><path id="patch_201" d="m99.126 193.722-12.376 7.145 7.488 6.284z" clip-path="url(#pd37f9131a7)"/><path id="patch_202" d="m173.384 150.849-4.888 13.429 12.376-7.146z" clip-path="url(#pd37f9131a7)"/><path id="patch_203" d="m161.007 157.994-4.887 13.43 12.376-7.146z" clip-path="url(#pd37f9131a7)"/><path id="patch_204" d="m148.631 165.14-4.888 13.429 12.377-7.146z" clip-path="url(#pd37f9131a7)"/><path id="patch_205" d="m136.255 172.285-4.888 13.43 12.376-7.146z" clip-path="url(#pd37f9131a7)"/><path id="patch_206" d="m123.878 179.43-4.887 13.43 12.376-7.146z" clip-path="url(#pd37f9131a7)"/><path id="patch_207" d="m111.502 186.576-4.888 13.43 12.377-7.146z" clip-path="url(#pd37f9131a7)"/><path id="patch_208" d="m99.126 193.722-4.888 13.429 12.376-7.146z" clip-path="url(#pd37f9131a7)"/><path id="patch_209" d="m180.872 157.132-12.376 7.146 7.488 6.284z" clip-path="url(#pd37f9131a7)"/><path id="patch_210" d="m168.496 164.278-12.376 7.145 7.488 6.284z" clip-path="url(#pd37f9131a7)"/><path id="patch_211" d="m156.12 171.423-12.377 7.146 7.489 6.283z" clip-path="url(#pd37f9131a7)"/><path id="patch_212" d="m143.743 178.569-12.376 7.145 7.489 6.284z" clip-path="url(#pd37f9131a7)"/><path id="patch_213" d="m131.367 185.714-12.376 7.146 7.488 6.283z" clip-path="url(#pd37f9131a7)"/><path id="patch_214" d="m118.99 192.86-12.376 7.145 7.489 6.284z" clip-path="url(#pd37f9131a7)"/><path id="patch_215" d="m106.614 200.005-12.376 7.146 7.489 6.283z" clip-path="url(#pd37f9131a7)"/><path id="patch_216" d="m168.496 164.278-4.888 13.429 12.376-7.145z" clip-path="url(#pd37f9131a7)"/><path id="patch_217" d="m156.12 171.423-4.888 13.43 12.376-7.146z" clip-path="url(#pd37f9131a7)"/><path id="patch_218" d="m143.743 178.569-4.887 13.429 12.376-7.146z" clip-path="url(#pd37f9131a7)"/><path id="patch_219" d="m131.367 185.714-4.888 13.43 12.377-7.146z" clip-path="url(#pd37f9131a7)"/><path id="patch_220" d="m118.99 192.86-4.887 13.429 12.376-7.146z" clip-path="url(#pd37f9131a7)"/><path id="patch_221" d="m106.614 200.005-4.887 13.43 12.376-7.146z" clip-path="url(#pd37f9131a7)"/><path id="patch_222" d="m175.984 170.562-12.376 7.145 7.489 6.284z" clip-path="url(#pd37f9131a7)"/><path id="patch_223" d="m163.608 177.707-12.376 7.145 7.488 6.284z" clip-path="url(#pd37f9131a7)"/><path id="patch_224" d="m151.232 184.852-12.376 7.146 7.488 6.284z" clip-path="url(#pd37f9131a7)"/><path id="patch_225" d="m138.856 191.998-12.377 7.145 7.489 6.284z" clip-path="url(#pd37f9131a7)"/><path id="patch_226" d="m126.48 199.143-12.377 7.146 7.488 6.283z" clip-path="url(#pd37f9131a7)"/><path id="patch_227" d="m114.103 206.289-12.376 7.145 7.488 6.284z" clip-path="url(#pd37f9131a7)"/><path id="patch_228" d="m163.608 177.707-4.888 13.43 12.377-7.146z" clip-path="url(#pd37f9131a7)"/><path id="patch_229" d="m151.232 184.852-4.888 13.43 12.376-7.146z" clip-path="url(#pd37f9131a7)"/><path id="patch_230" d="m138.856 191.998-4.888 13.429 12.376-7.145z" clip-path="url(#pd37f9131a7)"/><path id="patch_231" d="m126.48 199.143-4.889 13.43 12.377-7.146z" clip-path="url(#pd37f9131a7)"/><path id="patch_232" d="m114.103 206.289-4.888 13.429 12.376-7.146z" clip-path="url(#pd37f9131a7)"/><path id="patch_233" d="m171.097 183.99-12.377 7.146 7.489 6.284z" clip-path="url(#pd37f9131a7)"/><path id="patch_234" d="m158.72 191.136-12.376 7.146 7.489 6.283z" clip-path="url(#pd37f9131a7)"/><path id="patch_235" d="m146.344 198.282-12.376 7.145 7.488 6.284z" clip-path="url(#pd37f9131a7)"/><path id="patch_236" d="m133.968 205.427-12.377 7.145 7.489 6.284z" clip-path="url(#pd37f9131a7)"/><path id="patch_237" d="m121.591 212.572-12.376 7.146 7.489 6.284z" clip-path="url(#pd37f9131a7)"/><path id="patch_238" d="m158.72 191.136-4.887 13.43 12.376-7.146z" clip-path="url(#pd37f9131a7)"/><path id="patch_239" d="m146.344 198.282-4.888 13.429 12.377-7.146z" clip-path="url(#pd37f9131a7)"/><path id="patch_240" d="m133.968 205.427-4.888 13.43 12.376-7.146z" clip-path="url(#pd37f9131a7)"/><path id="patch_241" d="m121.591 212.572-4.887 13.43 12.376-7.146z" clip-path="url(#pd37f9131a7)"/><path id="patch_242" d="m166.209 197.42-12.376 7.145 7.488 6.284z" clip-path="url(#pd37f9131a7)"/><path id="patch_243" d="m153.833 204.565-12.377 7.146 7.489 6.283z" clip-path="url(#pd37f9131a7)"/><path id="patch_244" d="m141.456 211.71-12.376 7.146 7.488 6.284z" clip-path="url(#pd37f9131a7)"/><path id="patch_245" d="m129.08 218.856-12.376 7.146 7.488 6.283z" clip-path="url(#pd37f9131a7)"/><path id="patch_246" d="m153.833 204.565-4.888 13.43 12.376-7.146z" clip-path="url(#pd37f9131a7)"/><path id="patch_247" d="m141.456 211.71-4.888 13.43 12.377-7.146z" clip-path="url(#pd37f9131a7)"/><path id="patch_248" d="m129.08 218.856-4.888 13.43 12.376-7.146z" clip-path="url(#pd37f9131a7)"/><path id="patch_249" d="m161.321 210.849-12.376 7.145 7.488 6.284z" clip-path="url(#pd37f9131a7)"/><path id="patch_250" d="m148.945 217.994-12.377 7.146 7.489 6.283z" clip-path="url(#pd37f9131a7)"/><path id="patch_251" d="m136.568 225.14-12.376 7.145 7.489 6.284z" clip-path="url(#pd37f9131a7)"/><path id="patch_252" d="m148.945 217.994-4.888 13.43 12.376-7.146z" clip-path="url(#pd37f9131a7)"/><path id="patch_253" d="m136.568 225.14-4.887 13.429 12.376-7.146z" clip-path="url(#pd37f9131a7)"/><path id="patch_254" d="m156.433 224.278-12.376 7.145 7.489 6.284z" clip-path="url(#pd37f9131a7)"/><path id="patch_255" d="m144.057 231.423-12.376 7.146 7.488 6.283z" clip-path="url(#pd37f9131a7)"/><path id="patch_256" d="m144.057 231.423-4.888 13.43 12.377-7.146z" clip-path="url(#pd37f9131a7)"/><path id="patch_257" d="m151.546 237.707-12.377 7.145 7.489 6.284z" clip-path="url(#pd37f9131a7)"/><path id="patch_258" d="m185.76 143.703-4.888 13.43h9.776z" clip-path="url(#pd37f9131a7)"/><path id="patch_259" d="m180.872 157.132-4.888 13.43h9.776z" clip-path="url(#pd37f9131a7)"/><path id="patch_260" d="m175.984 170.562-4.887 13.429h9.775z" clip-path="url(#pd37f9131a7)"/><path id="patch_261" d="m171.097 183.99-4.888 13.43h9.775z" clip-path="url(#pd37f9131a7)"/><path id="patch_262" d="m166.209 197.42-4.888 13.429h9.776z" clip-path="url(#pd37f9131a7)"/><path id="patch_263" d="m161.321 210.849-4.888 13.429h9.776z" clip-path="url(#pd37f9131a7)"/><path id="patch_264" d="m156.433 224.278-4.887 13.429h9.775z" clip-path="url(#pd37f9131a7)"/><path id="patch_265" d="m151.546 237.707-4.888 13.429h9.775z" clip-path="url(#pd37f9131a7)"/><path id="patch_266" d="m180.872 157.132 4.888 13.43 4.888-13.43z" clip-path="url(#pd37f9131a7)"/><path id="patch_267" d="m175.984 170.562 4.888 13.429 4.888-13.43z" clip-path="url(#pd37f9131a7)"/><path id="patch_268" d="m171.097 183.99 4.887 13.43 4.888-13.43z" clip-path="url(#pd37f9131a7)"/><path id="patch_269" d="m166.209 197.42 4.888 13.429 4.887-13.43z" clip-path="url(#pd37f9131a7)"/><path id="patch_270" d="m161.321 210.849 4.888 13.429 4.888-13.43z" clip-path="url(#pd37f9131a7)"/><path id="patch_271" d="m156.433 224.278 4.888 13.429 4.888-13.43z" clip-path="url(#pd37f9131a7)"/><path id="patch_272" d="m151.546 237.707 4.887 13.429 4.888-13.43z" clip-path="url(#pd37f9131a7)"/><path id="patch_273" d="m190.648 157.132-4.888 13.43h9.776z" clip-path="url(#pd37f9131a7)"/><path id="patch_274" d="m185.76 170.562-4.888 13.429h9.776z" clip-path="url(#pd37f9131a7)"/><path id="patch_275" d="m180.872 183.99-4.888 13.43h9.776z" clip-path="url(#pd37f9131a7)"/><path id="patch_276" d="m175.984 197.42-4.887 13.429h9.775z" clip-path="url(#pd37f9131a7)"/><path id="patch_277" d="m171.097 210.849-4.888 13.429h9.775z" clip-path="url(#pd37f9131a7)"/><path id="patch_278" d="m166.209 224.278-4.888 13.429h9.776z" clip-path="url(#pd37f9131a7)"/><path id="patch_279" d="m161.321 237.707-4.888 13.429h9.776z" clip-path="url(#pd37f9131a7)"/><path id="patch_280" d="m185.76 170.562 4.888 13.429 4.888-13.43z" clip-path="url(#pd37f9131a7)"/><path id="patch_281" d="m180.872 183.99 4.888 13.43 4.888-13.43z" clip-path="url(#pd37f9131a7)"/><path id="patch_282" d="m175.984 197.42 4.888 13.429 4.888-13.43z" clip-path="url(#pd37f9131a7)"/><path id="patch_283" d="m171.097 210.849 4.887 13.429 4.888-13.43z" clip-path="url(#pd37f9131a7)"/><path id="patch_284" d="m166.209 224.278 4.888 13.429 4.887-13.43z" clip-path="url(#pd37f9131a7)"/><path id="patch_285" d="m161.321 237.707 4.888 13.429 4.888-13.43z" clip-path="url(#pd37f9131a7)"/><path id="patch_286" d="m195.536 170.562-4.888 13.429h9.775z" clip-path="url(#pd37f9131a7)"/><path id="patch_287" d="m190.648 183.99-4.888 13.43h9.776z" clip-path="url(#pd37f9131a7)"/><path id="patch_288" d="m185.76 197.42-4.888 13.429h9.776z" clip-path="url(#pd37f9131a7)"/><path id="patch_289" d="m180.872 210.849-4.888 13.429h9.776z" clip-path="url(#pd37f9131a7)"/><path id="patch_290" d="m175.984 224.278-4.887 13.429h9.775z" clip-path="url(#pd37f9131a7)"/><path id="patch_291" d="m171.097 237.707-4.888 13.429h9.775z" clip-path="url(#pd37f9131a7)"/><path id="patch_292" d="m190.648 183.99 4.888 13.43 4.887-13.43z" clip-path="url(#pd37f9131a7)"/><path id="patch_293" d="m185.76 197.42 4.888 13.429 4.888-13.43z" clip-path="url(#pd37f9131a7)"/><path id="patch_294" d="m180.872 210.849 4.888 13.429 4.888-13.43z" clip-path="url(#pd37f9131a7)"/><path id="patch_295" d="m175.984 224.278 4.888 13.429 4.888-13.43z" clip-path="url(#pd37f9131a7)"/><path id="patch_296" d="m171.097 237.707 4.887 13.429 4.888-13.43z" clip-path="url(#pd37f9131a7)"/><path id="patch_297" d="m200.423 183.99-4.887 13.43h9.775z" clip-path="url(#pd37f9131a7)"/><path id="patch_298" d="m195.536 197.42-4.888 13.429h9.775z" clip-path="url(#pd37f9131a7)"/><path id="patch_299" d="m190.648 210.849-4.888 13.429h9.776z" clip-path="url(#pd37f9131a7)"/><path id="patch_300" d="m185.76 224.278-4.888 13.429h9.776z" clip-path="url(#pd37f9131a7)"/><path id="patch_301" d="m180.872 237.707-4.888 13.429h9.776z" clip-path="url(#pd37f9131a7)"/><path id="patch_302" d="m195.536 197.42 4.887 13.429 4.888-13.43z" clip-path="url(#pd37f9131a7)"/><path id="patch_303" d="m190.648 210.849 4.888 13.429 4.887-13.43z" clip-path="url(#pd37f9131a7)"/><path id="patch_304" d="m185.76 224.278 4.888 13.429 4.888-13.43z" clip-path="url(#pd37f9131a7)"/><path id="patch_305" d="m180.872 237.707 4.888 13.429 4.888-13.43z" clip-path="url(#pd37f9131a7)"/><path id="patch_306" d="m205.311 197.42-4.888 13.429h9.776z" clip-path="url(#pd37f9131a7)"/><path id="patch_307" d="m200.423 210.849-4.887 13.429h9.775z" clip-path="url(#pd37f9131a7)"/><path id="patch_308" d="m195.536 224.278-4.888 13.429h9.775z" clip-path="url(#pd37f9131a7)"/><path id="patch_309" d="m190.648 237.707-4.888 13.429h9.776z" clip-path="url(#pd37f9131a7)"/><path id="patch_310" d="m200.423 210.849 4.888 13.429 4.888-13.43z" clip-path="url(#pd37f9131a7)"/><path id="patch_311" d="m195.536 224.278 4.887 13.429 4.888-13.43z" clip-path="url(#pd37f9131a7)"/><path id="patch_312" d="m190.648 237.707 4.888 13.429 4.887-13.43z" clip-path="url(#pd37f9131a7)"/><path id="patch_313" d="m210.199 210.849-4.888 13.429h9.776z" clip-path="url(#pd37f9131a7)"/><path id="patch_314" d="m205.311 224.278-4.888 13.429h9.776z" clip-path="url(#pd37f9131a7)"/><path id="patch_315" d="m200.423 237.707-4.887 13.429h9.775z" clip-path="url(#pd37f9131a7)"/><path id="patch_316" d="m205.311 224.278 4.888 13.429 4.888-13.43z" clip-path="url(#pd37f9131a7)"/><path id="patch_317" d="m200.423 237.707 4.888 13.429 4.888-13.43z" clip-path="url(#pd37f9131a7)"/><path id="patch_318" d="m215.087 224.278-4.888 13.429h9.775z" clip-path="url(#pd37f9131a7)"/><path id="patch_319" d="m210.199 237.707-4.888 13.429h9.776z" clip-path="url(#pd37f9131a7)"/><path id="patch_320" d="m210.199 237.707 4.888 13.429 4.887-13.43z" clip-path="url(#pd37f9131a7)"/><path id="patch_321" d="m219.974 237.707-4.887 13.429h9.775z" clip-path="url(#pd37f9131a7)"/><path id="patch_322" d="m185.76 143.703 4.888 13.43 7.488-6.284z" clip-path="url(#pd37f9131a7)"/><path id="patch_323" d="m190.648 157.132 4.888 13.43 7.488-6.284z" clip-path="url(#pd37f9131a7)"/><path id="patch_324" d="m195.536 170.562 4.887 13.429 7.489-6.284z" clip-path="url(#pd37f9131a7)"/><path id="patch_325" d="m200.423 183.99 4.888 13.43 7.489-6.284z" clip-path="url(#pd37f9131a7)"/><path id="patch_326" d="m205.311 197.42 4.888 13.429 7.488-6.284z" clip-path="url(#pd37f9131a7)"/><path id="patch_327" d="m210.199 210.849 4.888 13.429 7.488-6.284z" clip-path="url(#pd37f9131a7)"/><path id="patch_328" d="m215.087 224.278 4.887 13.429 7.489-6.284z" clip-path="url(#pd37f9131a7)"/><path id="patch_329" d="m219.974 237.707 4.888 13.429 7.489-6.284z" clip-path="url(#pd37f9131a7)"/><path id="patch_330" d="m190.648 157.132 12.376 7.146-4.888-13.43z" clip-path="url(#pd37f9131a7)"/><path id="patch_331" d="m195.536 170.562 12.376 7.145-4.888-13.43z" clip-path="url(#pd37f9131a7)"/><path id="patch_332" d="m200.423 183.99 12.377 7.146-4.888-13.429z" clip-path="url(#pd37f9131a7)"/><path id="patch_333" d="m205.311 197.42 12.376 7.145-4.887-13.429z" clip-path="url(#pd37f9131a7)"/><path id="patch_334" d="m210.199 210.849 12.376 7.145-4.888-13.429z" clip-path="url(#pd37f9131a7)"/><path id="patch_335" d="m215.087 224.278 12.376 7.145-4.888-13.429z" clip-path="url(#pd37f9131a7)"/><path id="patch_336" d="m219.974 237.707 12.377 7.145-4.888-13.429z" clip-path="url(#pd37f9131a7)"/><path id="patch_337" d="m198.136 150.849 4.888 13.429 7.489-6.284z" clip-path="url(#pd37f9131a7)"/><path id="patch_338" d="m203.024 164.278 4.888 13.429 7.488-6.284z" clip-path="url(#pd37f9131a7)"/><path id="patch_339" d="m207.912 177.707 4.888 13.43 7.488-6.285z" clip-path="url(#pd37f9131a7)"/><path id="patch_340" d="m212.8 191.136 4.887 13.43 7.489-6.284z" clip-path="url(#pd37f9131a7)"/><path id="patch_341" d="m217.687 204.565 4.888 13.43 7.489-6.284z" clip-path="url(#pd37f9131a7)"/><path id="patch_342" d="m222.575 217.994 4.888 13.43 7.489-6.284z" clip-path="url(#pd37f9131a7)"/><path id="patch_343" d="m227.463 231.423 4.888 13.43 7.488-6.284z" clip-path="url(#pd37f9131a7)"/><path id="patch_344" d="m203.024 164.278 12.376 7.145-4.887-13.429z" clip-path="url(#pd37f9131a7)"/><path id="patch_345" d="m207.912 177.707 12.376 7.145-4.888-13.429z" clip-path="url(#pd37f9131a7)"/><path id="patch_346" d="m212.8 191.136 12.376 7.146-4.888-13.43z" clip-path="url(#pd37f9131a7)"/><path id="patch_347" d="m217.687 204.565 12.377 7.146-4.888-13.43z" clip-path="url(#pd37f9131a7)"/><path id="patch_348" d="m222.575 217.994 12.377 7.146-4.888-13.43z" clip-path="url(#pd37f9131a7)"/><path id="patch_349" d="m227.463 231.423 12.376 7.146-4.887-13.43z" clip-path="url(#pd37f9131a7)"/><path id="patch_350" d="m210.513 157.994 4.887 13.43 7.489-6.284z" clip-path="url(#pd37f9131a7)"/><path id="patch_351" d="m215.4 171.423 4.888 13.43 7.489-6.284z" clip-path="url(#pd37f9131a7)"/><path id="patch_352" d="m220.288 184.852 4.888 13.43 7.488-6.284z" clip-path="url(#pd37f9131a7)"/><path id="patch_353" d="m225.176 198.282 4.888 13.429 7.488-6.284z" clip-path="url(#pd37f9131a7)"/><path id="patch_354" d="m230.064 211.71 4.888 13.43 7.488-6.284z" clip-path="url(#pd37f9131a7)"/><path id="patch_355" d="m234.952 225.14 4.887 13.429 7.489-6.284z" clip-path="url(#pd37f9131a7)"/><path id="patch_356" d="m215.4 171.423 12.377 7.146-4.888-13.43z" clip-path="url(#pd37f9131a7)"/><path id="patch_357" d="m220.288 184.852 12.376 7.146-4.887-13.43z" clip-path="url(#pd37f9131a7)"/><path id="patch_358" d="m225.176 198.282 12.376 7.145-4.888-13.43z" clip-path="url(#pd37f9131a7)"/><path id="patch_359" d="m230.064 211.71 12.376 7.146-4.888-13.429z" clip-path="url(#pd37f9131a7)"/><path id="patch_360" d="m234.952 225.14 12.376 7.145-4.888-13.429z" clip-path="url(#pd37f9131a7)"/><path id="patch_361" d="m222.889 165.14 4.888 13.429 7.488-6.284z" clip-path="url(#pd37f9131a7)"/><path id="patch_362" d="m227.777 178.569 4.887 13.429 7.489-6.284z" clip-path="url(#pd37f9131a7)"/><path id="patch_363" d="m232.664 191.998 4.888 13.429 7.489-6.284z" clip-path="url(#pd37f9131a7)"/><path id="patch_364" d="m237.552 205.427 4.888 13.43 7.489-6.285z" clip-path="url(#pd37f9131a7)"/><path id="patch_365" d="m242.44 218.856 4.888 13.43 7.488-6.284z" clip-path="url(#pd37f9131a7)"/><path id="patch_366" d="m227.777 178.569 12.376 7.145-4.888-13.429z" clip-path="url(#pd37f9131a7)"/><path id="patch_367" d="m232.664 191.998 12.377 7.145-4.888-13.429z" clip-path="url(#pd37f9131a7)"/><path id="patch_368" d="m237.552 205.427 12.377 7.145-4.888-13.429z" clip-path="url(#pd37f9131a7)"/><path id="patch_369" d="m242.44 218.856 12.376 7.146-4.887-13.43z" clip-path="url(#pd37f9131a7)"/><path id="patch_370" d="m235.265 172.285 4.888 13.43 7.489-6.284z" clip-path="url(#pd37f9131a7)"/><path id="patch_371" d="m240.153 185.714 4.888 13.43 7.488-6.284z" clip-path="url(#pd37f9131a7)"/><path id="patch_372" d="m245.04 199.143 4.889 13.43 7.488-6.284z" clip-path="url(#pd37f9131a7)"/><path id="patch_373" d="m249.929 212.572 4.887 13.43 7.489-6.284z" clip-path="url(#pd37f9131a7)"/><path id="patch_374" d="m240.153 185.714 12.376 7.146-4.887-13.43z" clip-path="url(#pd37f9131a7)"/><path id="patch_375" d="m245.04 199.143 12.377 7.146-4.888-13.43z" clip-path="url(#pd37f9131a7)"/><path id="patch_376" d="m249.929 212.572 12.376 7.146-4.888-13.43z" clip-path="url(#pd37f9131a7)"/><path id="patch_377" d="m247.642 179.43 4.887 13.43 7.489-6.284z" clip-path="url(#pd37f9131a7)"/><path id="patch_378" d="m252.53 192.86 4.887 13.429 7.489-6.284z" clip-path="url(#pd37f9131a7)"/><path id="patch_379" d="m257.417 206.289 4.888 13.429 7.488-6.284z" clip-path="url(#pd37f9131a7)"/><path id="patch_380" d="m252.53 192.86 12.376 7.145-4.888-13.429z" clip-path="url(#pd37f9131a7)"/><path id="patch_381" d="m257.417 206.289 12.376 7.145-4.887-13.429z" clip-path="url(#pd37f9131a7)"/><path id="patch_382" d="m260.018 186.576 4.888 13.43 7.488-6.284z" clip-path="url(#pd37f9131a7)"/><path id="patch_383" d="m264.906 200.005 4.887 13.43 7.489-6.284z" clip-path="url(#pd37f9131a7)"/><path id="patch_384" d="m264.906 200.005 12.376 7.146-4.888-13.43z" clip-path="url(#pd37f9131a7)"/><path id="patch_385" d="m272.394 193.722 4.888 13.429 7.488-6.284z" clip-path="url(#pd37f9131a7)"/><path id="patch_386" d="m185.76 143.703 12.376 7.146 1.698-9.627z" clip-path="url(#pd37f9131a7)"/><path id="patch_387" d="m198.136 150.849 12.377 7.145 1.697-9.627z" clip-path="url(#pd37f9131a7)"/><path id="patch_388" d="m210.513 157.994 12.376 7.146 1.697-9.627z" clip-path="url(#pd37f9131a7)"/><path id="patch_389" d="m222.889 165.14 12.376 7.145 1.698-9.627z" clip-path="url(#pd37f9131a7)"/><path id="patch_390" d="m235.265 172.285 12.377 7.146 1.697-9.627z" clip-path="url(#pd37f9131a7)"/><path id="patch_391" d="m247.642 179.43 12.376 7.146 1.697-9.627z" clip-path="url(#pd37f9131a7)"/><path id="patch_392" d="m260.018 186.576 12.376 7.146 1.698-9.627z" clip-path="url(#pd37f9131a7)"/><path id="patch_393" d="m272.394 193.722 12.376 7.145 1.698-9.627z" clip-path="url(#pd37f9131a7)"/><path id="patch_394" d="m198.136 150.849 14.074-2.482-12.376-7.145z" clip-path="url(#pd37f9131a7)"/><path id="patch_395" d="m210.513 157.994 14.073-2.481-12.376-7.146z" clip-path="url(#pd37f9131a7)"/><path id="patch_396" d="m222.889 165.14 14.074-2.482-12.377-7.145z" clip-path="url(#pd37f9131a7)"/><path id="patch_397" d="m235.265 172.285 14.074-2.481-12.376-7.146z" clip-path="url(#pd37f9131a7)"/><path id="patch_398" d="m247.642 179.43 14.073-2.48-12.376-7.146z" clip-path="url(#pd37f9131a7)"/><path id="patch_399" d="m260.018 186.576 14.074-2.481-12.377-7.146z" clip-path="url(#pd37f9131a7)"/><path id="patch_400" d="m272.394 193.722 14.074-2.482-12.376-7.145z" clip-path="url(#pd37f9131a7)"/><path id="patch_401" d="m199.834 141.222 12.376 7.145 1.698-9.627z" clip-path="url(#pd37f9131a7)"/><path id="patch_402" d="m212.21 148.367 12.376 7.146 1.698-9.627z" clip-path="url(#pd37f9131a7)"/><path id="patch_403" d="m224.586 155.513 12.377 7.145 1.697-9.627z" clip-path="url(#pd37f9131a7)"/><path id="patch_404" d="m236.963 162.658 12.376 7.146 1.698-9.627z" clip-path="url(#pd37f9131a7)"/><path id="patch_405" d="m249.339 169.804 12.376 7.145 1.698-9.627z" clip-path="url(#pd37f9131a7)"/><path id="patch_406" d="m261.715 176.95 12.377 7.145 1.697-9.627z" clip-path="url(#pd37f9131a7)"/><path id="patch_407" d="m274.092 184.095 12.376 7.145 1.697-9.627z" clip-path="url(#pd37f9131a7)"/><path id="patch_408" d="m212.21 148.367 14.074-2.481-12.376-7.146z" clip-path="url(#pd37f9131a7)"/><path id="patch_409" d="m224.586 155.513 14.074-2.482-12.376-7.145z" clip-path="url(#pd37f9131a7)"/><path id="patch_410" d="m236.963 162.658 14.074-2.481-12.377-7.146z" clip-path="url(#pd37f9131a7)"/><path id="patch_411" d="m249.339 169.804 14.074-2.482-12.376-7.145z" clip-path="url(#pd37f9131a7)"/><path id="patch_412" d="m261.715 176.95 14.074-2.482-12.376-7.146z" clip-path="url(#pd37f9131a7)"/><path id="patch_413" d="m274.092 184.095 14.073-2.482-12.376-7.145z" clip-path="url(#pd37f9131a7)"/><path id="patch_414" d="m213.908 138.74 12.376 7.146 1.697-9.627z" clip-path="url(#pd37f9131a7)"/><path id="patch_415" d="m226.284 145.886 12.376 7.145 1.698-9.627z" clip-path="url(#pd37f9131a7)"/><path id="patch_416" d="m238.66 153.031 12.377 7.146 1.697-9.627z" clip-path="url(#pd37f9131a7)"/><path id="patch_417" d="m251.037 160.177 12.376 7.145 1.697-9.627z" clip-path="url(#pd37f9131a7)"/><path id="patch_418" d="m263.413 167.322 12.376 7.146 1.698-9.628z" clip-path="url(#pd37f9131a7)"/><path id="patch_419" d="m275.79 174.468 12.375 7.145 1.698-9.627z" clip-path="url(#pd37f9131a7)"/><path id="patch_420" d="m226.284 145.886 14.074-2.482-12.377-7.145z" clip-path="url(#pd37f9131a7)"/><path id="patch_421" d="m238.66 153.031 14.074-2.481-12.376-7.146z" clip-path="url(#pd37f9131a7)"/><path id="patch_422" d="m251.037 160.177 14.073-2.482-12.376-7.145z" clip-path="url(#pd37f9131a7)"/><path id="patch_423" d="m263.413 167.322 14.074-2.482-12.377-7.145z" clip-path="url(#pd37f9131a7)"/><path id="patch_424" d="m275.79 174.468 14.073-2.482-12.376-7.146z" clip-path="url(#pd37f9131a7)"/><path id="patch_425" d="m227.981 136.259 12.377 7.145 1.697-9.627z" clip-path="url(#pd37f9131a7)"/><path id="patch_426" d="m240.358 143.404 12.376 7.146 1.698-9.628z" clip-path="url(#pd37f9131a7)"/><path id="patch_427" d="m252.734 150.55 12.376 7.145 1.698-9.627z" clip-path="url(#pd37f9131a7)"/><path id="patch_428" d="m265.11 157.695 12.377 7.145 1.697-9.627z" clip-path="url(#pd37f9131a7)"/><path id="patch_429" d="m277.487 164.84 12.376 7.146 1.697-9.627z" clip-path="url(#pd37f9131a7)"/><path id="patch_430" d="m240.358 143.404 14.074-2.482-12.377-7.145z" clip-path="url(#pd37f9131a7)"/><path id="patch_431" d="m252.734 150.55 14.074-2.482-12.376-7.146z" clip-path="url(#pd37f9131a7)"/><path id="patch_432" d="m265.11 157.695 14.074-2.482-12.376-7.145z" clip-path="url(#pd37f9131a7)"/><path id="patch_433" d="m277.487 164.84 14.073-2.481-12.376-7.146z" clip-path="url(#pd37f9131a7)"/><path id="patch_434" d="m242.055 133.777 12.377 7.145 1.697-9.627z" clip-path="url(#pd37f9131a7)"/><path id="patch_435" d="m254.432 140.922 12.376 7.146 1.697-9.627z" clip-path="url(#pd37f9131a7)"/><path id="patch_436" d="m266.808 148.068 12.376 7.145 1.698-9.627z" clip-path="url(#pd37f9131a7)"/><path id="patch_437" d="m279.184 155.213 12.376 7.146 1.698-9.627z" clip-path="url(#pd37f9131a7)"/><path id="patch_438" d="m254.432 140.922 14.073-2.481-12.376-7.146z" clip-path="url(#pd37f9131a7)"/><path id="patch_439" d="m266.808 148.068 14.074-2.482-12.377-7.145z" clip-path="url(#pd37f9131a7)"/><path id="patch_440" d="m279.184 155.213 14.074-2.481-12.376-7.146z" clip-path="url(#pd37f9131a7)"/><path id="patch_441" d="m256.13 131.295 12.375 7.146 1.698-9.627z" clip-path="url(#pd37f9131a7)"/><path id="patch_442" d="m268.505 138.44 12.377 7.146 1.697-9.627z" clip-path="url(#pd37f9131a7)"/><path id="patch_443" d="m280.882 145.586 12.376 7.146 1.697-9.627z" clip-path="url(#pd37f9131a7)"/><path id="patch_444" d="m268.505 138.44 14.074-2.48-12.376-7.146z" clip-path="url(#pd37f9131a7)"/><path id="patch_445" d="m280.882 145.586 14.073-2.481-12.376-7.146z" clip-path="url(#pd37f9131a7)"/><path id="patch_446" d="m270.203 128.814 12.376 7.145 1.698-9.627z" clip-path="url(#pd37f9131a7)"/><path id="patch_447" d="m282.58 135.96 12.375 7.145 1.698-9.627z" clip-path="url(#pd37f9131a7)"/><path id="patch_448" d="m282.58 135.96 14.073-2.482-12.376-7.146z" clip-path="url(#pd37f9131a7)"/><path id="patch_449" d="m284.277 126.332 12.376 7.146 1.698-9.627z" clip-path="url(#pd37f9131a7)"/><path id="patch_450" d="m185.76 143.703 14.074-2.481-4.888-8.466z" clip-path="url(#pd37f9131a7)"/><path id="patch_451" d="m199.834 141.222 14.074-2.482-4.888-8.466z" clip-path="url(#pd37f9131a7)"/><path id="patch_452" d="m213.908 138.74 14.073-2.481-4.887-8.466z" clip-path="url(#pd37f9131a7)"/><path id="patch_453" d="m227.981 136.259 14.074-2.482-4.888-8.466z" clip-path="url(#pd37f9131a7)"/><path id="patch_454" d="m242.055 133.777 14.074-2.482-4.888-8.465z" clip-path="url(#pd37f9131a7)"/><path id="patch_455" d="m256.13 131.295 14.073-2.481-4.888-8.466z" clip-path="url(#pd37f9131a7)"/><path id="patch_456" d="m270.203 128.814 14.074-2.482-4.888-8.466z" clip-path="url(#pd37f9131a7)"/><path id="patch_457" d="m284.277 126.332 14.074-2.481-4.888-8.466z" clip-path="url(#pd37f9131a7)"/><path id="patch_458" d="m199.834 141.222 9.186-10.948-14.074 2.482z" clip-path="url(#pd37f9131a7)"/><path id="patch_459" d="m213.908 138.74 9.186-10.947-14.074 2.481z" clip-path="url(#pd37f9131a7)"/><path id="patch_460" d="m227.981 136.259 9.186-10.948-14.073 2.482z" clip-path="url(#pd37f9131a7)"/><path id="patch_461" d="m242.055 133.777 9.186-10.947-14.074 2.481z" clip-path="url(#pd37f9131a7)"/><path id="patch_462" d="m256.13 131.295 9.185-10.947-14.074 2.482z" clip-path="url(#pd37f9131a7)"/><path id="patch_463" d="m270.203 128.814 9.186-10.948-14.074 2.482z" clip-path="url(#pd37f9131a7)"/><path id="patch_464" d="m284.277 126.332 9.186-10.947-14.074 2.481z" clip-path="url(#pd37f9131a7)"/><path id="patch_465" d="m194.946 132.756 14.074-2.482-4.888-8.466z" clip-path="url(#pd37f9131a7)"/><path id="patch_466" d="m209.02 130.274 14.074-2.481-4.888-8.466z" clip-path="url(#pd37f9131a7)"/><path id="patch_467" d="m223.094 127.793 14.073-2.482-4.887-8.466z" clip-path="url(#pd37f9131a7)"/><path id="patch_468" d="m237.167 125.311 14.074-2.481-4.888-8.466z" clip-path="url(#pd37f9131a7)"/><path id="patch_469" d="m251.241 122.83 14.074-2.482-4.888-8.466z" clip-path="url(#pd37f9131a7)"/><path id="patch_470" d="m265.315 120.348 14.074-2.482-4.888-8.466z" clip-path="url(#pd37f9131a7)"/><path id="patch_471" d="m279.389 117.866 14.074-2.481-4.888-8.466z" clip-path="url(#pd37f9131a7)"/><path id="patch_472" d="m209.02 130.274 9.186-10.947-14.074 2.481z" clip-path="url(#pd37f9131a7)"/><path id="patch_473" d="m223.094 127.793 9.186-10.948-14.074 2.482z" clip-path="url(#pd37f9131a7)"/><path id="patch_474" d="m237.167 125.311 9.186-10.947-14.073 2.481z" clip-path="url(#pd37f9131a7)"/><path id="patch_475" d="m251.241 122.83 9.186-10.948-14.074 2.482z" clip-path="url(#pd37f9131a7)"/><path id="patch_476" d="m265.315 120.348 9.186-10.948-14.074 2.482z" clip-path="url(#pd37f9131a7)"/><path id="patch_477" d="m279.389 117.866 9.186-10.947L274.5 109.4z" clip-path="url(#pd37f9131a7)"/><path id="patch_478" d="m204.132 121.808 14.074-2.481-4.888-8.466z" clip-path="url(#pd37f9131a7)"/><path id="patch_479" d="m218.206 119.327 14.074-2.482-4.888-8.466z" clip-path="url(#pd37f9131a7)"/><path id="patch_480" d="m232.28 116.845 14.073-2.481-4.887-8.466z" clip-path="url(#pd37f9131a7)"/><path id="patch_481" d="m246.353 114.364 14.074-2.482-4.887-8.466z" clip-path="url(#pd37f9131a7)"/><path id="patch_482" d="m260.427 111.882 14.074-2.482-4.888-8.465z" clip-path="url(#pd37f9131a7)"/><path id="patch_483" d="m274.501 109.4 14.074-2.481-4.888-8.466z" clip-path="url(#pd37f9131a7)"/><path id="patch_484" d="m218.206 119.327 9.186-10.948-14.074 2.482z" clip-path="url(#pd37f9131a7)"/><path id="patch_485" d="m232.28 116.845 9.186-10.947-14.074 2.481z" clip-path="url(#pd37f9131a7)"/><path id="patch_486" d="m246.353 114.364 9.187-10.948-14.074 2.482z" clip-path="url(#pd37f9131a7)"/><path id="patch_487" d="m260.427 111.882 9.186-10.947-14.073 2.481z" clip-path="url(#pd37f9131a7)"/><path id="patch_488" d="m274.501 109.4 9.186-10.947-14.074 2.482z" clip-path="url(#pd37f9131a7)"/><path id="patch_489" d="m213.318 110.86 14.074-2.48-4.888-8.467z" clip-path="url(#pd37f9131a7)"/><path id="patch_490" d="m227.392 108.38 14.074-2.482-4.888-8.466z" clip-path="url(#pd37f9131a7)"/><path id="patch_491" d="m241.466 105.898 14.074-2.482-4.888-8.466z" clip-path="url(#pd37f9131a7)"/><path id="patch_492" d="m255.54 103.416 14.073-2.481-4.887-8.466z" clip-path="url(#pd37f9131a7)"/><path id="patch_493" d="m269.613 100.935 14.074-2.482-4.888-8.466z" clip-path="url(#pd37f9131a7)"/><path id="patch_494" d="m227.392 108.38 9.186-10.948-14.074 2.481z" clip-path="url(#pd37f9131a7)"/><path id="patch_495" d="m241.466 105.898 9.186-10.948-14.074 2.482z" clip-path="url(#pd37f9131a7)"/><path id="patch_496" d="m255.54 103.416 9.186-10.947-14.074 2.481z" clip-path="url(#pd37f9131a7)"/><path id="patch_497" d="m269.613 100.935 9.186-10.948-14.073 2.482z" clip-path="url(#pd37f9131a7)"/><path id="patch_498" d="m222.504 99.913 14.074-2.481-4.888-8.466z" clip-path="url(#pd37f9131a7)"/><path id="patch_499" d="m236.578 97.432 14.074-2.482-4.888-8.466z" clip-path="url(#pd37f9131a7)"/><path id="patch_500" d="m250.652 94.95 14.074-2.481-4.888-8.466z" clip-path="url(#pd37f9131a7)"/><path id="patch_501" d="m264.726 92.469 14.073-2.482-4.887-8.466z" clip-path="url(#pd37f9131a7)"/><path id="patch_502" d="m236.578 97.432 9.186-10.948-14.074 2.482z" clip-path="url(#pd37f9131a7)"/><path id="patch_503" d="m250.652 94.95 9.186-10.947-14.074 2.481z" clip-path="url(#pd37f9131a7)"/><path id="patch_504" d="m264.726 92.469 9.186-10.948-14.074 2.482z" clip-path="url(#pd37f9131a7)"/><path id="patch_505" d="m231.69 88.966 14.074-2.482-4.888-8.466z" clip-path="url(#pd37f9131a7)"/><path id="patch_506" d="m245.764 86.484 14.074-2.481-4.888-8.466z" clip-path="url(#pd37f9131a7)"/><path id="patch_507" d="m259.838 84.003 14.074-2.482-4.888-8.466z" clip-path="url(#pd37f9131a7)"/><path id="patch_508" d="m245.764 86.484 9.186-10.947-14.074 2.481z" clip-path="url(#pd37f9131a7)"/><path id="patch_509" d="m259.838 84.003 9.186-10.948-14.074 2.482z" clip-path="url(#pd37f9131a7)"/><path id="patch_510" d="m240.876 78.018 14.074-2.481-4.888-8.466z" clip-path="url(#pd37f9131a7)"/><path id="patch_511" d="m254.95 75.537 14.074-2.482-4.888-8.466z" clip-path="url(#pd37f9131a7)"/><path id="patch_512" d="m254.95 75.537 9.186-10.948-14.074 2.482z" clip-path="url(#pd37f9131a7)"/><path id="patch_513" d="m250.062 67.071 14.074-2.482-4.888-8.465z" clip-path="url(#pd37f9131a7)"/><path id="patch_514" d="m185.76 143.703 9.186-10.947-9.186-3.344z" clip-path="url(#pd37f9131a7)"/><path id="patch_515" d="m194.946 132.756 9.186-10.948-9.186-3.343z" clip-path="url(#pd37f9131a7)"/><path id="patch_516" d="m204.132 121.808 9.186-10.947-9.186-3.343z" clip-path="url(#pd37f9131a7)"/><path id="patch_517" d="m213.318 110.86 9.186-10.947-9.186-3.343z" clip-path="url(#pd37f9131a7)"/><path id="patch_518" d="m222.504 99.913 9.186-10.947-9.186-3.343z" clip-path="url(#pd37f9131a7)"/><path id="patch_519" d="m231.69 88.966 9.186-10.948-9.186-3.343z" clip-path="url(#pd37f9131a7)"/><path id="patch_520" d="m240.876 78.018 9.186-10.947-9.186-3.343z" clip-path="url(#pd37f9131a7)"/><path id="patch_521" d="m250.062 67.071 9.186-10.947-9.186-3.344z" clip-path="url(#pd37f9131a7)"/><path id="patch_522" d="M194.946 132.756v-14.291l-9.186 10.947z" clip-path="url(#pd37f9131a7)"/><path id="patch_523" d="M204.132 121.808v-14.29l-9.186 10.947z" clip-path="url(#pd37f9131a7)"/><path id="patch_524" d="M213.318 110.86V96.57l-9.186 10.948z" clip-path="url(#pd37f9131a7)"/><path id="patch_525" d="M222.504 99.913v-14.29l-9.186 10.947z" clip-path="url(#pd37f9131a7)"/><path id="patch_526" d="M231.69 88.966v-14.29l-9.186 10.947z" clip-path="url(#pd37f9131a7)"/><path id="patch_527" d="M240.876 78.018v-14.29l-9.186 10.947z" clip-path="url(#pd37f9131a7)"/><path id="patch_528" d="M250.062 67.071v-14.29l-9.186 10.947z" clip-path="url(#pd37f9131a7)"/><path id="patch_529" d="m185.76 129.412 9.186-10.947-9.186-3.343z" clip-path="url(#pd37f9131a7)"/><path id="patch_530" d="m194.946 118.465 9.186-10.947-9.186-3.344z" clip-path="url(#pd37f9131a7)"/><path id="patch_531" d="m204.132 107.518 9.186-10.948-9.186-3.343z" clip-path="url(#pd37f9131a7)"/><path id="patch_532" d="m213.318 96.57 9.186-10.947-9.186-3.344z" clip-path="url(#pd37f9131a7)"/><path id="patch_533" d="m222.504 85.623 9.186-10.948-9.186-3.343z" clip-path="url(#pd37f9131a7)"/><path id="patch_534" d="m231.69 74.675 9.186-10.947-9.186-3.344z" clip-path="url(#pd37f9131a7)"/><path id="patch_535" d="m240.876 63.728 9.186-10.948-9.186-3.343z" clip-path="url(#pd37f9131a7)"/><path id="patch_536" d="M194.946 118.465v-14.29l-9.186 10.947z" clip-path="url(#pd37f9131a7)"/><path id="patch_537" d="M204.132 107.518V93.227l-9.186 10.947z" clip-path="url(#pd37f9131a7)"/><path id="patch_538" d="M213.318 96.57V82.28l-9.186 10.947z" clip-path="url(#pd37f9131a7)"/><path id="patch_539" d="M222.504 85.623V71.332l-9.186 10.947z" clip-path="url(#pd37f9131a7)"/><path id="patch_540" d="M231.69 74.675v-14.29l-9.186 10.947z" clip-path="url(#pd37f9131a7)"/><path id="patch_541" d="M240.876 63.728V49.437l-9.186 10.947z" clip-path="url(#pd37f9131a7)"/><path id="patch_542" d="m185.76 115.122 9.186-10.948-9.186-3.343z" clip-path="url(#pd37f9131a7)"/><path id="patch_543" d="m194.946 104.174 9.186-10.947-9.186-3.344z" clip-path="url(#pd37f9131a7)"/><path id="patch_544" d="m204.132 93.227 9.186-10.948-9.186-3.343z" clip-path="url(#pd37f9131a7)"/><path id="patch_545" d="m213.318 82.28 9.186-10.948-9.186-3.344z" clip-path="url(#pd37f9131a7)"/><path id="patch_546" d="m222.504 71.332 9.186-10.948-9.186-3.343z" clip-path="url(#pd37f9131a7)"/><path id="patch_547" d="m231.69 60.384 9.186-10.947-9.186-3.344z" clip-path="url(#pd37f9131a7)"/><path id="patch_548" d="M194.946 104.174v-14.29l-9.186 10.947z" clip-path="url(#pd37f9131a7)"/><path id="patch_549" d="M204.132 93.227V78.936l-9.186 10.947z" clip-path="url(#pd37f9131a7)"/><path id="patch_550" d="M213.318 82.28V67.987l-9.186 10.948z" clip-path="url(#pd37f9131a7)"/><path id="patch_551" d="M222.504 71.332V57.04l-9.186 10.947z" clip-path="url(#pd37f9131a7)"/><path id="patch_552" d="M231.69 60.384v-14.29l-9.186 10.947z" clip-path="url(#pd37f9131a7)"/><path id="patch_553" d="m185.76 100.83 9.186-10.947-9.186-3.343z" clip-path="url(#pd37f9131a7)"/><path id="patch_554" d="m194.946 89.883 9.186-10.947-9.186-3.344z" clip-path="url(#pd37f9131a7)"/><path id="patch_555" d="m204.132 78.936 9.186-10.948-9.186-3.343z" clip-path="url(#pd37f9131a7)"/><path id="patch_556" d="m213.318 67.988 9.186-10.947-9.186-3.344z" clip-path="url(#pd37f9131a7)"/><path id="patch_557" d="m222.504 57.04 9.186-10.947-9.186-3.343z" clip-path="url(#pd37f9131a7)"/><path id="patch_558" d="M194.946 89.883v-14.29L185.76 86.54z" clip-path="url(#pd37f9131a7)"/><path id="patch_559" d="M204.132 78.936V64.645l-9.186 10.947z" clip-path="url(#pd37f9131a7)"/><path id="patch_560" d="M213.318 67.988v-14.29l-9.186 10.947z" clip-path="url(#pd37f9131a7)"/><path id="patch_561" d="M222.504 57.04V42.75l-9.186 10.947z" clip-path="url(#pd37f9131a7)"/><path id="patch_562" d="m185.76 86.54 9.186-10.948-9.186-3.343z" clip-path="url(#pd37f9131a7)"/><path id="patch_563" d="m194.946 75.592 9.186-10.947-9.186-3.344z" clip-path="url(#pd37f9131a7)"/><path id="patch_564" d="m204.132 64.645 9.186-10.948-9.186-3.343z" clip-path="url(#pd37f9131a7)"/><path id="patch_565" d="m213.318 53.697 9.186-10.947-9.186-3.344z" clip-path="url(#pd37f9131a7)"/><path id="patch_566" d="M194.946 75.592v-14.29l-9.186 10.947z" clip-path="url(#pd37f9131a7)"/><path id="patch_567" d="M204.132 64.645V50.354L194.946 61.3z" clip-path="url(#pd37f9131a7)"/><path id="patch_568" d="M213.318 53.697v-14.29l-9.186 10.947z" clip-path="url(#pd37f9131a7)"/><path id="patch_569" d="m185.76 72.249 9.186-10.948-9.186-3.343z" clip-path="url(#pd37f9131a7)"/><path id="patch_570" d="m194.946 61.301 9.186-10.947-9.186-3.344z" clip-path="url(#pd37f9131a7)"/><path id="patch_571" d="m204.132 50.354 9.186-10.948-9.186-3.343z" clip-path="url(#pd37f9131a7)"/><path id="patch_572" d="M194.946 61.301v-14.29l-9.186 10.947z" clip-path="url(#pd37f9131a7)"/><path id="patch_573" d="M204.132 50.354V36.063l-9.186 10.947z" clip-path="url(#pd37f9131a7)"/><path id="patch_574" d="m185.76 57.958 9.186-10.948-9.186-3.343z" clip-path="url(#pd37f9131a7)"/><path id="patch_575" d="m194.946 47.01 9.186-10.947-9.186-3.344z" clip-path="url(#pd37f9131a7)"/><path id="patch_576" d="M194.946 47.01V32.72l-9.186 10.947z" clip-path="url(#pd37f9131a7)"/><path id="patch_577" d="m185.76 43.667 9.186-10.948-9.186-3.343z" clip-path="url(#pd37f9131a7)"/></g></g><defs id="defs587"><clipPath id="pd37f9131a7"><path id="path584" d="M7.2 7.2h357.12v266.112H7.2z"/></clipPath></defs></svg>