<svg xmlns="http://www.w3.org/2000/svg" id="svg589" version="1.1" width="301.576" viewBox="0 0 226.182 222.76" height="297.013"><defs id="defs4"><style id="style2">*{stroke-linecap:butt;stroke-linejoin:round}</style></defs><g transform="translate(-72.669 -28.876)" id="figure_1"><g stroke="#000" fill="#ddd" id="axes_1"><path id="patch_2" d="M185.76 143.703v-14.29l-9.186 3.343z" clip-path="url(#pd37f9131a7)"/><path id="patch_3" d="M185.76 129.412v-14.29l-9.186 3.343z" clip-path="url(#pd37f9131a7)"/><path id="patch_4" d="M185.76 115.122V100.83l-9.186 3.343z" clip-path="url(#pd37f9131a7)"/><path id="patch_5" d="M185.76 100.83V86.54l-9.186 3.343z" clip-path="url(#pd37f9131a7)"/><path id="patch_6" d="M185.76 86.54V72.249l-9.186 3.343z" clip-path="url(#pd37f9131a7)"/><path id="patch_7" d="M185.76 72.249V57.958l-9.186 3.343z" clip-path="url(#pd37f9131a7)"/><path id="patch_8" d="M185.76 57.958V43.667l-9.186 3.343z" clip-path="url(#pd37f9131a7)"/><path id="patch_9" d="M185.76 43.667V29.376l-9.186 3.343z" clip-path="url(#pd37f9131a7)"/><path id="patch_10" d="M185.76 129.412l-9.186-10.947v14.29z" clip-path="url(#pd37f9131a7)"/><path id="patch_11" d="M185.76 115.122l-9.186-10.948v14.291z" clip-path="url(#pd37f9131a7)"/><path id="patch_12" d="M185.76 100.83l-9.186-10.947v14.291z" clip-path="url(#pd37f9131a7)"/><path id="patch_13" d="M185.76 86.54l-9.186-10.948v14.291z" clip-path="url(#pd37f9131a7)"/><path id="patch_14" d="M185.76 72.249L176.574 61.3v14.291z" clip-path="url(#pd37f9131a7)"/><path id="patch_15" d="M185.76 57.958l-9.186-10.948v14.291z" clip-path="url(#pd37f9131a7)"/><path id="patch_16" d="M185.76 43.667l-9.186-10.948V47.01z" clip-path="url(#pd37f9131a7)"/><path id="patch_17" d="M176.574 132.756v-14.291l-9.186 3.343z" clip-path="url(#pd37f9131a7)"/><path id="patch_18" d="M176.574 118.465v-14.29l-9.186 3.343z" clip-path="url(#pd37f9131a7)"/><path id="patch_19" d="M176.574 104.174v-14.29l-9.186 3.343z" clip-path="url(#pd37f9131a7)"/><path id="patch_20" d="M176.574 89.883v-14.29l-9.186 3.343z" clip-path="url(#pd37f9131a7)"/><path id="patch_21" d="M176.574 75.592v-14.29l-9.186 3.343z" clip-path="url(#pd37f9131a7)"/><path id="patch_22" d="M176.574 61.301v-14.29l-9.186 3.343z" clip-path="url(#pd37f9131a7)"/><path id="patch_23" d="M176.574 47.01V32.72l-9.186 3.343z" clip-path="url(#pd37f9131a7)"/><path id="patch_24" d="M176.574 118.465l-9.186-10.947v14.29z" clip-path="url(#pd37f9131a7)"/><path id="patch_25" d="M176.574 104.174l-9.186-10.947v14.29z" clip-path="url(#pd37f9131a7)"/><path id="patch_26" d="M176.574 89.883l-9.186-10.947v14.29z" clip-path="url(#pd37f9131a7)"/><path id="patch_27" d="M176.574 75.592l-9.186-10.947v14.29z" clip-path="url(#pd37f9131a7)"/><path id="patch_28" d="M176.574 61.301l-9.186-10.947v14.29z" clip-path="url(#pd37f9131a7)"/><path id="patch_29" d="M176.574 47.01l-9.186-10.947v14.29z" clip-path="url(#pd37f9131a7)"/><path id="patch_30" d="M167.388 121.808v-14.29l-9.186 3.343z" clip-path="url(#pd37f9131a7)"/><path id="patch_31" d="M167.388 107.518V93.227l-9.186 3.343z" clip-path="url(#pd37f9131a7)"/><path id="patch_32" d="M167.388 93.227V78.936l-9.186 3.343z" clip-path="url(#pd37f9131a7)"/><path id="patch_33" d="M167.388 78.936V64.645l-9.186 3.343z" clip-path="url(#pd37f9131a7)"/><path id="patch_34" d="M167.388 64.645V50.354l-9.186 3.343z" clip-path="url(#pd37f9131a7)"/><path id="patch_35" d="M167.388 50.354V36.063l-9.186 3.343z" clip-path="url(#pd37f9131a7)"/><path id="patch_36" d="M167.388 107.518l-9.186-10.948v14.29z" clip-path="url(#pd37f9131a7)"/><path id="patch_37" d="M167.388 93.227l-9.186-10.948V96.57z" clip-path="url(#pd37f9131a7)"/><path id="patch_38" d="M167.388 78.936l-9.186-10.948V82.28z" clip-path="url(#pd37f9131a7)"/><path id="patch_39" d="M167.388 64.645l-9.186-10.948v14.291z" clip-path="url(#pd37f9131a7)"/><path id="patch_40" d="M167.388 50.354l-9.186-10.948v14.291z" clip-path="url(#pd37f9131a7)"/><path id="patch_41" d="M158.202 110.86V96.57l-9.186 3.343z" clip-path="url(#pd37f9131a7)"/><path id="patch_42" d="M158.202 96.57V82.28l-9.186 3.343z" clip-path="url(#pd37f9131a7)"/><path id="patch_43" d="M158.202 82.28V67.987l-9.186 3.344z" clip-path="url(#pd37f9131a7)"/><path id="patch_44" d="M158.202 67.988v-14.29l-9.186 3.343z" clip-path="url(#pd37f9131a7)"/><path id="patch_45" d="M158.202 53.697v-14.29l-9.186 3.343z" clip-path="url(#pd37f9131a7)"/><path id="patch_46" d="M158.202 96.57l-9.186-10.947v14.29z" clip-path="url(#pd37f9131a7)"/><path id="patch_47" d="M158.202 82.28l-9.186-10.948v14.29z" clip-path="url(#pd37f9131a7)"/><path id="patch_48" d="M158.202 67.988l-9.186-10.947v14.29z" clip-path="url(#pd37f9131a7)"/><path id="patch_49" d="M158.202 53.697l-9.186-10.947v14.29z" clip-path="url(#pd37f9131a7)"/><path id="patch_50" d="M149.016 99.913v-14.29l-9.186 3.343z" clip-path="url(#pd37f9131a7)"/><path id="patch_51" d="M149.016 85.623V71.332l-9.186 3.343z" clip-path="url(#pd37f9131a7)"/><path id="patch_52" d="M149.016 71.332V57.04l-9.186 3.343z" clip-path="url(#pd37f9131a7)"/><path id="patch_53" d="M149.016 57.04V42.75l-9.186 3.343z" clip-path="url(#pd37f9131a7)"/><path id="patch_54" d="M149.016 85.623l-9.186-10.948v14.291z" clip-path="url(#pd37f9131a7)"/><path id="patch_55" d="M149.016 71.332l-9.186-10.948v14.291z" clip-path="url(#pd37f9131a7)"/><path id="patch_56" d="M149.016 57.04l-9.186-10.947v14.291z" clip-path="url(#pd37f9131a7)"/><path id="patch_57" d="M139.83 88.966v-14.29l-9.186 3.342z" clip-path="url(#pd37f9131a7)"/><path id="patch_58" d="M139.83 74.675v-14.29l-9.186 3.343z" clip-path="url(#pd37f9131a7)"/><path id="patch_59" d="M139.83 60.384v-14.29l-9.186 3.343z" clip-path="url(#pd37f9131a7)"/><path id="patch_60" d="M139.83 74.675l-9.186-10.947v14.29z" clip-path="url(#pd37f9131a7)"/><path id="patch_61" d="M139.83 60.384l-9.186-10.947v14.29z" clip-path="url(#pd37f9131a7)"/><path id="patch_62" d="M130.644 78.018v-14.29l-9.186 3.343z" clip-path="url(#pd37f9131a7)"/><path id="patch_63" d="M130.644 63.728V49.437l-9.186 3.343z" clip-path="url(#pd37f9131a7)"/><path id="patch_64" d="M130.644 63.728l-9.186-10.948v14.291z" clip-path="url(#pd37f9131a7)"/><path id="patch_65" d="M121.458 67.071v-14.29l-9.186 3.343z" clip-path="url(#pd37f9131a7)"/><path id="patch_66" d="M185.76 143.703l-9.186-10.947-4.888 8.466z" clip-path="url(#pd37f9131a7)"/><path id="patch_67" d="M176.574 132.756l-9.186-10.948-4.888 8.466z" clip-path="url(#pd37f9131a7)"/><path id="patch_68" d="M167.388 121.808l-9.186-10.947-4.888 8.466z" clip-path="url(#pd37f9131a7)"/><path id="patch_69" d="M158.202 110.86l-9.186-10.947-4.888 8.466z" clip-path="url(#pd37f9131a7)"/><path id="patch_70" d="M149.016 99.913l-9.186-10.947-4.888 8.466z" clip-path="url(#pd37f9131a7)"/><path id="patch_71" d="M139.83 88.966l-9.186-10.948-4.888 8.466z" clip-path="url(#pd37f9131a7)"/><path id="patch_72" d="M130.644 78.018l-9.186-10.947-4.888 8.466z" clip-path="url(#pd37f9131a7)"/><path id="patch_73" d="M121.458 67.071l-9.186-10.947-4.888 8.465z" clip-path="url(#pd37f9131a7)"/><path id="patch_74" d="M176.574 132.756l-14.074-2.482 9.186 10.948z" clip-path="url(#pd37f9131a7)"/><path id="patch_75" d="M167.388 121.808l-14.074-2.481 9.186 10.947z" clip-path="url(#pd37f9131a7)"/><path id="patch_76" d="M158.202 110.86l-14.074-2.48 9.186 10.947z" clip-path="url(#pd37f9131a7)"/><path id="patch_77" d="M149.016 99.913l-14.074-2.481 9.186 10.947z" clip-path="url(#pd37f9131a7)"/><path id="patch_78" d="M139.83 88.966l-14.074-2.482 9.186 10.948z" clip-path="url(#pd37f9131a7)"/><path id="patch_79" d="M130.644 78.018l-14.074-2.481 9.186 10.947z" clip-path="url(#pd37f9131a7)"/><path id="patch_80" d="M121.458 67.071l-14.074-2.482 9.186 10.948z" clip-path="url(#pd37f9131a7)"/><path id="patch_81" d="M171.686 141.222l-9.186-10.948-4.888 8.466z" clip-path="url(#pd37f9131a7)"/><path id="patch_82" d="M162.5 130.274l-9.186-10.947-4.888 8.466z" clip-path="url(#pd37f9131a7)"/><path id="patch_83" d="M153.314 119.327l-9.186-10.948-4.888 8.466z" clip-path="url(#pd37f9131a7)"/><path id="patch_84" d="M144.128 108.38l-9.186-10.948-4.888 8.466z" clip-path="url(#pd37f9131a7)"/><path id="patch_85" d="M134.942 97.432l-9.186-10.948-4.888 8.466z" clip-path="url(#pd37f9131a7)"/><path id="patch_86" d="M125.756 86.484l-9.186-10.947-4.888 8.466z" clip-path="url(#pd37f9131a7)"/><path id="patch_87" d="M116.57 75.537l-9.186-10.948-4.888 8.466z" clip-path="url(#pd37f9131a7)"/><path id="patch_88" d="M162.5 130.274l-14.074-2.481 9.186 10.947z" clip-path="url(#pd37f9131a7)"/><path id="patch_89" d="M153.314 119.327l-14.074-2.482 9.186 10.948z" clip-path="url(#pd37f9131a7)"/><path id="patch_90" d="M144.128 108.38l-14.074-2.482 9.186 10.947z" clip-path="url(#pd37f9131a7)"/><path id="patch_91" d="M134.942 97.432l-14.074-2.482 9.186 10.948z" clip-path="url(#pd37f9131a7)"/><path id="patch_92" d="M125.756 86.484l-14.074-2.481 9.186 10.947z" clip-path="url(#pd37f9131a7)"/><path id="patch_93" d="M116.57 75.537l-14.074-2.482 9.186 10.948z" clip-path="url(#pd37f9131a7)"/><path id="patch_94" d="M157.612 138.74l-9.186-10.947-4.887 8.466z" clip-path="url(#pd37f9131a7)"/><path id="patch_95" d="M148.426 127.793l-9.186-10.948-4.887 8.466z" clip-path="url(#pd37f9131a7)"/><path id="patch_96" d="M139.24 116.845l-9.186-10.947-4.887 8.466z" clip-path="url(#pd37f9131a7)"/><path id="patch_97" d="M130.054 105.898l-9.186-10.948-4.888 8.466z" clip-path="url(#pd37f9131a7)"/><path id="patch_98" d="M120.868 94.95l-9.186-10.947-4.888 8.466z" clip-path="url(#pd37f9131a7)"/><path id="patch_99" d="M111.682 84.003l-9.186-10.948-4.888 8.466z" clip-path="url(#pd37f9131a7)"/><path id="patch_100" d="M148.426 127.793l-14.073-2.482 9.186 10.948z" clip-path="url(#pd37f9131a7)"/><path id="patch_101" d="M139.24 116.845l-14.073-2.481 9.186 10.947z" clip-path="url(#pd37f9131a7)"/><path id="patch_102" d="M130.054 105.898l-14.074-2.482 9.187 10.948z" clip-path="url(#pd37f9131a7)"/><path id="patch_103" d="M120.868 94.95l-14.074-2.481 9.186 10.947z" clip-path="url(#pd37f9131a7)"/><path id="patch_104" d="M111.682 84.003L97.608 81.52l9.186 10.948z" clip-path="url(#pd37f9131a7)"/><path id="patch_105" d="M143.539 136.259l-9.186-10.948-4.888 8.466z" clip-path="url(#pd37f9131a7)"/><path id="patch_106" d="M134.353 125.311l-9.186-10.947-4.888 8.466z" clip-path="url(#pd37f9131a7)"/><path id="patch_107" d="M125.167 114.364l-9.187-10.948-4.887 8.466z" clip-path="url(#pd37f9131a7)"/><path id="patch_108" d="M115.98 103.416l-9.186-10.947-4.887 8.466z" clip-path="url(#pd37f9131a7)"/><path id="patch_109" d="M106.794 92.469L97.608 81.52l-4.887 8.466z" clip-path="url(#pd37f9131a7)"/><path id="patch_110" d="M134.353 125.311l-14.074-2.481 9.186 10.947z" clip-path="url(#pd37f9131a7)"/><path id="patch_111" d="M125.167 114.364l-14.074-2.482 9.186 10.948z" clip-path="url(#pd37f9131a7)"/><path id="patch_112" d="M115.98 103.416l-14.073-2.481 9.186 10.947z" clip-path="url(#pd37f9131a7)"/><path id="patch_113" d="M106.794 92.469l-14.073-2.482 9.186 10.948z" clip-path="url(#pd37f9131a7)"/><path id="patch_114" d="M129.465 133.777l-9.186-10.947-4.888 8.465z" clip-path="url(#pd37f9131a7)"/><path id="patch_115" d="M120.279 122.83l-9.186-10.948-4.888 8.466z" clip-path="url(#pd37f9131a7)"/><path id="patch_116" d="M111.093 111.882l-9.186-10.947-4.888 8.465z" clip-path="url(#pd37f9131a7)"/><path id="patch_117" d="M101.907 100.935L92.72 89.987l-4.888 8.466z" clip-path="url(#pd37f9131a7)"/><path id="patch_118" d="M120.279 122.83l-14.074-2.482 9.186 10.947z" clip-path="url(#pd37f9131a7)"/><path id="patch_119" d="M111.093 111.882L97.019 109.4l9.186 10.948z" clip-path="url(#pd37f9131a7)"/><path id="patch_120" d="M101.907 100.935l-14.074-2.482 9.186 10.947z" clip-path="url(#pd37f9131a7)"/><path id="patch_121" d="M115.39 131.295l-9.185-10.947-4.888 8.466z" clip-path="url(#pd37f9131a7)"/><path id="patch_122" d="M106.205 120.348L97.019 109.4l-4.888 8.466z" clip-path="url(#pd37f9131a7)"/><path id="patch_123" d="M97.019 109.4l-9.186-10.947-4.888 8.466z" clip-path="url(#pd37f9131a7)"/><path id="patch_124" d="M106.205 120.348l-14.074-2.482 9.186 10.948z" clip-path="url(#pd37f9131a7)"/><path id="patch_125" d="M97.019 109.4l-14.074-2.481 9.186 10.947z" clip-path="url(#pd37f9131a7)"/><path id="patch_126" d="M101.317 128.814l-9.186-10.948-4.888 8.466z" clip-path="url(#pd37f9131a7)"/><path id="patch_127" d="M92.131 117.866l-9.186-10.947-4.888 8.466z" clip-path="url(#pd37f9131a7)"/><path id="patch_128" d="M92.131 117.866l-14.074-2.481 9.186 10.947z" clip-path="url(#pd37f9131a7)"/><path id="patch_129" d="M87.243 126.332l-9.186-10.947-4.888 8.466z" clip-path="url(#pd37f9131a7)"/><path id="patch_130" d="M185.76 143.703l-14.074-2.481 1.698 9.627z" clip-path="url(#pd37f9131a7)"/><path id="patch_131" d="M171.686 141.222l-14.074-2.482 1.698 9.627z" clip-path="url(#pd37f9131a7)"/><path id="patch_132" d="M157.612 138.74l-14.073-2.481 1.697 9.627z" clip-path="url(#pd37f9131a7)"/><path id="patch_133" d="M143.539 136.259l-14.074-2.482 1.697 9.627z" clip-path="url(#pd37f9131a7)"/><path id="patch_134" d="M129.465 133.777l-14.074-2.482 1.697 9.627z" clip-path="url(#pd37f9131a7)"/><path id="patch_135" d="M115.39 131.295l-14.073-2.481 1.698 9.627z" clip-path="url(#pd37f9131a7)"/><path id="patch_136" d="M101.317 128.814l-14.074-2.482 1.698 9.627z" clip-path="url(#pd37f9131a7)"/><path id="patch_137" d="M87.243 126.332l-14.074-2.481 1.698 9.627z" clip-path="url(#pd37f9131a7)"/><path id="patch_138" d="M171.686 141.222l-12.376 7.145 14.074 2.482z" clip-path="url(#pd37f9131a7)"/><path id="patch_139" d="M157.612 138.74l-12.376 7.146 14.074 2.481z" clip-path="url(#pd37f9131a7)"/><path id="patch_140" d="M143.539 136.259l-12.377 7.145 14.074 2.482z" clip-path="url(#pd37f9131a7)"/><path id="patch_141" d="M129.465 133.777l-12.377 7.145 14.074 2.482z" clip-path="url(#pd37f9131a7)"/><path id="patch_142" d="M115.39 131.295l-12.375 7.146 14.073 2.481z" clip-path="url(#pd37f9131a7)"/><path id="patch_143" d="M101.317 128.814l-12.376 7.145 14.074 2.482z" clip-path="url(#pd37f9131a7)"/><path id="patch_144" d="M87.243 126.332l-12.376 7.146 14.074 2.481z" clip-path="url(#pd37f9131a7)"/><path id="patch_145" d="M173.384 150.849l-14.074-2.482 1.697 9.627z" clip-path="url(#pd37f9131a7)"/><path id="patch_146" d="M159.31 148.367l-14.074-2.481 1.698 9.627z" clip-path="url(#pd37f9131a7)"/><path id="patch_147" d="M145.236 145.886l-14.074-2.482 1.698 9.627z" clip-path="url(#pd37f9131a7)"/><path id="patch_148" d="M131.162 143.404l-14.074-2.482 1.698 9.628z" clip-path="url(#pd37f9131a7)"/><path id="patch_149" d="M117.088 140.922l-14.073-2.481 1.697 9.627z" clip-path="url(#pd37f9131a7)"/><path id="patch_150" d="M103.015 138.44l-14.074-2.48 1.697 9.626z" clip-path="url(#pd37f9131a7)"/><path id="patch_151" d="M88.94 135.96l-14.073-2.482 1.698 9.627z" clip-path="url(#pd37f9131a7)"/><path id="patch_152" d="M159.31 148.367l-12.376 7.146 14.073 2.481z" clip-path="url(#pd37f9131a7)"/><path id="patch_153" d="M145.236 145.886l-12.376 7.145 14.074 2.482z" clip-path="url(#pd37f9131a7)"/><path id="patch_154" d="M131.162 143.404l-12.376 7.146 14.074 2.481z" clip-path="url(#pd37f9131a7)"/><path id="patch_155" d="M117.088 140.922l-12.376 7.146 14.074 2.482z" clip-path="url(#pd37f9131a7)"/><path id="patch_156" d="M103.015 138.44l-12.377 7.146 14.074 2.482z" clip-path="url(#pd37f9131a7)"/><path id="patch_157" d="M88.94 135.96l-12.375 7.145 14.073 2.481z" clip-path="url(#pd37f9131a7)"/><path id="patch_158" d="M161.007 157.994l-14.073-2.481 1.697 9.627z" clip-path="url(#pd37f9131a7)"/><path id="patch_159" d="M146.934 155.513l-14.074-2.482 1.697 9.627z" clip-path="url(#pd37f9131a7)"/><path id="patch_160" d="M132.86 153.031l-14.074-2.481 1.697 9.627z" clip-path="url(#pd37f9131a7)"/><path id="patch_161" d="M118.786 150.55l-14.074-2.482 1.698 9.627z" clip-path="url(#pd37f9131a7)"/><path id="patch_162" d="M104.712 148.068l-14.074-2.482 1.698 9.627z" clip-path="url(#pd37f9131a7)"/><path id="patch_163" d="M90.638 145.586l-14.073-2.481 1.697 9.627z" clip-path="url(#pd37f9131a7)"/><path id="patch_164" d="M146.934 155.513l-12.377 7.145 14.074 2.482z" clip-path="url(#pd37f9131a7)"/><path id="patch_165" d="M132.86 153.031l-12.377 7.146 14.074 2.481z" clip-path="url(#pd37f9131a7)"/><path id="patch_166" d="M118.786 150.55l-12.376 7.145 14.073 2.482z" clip-path="url(#pd37f9131a7)"/><path id="patch_167" d="M104.712 148.068l-12.376 7.145 14.074 2.482z" clip-path="url(#pd37f9131a7)"/><path id="patch_168" d="M90.638 145.586l-12.376 7.146 14.074 2.481z" clip-path="url(#pd37f9131a7)"/><path id="patch_169" d="M148.631 165.14l-14.074-2.482 1.698 9.627z" clip-path="url(#pd37f9131a7)"/><path id="patch_170" d="M134.557 162.658l-14.074-2.481 1.698 9.627z" clip-path="url(#pd37f9131a7)"/><path id="patch_171" d="M120.483 160.177l-14.073-2.482 1.697 9.627z" clip-path="url(#pd37f9131a7)"/><path id="patch_172" d="M106.41 157.695l-14.074-2.482 1.697 9.627z" clip-path="url(#pd37f9131a7)"/><path id="patch_173" d="M92.336 155.213l-14.074-2.481 1.698 9.627z" clip-path="url(#pd37f9131a7)"/><path id="patch_174" d="M134.557 162.658l-12.376 7.146 14.074 2.481z" clip-path="url(#pd37f9131a7)"/><path id="patch_175" d="M120.483 160.177l-12.376 7.145 14.074 2.482z" clip-path="url(#pd37f9131a7)"/><path id="patch_176" d="M106.41 157.695l-12.377 7.145 14.074 2.482z" clip-path="url(#pd37f9131a7)"/><path id="patch_177" d="M92.336 155.213L79.96 162.36l14.073 2.481z" clip-path="url(#pd37f9131a7)"/><path id="patch_178" d="M136.255 172.285l-14.074-2.481 1.697 9.627z" clip-path="url(#pd37f9131a7)"/><path id="patch_179" d="M122.181 169.804l-14.074-2.482 1.698 9.627z" clip-path="url(#pd37f9131a7)"/><path id="patch_180" d="M108.107 167.322l-14.074-2.482 1.698 9.628z" clip-path="url(#pd37f9131a7)"/><path id="patch_181" d="M94.033 164.84l-14.073-2.48 1.697 9.627z" clip-path="url(#pd37f9131a7)"/><path id="patch_182" d="M122.181 169.804l-12.376 7.145 14.073 2.482z" clip-path="url(#pd37f9131a7)"/><path id="patch_183" d="M108.107 167.322l-12.376 7.146 14.074 2.481z" clip-path="url(#pd37f9131a7)"/><path id="patch_184" d="M94.033 164.84l-12.376 7.146 14.074 2.482z" clip-path="url(#pd37f9131a7)"/><path id="patch_185" d="M123.878 179.43l-14.073-2.48 1.697 9.626z" clip-path="url(#pd37f9131a7)"/><path id="patch_186" d="M109.805 176.95l-14.074-2.482 1.697 9.627z" clip-path="url(#pd37f9131a7)"/><path id="patch_187" d="M95.73 174.468l-14.073-2.482 1.698 9.627z" clip-path="url(#pd37f9131a7)"/><path id="patch_188" d="M109.805 176.95l-12.377 7.145 14.074 2.481z" clip-path="url(#pd37f9131a7)"/><path id="patch_189" d="M95.73 174.468l-12.375 7.145 14.073 2.482z" clip-path="url(#pd37f9131a7)"/><path id="patch_190" d="M111.502 186.576l-14.074-2.481 1.698 9.627z" clip-path="url(#pd37f9131a7)"/><path id="patch_191" d="M97.428 184.095l-14.073-2.482 1.697 9.627z" clip-path="url(#pd37f9131a7)"/><path id="patch_192" d="M97.428 184.095l-12.376 7.145 14.074 2.482z" clip-path="url(#pd37f9131a7)"/><path id="patch_193" d="M99.126 193.722l-14.074-2.482 1.698 9.627z" clip-path="url(#pd37f9131a7)"/><path id="patch_194" d="M185.76 143.703l-12.376 7.146 7.488 6.283z" clip-path="url(#pd37f9131a7)"/><path id="patch_195" d="M173.384 150.849l-12.377 7.145 7.489 6.284z" clip-path="url(#pd37f9131a7)"/><path id="patch_196" d="M161.007 157.994l-12.376 7.146 7.489 6.283z" clip-path="url(#pd37f9131a7)"/><path id="patch_197" d="M148.631 165.14l-12.376 7.145 7.488 6.284z" clip-path="url(#pd37f9131a7)"/><path id="patch_198" d="M136.255 172.285l-12.377 7.146 7.489 6.283z" clip-path="url(#pd37f9131a7)"/><path id="patch_199" d="M123.878 179.43l-12.376 7.146 7.489 6.284z" clip-path="url(#pd37f9131a7)"/><path id="patch_200" d="M111.502 186.576l-12.376 7.146 7.488 6.283z" clip-path="url(#pd37f9131a7)"/><path id="patch_201" d="M99.126 193.722l-12.376 7.145 7.488 6.284z" clip-path="url(#pd37f9131a7)"/><path id="patch_202" d="M173.384 150.849l-4.888 13.429 12.376-7.146z" clip-path="url(#pd37f9131a7)"/><path id="patch_203" d="M161.007 157.994l-4.887 13.43 12.376-7.146z" clip-path="url(#pd37f9131a7)"/><path id="patch_204" d="M148.631 165.14l-4.888 13.429 12.377-7.146z" clip-path="url(#pd37f9131a7)"/><path id="patch_205" d="M136.255 172.285l-4.888 13.43 12.376-7.146z" clip-path="url(#pd37f9131a7)"/><path id="patch_206" d="M123.878 179.43l-4.887 13.43 12.376-7.146z" clip-path="url(#pd37f9131a7)"/><path id="patch_207" d="M111.502 186.576l-4.888 13.43 12.377-7.146z" clip-path="url(#pd37f9131a7)"/><path id="patch_208" d="M99.126 193.722l-4.888 13.429 12.376-7.146z" clip-path="url(#pd37f9131a7)"/><path id="patch_209" d="M180.872 157.132l-12.376 7.146 7.488 6.284z" clip-path="url(#pd37f9131a7)"/><path id="patch_210" d="M168.496 164.278l-12.376 7.145 7.488 6.284z" clip-path="url(#pd37f9131a7)"/><path id="patch_211" d="M156.12 171.423l-12.377 7.146 7.489 6.283z" clip-path="url(#pd37f9131a7)"/><path id="patch_212" d="M143.743 178.569l-12.376 7.145 7.489 6.284z" clip-path="url(#pd37f9131a7)"/><path id="patch_213" d="M131.367 185.714l-12.376 7.146 7.488 6.283z" clip-path="url(#pd37f9131a7)"/><path id="patch_214" d="M118.99 192.86l-12.376 7.145 7.489 6.284z" clip-path="url(#pd37f9131a7)"/><path id="patch_215" d="M106.614 200.005l-12.376 7.146 7.489 6.283z" clip-path="url(#pd37f9131a7)"/><path id="patch_216" d="M168.496 164.278l-4.888 13.429 12.376-7.145z" clip-path="url(#pd37f9131a7)"/><path id="patch_217" d="M156.12 171.423l-4.888 13.43 12.376-7.146z" clip-path="url(#pd37f9131a7)"/><path id="patch_218" d="M143.743 178.569l-4.887 13.429 12.376-7.146z" clip-path="url(#pd37f9131a7)"/><path id="patch_219" d="M131.367 185.714l-4.888 13.43 12.377-7.146z" clip-path="url(#pd37f9131a7)"/><path id="patch_220" d="M118.99 192.86l-4.887 13.429 12.376-7.146z" clip-path="url(#pd37f9131a7)"/><path id="patch_221" d="M106.614 200.005l-4.887 13.43 12.376-7.146z" clip-path="url(#pd37f9131a7)"/><path id="patch_222" d="M175.984 170.562l-12.376 7.145 7.489 6.284z" clip-path="url(#pd37f9131a7)"/><path id="patch_223" d="M163.608 177.707l-12.376 7.145 7.488 6.284z" clip-path="url(#pd37f9131a7)"/><path id="patch_224" d="M151.232 184.852l-12.376 7.146 7.488 6.284z" clip-path="url(#pd37f9131a7)"/><path id="patch_225" d="M138.856 191.998l-12.377 7.145 7.489 6.284z" clip-path="url(#pd37f9131a7)"/><path id="patch_226" d="M126.48 199.143l-12.377 7.146 7.488 6.283z" clip-path="url(#pd37f9131a7)"/><path id="patch_227" d="M114.103 206.289l-12.376 7.145 7.488 6.284z" clip-path="url(#pd37f9131a7)"/><path id="patch_228" d="M163.608 177.707l-4.888 13.43 12.377-7.146z" clip-path="url(#pd37f9131a7)"/><path id="patch_229" d="M151.232 184.852l-4.888 13.43 12.376-7.146z" clip-path="url(#pd37f9131a7)"/><path id="patch_230" d="M138.856 191.998l-4.888 13.429 12.376-7.145z" clip-path="url(#pd37f9131a7)"/><path id="patch_231" d="M126.48 199.143l-4.889 13.43 12.377-7.146z" clip-path="url(#pd37f9131a7)"/><path id="patch_232" d="M114.103 206.289l-4.888 13.429 12.376-7.146z" clip-path="url(#pd37f9131a7)"/><path id="patch_233" d="M171.097 183.99l-12.377 7.146 7.489 6.284z" clip-path="url(#pd37f9131a7)"/><path id="patch_234" d="M158.72 191.136l-12.376 7.146 7.489 6.283z" clip-path="url(#pd37f9131a7)"/><path id="patch_235" d="M146.344 198.282l-12.376 7.145 7.488 6.284z" clip-path="url(#pd37f9131a7)"/><path id="patch_236" d="M133.968 205.427l-12.377 7.145 7.489 6.284z" clip-path="url(#pd37f9131a7)"/><path id="patch_237" d="M121.591 212.572l-12.376 7.146 7.489 6.284z" clip-path="url(#pd37f9131a7)"/><path id="patch_238" d="M158.72 191.136l-4.887 13.43 12.376-7.146z" clip-path="url(#pd37f9131a7)"/><path id="patch_239" d="M146.344 198.282l-4.888 13.429 12.377-7.146z" clip-path="url(#pd37f9131a7)"/><path id="patch_240" d="M133.968 205.427l-4.888 13.43 12.376-7.146z" clip-path="url(#pd37f9131a7)"/><path id="patch_241" d="M121.591 212.572l-4.887 13.43 12.376-7.146z" clip-path="url(#pd37f9131a7)"/><path id="patch_242" d="M166.209 197.42l-12.376 7.145 7.488 6.284z" clip-path="url(#pd37f9131a7)"/><path id="patch_243" d="M153.833 204.565l-12.377 7.146 7.489 6.283z" clip-path="url(#pd37f9131a7)"/><path id="patch_244" d="M141.456 211.71l-12.376 7.146 7.488 6.284z" clip-path="url(#pd37f9131a7)"/><path id="patch_245" d="M129.08 218.856l-12.376 7.146 7.488 6.283z" clip-path="url(#pd37f9131a7)"/><path id="patch_246" d="M153.833 204.565l-4.888 13.43 12.376-7.146z" clip-path="url(#pd37f9131a7)"/><path id="patch_247" d="M141.456 211.71l-4.888 13.43 12.377-7.146z" clip-path="url(#pd37f9131a7)"/><path id="patch_248" d="M129.08 218.856l-4.888 13.43 12.376-7.146z" clip-path="url(#pd37f9131a7)"/><path id="patch_249" d="M161.321 210.849l-12.376 7.145 7.488 6.284z" clip-path="url(#pd37f9131a7)"/><path id="patch_250" d="M148.945 217.994l-12.377 7.146 7.489 6.283z" clip-path="url(#pd37f9131a7)"/><path id="patch_251" d="M136.568 225.14l-12.376 7.145 7.489 6.284z" clip-path="url(#pd37f9131a7)"/><path id="patch_252" d="M148.945 217.994l-4.888 13.43 12.376-7.146z" clip-path="url(#pd37f9131a7)"/><path id="patch_253" d="M136.568 225.14l-4.887 13.429 12.376-7.146z" clip-path="url(#pd37f9131a7)"/><path id="patch_254" d="M156.433 224.278l-12.376 7.145 7.489 6.284z" clip-path="url(#pd37f9131a7)"/><path id="patch_255" d="M144.057 231.423l-12.376 7.146 7.488 6.283z" clip-path="url(#pd37f9131a7)"/><path id="patch_256" d="M144.057 231.423l-4.888 13.43 12.377-7.146z" clip-path="url(#pd37f9131a7)"/><path id="patch_257" d="M151.546 237.707l-12.377 7.145 7.489 6.284z" clip-path="url(#pd37f9131a7)"/><path id="patch_258" d="M185.76 143.703l-4.888 13.43h9.776z" clip-path="url(#pd37f9131a7)"/><path id="patch_259" d="M180.872 157.132l-4.888 13.43h9.776z" clip-path="url(#pd37f9131a7)"/><path id="patch_260" d="M175.984 170.562l-4.887 13.429h9.775z" clip-path="url(#pd37f9131a7)"/><path id="patch_261" d="M171.097 183.99l-4.888 13.43h9.775z" clip-path="url(#pd37f9131a7)"/><path id="patch_262" d="M166.209 197.42l-4.888 13.429h9.776z" clip-path="url(#pd37f9131a7)"/><path id="patch_263" d="M161.321 210.849l-4.888 13.429h9.776z" clip-path="url(#pd37f9131a7)"/><path id="patch_264" d="M156.433 224.278l-4.887 13.429h9.775z" clip-path="url(#pd37f9131a7)"/><path id="patch_265" d="M151.546 237.707l-4.888 13.429h9.775z" clip-path="url(#pd37f9131a7)"/><path id="patch_266" d="M180.872 157.132l4.888 13.43 4.888-13.43z" clip-path="url(#pd37f9131a7)"/><path id="patch_267" d="M175.984 170.562l4.888 13.429 4.888-13.43z" clip-path="url(#pd37f9131a7)"/><path id="patch_268" d="M171.097 183.99l4.887 13.43 4.888-13.43z" clip-path="url(#pd37f9131a7)"/><path id="patch_269" d="M166.209 197.42l4.888 13.429 4.887-13.43z" clip-path="url(#pd37f9131a7)"/><path id="patch_270" d="M161.321 210.849l4.888 13.429 4.888-13.43z" clip-path="url(#pd37f9131a7)"/><path id="patch_271" d="M156.433 224.278l4.888 13.429 4.888-13.43z" clip-path="url(#pd37f9131a7)"/><path id="patch_272" d="M151.546 237.707l4.887 13.429 4.888-13.43z" clip-path="url(#pd37f9131a7)"/><path id="patch_273" d="M190.648 157.132l-4.888 13.43h9.776z" clip-path="url(#pd37f9131a7)"/><path id="patch_274" d="M185.76 170.562l-4.888 13.429h9.776z" clip-path="url(#pd37f9131a7)"/><path id="patch_275" d="M180.872 183.99l-4.888 13.43h9.776z" clip-path="url(#pd37f9131a7)"/><path id="patch_276" d="M175.984 197.42l-4.887 13.429h9.775z" clip-path="url(#pd37f9131a7)"/><path id="patch_277" d="M171.097 210.849l-4.888 13.429h9.775z" clip-path="url(#pd37f9131a7)"/><path id="patch_278" d="M166.209 224.278l-4.888 13.429h9.776z" clip-path="url(#pd37f9131a7)"/><path id="patch_279" d="M161.321 237.707l-4.888 13.429h9.776z" clip-path="url(#pd37f9131a7)"/><path id="patch_280" d="M185.76 170.562l4.888 13.429 4.888-13.43z" clip-path="url(#pd37f9131a7)"/><path id="patch_281" d="M180.872 183.99l4.888 13.43 4.888-13.43z" clip-path="url(#pd37f9131a7)"/><path id="patch_282" d="M175.984 197.42l4.888 13.429 4.888-13.43z" clip-path="url(#pd37f9131a7)"/><path id="patch_283" d="M171.097 210.849l4.887 13.429 4.888-13.43z" clip-path="url(#pd37f9131a7)"/><path id="patch_284" d="M166.209 224.278l4.888 13.429 4.887-13.43z" clip-path="url(#pd37f9131a7)"/><path id="patch_285" d="M161.321 237.707l4.888 13.429 4.888-13.43z" clip-path="url(#pd37f9131a7)"/><path id="patch_286" d="M195.536 170.562l-4.888 13.429h9.775z" clip-path="url(#pd37f9131a7)"/><path id="patch_287" d="M190.648 183.99l-4.888 13.43h9.776z" clip-path="url(#pd37f9131a7)"/><path id="patch_288" d="M185.76 197.42l-4.888 13.429h9.776z" clip-path="url(#pd37f9131a7)"/><path id="patch_289" d="M180.872 210.849l-4.888 13.429h9.776z" clip-path="url(#pd37f9131a7)"/><path id="patch_290" d="M175.984 224.278l-4.887 13.429h9.775z" clip-path="url(#pd37f9131a7)"/><path id="patch_291" d="M171.097 237.707l-4.888 13.429h9.775z" clip-path="url(#pd37f9131a7)"/><path id="patch_292" d="M190.648 183.99l4.888 13.43 4.887-13.43z" clip-path="url(#pd37f9131a7)"/><path id="patch_293" d="M185.76 197.42l4.888 13.429 4.888-13.43z" clip-path="url(#pd37f9131a7)"/><path id="patch_294" d="M180.872 210.849l4.888 13.429 4.888-13.43z" clip-path="url(#pd37f9131a7)"/><path id="patch_295" d="M175.984 224.278l4.888 13.429 4.888-13.43z" clip-path="url(#pd37f9131a7)"/><path id="patch_296" d="M171.097 237.707l4.887 13.429 4.888-13.43z" clip-path="url(#pd37f9131a7)"/><path id="patch_297" d="M200.423 183.99l-4.887 13.43h9.775z" clip-path="url(#pd37f9131a7)"/><path id="patch_298" d="M195.536 197.42l-4.888 13.429h9.775z" clip-path="url(#pd37f9131a7)"/><path id="patch_299" d="M190.648 210.849l-4.888 13.429h9.776z" clip-path="url(#pd37f9131a7)"/><path id="patch_300" d="M185.76 224.278l-4.888 13.429h9.776z" clip-path="url(#pd37f9131a7)"/><path id="patch_301" d="M180.872 237.707l-4.888 13.429h9.776z" clip-path="url(#pd37f9131a7)"/><path id="patch_302" d="M195.536 197.42l4.887 13.429 4.888-13.43z" clip-path="url(#pd37f9131a7)"/><path id="patch_303" d="M190.648 210.849l4.888 13.429 4.887-13.43z" clip-path="url(#pd37f9131a7)"/><path id="patch_304" d="M185.76 224.278l4.888 13.429 4.888-13.43z" clip-path="url(#pd37f9131a7)"/><path id="patch_305" d="M180.872 237.707l4.888 13.429 4.888-13.43z" clip-path="url(#pd37f9131a7)"/><path id="patch_306" d="M205.311 197.42l-4.888 13.429h9.776z" clip-path="url(#pd37f9131a7)"/><path id="patch_307" d="M200.423 210.849l-4.887 13.429h9.775z" clip-path="url(#pd37f9131a7)"/><path id="patch_308" d="M195.536 224.278l-4.888 13.429h9.775z" clip-path="url(#pd37f9131a7)"/><path id="patch_309" d="M190.648 237.707l-4.888 13.429h9.776z" clip-path="url(#pd37f9131a7)"/><path id="patch_310" d="M200.423 210.849l4.888 13.429 4.888-13.43z" clip-path="url(#pd37f9131a7)"/><path id="patch_311" d="M195.536 224.278l4.887 13.429 4.888-13.43z" clip-path="url(#pd37f9131a7)"/><path id="patch_312" d="M190.648 237.707l4.888 13.429 4.887-13.43z" clip-path="url(#pd37f9131a7)"/><path id="patch_313" d="M210.199 210.849l-4.888 13.429h9.776z" clip-path="url(#pd37f9131a7)"/><path id="patch_314" d="M205.311 224.278l-4.888 13.429h9.776z" clip-path="url(#pd37f9131a7)"/><path id="patch_315" d="M200.423 237.707l-4.887 13.429h9.775z" clip-path="url(#pd37f9131a7)"/><path id="patch_316" d="M205.311 224.278l4.888 13.429 4.888-13.43z" clip-path="url(#pd37f9131a7)"/><path id="patch_317" d="M200.423 237.707l4.888 13.429 4.888-13.43z" clip-path="url(#pd37f9131a7)"/><path id="patch_318" d="M215.087 224.278l-4.888 13.429h9.775z" clip-path="url(#pd37f9131a7)"/><path id="patch_319" d="M210.199 237.707l-4.888 13.429h9.776z" clip-path="url(#pd37f9131a7)"/><path id="patch_320" d="M210.199 237.707l4.888 13.429 4.887-13.43z" clip-path="url(#pd37f9131a7)"/><path id="patch_321" d="M219.974 237.707l-4.887 13.429h9.775z" clip-path="url(#pd37f9131a7)"/><path id="patch_322" d="M185.76 143.703l4.888 13.43 7.488-6.284z" clip-path="url(#pd37f9131a7)"/><path id="patch_323" d="M190.648 157.132l4.888 13.43 7.488-6.284z" clip-path="url(#pd37f9131a7)"/><path id="patch_324" d="M195.536 170.562l4.887 13.429 7.489-6.284z" clip-path="url(#pd37f9131a7)"/><path id="patch_325" d="M200.423 183.99l4.888 13.43 7.489-6.284z" clip-path="url(#pd37f9131a7)"/><path id="patch_326" d="M205.311 197.42l4.888 13.429 7.488-6.284z" clip-path="url(#pd37f9131a7)"/><path id="patch_327" d="M210.199 210.849l4.888 13.429 7.488-6.284z" clip-path="url(#pd37f9131a7)"/><path id="patch_328" d="M215.087 224.278l4.887 13.429 7.489-6.284z" clip-path="url(#pd37f9131a7)"/><path id="patch_329" d="M219.974 237.707l4.888 13.429 7.489-6.284z" clip-path="url(#pd37f9131a7)"/><path id="patch_330" d="M190.648 157.132l12.376 7.146-4.888-13.43z" clip-path="url(#pd37f9131a7)"/><path id="patch_331" d="M195.536 170.562l12.376 7.145-4.888-13.43z" clip-path="url(#pd37f9131a7)"/><path id="patch_332" d="M200.423 183.99l12.377 7.146-4.888-13.429z" clip-path="url(#pd37f9131a7)"/><path id="patch_333" d="M205.311 197.42l12.376 7.145-4.887-13.429z" clip-path="url(#pd37f9131a7)"/><path id="patch_334" d="M210.199 210.849l12.376 7.145-4.888-13.429z" clip-path="url(#pd37f9131a7)"/><path id="patch_335" d="M215.087 224.278l12.376 7.145-4.888-13.429z" clip-path="url(#pd37f9131a7)"/><path id="patch_336" d="M219.974 237.707l12.377 7.145-4.888-13.429z" clip-path="url(#pd37f9131a7)"/><path id="patch_337" d="M198.136 150.849l4.888 13.429 7.489-6.284z" clip-path="url(#pd37f9131a7)"/><path id="patch_338" d="M203.024 164.278l4.888 13.429 7.488-6.284z" clip-path="url(#pd37f9131a7)"/><path id="patch_339" d="M207.912 177.707l4.888 13.43 7.488-6.285z" clip-path="url(#pd37f9131a7)"/><path id="patch_340" d="M212.8 191.136l4.887 13.43 7.489-6.284z" clip-path="url(#pd37f9131a7)"/><path id="patch_341" d="M217.687 204.565l4.888 13.43 7.489-6.284z" clip-path="url(#pd37f9131a7)"/><path id="patch_342" d="M222.575 217.994l4.888 13.43 7.489-6.284z" clip-path="url(#pd37f9131a7)"/><path id="patch_343" d="M227.463 231.423l4.888 13.43 7.488-6.284z" clip-path="url(#pd37f9131a7)"/><path id="patch_344" d="M203.024 164.278l12.376 7.145-4.887-13.429z" clip-path="url(#pd37f9131a7)"/><path id="patch_345" d="M207.912 177.707l12.376 7.145-4.888-13.429z" clip-path="url(#pd37f9131a7)"/><path id="patch_346" d="M212.8 191.136l12.376 7.146-4.888-13.43z" clip-path="url(#pd37f9131a7)"/><path id="patch_347" d="M217.687 204.565l12.377 7.146-4.888-13.43z" clip-path="url(#pd37f9131a7)"/><path id="patch_348" d="M222.575 217.994l12.377 7.146-4.888-13.43z" clip-path="url(#pd37f9131a7)"/><path id="patch_349" d="M227.463 231.423l12.376 7.146-4.887-13.43z" clip-path="url(#pd37f9131a7)"/><path id="patch_350" d="M210.513 157.994l4.887 13.43 7.489-6.284z" clip-path="url(#pd37f9131a7)"/><path id="patch_351" d="M215.4 171.423l4.888 13.43 7.489-6.284z" clip-path="url(#pd37f9131a7)"/><path id="patch_352" d="M220.288 184.852l4.888 13.43 7.488-6.284z" clip-path="url(#pd37f9131a7)"/><path id="patch_353" d="M225.176 198.282l4.888 13.429 7.488-6.284z" clip-path="url(#pd37f9131a7)"/><path id="patch_354" d="M230.064 211.71l4.888 13.43 7.488-6.284z" clip-path="url(#pd37f9131a7)"/><path id="patch_355" d="M234.952 225.14l4.887 13.429 7.489-6.284z" clip-path="url(#pd37f9131a7)"/><path id="patch_356" d="M215.4 171.423l12.377 7.146-4.888-13.43z" clip-path="url(#pd37f9131a7)"/><path id="patch_357" d="M220.288 184.852l12.376 7.146-4.887-13.43z" clip-path="url(#pd37f9131a7)"/><path id="patch_358" d="M225.176 198.282l12.376 7.145-4.888-13.43z" clip-path="url(#pd37f9131a7)"/><path id="patch_359" d="M230.064 211.71l12.376 7.146-4.888-13.429z" clip-path="url(#pd37f9131a7)"/><path id="patch_360" d="M234.952 225.14l12.376 7.145-4.888-13.429z" clip-path="url(#pd37f9131a7)"/><path id="patch_361" d="M222.889 165.14l4.888 13.429 7.488-6.284z" clip-path="url(#pd37f9131a7)"/><path id="patch_362" d="M227.777 178.569l4.887 13.429 7.489-6.284z" clip-path="url(#pd37f9131a7)"/><path id="patch_363" d="M232.664 191.998l4.888 13.429 7.489-6.284z" clip-path="url(#pd37f9131a7)"/><path id="patch_364" d="M237.552 205.427l4.888 13.43 7.489-6.285z" clip-path="url(#pd37f9131a7)"/><path id="patch_365" d="M242.44 218.856l4.888 13.43 7.488-6.284z" clip-path="url(#pd37f9131a7)"/><path id="patch_366" d="M227.777 178.569l12.376 7.145-4.888-13.429z" clip-path="url(#pd37f9131a7)"/><path id="patch_367" d="M232.664 191.998l12.377 7.145-4.888-13.429z" clip-path="url(#pd37f9131a7)"/><path id="patch_368" d="M237.552 205.427l12.377 7.145-4.888-13.429z" clip-path="url(#pd37f9131a7)"/><path id="patch_369" d="M242.44 218.856l12.376 7.146-4.887-13.43z" clip-path="url(#pd37f9131a7)"/><path id="patch_370" d="M235.265 172.285l4.888 13.43 7.489-6.284z" clip-path="url(#pd37f9131a7)"/><path id="patch_371" d="M240.153 185.714l4.888 13.43 7.488-6.284z" clip-path="url(#pd37f9131a7)"/><path id="patch_372" d="M245.04 199.143l4.889 13.43 7.488-6.284z" clip-path="url(#pd37f9131a7)"/><path id="patch_373" d="M249.929 212.572l4.887 13.43 7.489-6.284z" clip-path="url(#pd37f9131a7)"/><path id="patch_374" d="M240.153 185.714l12.376 7.146-4.887-13.43z" clip-path="url(#pd37f9131a7)"/><path id="patch_375" d="M245.04 199.143l12.377 7.146-4.888-13.43z" clip-path="url(#pd37f9131a7)"/><path id="patch_376" d="M249.929 212.572l12.376 7.146-4.888-13.43z" clip-path="url(#pd37f9131a7)"/><path id="patch_377" d="M247.642 179.43l4.887 13.43 7.489-6.284z" clip-path="url(#pd37f9131a7)"/><path id="patch_378" d="M252.53 192.86l4.887 13.429 7.489-6.284z" clip-path="url(#pd37f9131a7)"/><path id="patch_379" d="M257.417 206.289l4.888 13.429 7.488-6.284z" clip-path="url(#pd37f9131a7)"/><path id="patch_380" d="M252.53 192.86l12.376 7.145-4.888-13.429z" clip-path="url(#pd37f9131a7)"/><path id="patch_381" d="M257.417 206.289l12.376 7.145-4.887-13.429z" clip-path="url(#pd37f9131a7)"/><path id="patch_382" d="M260.018 186.576l4.888 13.43 7.488-6.284z" clip-path="url(#pd37f9131a7)"/><path id="patch_383" d="M264.906 200.005l4.887 13.43 7.489-6.284z" clip-path="url(#pd37f9131a7)"/><path id="patch_384" d="M264.906 200.005l12.376 7.146-4.888-13.43z" clip-path="url(#pd37f9131a7)"/><path id="patch_385" d="M272.394 193.722l4.888 13.429 7.488-6.284z" clip-path="url(#pd37f9131a7)"/><path id="patch_386" d="M185.76 143.703l12.376 7.146 1.698-9.627z" clip-path="url(#pd37f9131a7)"/><path id="patch_387" d="M198.136 150.849l12.377 7.145 1.697-9.627z" clip-path="url(#pd37f9131a7)"/><path id="patch_388" d="M210.513 157.994l12.376 7.146 1.697-9.627z" clip-path="url(#pd37f9131a7)"/><path id="patch_389" d="M222.889 165.14l12.376 7.145 1.698-9.627z" clip-path="url(#pd37f9131a7)"/><path id="patch_390" d="M235.265 172.285l12.377 7.146 1.697-9.627z" clip-path="url(#pd37f9131a7)"/><path id="patch_391" d="M247.642 179.43l12.376 7.146 1.697-9.627z" clip-path="url(#pd37f9131a7)"/><path id="patch_392" d="M260.018 186.576l12.376 7.146 1.698-9.627z" clip-path="url(#pd37f9131a7)"/><path id="patch_393" d="M272.394 193.722l12.376 7.145 1.698-9.627z" clip-path="url(#pd37f9131a7)"/><path id="patch_394" d="M198.136 150.849l14.074-2.482-12.376-7.145z" clip-path="url(#pd37f9131a7)"/><path id="patch_395" d="M210.513 157.994l14.073-2.481-12.376-7.146z" clip-path="url(#pd37f9131a7)"/><path id="patch_396" d="M222.889 165.14l14.074-2.482-12.377-7.145z" clip-path="url(#pd37f9131a7)"/><path id="patch_397" d="M235.265 172.285l14.074-2.481-12.376-7.146z" clip-path="url(#pd37f9131a7)"/><path id="patch_398" d="M247.642 179.43l14.073-2.48-12.376-7.146z" clip-path="url(#pd37f9131a7)"/><path id="patch_399" d="M260.018 186.576l14.074-2.481-12.377-7.146z" clip-path="url(#pd37f9131a7)"/><path id="patch_400" d="M272.394 193.722l14.074-2.482-12.376-7.145z" clip-path="url(#pd37f9131a7)"/><path id="patch_401" d="M199.834 141.222l12.376 7.145 1.698-9.627z" clip-path="url(#pd37f9131a7)"/><path id="patch_402" d="M212.21 148.367l12.376 7.146 1.698-9.627z" clip-path="url(#pd37f9131a7)"/><path id="patch_403" d="M224.586 155.513l12.377 7.145 1.697-9.627z" clip-path="url(#pd37f9131a7)"/><path id="patch_404" d="M236.963 162.658l12.376 7.146 1.698-9.627z" clip-path="url(#pd37f9131a7)"/><path id="patch_405" d="M249.339 169.804l12.376 7.145 1.698-9.627z" clip-path="url(#pd37f9131a7)"/><path id="patch_406" d="M261.715 176.95l12.377 7.145 1.697-9.627z" clip-path="url(#pd37f9131a7)"/><path id="patch_407" d="M274.092 184.095l12.376 7.145 1.697-9.627z" clip-path="url(#pd37f9131a7)"/><path id="patch_408" d="M212.21 148.367l14.074-2.481-12.376-7.146z" clip-path="url(#pd37f9131a7)"/><path id="patch_409" d="M224.586 155.513l14.074-2.482-12.376-7.145z" clip-path="url(#pd37f9131a7)"/><path id="patch_410" d="M236.963 162.658l14.074-2.481-12.377-7.146z" clip-path="url(#pd37f9131a7)"/><path id="patch_411" d="M249.339 169.804l14.074-2.482-12.376-7.145z" clip-path="url(#pd37f9131a7)"/><path id="patch_412" d="M261.715 176.95l14.074-2.482-12.376-7.146z" clip-path="url(#pd37f9131a7)"/><path id="patch_413" d="M274.092 184.095l14.073-2.482-12.376-7.145z" clip-path="url(#pd37f9131a7)"/><path id="patch_414" d="M213.908 138.74l12.376 7.146 1.697-9.627z" clip-path="url(#pd37f9131a7)"/><path id="patch_415" d="M226.284 145.886l12.376 7.145 1.698-9.627z" clip-path="url(#pd37f9131a7)"/><path id="patch_416" d="M238.66 153.031l12.377 7.146 1.697-9.627z" clip-path="url(#pd37f9131a7)"/><path id="patch_417" d="M251.037 160.177l12.376 7.145 1.697-9.627z" clip-path="url(#pd37f9131a7)"/><path id="patch_418" d="M263.413 167.322l12.376 7.146 1.698-9.628z" clip-path="url(#pd37f9131a7)"/><path id="patch_419" d="M275.79 174.468l12.375 7.145 1.698-9.627z" clip-path="url(#pd37f9131a7)"/><path id="patch_420" d="M226.284 145.886l14.074-2.482-12.377-7.145z" clip-path="url(#pd37f9131a7)"/><path id="patch_421" d="M238.66 153.031l14.074-2.481-12.376-7.146z" clip-path="url(#pd37f9131a7)"/><path id="patch_422" d="M251.037 160.177l14.073-2.482-12.376-7.145z" clip-path="url(#pd37f9131a7)"/><path id="patch_423" d="M263.413 167.322l14.074-2.482-12.377-7.145z" clip-path="url(#pd37f9131a7)"/><path id="patch_424" d="M275.79 174.468l14.073-2.482-12.376-7.146z" clip-path="url(#pd37f9131a7)"/><path id="patch_425" d="M227.981 136.259l12.377 7.145 1.697-9.627z" clip-path="url(#pd37f9131a7)"/><path id="patch_426" d="M240.358 143.404l12.376 7.146 1.698-9.628z" clip-path="url(#pd37f9131a7)"/><path id="patch_427" d="M252.734 150.55l12.376 7.145 1.698-9.627z" clip-path="url(#pd37f9131a7)"/><path id="patch_428" d="M265.11 157.695l12.377 7.145 1.697-9.627z" clip-path="url(#pd37f9131a7)"/><path id="patch_429" d="M277.487 164.84l12.376 7.146 1.697-9.627z" clip-path="url(#pd37f9131a7)"/><path id="patch_430" d="M240.358 143.404l14.074-2.482-12.377-7.145z" clip-path="url(#pd37f9131a7)"/><path id="patch_431" d="M252.734 150.55l14.074-2.482-12.376-7.146z" clip-path="url(#pd37f9131a7)"/><path id="patch_432" d="M265.11 157.695l14.074-2.482-12.376-7.145z" clip-path="url(#pd37f9131a7)"/><path id="patch_433" d="M277.487 164.84l14.073-2.481-12.376-7.146z" clip-path="url(#pd37f9131a7)"/><path id="patch_434" d="M242.055 133.777l12.377 7.145 1.697-9.627z" clip-path="url(#pd37f9131a7)"/><path id="patch_435" d="M254.432 140.922l12.376 7.146 1.697-9.627z" clip-path="url(#pd37f9131a7)"/><path id="patch_436" d="M266.808 148.068l12.376 7.145 1.698-9.627z" clip-path="url(#pd37f9131a7)"/><path id="patch_437" d="M279.184 155.213l12.376 7.146 1.698-9.627z" clip-path="url(#pd37f9131a7)"/><path id="patch_438" d="M254.432 140.922l14.073-2.481-12.376-7.146z" clip-path="url(#pd37f9131a7)"/><path id="patch_439" d="M266.808 148.068l14.074-2.482-12.377-7.145z" clip-path="url(#pd37f9131a7)"/><path id="patch_440" d="M279.184 155.213l14.074-2.481-12.376-7.146z" clip-path="url(#pd37f9131a7)"/><path id="patch_441" d="M256.13 131.295l12.375 7.146 1.698-9.627z" clip-path="url(#pd37f9131a7)"/><path id="patch_442" d="M268.505 138.44l12.377 7.146 1.697-9.627z" clip-path="url(#pd37f9131a7)"/><path id="patch_443" d="M280.882 145.586l12.376 7.146 1.697-9.627z" clip-path="url(#pd37f9131a7)"/><path id="patch_444" d="M268.505 138.44l14.074-2.48-12.376-7.146z" clip-path="url(#pd37f9131a7)"/><path id="patch_445" d="M280.882 145.586l14.073-2.481-12.376-7.146z" clip-path="url(#pd37f9131a7)"/><path id="patch_446" d="M270.203 128.814l12.376 7.145 1.698-9.627z" clip-path="url(#pd37f9131a7)"/><path id="patch_447" d="M282.58 135.96l12.375 7.145 1.698-9.627z" clip-path="url(#pd37f9131a7)"/><path id="patch_448" d="M282.58 135.96l14.073-2.482-12.376-7.146z" clip-path="url(#pd37f9131a7)"/><path id="patch_449" d="M284.277 126.332l12.376 7.146 1.698-9.627z" clip-path="url(#pd37f9131a7)"/><path id="patch_450" d="M185.76 143.703l14.074-2.481-4.888-8.466z" clip-path="url(#pd37f9131a7)"/><path id="patch_451" d="M199.834 141.222l14.074-2.482-4.888-8.466z" clip-path="url(#pd37f9131a7)"/><path id="patch_452" d="M213.908 138.74l14.073-2.481-4.887-8.466z" clip-path="url(#pd37f9131a7)"/><path id="patch_453" d="M227.981 136.259l14.074-2.482-4.888-8.466z" clip-path="url(#pd37f9131a7)"/><path id="patch_454" d="M242.055 133.777l14.074-2.482-4.888-8.465z" clip-path="url(#pd37f9131a7)"/><path id="patch_455" d="M256.13 131.295l14.073-2.481-4.888-8.466z" clip-path="url(#pd37f9131a7)"/><path id="patch_456" d="M270.203 128.814l14.074-2.482-4.888-8.466z" clip-path="url(#pd37f9131a7)"/><path id="patch_457" d="M284.277 126.332l14.074-2.481-4.888-8.466z" clip-path="url(#pd37f9131a7)"/><path id="patch_458" d="M199.834 141.222l9.186-10.948-14.074 2.482z" clip-path="url(#pd37f9131a7)"/><path id="patch_459" d="M213.908 138.74l9.186-10.947-14.074 2.481z" clip-path="url(#pd37f9131a7)"/><path id="patch_460" d="M227.981 136.259l9.186-10.948-14.073 2.482z" clip-path="url(#pd37f9131a7)"/><path id="patch_461" d="M242.055 133.777l9.186-10.947-14.074 2.481z" clip-path="url(#pd37f9131a7)"/><path id="patch_462" d="M256.13 131.295l9.185-10.947-14.074 2.482z" clip-path="url(#pd37f9131a7)"/><path id="patch_463" d="M270.203 128.814l9.186-10.948-14.074 2.482z" clip-path="url(#pd37f9131a7)"/><path id="patch_464" d="M284.277 126.332l9.186-10.947-14.074 2.481z" clip-path="url(#pd37f9131a7)"/><path id="patch_465" d="M194.946 132.756l14.074-2.482-4.888-8.466z" clip-path="url(#pd37f9131a7)"/><path id="patch_466" d="M209.02 130.274l14.074-2.481-4.888-8.466z" clip-path="url(#pd37f9131a7)"/><path id="patch_467" d="M223.094 127.793l14.073-2.482-4.887-8.466z" clip-path="url(#pd37f9131a7)"/><path id="patch_468" d="M237.167 125.311l14.074-2.481-4.888-8.466z" clip-path="url(#pd37f9131a7)"/><path id="patch_469" d="M251.241 122.83l14.074-2.482-4.888-8.466z" clip-path="url(#pd37f9131a7)"/><path id="patch_470" d="M265.315 120.348l14.074-2.482-4.888-8.466z" clip-path="url(#pd37f9131a7)"/><path id="patch_471" d="M279.389 117.866l14.074-2.481-4.888-8.466z" clip-path="url(#pd37f9131a7)"/><path id="patch_472" d="M209.02 130.274l9.186-10.947-14.074 2.481z" clip-path="url(#pd37f9131a7)"/><path id="patch_473" d="M223.094 127.793l9.186-10.948-14.074 2.482z" clip-path="url(#pd37f9131a7)"/><path id="patch_474" d="M237.167 125.311l9.186-10.947-14.073 2.481z" clip-path="url(#pd37f9131a7)"/><path id="patch_475" d="M251.241 122.83l9.186-10.948-14.074 2.482z" clip-path="url(#pd37f9131a7)"/><path id="patch_476" d="M265.315 120.348l9.186-10.948-14.074 2.482z" clip-path="url(#pd37f9131a7)"/><path id="patch_477" d="M279.389 117.866l9.186-10.947L274.5 109.4z" clip-path="url(#pd37f9131a7)"/><path id="patch_478" d="M204.132 121.808l14.074-2.481-4.888-8.466z" clip-path="url(#pd37f9131a7)"/><path id="patch_479" d="M218.206 119.327l14.074-2.482-4.888-8.466z" clip-path="url(#pd37f9131a7)"/><path id="patch_480" d="M232.28 116.845l14.073-2.481-4.887-8.466z" clip-path="url(#pd37f9131a7)"/><path id="patch_481" d="M246.353 114.364l14.074-2.482-4.887-8.466z" clip-path="url(#pd37f9131a7)"/><path id="patch_482" d="M260.427 111.882l14.074-2.482-4.888-8.465z" clip-path="url(#pd37f9131a7)"/><path id="patch_483" d="M274.501 109.4l14.074-2.481-4.888-8.466z" clip-path="url(#pd37f9131a7)"/><path id="patch_484" d="M218.206 119.327l9.186-10.948-14.074 2.482z" clip-path="url(#pd37f9131a7)"/><path id="patch_485" d="M232.28 116.845l9.186-10.947-14.074 2.481z" clip-path="url(#pd37f9131a7)"/><path id="patch_486" d="M246.353 114.364l9.187-10.948-14.074 2.482z" clip-path="url(#pd37f9131a7)"/><path id="patch_487" d="M260.427 111.882l9.186-10.947-14.073 2.481z" clip-path="url(#pd37f9131a7)"/><path id="patch_488" d="M274.501 109.4l9.186-10.947-14.074 2.482z" clip-path="url(#pd37f9131a7)"/><path id="patch_489" d="M213.318 110.86l14.074-2.48-4.888-8.467z" clip-path="url(#pd37f9131a7)"/><path id="patch_490" d="M227.392 108.38l14.074-2.482-4.888-8.466z" clip-path="url(#pd37f9131a7)"/><path id="patch_491" d="M241.466 105.898l14.074-2.482-4.888-8.466z" clip-path="url(#pd37f9131a7)"/><path id="patch_492" d="M255.54 103.416l14.073-2.481-4.887-8.466z" clip-path="url(#pd37f9131a7)"/><path id="patch_493" d="M269.613 100.935l14.074-2.482-4.888-8.466z" clip-path="url(#pd37f9131a7)"/><path id="patch_494" d="M227.392 108.38l9.186-10.948-14.074 2.481z" clip-path="url(#pd37f9131a7)"/><path id="patch_495" d="M241.466 105.898l9.186-10.948-14.074 2.482z" clip-path="url(#pd37f9131a7)"/><path id="patch_496" d="M255.54 103.416l9.186-10.947-14.074 2.481z" clip-path="url(#pd37f9131a7)"/><path id="patch_497" d="M269.613 100.935l9.186-10.948-14.073 2.482z" clip-path="url(#pd37f9131a7)"/><path id="patch_498" d="M222.504 99.913l14.074-2.481-4.888-8.466z" clip-path="url(#pd37f9131a7)"/><path id="patch_499" d="M236.578 97.432l14.074-2.482-4.888-8.466z" clip-path="url(#pd37f9131a7)"/><path id="patch_500" d="M250.652 94.95l14.074-2.481-4.888-8.466z" clip-path="url(#pd37f9131a7)"/><path id="patch_501" d="M264.726 92.469l14.073-2.482-4.887-8.466z" clip-path="url(#pd37f9131a7)"/><path id="patch_502" d="M236.578 97.432l9.186-10.948-14.074 2.482z" clip-path="url(#pd37f9131a7)"/><path id="patch_503" d="M250.652 94.95l9.186-10.947-14.074 2.481z" clip-path="url(#pd37f9131a7)"/><path id="patch_504" d="M264.726 92.469l9.186-10.948-14.074 2.482z" clip-path="url(#pd37f9131a7)"/><path id="patch_505" d="M231.69 88.966l14.074-2.482-4.888-8.466z" clip-path="url(#pd37f9131a7)"/><path id="patch_506" d="M245.764 86.484l14.074-2.481-4.888-8.466z" clip-path="url(#pd37f9131a7)"/><path id="patch_507" d="M259.838 84.003l14.074-2.482-4.888-8.466z" clip-path="url(#pd37f9131a7)"/><path id="patch_508" d="M245.764 86.484l9.186-10.947-14.074 2.481z" clip-path="url(#pd37f9131a7)"/><path id="patch_509" d="M259.838 84.003l9.186-10.948-14.074 2.482z" clip-path="url(#pd37f9131a7)"/><path id="patch_510" d="M240.876 78.018l14.074-2.481-4.888-8.466z" clip-path="url(#pd37f9131a7)"/><path id="patch_511" d="M254.95 75.537l14.074-2.482-4.888-8.466z" clip-path="url(#pd37f9131a7)"/><path id="patch_512" d="M254.95 75.537l9.186-10.948-14.074 2.482z" clip-path="url(#pd37f9131a7)"/><path id="patch_513" d="M250.062 67.071l14.074-2.482-4.888-8.465z" clip-path="url(#pd37f9131a7)"/><path id="patch_514" d="M185.76 143.703l9.186-10.947-9.186-3.344z" clip-path="url(#pd37f9131a7)"/><path id="patch_515" d="M194.946 132.756l9.186-10.948-9.186-3.343z" clip-path="url(#pd37f9131a7)"/><path id="patch_516" d="M204.132 121.808l9.186-10.947-9.186-3.343z" clip-path="url(#pd37f9131a7)"/><path id="patch_517" d="M213.318 110.86l9.186-10.947-9.186-3.343z" clip-path="url(#pd37f9131a7)"/><path id="patch_518" d="M222.504 99.913l9.186-10.947-9.186-3.343z" clip-path="url(#pd37f9131a7)"/><path id="patch_519" d="M231.69 88.966l9.186-10.948-9.186-3.343z" clip-path="url(#pd37f9131a7)"/><path id="patch_520" d="M240.876 78.018l9.186-10.947-9.186-3.343z" clip-path="url(#pd37f9131a7)"/><path id="patch_521" d="M250.062 67.071l9.186-10.947-9.186-3.344z" clip-path="url(#pd37f9131a7)"/><path id="patch_522" d="M194.946 132.756v-14.291l-9.186 10.947z" clip-path="url(#pd37f9131a7)"/><path id="patch_523" d="M204.132 121.808v-14.29l-9.186 10.947z" clip-path="url(#pd37f9131a7)"/><path id="patch_524" d="M213.318 110.86V96.57l-9.186 10.948z" clip-path="url(#pd37f9131a7)"/><path id="patch_525" d="M222.504 99.913v-14.29l-9.186 10.947z" clip-path="url(#pd37f9131a7)"/><path id="patch_526" d="M231.69 88.966v-14.29l-9.186 10.947z" clip-path="url(#pd37f9131a7)"/><path id="patch_527" d="M240.876 78.018v-14.29l-9.186 10.947z" clip-path="url(#pd37f9131a7)"/><path id="patch_528" d="M250.062 67.071v-14.29l-9.186 10.947z" clip-path="url(#pd37f9131a7)"/><path id="patch_529" d="M185.76 129.412l9.186-10.947-9.186-3.343z" clip-path="url(#pd37f9131a7)"/><path id="patch_530" d="M194.946 118.465l9.186-10.947-9.186-3.344z" clip-path="url(#pd37f9131a7)"/><path id="patch_531" d="M204.132 107.518l9.186-10.948-9.186-3.343z" clip-path="url(#pd37f9131a7)"/><path id="patch_532" d="M213.318 96.57l9.186-10.947-9.186-3.344z" clip-path="url(#pd37f9131a7)"/><path id="patch_533" d="M222.504 85.623l9.186-10.948-9.186-3.343z" clip-path="url(#pd37f9131a7)"/><path id="patch_534" d="M231.69 74.675l9.186-10.947-9.186-3.344z" clip-path="url(#pd37f9131a7)"/><path id="patch_535" d="M240.876 63.728l9.186-10.948-9.186-3.343z" clip-path="url(#pd37f9131a7)"/><path id="patch_536" d="M194.946 118.465v-14.29l-9.186 10.947z" clip-path="url(#pd37f9131a7)"/><path id="patch_537" d="M204.132 107.518V93.227l-9.186 10.947z" clip-path="url(#pd37f9131a7)"/><path id="patch_538" d="M213.318 96.57V82.28l-9.186 10.947z" clip-path="url(#pd37f9131a7)"/><path id="patch_539" d="M222.504 85.623V71.332l-9.186 10.947z" clip-path="url(#pd37f9131a7)"/><path id="patch_540" d="M231.69 74.675v-14.29l-9.186 10.947z" clip-path="url(#pd37f9131a7)"/><path id="patch_541" d="M240.876 63.728V49.437l-9.186 10.947z" clip-path="url(#pd37f9131a7)"/><path id="patch_542" d="M185.76 115.122l9.186-10.948-9.186-3.343z" clip-path="url(#pd37f9131a7)"/><path id="patch_543" d="M194.946 104.174l9.186-10.947-9.186-3.344z" clip-path="url(#pd37f9131a7)"/><path id="patch_544" d="M204.132 93.227l9.186-10.948-9.186-3.343z" clip-path="url(#pd37f9131a7)"/><path id="patch_545" d="M213.318 82.28l9.186-10.948-9.186-3.344z" clip-path="url(#pd37f9131a7)"/><path id="patch_546" d="M222.504 71.332l9.186-10.948-9.186-3.343z" clip-path="url(#pd37f9131a7)"/><path id="patch_547" d="M231.69 60.384l9.186-10.947-9.186-3.344z" clip-path="url(#pd37f9131a7)"/><path id="patch_548" d="M194.946 104.174v-14.29l-9.186 10.947z" clip-path="url(#pd37f9131a7)"/><path id="patch_549" d="M204.132 93.227V78.936l-9.186 10.947z" clip-path="url(#pd37f9131a7)"/><path id="patch_550" d="M213.318 82.28V67.987l-9.186 10.948z" clip-path="url(#pd37f9131a7)"/><path id="patch_551" d="M222.504 71.332V57.04l-9.186 10.947z" clip-path="url(#pd37f9131a7)"/><path id="patch_552" d="M231.69 60.384v-14.29l-9.186 10.947z" clip-path="url(#pd37f9131a7)"/><path id="patch_553" d="M185.76 100.83l9.186-10.947-9.186-3.343z" clip-path="url(#pd37f9131a7)"/><path id="patch_554" d="M194.946 89.883l9.186-10.947-9.186-3.344z" clip-path="url(#pd37f9131a7)"/><path id="patch_555" d="M204.132 78.936l9.186-10.948-9.186-3.343z" clip-path="url(#pd37f9131a7)"/><path id="patch_556" d="M213.318 67.988l9.186-10.947-9.186-3.344z" clip-path="url(#pd37f9131a7)"/><path id="patch_557" d="M222.504 57.04l9.186-10.947-9.186-3.343z" clip-path="url(#pd37f9131a7)"/><path id="patch_558" d="M194.946 89.883v-14.29L185.76 86.54z" clip-path="url(#pd37f9131a7)"/><path id="patch_559" d="M204.132 78.936V64.645l-9.186 10.947z" clip-path="url(#pd37f9131a7)"/><path id="patch_560" d="M213.318 67.988v-14.29l-9.186 10.947z" clip-path="url(#pd37f9131a7)"/><path id="patch_561" d="M222.504 57.04V42.75l-9.186 10.947z" clip-path="url(#pd37f9131a7)"/><path id="patch_562" d="M185.76 86.54l9.186-10.948-9.186-3.343z" clip-path="url(#pd37f9131a7)"/><path id="patch_563" d="M194.946 75.592l9.186-10.947-9.186-3.344z" clip-path="url(#pd37f9131a7)"/><path id="patch_564" d="M204.132 64.645l9.186-10.948-9.186-3.343z" clip-path="url(#pd37f9131a7)"/><path id="patch_565" d="M213.318 53.697l9.186-10.947-9.186-3.344z" clip-path="url(#pd37f9131a7)"/><path id="patch_566" d="M194.946 75.592v-14.29l-9.186 10.947z" clip-path="url(#pd37f9131a7)"/><path id="patch_567" d="M204.132 64.645V50.354L194.946 61.3z" clip-path="url(#pd37f9131a7)"/><path id="patch_568" d="M213.318 53.697v-14.29l-9.186 10.947z" clip-path="url(#pd37f9131a7)"/><path id="patch_569" d="M185.76 72.249l9.186-10.948-9.186-3.343z" clip-path="url(#pd37f9131a7)"/><path id="patch_570" d="M194.946 61.301l9.186-10.947-9.186-3.344z" clip-path="url(#pd37f9131a7)"/><path id="patch_571" d="M204.132 50.354l9.186-10.948-9.186-3.343z" clip-path="url(#pd37f9131a7)"/><path id="patch_572" d="M194.946 61.301v-14.29l-9.186 10.947z" clip-path="url(#pd37f9131a7)"/><path id="patch_573" d="M204.132 50.354V36.063l-9.186 10.947z" clip-path="url(#pd37f9131a7)"/><path id="patch_574" d="M185.76 57.958l9.186-10.948-9.186-3.343z" clip-path="url(#pd37f9131a7)"/><path id="patch_575" d="M194.946 47.01l9.186-10.947-9.186-3.344z" clip-path="url(#pd37f9131a7)"/><path id="patch_576" d="M194.946 47.01V32.72l-9.186 10.947z" clip-path="url(#pd37f9131a7)"/><path id="patch_577" d="M185.76 43.667l9.186-10.948-9.186-3.343z" clip-path="url(#pd37f9131a7)"/></g></g><defs id="defs587"><clipPath id="pd37f9131a7"><path id="path584" d="M7.2 7.2h357.12v266.112H7.2z"/></clipPath></defs></svg>