<svg height="374.016" viewBox="0 0 371.52 280.512" width="495.36" xmlns="http://www.w3.org/2000/svg"><defs><style>*{stroke-linecap:butt;stroke-linejoin:round}</style></defs><g id="figure_1"><path d="M0 280.512h371.52V0H0z" fill="none" id="patch_1"/><g id="axes_1" fill="#ddd" stroke="#000"><path clip-path="url(#pd37f9131a7)" d="M185.76 143.703v-14.29l-9.186 3.343z" id="patch_2"/><path clip-path="url(#pd37f9131a7)" d="M185.76 129.412v-14.29l-9.186 3.343z" id="patch_3"/><path clip-path="url(#pd37f9131a7)" d="M185.76 115.122V100.83l-9.186 3.343z" id="patch_4"/><path clip-path="url(#pd37f9131a7)" d="M185.76 100.83V86.54l-9.186 3.343z" id="patch_5"/><path clip-path="url(#pd37f9131a7)" d="M185.76 86.54V72.249l-9.186 3.343z" id="patch_6"/><path clip-path="url(#pd37f9131a7)" d="M185.76 72.249V57.958l-9.186 3.343z" id="patch_7"/><path clip-path="url(#pd37f9131a7)" d="M185.76 57.958V43.667l-9.186 3.343z" id="patch_8"/><path clip-path="url(#pd37f9131a7)" d="M185.76 43.667V29.376l-9.186 3.343z" id="patch_9"/><path clip-path="url(#pd37f9131a7)" d="M185.76 129.412l-9.186-10.947v14.29z" id="patch_10"/><path clip-path="url(#pd37f9131a7)" d="M185.76 115.122l-9.186-10.948v14.291z" id="patch_11"/><path clip-path="url(#pd37f9131a7)" d="M185.76 100.83l-9.186-10.947v14.291z" id="patch_12"/><path clip-path="url(#pd37f9131a7)" d="M185.76 86.54l-9.186-10.948v14.291z" id="patch_13"/><path clip-path="url(#pd37f9131a7)" d="M185.76 72.249L176.574 61.3v14.291z" id="patch_14"/><path clip-path="url(#pd37f9131a7)" d="M185.76 57.958l-9.186-10.948v14.291z" id="patch_15"/><path clip-path="url(#pd37f9131a7)" d="M185.76 43.667l-9.186-10.948V47.01z" id="patch_16"/><path clip-path="url(#pd37f9131a7)" d="M176.574 132.756v-14.291l-9.186 3.343z" id="patch_17"/><path clip-path="url(#pd37f9131a7)" d="M176.574 118.465v-14.29l-9.186 3.343z" id="patch_18"/><path clip-path="url(#pd37f9131a7)" d="M176.574 104.174v-14.29l-9.186 3.343z" id="patch_19"/><path clip-path="url(#pd37f9131a7)" d="M176.574 89.883v-14.29l-9.186 3.343z" id="patch_20"/><path clip-path="url(#pd37f9131a7)" d="M176.574 75.592v-14.29l-9.186 3.343z" id="patch_21"/><path clip-path="url(#pd37f9131a7)" d="M176.574 61.301v-14.29l-9.186 3.343z" id="patch_22"/><path clip-path="url(#pd37f9131a7)" d="M176.574 47.01V32.72l-9.186 3.343z" id="patch_23"/><path clip-path="url(#pd37f9131a7)" d="M176.574 118.465l-9.186-10.947v14.29z" id="patch_24"/><path clip-path="url(#pd37f9131a7)" d="M176.574 104.174l-9.186-10.947v14.29z" id="patch_25"/><path clip-path="url(#pd37f9131a7)" d="M176.574 89.883l-9.186-10.947v14.29z" id="patch_26"/><path clip-path="url(#pd37f9131a7)" d="M176.574 75.592l-9.186-10.947v14.29z" id="patch_27"/><path clip-path="url(#pd37f9131a7)" d="M176.574 61.301l-9.186-10.947v14.29z" id="patch_28"/><path clip-path="url(#pd37f9131a7)" d="M176.574 47.01l-9.186-10.947v14.29z" id="patch_29"/><path clip-path="url(#pd37f9131a7)" d="M167.388 121.808v-14.29l-9.186 3.343z" id="patch_30"/><path clip-path="url(#pd37f9131a7)" d="M167.388 107.518V93.227l-9.186 3.343z" id="patch_31"/><path clip-path="url(#pd37f9131a7)" d="M167.388 93.227V78.936l-9.186 3.343z" id="patch_32"/><path clip-path="url(#pd37f9131a7)" d="M167.388 78.936V64.645l-9.186 3.343z" id="patch_33"/><path clip-path="url(#pd37f9131a7)" d="M167.388 64.645V50.354l-9.186 3.343z" id="patch_34"/><path clip-path="url(#pd37f9131a7)" d="M167.388 50.354V36.063l-9.186 3.343z" id="patch_35"/><path clip-path="url(#pd37f9131a7)" d="M167.388 107.518l-9.186-10.948v14.29z" id="patch_36"/><path clip-path="url(#pd37f9131a7)" d="M167.388 93.227l-9.186-10.948V96.57z" id="patch_37"/><path clip-path="url(#pd37f9131a7)" d="M167.388 78.936l-9.186-10.948V82.28z" id="patch_38"/><path clip-path="url(#pd37f9131a7)" d="M167.388 64.645l-9.186-10.948v14.291z" id="patch_39"/><path clip-path="url(#pd37f9131a7)" d="M167.388 50.354l-9.186-10.948v14.291z" id="patch_40"/><path clip-path="url(#pd37f9131a7)" d="M158.202 110.86V96.57l-9.186 3.343z" id="patch_41"/><path clip-path="url(#pd37f9131a7)" d="M158.202 96.57V82.28l-9.186 3.343z" id="patch_42"/><path clip-path="url(#pd37f9131a7)" d="M158.202 82.28V67.987l-9.186 3.344z" id="patch_43"/><path clip-path="url(#pd37f9131a7)" d="M158.202 67.988v-14.29l-9.186 3.343z" id="patch_44"/><path clip-path="url(#pd37f9131a7)" d="M158.202 53.697v-14.29l-9.186 3.343z" id="patch_45"/><path clip-path="url(#pd37f9131a7)" d="M158.202 96.57l-9.186-10.947v14.29z" id="patch_46"/><path clip-path="url(#pd37f9131a7)" d="M158.202 82.28l-9.186-10.948v14.29z" id="patch_47"/><path clip-path="url(#pd37f9131a7)" d="M158.202 67.988l-9.186-10.947v14.29z" id="patch_48"/><path clip-path="url(#pd37f9131a7)" d="M158.202 53.697l-9.186-10.947v14.29z" id="patch_49"/><path clip-path="url(#pd37f9131a7)" d="M149.016 99.913v-14.29l-9.186 3.343z" id="patch_50"/><path clip-path="url(#pd37f9131a7)" d="M149.016 85.623V71.332l-9.186 3.343z" id="patch_51"/><path clip-path="url(#pd37f9131a7)" d="M149.016 71.332V57.04l-9.186 3.343z" id="patch_52"/><path clip-path="url(#pd37f9131a7)" d="M149.016 57.04V42.75l-9.186 3.343z" id="patch_53"/><path clip-path="url(#pd37f9131a7)" d="M149.016 85.623l-9.186-10.948v14.291z" id="patch_54"/><path clip-path="url(#pd37f9131a7)" d="M149.016 71.332l-9.186-10.948v14.291z" id="patch_55"/><path clip-path="url(#pd37f9131a7)" d="M149.016 57.04l-9.186-10.947v14.291z" id="patch_56"/><path clip-path="url(#pd37f9131a7)" d="M139.83 88.966v-14.29l-9.186 3.342z" id="patch_57"/><path clip-path="url(#pd37f9131a7)" d="M139.83 74.675v-14.29l-9.186 3.343z" id="patch_58"/><path clip-path="url(#pd37f9131a7)" d="M139.83 60.384v-14.29l-9.186 3.343z" id="patch_59"/><path clip-path="url(#pd37f9131a7)" d="M139.83 74.675l-9.186-10.947v14.29z" id="patch_60"/><path clip-path="url(#pd37f9131a7)" d="M139.83 60.384l-9.186-10.947v14.29z" id="patch_61"/><path clip-path="url(#pd37f9131a7)" d="M130.644 78.018v-14.29l-9.186 3.343z" id="patch_62"/><path clip-path="url(#pd37f9131a7)" d="M130.644 63.728V49.437l-9.186 3.343z" id="patch_63"/><path clip-path="url(#pd37f9131a7)" d="M130.644 63.728l-9.186-10.948v14.291z" id="patch_64"/><path clip-path="url(#pd37f9131a7)" d="M121.458 67.071v-14.29l-9.186 3.343z" id="patch_65"/><path clip-path="url(#pd37f9131a7)" d="M185.76 143.703l-9.186-10.947-4.888 8.466z" id="patch_66"/><path clip-path="url(#pd37f9131a7)" d="M176.574 132.756l-9.186-10.948-4.888 8.466z" id="patch_67"/><path clip-path="url(#pd37f9131a7)" d="M167.388 121.808l-9.186-10.947-4.888 8.466z" id="patch_68"/><path clip-path="url(#pd37f9131a7)" d="M158.202 110.86l-9.186-10.947-4.888 8.466z" id="patch_69"/><path clip-path="url(#pd37f9131a7)" d="M149.016 99.913l-9.186-10.947-4.888 8.466z" id="patch_70"/><path clip-path="url(#pd37f9131a7)" d="M139.83 88.966l-9.186-10.948-4.888 8.466z" id="patch_71"/><path clip-path="url(#pd37f9131a7)" d="M130.644 78.018l-9.186-10.947-4.888 8.466z" id="patch_72"/><path clip-path="url(#pd37f9131a7)" d="M121.458 67.071l-9.186-10.947-4.888 8.465z" id="patch_73"/><path clip-path="url(#pd37f9131a7)" d="M176.574 132.756l-14.074-2.482 9.186 10.948z" id="patch_74"/><path clip-path="url(#pd37f9131a7)" d="M167.388 121.808l-14.074-2.481 9.186 10.947z" id="patch_75"/><path clip-path="url(#pd37f9131a7)" d="M158.202 110.86l-14.074-2.48 9.186 10.947z" id="patch_76"/><path clip-path="url(#pd37f9131a7)" d="M149.016 99.913l-14.074-2.481 9.186 10.947z" id="patch_77"/><path clip-path="url(#pd37f9131a7)" d="M139.83 88.966l-14.074-2.482 9.186 10.948z" id="patch_78"/><path clip-path="url(#pd37f9131a7)" d="M130.644 78.018l-14.074-2.481 9.186 10.947z" id="patch_79"/><path clip-path="url(#pd37f9131a7)" d="M121.458 67.071l-14.074-2.482 9.186 10.948z" id="patch_80"/><path clip-path="url(#pd37f9131a7)" d="M171.686 141.222l-9.186-10.948-4.888 8.466z" id="patch_81"/><path clip-path="url(#pd37f9131a7)" d="M162.5 130.274l-9.186-10.947-4.888 8.466z" id="patch_82"/><path clip-path="url(#pd37f9131a7)" d="M153.314 119.327l-9.186-10.948-4.888 8.466z" id="patch_83"/><path clip-path="url(#pd37f9131a7)" d="M144.128 108.38l-9.186-10.948-4.888 8.466z" id="patch_84"/><path clip-path="url(#pd37f9131a7)" d="M134.942 97.432l-9.186-10.948-4.888 8.466z" id="patch_85"/><path clip-path="url(#pd37f9131a7)" d="M125.756 86.484l-9.186-10.947-4.888 8.466z" id="patch_86"/><path clip-path="url(#pd37f9131a7)" d="M116.57 75.537l-9.186-10.948-4.888 8.466z" id="patch_87"/><path clip-path="url(#pd37f9131a7)" d="M162.5 130.274l-14.074-2.481 9.186 10.947z" id="patch_88"/><path clip-path="url(#pd37f9131a7)" d="M153.314 119.327l-14.074-2.482 9.186 10.948z" id="patch_89"/><path clip-path="url(#pd37f9131a7)" d="M144.128 108.38l-14.074-2.482 9.186 10.947z" id="patch_90"/><path clip-path="url(#pd37f9131a7)" d="M134.942 97.432l-14.074-2.482 9.186 10.948z" id="patch_91"/><path clip-path="url(#pd37f9131a7)" d="M125.756 86.484l-14.074-2.481 9.186 10.947z" id="patch_92"/><path clip-path="url(#pd37f9131a7)" d="M116.57 75.537l-14.074-2.482 9.186 10.948z" id="patch_93"/><path clip-path="url(#pd37f9131a7)" d="M157.612 138.74l-9.186-10.947-4.887 8.466z" id="patch_94"/><path clip-path="url(#pd37f9131a7)" d="M148.426 127.793l-9.186-10.948-4.887 8.466z" id="patch_95"/><path clip-path="url(#pd37f9131a7)" d="M139.24 116.845l-9.186-10.947-4.887 8.466z" id="patch_96"/><path clip-path="url(#pd37f9131a7)" d="M130.054 105.898l-9.186-10.948-4.888 8.466z" id="patch_97"/><path clip-path="url(#pd37f9131a7)" d="M120.868 94.95l-9.186-10.947-4.888 8.466z" id="patch_98"/><path clip-path="url(#pd37f9131a7)" d="M111.682 84.003l-9.186-10.948-4.888 8.466z" id="patch_99"/><path clip-path="url(#pd37f9131a7)" d="M148.426 127.793l-14.073-2.482 9.186 10.948z" id="patch_100"/><path clip-path="url(#pd37f9131a7)" d="M139.24 116.845l-14.073-2.481 9.186 10.947z" id="patch_101"/><path clip-path="url(#pd37f9131a7)" d="M130.054 105.898l-14.074-2.482 9.187 10.948z" id="patch_102"/><path clip-path="url(#pd37f9131a7)" d="M120.868 94.95l-14.074-2.481 9.186 10.947z" id="patch_103"/><path clip-path="url(#pd37f9131a7)" d="M111.682 84.003L97.608 81.52l9.186 10.948z" id="patch_104"/><path clip-path="url(#pd37f9131a7)" d="M143.539 136.259l-9.186-10.948-4.888 8.466z" id="patch_105"/><path clip-path="url(#pd37f9131a7)" d="M134.353 125.311l-9.186-10.947-4.888 8.466z" id="patch_106"/><path clip-path="url(#pd37f9131a7)" d="M125.167 114.364l-9.187-10.948-4.887 8.466z" id="patch_107"/><path clip-path="url(#pd37f9131a7)" d="M115.98 103.416l-9.186-10.947-4.887 8.466z" id="patch_108"/><path clip-path="url(#pd37f9131a7)" d="M106.794 92.469L97.608 81.52l-4.887 8.466z" id="patch_109"/><path clip-path="url(#pd37f9131a7)" d="M134.353 125.311l-14.074-2.481 9.186 10.947z" id="patch_110"/><path clip-path="url(#pd37f9131a7)" d="M125.167 114.364l-14.074-2.482 9.186 10.948z" id="patch_111"/><path clip-path="url(#pd37f9131a7)" d="M115.98 103.416l-14.073-2.481 9.186 10.947z" id="patch_112"/><path clip-path="url(#pd37f9131a7)" d="M106.794 92.469l-14.073-2.482 9.186 10.948z" id="patch_113"/><path clip-path="url(#pd37f9131a7)" d="M129.465 133.777l-9.186-10.947-4.888 8.465z" id="patch_114"/><path clip-path="url(#pd37f9131a7)" d="M120.279 122.83l-9.186-10.948-4.888 8.466z" id="patch_115"/><path clip-path="url(#pd37f9131a7)" d="M111.093 111.882l-9.186-10.947-4.888 8.465z" id="patch_116"/><path clip-path="url(#pd37f9131a7)" d="M101.907 100.935L92.72 89.987l-4.888 8.466z" id="patch_117"/><path clip-path="url(#pd37f9131a7)" d="M120.279 122.83l-14.074-2.482 9.186 10.947z" id="patch_118"/><path clip-path="url(#pd37f9131a7)" d="M111.093 111.882L97.019 109.4l9.186 10.948z" id="patch_119"/><path clip-path="url(#pd37f9131a7)" d="M101.907 100.935l-14.074-2.482 9.186 10.947z" id="patch_120"/><path clip-path="url(#pd37f9131a7)" d="M115.39 131.295l-9.185-10.947-4.888 8.466z" id="patch_121"/><path clip-path="url(#pd37f9131a7)" d="M106.205 120.348L97.019 109.4l-4.888 8.466z" id="patch_122"/><path clip-path="url(#pd37f9131a7)" d="M97.019 109.4l-9.186-10.947-4.888 8.466z" id="patch_123"/><path clip-path="url(#pd37f9131a7)" d="M106.205 120.348l-14.074-2.482 9.186 10.948z" id="patch_124"/><path clip-path="url(#pd37f9131a7)" d="M97.019 109.4l-14.074-2.481 9.186 10.947z" id="patch_125"/><path clip-path="url(#pd37f9131a7)" d="M101.317 128.814l-9.186-10.948-4.888 8.466z" id="patch_126"/><path clip-path="url(#pd37f9131a7)" d="M92.131 117.866l-9.186-10.947-4.888 8.466z" id="patch_127"/><path clip-path="url(#pd37f9131a7)" d="M92.131 117.866l-14.074-2.481 9.186 10.947z" id="patch_128"/><path clip-path="url(#pd37f9131a7)" d="M87.243 126.332l-9.186-10.947-4.888 8.466z" id="patch_129"/><path clip-path="url(#pd37f9131a7)" d="M185.76 143.703l-14.074-2.481 1.698 9.627z" id="patch_130"/><path clip-path="url(#pd37f9131a7)" d="M171.686 141.222l-14.074-2.482 1.698 9.627z" id="patch_131"/><path clip-path="url(#pd37f9131a7)" d="M157.612 138.74l-14.073-2.481 1.697 9.627z" id="patch_132"/><path clip-path="url(#pd37f9131a7)" d="M143.539 136.259l-14.074-2.482 1.697 9.627z" id="patch_133"/><path clip-path="url(#pd37f9131a7)" d="M129.465 133.777l-14.074-2.482 1.697 9.627z" id="patch_134"/><path clip-path="url(#pd37f9131a7)" d="M115.39 131.295l-14.073-2.481 1.698 9.627z" id="patch_135"/><path clip-path="url(#pd37f9131a7)" d="M101.317 128.814l-14.074-2.482 1.698 9.627z" id="patch_136"/><path clip-path="url(#pd37f9131a7)" d="M87.243 126.332l-14.074-2.481 1.698 9.627z" id="patch_137"/><path clip-path="url(#pd37f9131a7)" d="M171.686 141.222l-12.376 7.145 14.074 2.482z" id="patch_138"/><path clip-path="url(#pd37f9131a7)" d="M157.612 138.74l-12.376 7.146 14.074 2.481z" id="patch_139"/><path clip-path="url(#pd37f9131a7)" d="M143.539 136.259l-12.377 7.145 14.074 2.482z" id="patch_140"/><path clip-path="url(#pd37f9131a7)" d="M129.465 133.777l-12.377 7.145 14.074 2.482z" id="patch_141"/><path clip-path="url(#pd37f9131a7)" d="M115.39 131.295l-12.375 7.146 14.073 2.481z" id="patch_142"/><path clip-path="url(#pd37f9131a7)" d="M101.317 128.814l-12.376 7.145 14.074 2.482z" id="patch_143"/><path clip-path="url(#pd37f9131a7)" d="M87.243 126.332l-12.376 7.146 14.074 2.481z" id="patch_144"/><path clip-path="url(#pd37f9131a7)" d="M173.384 150.849l-14.074-2.482 1.697 9.627z" id="patch_145"/><path clip-path="url(#pd37f9131a7)" d="M159.31 148.367l-14.074-2.481 1.698 9.627z" id="patch_146"/><path clip-path="url(#pd37f9131a7)" d="M145.236 145.886l-14.074-2.482 1.698 9.627z" id="patch_147"/><path clip-path="url(#pd37f9131a7)" d="M131.162 143.404l-14.074-2.482 1.698 9.628z" id="patch_148"/><path clip-path="url(#pd37f9131a7)" d="M117.088 140.922l-14.073-2.481 1.697 9.627z" id="patch_149"/><path clip-path="url(#pd37f9131a7)" d="M103.015 138.44l-14.074-2.48 1.697 9.626z" id="patch_150"/><path clip-path="url(#pd37f9131a7)" d="M88.94 135.96l-14.073-2.482 1.698 9.627z" id="patch_151"/><path clip-path="url(#pd37f9131a7)" d="M159.31 148.367l-12.376 7.146 14.073 2.481z" id="patch_152"/><path clip-path="url(#pd37f9131a7)" d="M145.236 145.886l-12.376 7.145 14.074 2.482z" id="patch_153"/><path clip-path="url(#pd37f9131a7)" d="M131.162 143.404l-12.376 7.146 14.074 2.481z" id="patch_154"/><path clip-path="url(#pd37f9131a7)" d="M117.088 140.922l-12.376 7.146 14.074 2.482z" id="patch_155"/><path clip-path="url(#pd37f9131a7)" d="M103.015 138.44l-12.377 7.146 14.074 2.482z" id="patch_156"/><path clip-path="url(#pd37f9131a7)" d="M88.94 135.96l-12.375 7.145 14.073 2.481z" id="patch_157"/><path clip-path="url(#pd37f9131a7)" d="M161.007 157.994l-14.073-2.481 1.697 9.627z" id="patch_158"/><path clip-path="url(#pd37f9131a7)" d="M146.934 155.513l-14.074-2.482 1.697 9.627z" id="patch_159"/><path clip-path="url(#pd37f9131a7)" d="M132.86 153.031l-14.074-2.481 1.697 9.627z" id="patch_160"/><path clip-path="url(#pd37f9131a7)" d="M118.786 150.55l-14.074-2.482 1.698 9.627z" id="patch_161"/><path clip-path="url(#pd37f9131a7)" d="M104.712 148.068l-14.074-2.482 1.698 9.627z" id="patch_162"/><path clip-path="url(#pd37f9131a7)" d="M90.638 145.586l-14.073-2.481 1.697 9.627z" id="patch_163"/><path clip-path="url(#pd37f9131a7)" d="M146.934 155.513l-12.377 7.145 14.074 2.482z" id="patch_164"/><path clip-path="url(#pd37f9131a7)" d="M132.86 153.031l-12.377 7.146 14.074 2.481z" id="patch_165"/><path clip-path="url(#pd37f9131a7)" d="M118.786 150.55l-12.376 7.145 14.073 2.482z" id="patch_166"/><path clip-path="url(#pd37f9131a7)" d="M104.712 148.068l-12.376 7.145 14.074 2.482z" id="patch_167"/><path clip-path="url(#pd37f9131a7)" d="M90.638 145.586l-12.376 7.146 14.074 2.481z" id="patch_168"/><path clip-path="url(#pd37f9131a7)" d="M148.631 165.14l-14.074-2.482 1.698 9.627z" id="patch_169"/><path clip-path="url(#pd37f9131a7)" d="M134.557 162.658l-14.074-2.481 1.698 9.627z" id="patch_170"/><path clip-path="url(#pd37f9131a7)" d="M120.483 160.177l-14.073-2.482 1.697 9.627z" id="patch_171"/><path clip-path="url(#pd37f9131a7)" d="M106.41 157.695l-14.074-2.482 1.697 9.627z" id="patch_172"/><path clip-path="url(#pd37f9131a7)" d="M92.336 155.213l-14.074-2.481 1.698 9.627z" id="patch_173"/><path clip-path="url(#pd37f9131a7)" d="M134.557 162.658l-12.376 7.146 14.074 2.481z" id="patch_174"/><path clip-path="url(#pd37f9131a7)" d="M120.483 160.177l-12.376 7.145 14.074 2.482z" id="patch_175"/><path clip-path="url(#pd37f9131a7)" d="M106.41 157.695l-12.377 7.145 14.074 2.482z" id="patch_176"/><path clip-path="url(#pd37f9131a7)" d="M92.336 155.213L79.96 162.36l14.073 2.481z" id="patch_177"/><path clip-path="url(#pd37f9131a7)" d="M136.255 172.285l-14.074-2.481 1.697 9.627z" id="patch_178"/><path clip-path="url(#pd37f9131a7)" d="M122.181 169.804l-14.074-2.482 1.698 9.627z" id="patch_179"/><path clip-path="url(#pd37f9131a7)" d="M108.107 167.322l-14.074-2.482 1.698 9.628z" id="patch_180"/><path clip-path="url(#pd37f9131a7)" d="M94.033 164.84l-14.073-2.48 1.697 9.627z" id="patch_181"/><path clip-path="url(#pd37f9131a7)" d="M122.181 169.804l-12.376 7.145 14.073 2.482z" id="patch_182"/><path clip-path="url(#pd37f9131a7)" d="M108.107 167.322l-12.376 7.146 14.074 2.481z" id="patch_183"/><path clip-path="url(#pd37f9131a7)" d="M94.033 164.84l-12.376 7.146 14.074 2.482z" id="patch_184"/><path clip-path="url(#pd37f9131a7)" d="M123.878 179.43l-14.073-2.48 1.697 9.626z" id="patch_185"/><path clip-path="url(#pd37f9131a7)" d="M109.805 176.95l-14.074-2.482 1.697 9.627z" id="patch_186"/><path clip-path="url(#pd37f9131a7)" d="M95.73 174.468l-14.073-2.482 1.698 9.627z" id="patch_187"/><path clip-path="url(#pd37f9131a7)" d="M109.805 176.95l-12.377 7.145 14.074 2.481z" id="patch_188"/><path clip-path="url(#pd37f9131a7)" d="M95.73 174.468l-12.375 7.145 14.073 2.482z" id="patch_189"/><path clip-path="url(#pd37f9131a7)" d="M111.502 186.576l-14.074-2.481 1.698 9.627z" id="patch_190"/><path clip-path="url(#pd37f9131a7)" d="M97.428 184.095l-14.073-2.482 1.697 9.627z" id="patch_191"/><path clip-path="url(#pd37f9131a7)" d="M97.428 184.095l-12.376 7.145 14.074 2.482z" id="patch_192"/><path clip-path="url(#pd37f9131a7)" d="M99.126 193.722l-14.074-2.482 1.698 9.627z" id="patch_193"/><path clip-path="url(#pd37f9131a7)" d="M185.76 143.703l-12.376 7.146 7.488 6.283z" id="patch_194"/><path clip-path="url(#pd37f9131a7)" d="M173.384 150.849l-12.377 7.145 7.489 6.284z" id="patch_195"/><path clip-path="url(#pd37f9131a7)" d="M161.007 157.994l-12.376 7.146 7.489 6.283z" id="patch_196"/><path clip-path="url(#pd37f9131a7)" d="M148.631 165.14l-12.376 7.145 7.488 6.284z" id="patch_197"/><path clip-path="url(#pd37f9131a7)" d="M136.255 172.285l-12.377 7.146 7.489 6.283z" id="patch_198"/><path clip-path="url(#pd37f9131a7)" d="M123.878 179.43l-12.376 7.146 7.489 6.284z" id="patch_199"/><path clip-path="url(#pd37f9131a7)" d="M111.502 186.576l-12.376 7.146 7.488 6.283z" id="patch_200"/><path clip-path="url(#pd37f9131a7)" d="M99.126 193.722l-12.376 7.145 7.488 6.284z" id="patch_201"/><path clip-path="url(#pd37f9131a7)" d="M173.384 150.849l-4.888 13.429 12.376-7.146z" id="patch_202"/><path clip-path="url(#pd37f9131a7)" d="M161.007 157.994l-4.887 13.43 12.376-7.146z" id="patch_203"/><path clip-path="url(#pd37f9131a7)" d="M148.631 165.14l-4.888 13.429 12.377-7.146z" id="patch_204"/><path clip-path="url(#pd37f9131a7)" d="M136.255 172.285l-4.888 13.43 12.376-7.146z" id="patch_205"/><path clip-path="url(#pd37f9131a7)" d="M123.878 179.43l-4.887 13.43 12.376-7.146z" id="patch_206"/><path clip-path="url(#pd37f9131a7)" d="M111.502 186.576l-4.888 13.43 12.377-7.146z" id="patch_207"/><path clip-path="url(#pd37f9131a7)" d="M99.126 193.722l-4.888 13.429 12.376-7.146z" id="patch_208"/><path clip-path="url(#pd37f9131a7)" d="M180.872 157.132l-12.376 7.146 7.488 6.284z" id="patch_209"/><path clip-path="url(#pd37f9131a7)" d="M168.496 164.278l-12.376 7.145 7.488 6.284z" id="patch_210"/><path clip-path="url(#pd37f9131a7)" d="M156.12 171.423l-12.377 7.146 7.489 6.283z" id="patch_211"/><path clip-path="url(#pd37f9131a7)" d="M143.743 178.569l-12.376 7.145 7.489 6.284z" id="patch_212"/><path clip-path="url(#pd37f9131a7)" d="M131.367 185.714l-12.376 7.146 7.488 6.283z" id="patch_213"/><path clip-path="url(#pd37f9131a7)" d="M118.99 192.86l-12.376 7.145 7.489 6.284z" id="patch_214"/><path clip-path="url(#pd37f9131a7)" d="M106.614 200.005l-12.376 7.146 7.489 6.283z" id="patch_215"/><path clip-path="url(#pd37f9131a7)" d="M168.496 164.278l-4.888 13.429 12.376-7.145z" id="patch_216"/><path clip-path="url(#pd37f9131a7)" d="M156.12 171.423l-4.888 13.43 12.376-7.146z" id="patch_217"/><path clip-path="url(#pd37f9131a7)" d="M143.743 178.569l-4.887 13.429 12.376-7.146z" id="patch_218"/><path clip-path="url(#pd37f9131a7)" d="M131.367 185.714l-4.888 13.43 12.377-7.146z" id="patch_219"/><path clip-path="url(#pd37f9131a7)" d="M118.99 192.86l-4.887 13.429 12.376-7.146z" id="patch_220"/><path clip-path="url(#pd37f9131a7)" d="M106.614 200.005l-4.887 13.43 12.376-7.146z" id="patch_221"/><path clip-path="url(#pd37f9131a7)" d="M175.984 170.562l-12.376 7.145 7.489 6.284z" id="patch_222"/><path clip-path="url(#pd37f9131a7)" d="M163.608 177.707l-12.376 7.145 7.488 6.284z" id="patch_223"/><path clip-path="url(#pd37f9131a7)" d="M151.232 184.852l-12.376 7.146 7.488 6.284z" id="patch_224"/><path clip-path="url(#pd37f9131a7)" d="M138.856 191.998l-12.377 7.145 7.489 6.284z" id="patch_225"/><path clip-path="url(#pd37f9131a7)" d="M126.48 199.143l-12.377 7.146 7.488 6.283z" id="patch_226"/><path clip-path="url(#pd37f9131a7)" d="M114.103 206.289l-12.376 7.145 7.488 6.284z" id="patch_227"/><path clip-path="url(#pd37f9131a7)" d="M163.608 177.707l-4.888 13.43 12.377-7.146z" id="patch_228"/><path clip-path="url(#pd37f9131a7)" d="M151.232 184.852l-4.888 13.43 12.376-7.146z" id="patch_229"/><path clip-path="url(#pd37f9131a7)" d="M138.856 191.998l-4.888 13.429 12.376-7.145z" id="patch_230"/><path clip-path="url(#pd37f9131a7)" d="M126.48 199.143l-4.889 13.43 12.377-7.146z" id="patch_231"/><path clip-path="url(#pd37f9131a7)" d="M114.103 206.289l-4.888 13.429 12.376-7.146z" id="patch_232"/><path clip-path="url(#pd37f9131a7)" d="M171.097 183.99l-12.377 7.146 7.489 6.284z" id="patch_233"/><path clip-path="url(#pd37f9131a7)" d="M158.72 191.136l-12.376 7.146 7.489 6.283z" id="patch_234"/><path clip-path="url(#pd37f9131a7)" d="M146.344 198.282l-12.376 7.145 7.488 6.284z" id="patch_235"/><path clip-path="url(#pd37f9131a7)" d="M133.968 205.427l-12.377 7.145 7.489 6.284z" id="patch_236"/><path clip-path="url(#pd37f9131a7)" d="M121.591 212.572l-12.376 7.146 7.489 6.284z" id="patch_237"/><path clip-path="url(#pd37f9131a7)" d="M158.72 191.136l-4.887 13.43 12.376-7.146z" id="patch_238"/><path clip-path="url(#pd37f9131a7)" d="M146.344 198.282l-4.888 13.429 12.377-7.146z" id="patch_239"/><path clip-path="url(#pd37f9131a7)" d="M133.968 205.427l-4.888 13.43 12.376-7.146z" id="patch_240"/><path clip-path="url(#pd37f9131a7)" d="M121.591 212.572l-4.887 13.43 12.376-7.146z" id="patch_241"/><path clip-path="url(#pd37f9131a7)" d="M166.209 197.42l-12.376 7.145 7.488 6.284z" id="patch_242"/><path clip-path="url(#pd37f9131a7)" d="M153.833 204.565l-12.377 7.146 7.489 6.283z" id="patch_243"/><path clip-path="url(#pd37f9131a7)" d="M141.456 211.71l-12.376 7.146 7.488 6.284z" id="patch_244"/><path clip-path="url(#pd37f9131a7)" d="M129.08 218.856l-12.376 7.146 7.488 6.283z" id="patch_245"/><path clip-path="url(#pd37f9131a7)" d="M153.833 204.565l-4.888 13.43 12.376-7.146z" id="patch_246"/><path clip-path="url(#pd37f9131a7)" d="M141.456 211.71l-4.888 13.43 12.377-7.146z" id="patch_247"/><path clip-path="url(#pd37f9131a7)" d="M129.08 218.856l-4.888 13.43 12.376-7.146z" id="patch_248"/><path clip-path="url(#pd37f9131a7)" d="M161.321 210.849l-12.376 7.145 7.488 6.284z" id="patch_249"/><path clip-path="url(#pd37f9131a7)" d="M148.945 217.994l-12.377 7.146 7.489 6.283z" id="patch_250"/><path clip-path="url(#pd37f9131a7)" d="M136.568 225.14l-12.376 7.145 7.489 6.284z" id="patch_251"/><path clip-path="url(#pd37f9131a7)" d="M148.945 217.994l-4.888 13.43 12.376-7.146z" id="patch_252"/><path clip-path="url(#pd37f9131a7)" d="M136.568 225.14l-4.887 13.429 12.376-7.146z" id="patch_253"/><path clip-path="url(#pd37f9131a7)" d="M156.433 224.278l-12.376 7.145 7.489 6.284z" id="patch_254"/><path clip-path="url(#pd37f9131a7)" d="M144.057 231.423l-12.376 7.146 7.488 6.283z" id="patch_255"/><path clip-path="url(#pd37f9131a7)" d="M144.057 231.423l-4.888 13.43 12.377-7.146z" id="patch_256"/><path clip-path="url(#pd37f9131a7)" d="M151.546 237.707l-12.377 7.145 7.489 6.284z" id="patch_257"/><path clip-path="url(#pd37f9131a7)" d="M185.76 143.703l-4.888 13.43h9.776z" id="patch_258"/><path clip-path="url(#pd37f9131a7)" d="M180.872 157.132l-4.888 13.43h9.776z" id="patch_259"/><path clip-path="url(#pd37f9131a7)" d="M175.984 170.562l-4.887 13.429h9.775z" id="patch_260"/><path clip-path="url(#pd37f9131a7)" d="M171.097 183.99l-4.888 13.43h9.775z" id="patch_261"/><path clip-path="url(#pd37f9131a7)" d="M166.209 197.42l-4.888 13.429h9.776z" id="patch_262"/><path clip-path="url(#pd37f9131a7)" d="M161.321 210.849l-4.888 13.429h9.776z" id="patch_263"/><path clip-path="url(#pd37f9131a7)" d="M156.433 224.278l-4.887 13.429h9.775z" id="patch_264"/><path clip-path="url(#pd37f9131a7)" d="M151.546 237.707l-4.888 13.429h9.775z" id="patch_265"/><path clip-path="url(#pd37f9131a7)" d="M180.872 157.132l4.888 13.43 4.888-13.43z" id="patch_266"/><path clip-path="url(#pd37f9131a7)" d="M175.984 170.562l4.888 13.429 4.888-13.43z" id="patch_267"/><path clip-path="url(#pd37f9131a7)" d="M171.097 183.99l4.887 13.43 4.888-13.43z" id="patch_268"/><path clip-path="url(#pd37f9131a7)" d="M166.209 197.42l4.888 13.429 4.887-13.43z" id="patch_269"/><path clip-path="url(#pd37f9131a7)" d="M161.321 210.849l4.888 13.429 4.888-13.43z" id="patch_270"/><path clip-path="url(#pd37f9131a7)" d="M156.433 224.278l4.888 13.429 4.888-13.43z" id="patch_271"/><path clip-path="url(#pd37f9131a7)" d="M151.546 237.707l4.887 13.429 4.888-13.43z" id="patch_272"/><path clip-path="url(#pd37f9131a7)" d="M190.648 157.132l-4.888 13.43h9.776z" id="patch_273"/><path clip-path="url(#pd37f9131a7)" d="M185.76 170.562l-4.888 13.429h9.776z" id="patch_274"/><path clip-path="url(#pd37f9131a7)" d="M180.872 183.99l-4.888 13.43h9.776z" id="patch_275"/><path clip-path="url(#pd37f9131a7)" d="M175.984 197.42l-4.887 13.429h9.775z" id="patch_276"/><path clip-path="url(#pd37f9131a7)" d="M171.097 210.849l-4.888 13.429h9.775z" id="patch_277"/><path clip-path="url(#pd37f9131a7)" d="M166.209 224.278l-4.888 13.429h9.776z" id="patch_278"/><path clip-path="url(#pd37f9131a7)" d="M161.321 237.707l-4.888 13.429h9.776z" id="patch_279"/><path clip-path="url(#pd37f9131a7)" d="M185.76 170.562l4.888 13.429 4.888-13.43z" id="patch_280"/><path clip-path="url(#pd37f9131a7)" d="M180.872 183.99l4.888 13.43 4.888-13.43z" id="patch_281"/><path clip-path="url(#pd37f9131a7)" d="M175.984 197.42l4.888 13.429 4.888-13.43z" id="patch_282"/><path clip-path="url(#pd37f9131a7)" d="M171.097 210.849l4.887 13.429 4.888-13.43z" id="patch_283"/><path clip-path="url(#pd37f9131a7)" d="M166.209 224.278l4.888 13.429 4.887-13.43z" id="patch_284"/><path clip-path="url(#pd37f9131a7)" d="M161.321 237.707l4.888 13.429 4.888-13.43z" id="patch_285"/><path clip-path="url(#pd37f9131a7)" d="M195.536 170.562l-4.888 13.429h9.775z" id="patch_286"/><path clip-path="url(#pd37f9131a7)" d="M190.648 183.99l-4.888 13.43h9.776z" id="patch_287"/><path clip-path="url(#pd37f9131a7)" d="M185.76 197.42l-4.888 13.429h9.776z" id="patch_288"/><path clip-path="url(#pd37f9131a7)" d="M180.872 210.849l-4.888 13.429h9.776z" id="patch_289"/><path clip-path="url(#pd37f9131a7)" d="M175.984 224.278l-4.887 13.429h9.775z" id="patch_290"/><path clip-path="url(#pd37f9131a7)" d="M171.097 237.707l-4.888 13.429h9.775z" id="patch_291"/><path clip-path="url(#pd37f9131a7)" d="M190.648 183.99l4.888 13.43 4.887-13.43z" id="patch_292"/><path clip-path="url(#pd37f9131a7)" d="M185.76 197.42l4.888 13.429 4.888-13.43z" id="patch_293"/><path clip-path="url(#pd37f9131a7)" d="M180.872 210.849l4.888 13.429 4.888-13.43z" id="patch_294"/><path clip-path="url(#pd37f9131a7)" d="M175.984 224.278l4.888 13.429 4.888-13.43z" id="patch_295"/><path clip-path="url(#pd37f9131a7)" d="M171.097 237.707l4.887 13.429 4.888-13.43z" id="patch_296"/><path clip-path="url(#pd37f9131a7)" d="M200.423 183.99l-4.887 13.43h9.775z" id="patch_297"/><path clip-path="url(#pd37f9131a7)" d="M195.536 197.42l-4.888 13.429h9.775z" id="patch_298"/><path clip-path="url(#pd37f9131a7)" d="M190.648 210.849l-4.888 13.429h9.776z" id="patch_299"/><path clip-path="url(#pd37f9131a7)" d="M185.76 224.278l-4.888 13.429h9.776z" id="patch_300"/><path clip-path="url(#pd37f9131a7)" d="M180.872 237.707l-4.888 13.429h9.776z" id="patch_301"/><path clip-path="url(#pd37f9131a7)" d="M195.536 197.42l4.887 13.429 4.888-13.43z" id="patch_302"/><path clip-path="url(#pd37f9131a7)" d="M190.648 210.849l4.888 13.429 4.887-13.43z" id="patch_303"/><path clip-path="url(#pd37f9131a7)" d="M185.76 224.278l4.888 13.429 4.888-13.43z" id="patch_304"/><path clip-path="url(#pd37f9131a7)" d="M180.872 237.707l4.888 13.429 4.888-13.43z" id="patch_305"/><path clip-path="url(#pd37f9131a7)" d="M205.311 197.42l-4.888 13.429h9.776z" id="patch_306"/><path clip-path="url(#pd37f9131a7)" d="M200.423 210.849l-4.887 13.429h9.775z" id="patch_307"/><path clip-path="url(#pd37f9131a7)" d="M195.536 224.278l-4.888 13.429h9.775z" id="patch_308"/><path clip-path="url(#pd37f9131a7)" d="M190.648 237.707l-4.888 13.429h9.776z" id="patch_309"/><path clip-path="url(#pd37f9131a7)" d="M200.423 210.849l4.888 13.429 4.888-13.43z" id="patch_310"/><path clip-path="url(#pd37f9131a7)" d="M195.536 224.278l4.887 13.429 4.888-13.43z" id="patch_311"/><path clip-path="url(#pd37f9131a7)" d="M190.648 237.707l4.888 13.429 4.887-13.43z" id="patch_312"/><path clip-path="url(#pd37f9131a7)" d="M210.199 210.849l-4.888 13.429h9.776z" id="patch_313"/><path clip-path="url(#pd37f9131a7)" d="M205.311 224.278l-4.888 13.429h9.776z" id="patch_314"/><path clip-path="url(#pd37f9131a7)" d="M200.423 237.707l-4.887 13.429h9.775z" id="patch_315"/><path clip-path="url(#pd37f9131a7)" d="M205.311 224.278l4.888 13.429 4.888-13.43z" id="patch_316"/><path clip-path="url(#pd37f9131a7)" d="M200.423 237.707l4.888 13.429 4.888-13.43z" id="patch_317"/><path clip-path="url(#pd37f9131a7)" d="M215.087 224.278l-4.888 13.429h9.775z" id="patch_318"/><path clip-path="url(#pd37f9131a7)" d="M210.199 237.707l-4.888 13.429h9.776z" id="patch_319"/><path clip-path="url(#pd37f9131a7)" d="M210.199 237.707l4.888 13.429 4.887-13.43z" id="patch_320"/><path clip-path="url(#pd37f9131a7)" d="M219.974 237.707l-4.887 13.429h9.775z" id="patch_321"/><path clip-path="url(#pd37f9131a7)" d="M185.76 143.703l4.888 13.43 7.488-6.284z" id="patch_322"/><path clip-path="url(#pd37f9131a7)" d="M190.648 157.132l4.888 13.43 7.488-6.284z" id="patch_323"/><path clip-path="url(#pd37f9131a7)" d="M195.536 170.562l4.887 13.429 7.489-6.284z" id="patch_324"/><path clip-path="url(#pd37f9131a7)" d="M200.423 183.99l4.888 13.43 7.489-6.284z" id="patch_325"/><path clip-path="url(#pd37f9131a7)" d="M205.311 197.42l4.888 13.429 7.488-6.284z" id="patch_326"/><path clip-path="url(#pd37f9131a7)" d="M210.199 210.849l4.888 13.429 7.488-6.284z" id="patch_327"/><path clip-path="url(#pd37f9131a7)" d="M215.087 224.278l4.887 13.429 7.489-6.284z" id="patch_328"/><path clip-path="url(#pd37f9131a7)" d="M219.974 237.707l4.888 13.429 7.489-6.284z" id="patch_329"/><path clip-path="url(#pd37f9131a7)" d="M190.648 157.132l12.376 7.146-4.888-13.43z" id="patch_330"/><path clip-path="url(#pd37f9131a7)" d="M195.536 170.562l12.376 7.145-4.888-13.43z" id="patch_331"/><path clip-path="url(#pd37f9131a7)" d="M200.423 183.99l12.377 7.146-4.888-13.429z" id="patch_332"/><path clip-path="url(#pd37f9131a7)" d="M205.311 197.42l12.376 7.145-4.887-13.429z" id="patch_333"/><path clip-path="url(#pd37f9131a7)" d="M210.199 210.849l12.376 7.145-4.888-13.429z" id="patch_334"/><path clip-path="url(#pd37f9131a7)" d="M215.087 224.278l12.376 7.145-4.888-13.429z" id="patch_335"/><path clip-path="url(#pd37f9131a7)" d="M219.974 237.707l12.377 7.145-4.888-13.429z" id="patch_336"/><path clip-path="url(#pd37f9131a7)" d="M198.136 150.849l4.888 13.429 7.489-6.284z" id="patch_337"/><path clip-path="url(#pd37f9131a7)" d="M203.024 164.278l4.888 13.429 7.488-6.284z" id="patch_338"/><path clip-path="url(#pd37f9131a7)" d="M207.912 177.707l4.888 13.43 7.488-6.285z" id="patch_339"/><path clip-path="url(#pd37f9131a7)" d="M212.8 191.136l4.887 13.43 7.489-6.284z" id="patch_340"/><path clip-path="url(#pd37f9131a7)" d="M217.687 204.565l4.888 13.43 7.489-6.284z" id="patch_341"/><path clip-path="url(#pd37f9131a7)" d="M222.575 217.994l4.888 13.43 7.489-6.284z" id="patch_342"/><path clip-path="url(#pd37f9131a7)" d="M227.463 231.423l4.888 13.43 7.488-6.284z" id="patch_343"/><path clip-path="url(#pd37f9131a7)" d="M203.024 164.278l12.376 7.145-4.887-13.429z" id="patch_344"/><path clip-path="url(#pd37f9131a7)" d="M207.912 177.707l12.376 7.145-4.888-13.429z" id="patch_345"/><path clip-path="url(#pd37f9131a7)" d="M212.8 191.136l12.376 7.146-4.888-13.43z" id="patch_346"/><path clip-path="url(#pd37f9131a7)" d="M217.687 204.565l12.377 7.146-4.888-13.43z" id="patch_347"/><path clip-path="url(#pd37f9131a7)" d="M222.575 217.994l12.377 7.146-4.888-13.43z" id="patch_348"/><path clip-path="url(#pd37f9131a7)" d="M227.463 231.423l12.376 7.146-4.887-13.43z" id="patch_349"/><path clip-path="url(#pd37f9131a7)" d="M210.513 157.994l4.887 13.43 7.489-6.284z" id="patch_350"/><path clip-path="url(#pd37f9131a7)" d="M215.4 171.423l4.888 13.43 7.489-6.284z" id="patch_351"/><path clip-path="url(#pd37f9131a7)" d="M220.288 184.852l4.888 13.43 7.488-6.284z" id="patch_352"/><path clip-path="url(#pd37f9131a7)" d="M225.176 198.282l4.888 13.429 7.488-6.284z" id="patch_353"/><path clip-path="url(#pd37f9131a7)" d="M230.064 211.71l4.888 13.43 7.488-6.284z" id="patch_354"/><path clip-path="url(#pd37f9131a7)" d="M234.952 225.14l4.887 13.429 7.489-6.284z" id="patch_355"/><path clip-path="url(#pd37f9131a7)" d="M215.4 171.423l12.377 7.146-4.888-13.43z" id="patch_356"/><path clip-path="url(#pd37f9131a7)" d="M220.288 184.852l12.376 7.146-4.887-13.43z" id="patch_357"/><path clip-path="url(#pd37f9131a7)" d="M225.176 198.282l12.376 7.145-4.888-13.43z" id="patch_358"/><path clip-path="url(#pd37f9131a7)" d="M230.064 211.71l12.376 7.146-4.888-13.429z" id="patch_359"/><path clip-path="url(#pd37f9131a7)" d="M234.952 225.14l12.376 7.145-4.888-13.429z" id="patch_360"/><path clip-path="url(#pd37f9131a7)" d="M222.889 165.14l4.888 13.429 7.488-6.284z" id="patch_361"/><path clip-path="url(#pd37f9131a7)" d="M227.777 178.569l4.887 13.429 7.489-6.284z" id="patch_362"/><path clip-path="url(#pd37f9131a7)" d="M232.664 191.998l4.888 13.429 7.489-6.284z" id="patch_363"/><path clip-path="url(#pd37f9131a7)" d="M237.552 205.427l4.888 13.43 7.489-6.285z" id="patch_364"/><path clip-path="url(#pd37f9131a7)" d="M242.44 218.856l4.888 13.43 7.488-6.284z" id="patch_365"/><path clip-path="url(#pd37f9131a7)" d="M227.777 178.569l12.376 7.145-4.888-13.429z" id="patch_366"/><path clip-path="url(#pd37f9131a7)" d="M232.664 191.998l12.377 7.145-4.888-13.429z" id="patch_367"/><path clip-path="url(#pd37f9131a7)" d="M237.552 205.427l12.377 7.145-4.888-13.429z" id="patch_368"/><path clip-path="url(#pd37f9131a7)" d="M242.44 218.856l12.376 7.146-4.887-13.43z" id="patch_369"/><path clip-path="url(#pd37f9131a7)" d="M235.265 172.285l4.888 13.43 7.489-6.284z" id="patch_370"/><path clip-path="url(#pd37f9131a7)" d="M240.153 185.714l4.888 13.43 7.488-6.284z" id="patch_371"/><path clip-path="url(#pd37f9131a7)" d="M245.04 199.143l4.889 13.43 7.488-6.284z" id="patch_372"/><path clip-path="url(#pd37f9131a7)" d="M249.929 212.572l4.887 13.43 7.489-6.284z" id="patch_373"/><path clip-path="url(#pd37f9131a7)" d="M240.153 185.714l12.376 7.146-4.887-13.43z" id="patch_374"/><path clip-path="url(#pd37f9131a7)" d="M245.04 199.143l12.377 7.146-4.888-13.43z" id="patch_375"/><path clip-path="url(#pd37f9131a7)" d="M249.929 212.572l12.376 7.146-4.888-13.43z" id="patch_376"/><path clip-path="url(#pd37f9131a7)" d="M247.642 179.43l4.887 13.43 7.489-6.284z" id="patch_377"/><path clip-path="url(#pd37f9131a7)" d="M252.53 192.86l4.887 13.429 7.489-6.284z" id="patch_378"/><path clip-path="url(#pd37f9131a7)" d="M257.417 206.289l4.888 13.429 7.488-6.284z" id="patch_379"/><path clip-path="url(#pd37f9131a7)" d="M252.53 192.86l12.376 7.145-4.888-13.429z" id="patch_380"/><path clip-path="url(#pd37f9131a7)" d="M257.417 206.289l12.376 7.145-4.887-13.429z" id="patch_381"/><path clip-path="url(#pd37f9131a7)" d="M260.018 186.576l4.888 13.43 7.488-6.284z" id="patch_382"/><path clip-path="url(#pd37f9131a7)" d="M264.906 200.005l4.887 13.43 7.489-6.284z" id="patch_383"/><path clip-path="url(#pd37f9131a7)" d="M264.906 200.005l12.376 7.146-4.888-13.43z" id="patch_384"/><path clip-path="url(#pd37f9131a7)" d="M272.394 193.722l4.888 13.429 7.488-6.284z" id="patch_385"/><path clip-path="url(#pd37f9131a7)" d="M185.76 143.703l12.376 7.146 1.698-9.627z" id="patch_386"/><path clip-path="url(#pd37f9131a7)" d="M198.136 150.849l12.377 7.145 1.697-9.627z" id="patch_387"/><path clip-path="url(#pd37f9131a7)" d="M210.513 157.994l12.376 7.146 1.697-9.627z" id="patch_388"/><path clip-path="url(#pd37f9131a7)" d="M222.889 165.14l12.376 7.145 1.698-9.627z" id="patch_389"/><path clip-path="url(#pd37f9131a7)" d="M235.265 172.285l12.377 7.146 1.697-9.627z" id="patch_390"/><path clip-path="url(#pd37f9131a7)" d="M247.642 179.43l12.376 7.146 1.697-9.627z" id="patch_391"/><path clip-path="url(#pd37f9131a7)" d="M260.018 186.576l12.376 7.146 1.698-9.627z" id="patch_392"/><path clip-path="url(#pd37f9131a7)" d="M272.394 193.722l12.376 7.145 1.698-9.627z" id="patch_393"/><path clip-path="url(#pd37f9131a7)" d="M198.136 150.849l14.074-2.482-12.376-7.145z" id="patch_394"/><path clip-path="url(#pd37f9131a7)" d="M210.513 157.994l14.073-2.481-12.376-7.146z" id="patch_395"/><path clip-path="url(#pd37f9131a7)" d="M222.889 165.14l14.074-2.482-12.377-7.145z" id="patch_396"/><path clip-path="url(#pd37f9131a7)" d="M235.265 172.285l14.074-2.481-12.376-7.146z" id="patch_397"/><path clip-path="url(#pd37f9131a7)" d="M247.642 179.43l14.073-2.48-12.376-7.146z" id="patch_398"/><path clip-path="url(#pd37f9131a7)" d="M260.018 186.576l14.074-2.481-12.377-7.146z" id="patch_399"/><path clip-path="url(#pd37f9131a7)" d="M272.394 193.722l14.074-2.482-12.376-7.145z" id="patch_400"/><path clip-path="url(#pd37f9131a7)" d="M199.834 141.222l12.376 7.145 1.698-9.627z" id="patch_401"/><path clip-path="url(#pd37f9131a7)" d="M212.21 148.367l12.376 7.146 1.698-9.627z" id="patch_402"/><path clip-path="url(#pd37f9131a7)" d="M224.586 155.513l12.377 7.145 1.697-9.627z" id="patch_403"/><path clip-path="url(#pd37f9131a7)" d="M236.963 162.658l12.376 7.146 1.698-9.627z" id="patch_404"/><path clip-path="url(#pd37f9131a7)" d="M249.339 169.804l12.376 7.145 1.698-9.627z" id="patch_405"/><path clip-path="url(#pd37f9131a7)" d="M261.715 176.95l12.377 7.145 1.697-9.627z" id="patch_406"/><path clip-path="url(#pd37f9131a7)" d="M274.092 184.095l12.376 7.145 1.697-9.627z" id="patch_407"/><path clip-path="url(#pd37f9131a7)" d="M212.21 148.367l14.074-2.481-12.376-7.146z" id="patch_408"/><path clip-path="url(#pd37f9131a7)" d="M224.586 155.513l14.074-2.482-12.376-7.145z" id="patch_409"/><path clip-path="url(#pd37f9131a7)" d="M236.963 162.658l14.074-2.481-12.377-7.146z" id="patch_410"/><path clip-path="url(#pd37f9131a7)" d="M249.339 169.804l14.074-2.482-12.376-7.145z" id="patch_411"/><path clip-path="url(#pd37f9131a7)" d="M261.715 176.95l14.074-2.482-12.376-7.146z" id="patch_412"/><path clip-path="url(#pd37f9131a7)" d="M274.092 184.095l14.073-2.482-12.376-7.145z" id="patch_413"/><path clip-path="url(#pd37f9131a7)" d="M213.908 138.74l12.376 7.146 1.697-9.627z" id="patch_414"/><path clip-path="url(#pd37f9131a7)" d="M226.284 145.886l12.376 7.145 1.698-9.627z" id="patch_415"/><path clip-path="url(#pd37f9131a7)" d="M238.66 153.031l12.377 7.146 1.697-9.627z" id="patch_416"/><path clip-path="url(#pd37f9131a7)" d="M251.037 160.177l12.376 7.145 1.697-9.627z" id="patch_417"/><path clip-path="url(#pd37f9131a7)" d="M263.413 167.322l12.376 7.146 1.698-9.628z" id="patch_418"/><path clip-path="url(#pd37f9131a7)" d="M275.79 174.468l12.375 7.145 1.698-9.627z" id="patch_419"/><path clip-path="url(#pd37f9131a7)" d="M226.284 145.886l14.074-2.482-12.377-7.145z" id="patch_420"/><path clip-path="url(#pd37f9131a7)" d="M238.66 153.031l14.074-2.481-12.376-7.146z" id="patch_421"/><path clip-path="url(#pd37f9131a7)" d="M251.037 160.177l14.073-2.482-12.376-7.145z" id="patch_422"/><path clip-path="url(#pd37f9131a7)" d="M263.413 167.322l14.074-2.482-12.377-7.145z" id="patch_423"/><path clip-path="url(#pd37f9131a7)" d="M275.79 174.468l14.073-2.482-12.376-7.146z" id="patch_424"/><path clip-path="url(#pd37f9131a7)" d="M227.981 136.259l12.377 7.145 1.697-9.627z" id="patch_425"/><path clip-path="url(#pd37f9131a7)" d="M240.358 143.404l12.376 7.146 1.698-9.628z" id="patch_426"/><path clip-path="url(#pd37f9131a7)" d="M252.734 150.55l12.376 7.145 1.698-9.627z" id="patch_427"/><path clip-path="url(#pd37f9131a7)" d="M265.11 157.695l12.377 7.145 1.697-9.627z" id="patch_428"/><path clip-path="url(#pd37f9131a7)" d="M277.487 164.84l12.376 7.146 1.697-9.627z" id="patch_429"/><path clip-path="url(#pd37f9131a7)" d="M240.358 143.404l14.074-2.482-12.377-7.145z" id="patch_430"/><path clip-path="url(#pd37f9131a7)" d="M252.734 150.55l14.074-2.482-12.376-7.146z" id="patch_431"/><path clip-path="url(#pd37f9131a7)" d="M265.11 157.695l14.074-2.482-12.376-7.145z" id="patch_432"/><path clip-path="url(#pd37f9131a7)" d="M277.487 164.84l14.073-2.481-12.376-7.146z" id="patch_433"/><path clip-path="url(#pd37f9131a7)" d="M242.055 133.777l12.377 7.145 1.697-9.627z" id="patch_434"/><path clip-path="url(#pd37f9131a7)" d="M254.432 140.922l12.376 7.146 1.697-9.627z" id="patch_435"/><path clip-path="url(#pd37f9131a7)" d="M266.808 148.068l12.376 7.145 1.698-9.627z" id="patch_436"/><path clip-path="url(#pd37f9131a7)" d="M279.184 155.213l12.376 7.146 1.698-9.627z" id="patch_437"/><path clip-path="url(#pd37f9131a7)" d="M254.432 140.922l14.073-2.481-12.376-7.146z" id="patch_438"/><path clip-path="url(#pd37f9131a7)" d="M266.808 148.068l14.074-2.482-12.377-7.145z" id="patch_439"/><path clip-path="url(#pd37f9131a7)" d="M279.184 155.213l14.074-2.481-12.376-7.146z" id="patch_440"/><path clip-path="url(#pd37f9131a7)" d="M256.13 131.295l12.375 7.146 1.698-9.627z" id="patch_441"/><path clip-path="url(#pd37f9131a7)" d="M268.505 138.44l12.377 7.146 1.697-9.627z" id="patch_442"/><path clip-path="url(#pd37f9131a7)" d="M280.882 145.586l12.376 7.146 1.697-9.627z" id="patch_443"/><path clip-path="url(#pd37f9131a7)" d="M268.505 138.44l14.074-2.48-12.376-7.146z" id="patch_444"/><path clip-path="url(#pd37f9131a7)" d="M280.882 145.586l14.073-2.481-12.376-7.146z" id="patch_445"/><path clip-path="url(#pd37f9131a7)" d="M270.203 128.814l12.376 7.145 1.698-9.627z" id="patch_446"/><path clip-path="url(#pd37f9131a7)" d="M282.58 135.96l12.375 7.145 1.698-9.627z" id="patch_447"/><path clip-path="url(#pd37f9131a7)" d="M282.58 135.96l14.073-2.482-12.376-7.146z" id="patch_448"/><path clip-path="url(#pd37f9131a7)" d="M284.277 126.332l12.376 7.146 1.698-9.627z" id="patch_449"/><path clip-path="url(#pd37f9131a7)" d="M185.76 143.703l14.074-2.481-4.888-8.466z" id="patch_450"/><path clip-path="url(#pd37f9131a7)" d="M199.834 141.222l14.074-2.482-4.888-8.466z" id="patch_451"/><path clip-path="url(#pd37f9131a7)" d="M213.908 138.74l14.073-2.481-4.887-8.466z" id="patch_452"/><path clip-path="url(#pd37f9131a7)" d="M227.981 136.259l14.074-2.482-4.888-8.466z" id="patch_453"/><path clip-path="url(#pd37f9131a7)" d="M242.055 133.777l14.074-2.482-4.888-8.465z" id="patch_454"/><path clip-path="url(#pd37f9131a7)" d="M256.13 131.295l14.073-2.481-4.888-8.466z" id="patch_455"/><path clip-path="url(#pd37f9131a7)" d="M270.203 128.814l14.074-2.482-4.888-8.466z" id="patch_456"/><path clip-path="url(#pd37f9131a7)" d="M284.277 126.332l14.074-2.481-4.888-8.466z" id="patch_457"/><path clip-path="url(#pd37f9131a7)" d="M199.834 141.222l9.186-10.948-14.074 2.482z" id="patch_458"/><path clip-path="url(#pd37f9131a7)" d="M213.908 138.74l9.186-10.947-14.074 2.481z" id="patch_459"/><path clip-path="url(#pd37f9131a7)" d="M227.981 136.259l9.186-10.948-14.073 2.482z" id="patch_460"/><path clip-path="url(#pd37f9131a7)" d="M242.055 133.777l9.186-10.947-14.074 2.481z" id="patch_461"/><path clip-path="url(#pd37f9131a7)" d="M256.13 131.295l9.185-10.947-14.074 2.482z" id="patch_462"/><path clip-path="url(#pd37f9131a7)" d="M270.203 128.814l9.186-10.948-14.074 2.482z" id="patch_463"/><path clip-path="url(#pd37f9131a7)" d="M284.277 126.332l9.186-10.947-14.074 2.481z" id="patch_464"/><path clip-path="url(#pd37f9131a7)" d="M194.946 132.756l14.074-2.482-4.888-8.466z" id="patch_465"/><path clip-path="url(#pd37f9131a7)" d="M209.02 130.274l14.074-2.481-4.888-8.466z" id="patch_466"/><path clip-path="url(#pd37f9131a7)" d="M223.094 127.793l14.073-2.482-4.887-8.466z" id="patch_467"/><path clip-path="url(#pd37f9131a7)" d="M237.167 125.311l14.074-2.481-4.888-8.466z" id="patch_468"/><path clip-path="url(#pd37f9131a7)" d="M251.241 122.83l14.074-2.482-4.888-8.466z" id="patch_469"/><path clip-path="url(#pd37f9131a7)" d="M265.315 120.348l14.074-2.482-4.888-8.466z" id="patch_470"/><path clip-path="url(#pd37f9131a7)" d="M279.389 117.866l14.074-2.481-4.888-8.466z" id="patch_471"/><path clip-path="url(#pd37f9131a7)" d="M209.02 130.274l9.186-10.947-14.074 2.481z" id="patch_472"/><path clip-path="url(#pd37f9131a7)" d="M223.094 127.793l9.186-10.948-14.074 2.482z" id="patch_473"/><path clip-path="url(#pd37f9131a7)" d="M237.167 125.311l9.186-10.947-14.073 2.481z" id="patch_474"/><path clip-path="url(#pd37f9131a7)" d="M251.241 122.83l9.186-10.948-14.074 2.482z" id="patch_475"/><path clip-path="url(#pd37f9131a7)" d="M265.315 120.348l9.186-10.948-14.074 2.482z" id="patch_476"/><path clip-path="url(#pd37f9131a7)" d="M279.389 117.866l9.186-10.947L274.5 109.4z" id="patch_477"/><path clip-path="url(#pd37f9131a7)" d="M204.132 121.808l14.074-2.481-4.888-8.466z" id="patch_478"/><path clip-path="url(#pd37f9131a7)" d="M218.206 119.327l14.074-2.482-4.888-8.466z" id="patch_479"/><path clip-path="url(#pd37f9131a7)" d="M232.28 116.845l14.073-2.481-4.887-8.466z" id="patch_480"/><path clip-path="url(#pd37f9131a7)" d="M246.353 114.364l14.074-2.482-4.887-8.466z" id="patch_481"/><path clip-path="url(#pd37f9131a7)" d="M260.427 111.882l14.074-2.482-4.888-8.465z" id="patch_482"/><path clip-path="url(#pd37f9131a7)" d="M274.501 109.4l14.074-2.481-4.888-8.466z" id="patch_483"/><path clip-path="url(#pd37f9131a7)" d="M218.206 119.327l9.186-10.948-14.074 2.482z" id="patch_484"/><path clip-path="url(#pd37f9131a7)" d="M232.28 116.845l9.186-10.947-14.074 2.481z" id="patch_485"/><path clip-path="url(#pd37f9131a7)" d="M246.353 114.364l9.187-10.948-14.074 2.482z" id="patch_486"/><path clip-path="url(#pd37f9131a7)" d="M260.427 111.882l9.186-10.947-14.073 2.481z" id="patch_487"/><path clip-path="url(#pd37f9131a7)" d="M274.501 109.4l9.186-10.947-14.074 2.482z" id="patch_488"/><path clip-path="url(#pd37f9131a7)" d="M213.318 110.86l14.074-2.48-4.888-8.467z" id="patch_489"/><path clip-path="url(#pd37f9131a7)" d="M227.392 108.38l14.074-2.482-4.888-8.466z" id="patch_490"/><path clip-path="url(#pd37f9131a7)" d="M241.466 105.898l14.074-2.482-4.888-8.466z" id="patch_491"/><path clip-path="url(#pd37f9131a7)" d="M255.54 103.416l14.073-2.481-4.887-8.466z" id="patch_492"/><path clip-path="url(#pd37f9131a7)" d="M269.613 100.935l14.074-2.482-4.888-8.466z" id="patch_493"/><path clip-path="url(#pd37f9131a7)" d="M227.392 108.38l9.186-10.948-14.074 2.481z" id="patch_494"/><path clip-path="url(#pd37f9131a7)" d="M241.466 105.898l9.186-10.948-14.074 2.482z" id="patch_495"/><path clip-path="url(#pd37f9131a7)" d="M255.54 103.416l9.186-10.947-14.074 2.481z" id="patch_496"/><path clip-path="url(#pd37f9131a7)" d="M269.613 100.935l9.186-10.948-14.073 2.482z" id="patch_497"/><path clip-path="url(#pd37f9131a7)" d="M222.504 99.913l14.074-2.481-4.888-8.466z" id="patch_498"/><path clip-path="url(#pd37f9131a7)" d="M236.578 97.432l14.074-2.482-4.888-8.466z" id="patch_499"/><path clip-path="url(#pd37f9131a7)" d="M250.652 94.95l14.074-2.481-4.888-8.466z" id="patch_500"/><path clip-path="url(#pd37f9131a7)" d="M264.726 92.469l14.073-2.482-4.887-8.466z" id="patch_501"/><path clip-path="url(#pd37f9131a7)" d="M236.578 97.432l9.186-10.948-14.074 2.482z" id="patch_502"/><path clip-path="url(#pd37f9131a7)" d="M250.652 94.95l9.186-10.947-14.074 2.481z" id="patch_503"/><path clip-path="url(#pd37f9131a7)" d="M264.726 92.469l9.186-10.948-14.074 2.482z" id="patch_504"/><path clip-path="url(#pd37f9131a7)" d="M231.69 88.966l14.074-2.482-4.888-8.466z" id="patch_505"/><path clip-path="url(#pd37f9131a7)" d="M245.764 86.484l14.074-2.481-4.888-8.466z" id="patch_506"/><path clip-path="url(#pd37f9131a7)" d="M259.838 84.003l14.074-2.482-4.888-8.466z" id="patch_507"/><path clip-path="url(#pd37f9131a7)" d="M245.764 86.484l9.186-10.947-14.074 2.481z" id="patch_508"/><path clip-path="url(#pd37f9131a7)" d="M259.838 84.003l9.186-10.948-14.074 2.482z" id="patch_509"/><path clip-path="url(#pd37f9131a7)" d="M240.876 78.018l14.074-2.481-4.888-8.466z" id="patch_510"/><path clip-path="url(#pd37f9131a7)" d="M254.95 75.537l14.074-2.482-4.888-8.466z" id="patch_511"/><path clip-path="url(#pd37f9131a7)" d="M254.95 75.537l9.186-10.948-14.074 2.482z" id="patch_512"/><path clip-path="url(#pd37f9131a7)" d="M250.062 67.071l14.074-2.482-4.888-8.465z" id="patch_513"/><path clip-path="url(#pd37f9131a7)" d="M185.76 143.703l9.186-10.947-9.186-3.344z" id="patch_514"/><path clip-path="url(#pd37f9131a7)" d="M194.946 132.756l9.186-10.948-9.186-3.343z" id="patch_515"/><path clip-path="url(#pd37f9131a7)" d="M204.132 121.808l9.186-10.947-9.186-3.343z" id="patch_516"/><path clip-path="url(#pd37f9131a7)" d="M213.318 110.86l9.186-10.947-9.186-3.343z" id="patch_517"/><path clip-path="url(#pd37f9131a7)" d="M222.504 99.913l9.186-10.947-9.186-3.343z" id="patch_518"/><path clip-path="url(#pd37f9131a7)" d="M231.69 88.966l9.186-10.948-9.186-3.343z" id="patch_519"/><path clip-path="url(#pd37f9131a7)" d="M240.876 78.018l9.186-10.947-9.186-3.343z" id="patch_520"/><path clip-path="url(#pd37f9131a7)" d="M250.062 67.071l9.186-10.947-9.186-3.344z" id="patch_521"/><path clip-path="url(#pd37f9131a7)" d="M194.946 132.756v-14.291l-9.186 10.947z" id="patch_522"/><path clip-path="url(#pd37f9131a7)" d="M204.132 121.808v-14.29l-9.186 10.947z" id="patch_523"/><path clip-path="url(#pd37f9131a7)" d="M213.318 110.86V96.57l-9.186 10.948z" id="patch_524"/><path clip-path="url(#pd37f9131a7)" d="M222.504 99.913v-14.29l-9.186 10.947z" id="patch_525"/><path clip-path="url(#pd37f9131a7)" d="M231.69 88.966v-14.29l-9.186 10.947z" id="patch_526"/><path clip-path="url(#pd37f9131a7)" d="M240.876 78.018v-14.29l-9.186 10.947z" id="patch_527"/><path clip-path="url(#pd37f9131a7)" d="M250.062 67.071v-14.29l-9.186 10.947z" id="patch_528"/><path clip-path="url(#pd37f9131a7)" d="M185.76 129.412l9.186-10.947-9.186-3.343z" id="patch_529"/><path clip-path="url(#pd37f9131a7)" d="M194.946 118.465l9.186-10.947-9.186-3.344z" id="patch_530"/><path clip-path="url(#pd37f9131a7)" d="M204.132 107.518l9.186-10.948-9.186-3.343z" id="patch_531"/><path clip-path="url(#pd37f9131a7)" d="M213.318 96.57l9.186-10.947-9.186-3.344z" id="patch_532"/><path clip-path="url(#pd37f9131a7)" d="M222.504 85.623l9.186-10.948-9.186-3.343z" id="patch_533"/><path clip-path="url(#pd37f9131a7)" d="M231.69 74.675l9.186-10.947-9.186-3.344z" id="patch_534"/><path clip-path="url(#pd37f9131a7)" d="M240.876 63.728l9.186-10.948-9.186-3.343z" id="patch_535"/><path clip-path="url(#pd37f9131a7)" d="M194.946 118.465v-14.29l-9.186 10.947z" id="patch_536"/><path clip-path="url(#pd37f9131a7)" d="M204.132 107.518V93.227l-9.186 10.947z" id="patch_537"/><path clip-path="url(#pd37f9131a7)" d="M213.318 96.57V82.28l-9.186 10.947z" id="patch_538"/><path clip-path="url(#pd37f9131a7)" d="M222.504 85.623V71.332l-9.186 10.947z" id="patch_539"/><path clip-path="url(#pd37f9131a7)" d="M231.69 74.675v-14.29l-9.186 10.947z" id="patch_540"/><path clip-path="url(#pd37f9131a7)" d="M240.876 63.728V49.437l-9.186 10.947z" id="patch_541"/><path clip-path="url(#pd37f9131a7)" d="M185.76 115.122l9.186-10.948-9.186-3.343z" id="patch_542"/><path clip-path="url(#pd37f9131a7)" d="M194.946 104.174l9.186-10.947-9.186-3.344z" id="patch_543"/><path clip-path="url(#pd37f9131a7)" d="M204.132 93.227l9.186-10.948-9.186-3.343z" id="patch_544"/><path clip-path="url(#pd37f9131a7)" d="M213.318 82.28l9.186-10.948-9.186-3.344z" id="patch_545"/><path clip-path="url(#pd37f9131a7)" d="M222.504 71.332l9.186-10.948-9.186-3.343z" id="patch_546"/><path clip-path="url(#pd37f9131a7)" d="M231.69 60.384l9.186-10.947-9.186-3.344z" id="patch_547"/><path clip-path="url(#pd37f9131a7)" d="M194.946 104.174v-14.29l-9.186 10.947z" id="patch_548"/><path clip-path="url(#pd37f9131a7)" d="M204.132 93.227V78.936l-9.186 10.947z" id="patch_549"/><path clip-path="url(#pd37f9131a7)" d="M213.318 82.28V67.987l-9.186 10.948z" id="patch_550"/><path clip-path="url(#pd37f9131a7)" d="M222.504 71.332V57.04l-9.186 10.947z" id="patch_551"/><path clip-path="url(#pd37f9131a7)" d="M231.69 60.384v-14.29l-9.186 10.947z" id="patch_552"/><path clip-path="url(#pd37f9131a7)" d="M185.76 100.83l9.186-10.947-9.186-3.343z" id="patch_553"/><path clip-path="url(#pd37f9131a7)" d="M194.946 89.883l9.186-10.947-9.186-3.344z" id="patch_554"/><path clip-path="url(#pd37f9131a7)" d="M204.132 78.936l9.186-10.948-9.186-3.343z" id="patch_555"/><path clip-path="url(#pd37f9131a7)" d="M213.318 67.988l9.186-10.947-9.186-3.344z" id="patch_556"/><path clip-path="url(#pd37f9131a7)" d="M222.504 57.04l9.186-10.947-9.186-3.343z" id="patch_557"/><path clip-path="url(#pd37f9131a7)" d="M194.946 89.883v-14.29L185.76 86.54z" id="patch_558"/><path clip-path="url(#pd37f9131a7)" d="M204.132 78.936V64.645l-9.186 10.947z" id="patch_559"/><path clip-path="url(#pd37f9131a7)" d="M213.318 67.988v-14.29l-9.186 10.947z" id="patch_560"/><path clip-path="url(#pd37f9131a7)" d="M222.504 57.04V42.75l-9.186 10.947z" id="patch_561"/><path clip-path="url(#pd37f9131a7)" d="M185.76 86.54l9.186-10.948-9.186-3.343z" id="patch_562"/><path clip-path="url(#pd37f9131a7)" d="M194.946 75.592l9.186-10.947-9.186-3.344z" id="patch_563"/><path clip-path="url(#pd37f9131a7)" d="M204.132 64.645l9.186-10.948-9.186-3.343z" id="patch_564"/><path clip-path="url(#pd37f9131a7)" d="M213.318 53.697l9.186-10.947-9.186-3.344z" id="patch_565"/><path clip-path="url(#pd37f9131a7)" d="M194.946 75.592v-14.29l-9.186 10.947z" id="patch_566"/><path clip-path="url(#pd37f9131a7)" d="M204.132 64.645V50.354L194.946 61.3z" id="patch_567"/><path clip-path="url(#pd37f9131a7)" d="M213.318 53.697v-14.29l-9.186 10.947z" id="patch_568"/><path clip-path="url(#pd37f9131a7)" d="M185.76 72.249l9.186-10.948-9.186-3.343z" id="patch_569"/><path clip-path="url(#pd37f9131a7)" d="M194.946 61.301l9.186-10.947-9.186-3.344z" id="patch_570"/><path clip-path="url(#pd37f9131a7)" d="M204.132 50.354l9.186-10.948-9.186-3.343z" id="patch_571"/><path clip-path="url(#pd37f9131a7)" d="M194.946 61.301v-14.29l-9.186 10.947z" id="patch_572"/><path clip-path="url(#pd37f9131a7)" d="M204.132 50.354V36.063l-9.186 10.947z" id="patch_573"/><path clip-path="url(#pd37f9131a7)" d="M185.76 57.958l9.186-10.948-9.186-3.343z" id="patch_574"/><path clip-path="url(#pd37f9131a7)" d="M194.946 47.01l9.186-10.947-9.186-3.344z" id="patch_575"/><path clip-path="url(#pd37f9131a7)" d="M194.946 47.01V32.72l-9.186 10.947z" id="patch_576"/><path clip-path="url(#pd37f9131a7)" d="M185.76 43.667l9.186-10.948-9.186-3.343z" id="patch_577"/></g></g><defs><clipPath id="pd37f9131a7"><path d="M7.2 7.2h357.12v266.112H7.2z"/></clipPath></defs></svg>