<svg xmlns="http://www.w3.org/2000/svg" id="svg589" version="1.1" width="297.008" viewBox="0 0 222.756 222.76" height="297.013"><defs id="defs4"><style id="style2">*{stroke-linecap:butt;stroke-linejoin:round}</style></defs><g transform="translate(-74.382 -28.876)" id="figure_1"><g id="axes_1" stroke="#000" fill="#ddd"><path id="patch_2" d="M185.76 140.256v-13.86l-8.909 3.243z" clip-path="url(#pbd942f4fc4)"/><path id="patch_3" d="M185.76 126.396v-13.86l-9.48 1.672z" clip-path="url(#pbd942f4fc4)"/><path id="patch_4" d="M185.76 112.536v-13.86l-9.412 1.08z" clip-path="url(#pbd942f4fc4)"/><path id="patch_5" d="M185.76 98.676v-13.86l-9.328.79z" clip-path="url(#pbd942f4fc4)"/><path id="patch_6" d="M185.76 84.816v-13.86l-9.263.622z" clip-path="url(#pbd942f4fc4)"/><path id="patch_7" d="M185.76 70.956v-13.86l-9.213.512z" clip-path="url(#pbd942f4fc4)"/><path id="patch_8" d="M185.76 57.096v-13.86l-9.176.435z" clip-path="url(#pbd942f4fc4)"/><path id="patch_9" d="M185.76 43.236v-13.86l-9.146.378z" clip-path="url(#pbd942f4fc4)"/><path id="patch_10" d="m185.76 126.396-9.48-12.188.571 15.43z" clip-path="url(#pbd942f4fc4)"/><path id="patch_11" d="m185.76 112.536-9.412-12.78-.069 14.452z" clip-path="url(#pbd942f4fc4)"/><path id="patch_12" d="m185.76 98.676-9.328-13.07-.084 14.15z" clip-path="url(#pbd942f4fc4)"/><path id="patch_13" d="m185.76 84.816-9.263-13.238-.065 14.028z" clip-path="url(#pbd942f4fc4)"/><path id="patch_14" d="m185.76 70.956-9.213-13.348-.05 13.97z" clip-path="url(#pbd942f4fc4)"/><path id="patch_15" d="m185.76 57.096-9.176-13.425-.037 13.937z" clip-path="url(#pbd942f4fc4)"/><path id="patch_16" d="m185.76 43.236-9.146-13.482-.03 13.917z" clip-path="url(#pbd942f4fc4)"/><path id="patch_17" d="m176.851 129.639-.572-15.431-8.337 4.813z" clip-path="url(#pbd942f4fc4)"/><path id="patch_18" d="m176.28 114.208.068-14.453-9.412 3.426z" clip-path="url(#pbd942f4fc4)"/><path id="patch_19" d="m176.348 99.755.084-14.149-9.634 2.553z" clip-path="url(#pbd942f4fc4)"/><path id="patch_20" d="m176.432 85.606.065-14.028-9.649 2.008z" clip-path="url(#pbd942f4fc4)"/><path id="patch_21" d="m176.497 71.578.05-13.97-9.61 1.646z" clip-path="url(#pbd942f4fc4)"/><path id="patch_22" d="m176.547 57.608.037-13.937-9.559 1.391z" clip-path="url(#pbd942f4fc4)"/><path id="patch_23" d="m176.584 43.67.03-13.916-9.51 1.203z" clip-path="url(#pbd942f4fc4)"/><path id="patch_24" d="m176.28 114.208-9.344-11.027 1.006 15.84z" clip-path="url(#pbd942f4fc4)"/><path id="patch_25" d="m176.348 99.755-9.55-11.596.138 15.022z" clip-path="url(#pbd942f4fc4)"/><path id="patch_26" d="m176.432 85.606-9.584-12.02-.05 14.573z" clip-path="url(#pbd942f4fc4)"/><path id="patch_27" d="m176.497 71.578-9.56-12.324-.089 14.332z" clip-path="url(#pbd942f4fc4)"/><path id="patch_28" d="m176.547 57.608-9.522-12.546-.089 14.192z" clip-path="url(#pbd942f4fc4)"/><path id="patch_29" d="m176.584 43.67-9.48-12.713-.079 14.105z" clip-path="url(#pbd942f4fc4)"/><path id="patch_30" d="m167.942 119.021-1.006-15.84-7.903 5.223z" clip-path="url(#pbd942f4fc4)"/><path id="patch_31" d="m166.936 103.18-.138-15.02-9.02 4.236z" clip-path="url(#pbd942f4fc4)"/><path id="patch_32" d="m166.798 88.16.05-14.574-9.455 3.442z" clip-path="url(#pbd942f4fc4)"/><path id="patch_33" d="m166.848 73.586.088-14.332-9.618 2.857z" clip-path="url(#pbd942f4fc4)"/><path id="patch_34" d="m166.936 59.254.089-14.192-9.669 2.425z" clip-path="url(#pbd942f4fc4)"/><path id="patch_35" d="m167.025 45.062.08-14.105-9.67 2.098z" clip-path="url(#pbd942f4fc4)"/><path id="patch_36" d="m166.936 103.18-9.159-10.784 1.256 16.008z" clip-path="url(#pbd942f4fc4)"/><path id="patch_37" d="m166.798 88.16-9.405-11.132.384 15.368z" clip-path="url(#pbd942f4fc4)"/><path id="patch_38" d="m166.848 73.586-9.53-11.475.075 14.917z" clip-path="url(#pbd942f4fc4)"/><path id="patch_39" d="m166.936 59.254-9.58-11.767-.038 14.624z" clip-path="url(#pbd942f4fc4)"/><path id="patch_40" d="m167.025 45.062-9.59-12.007-.079 14.432z" clip-path="url(#pbd942f4fc4)"/><path id="patch_41" d="m159.033 108.404-1.256-16.008-7.653 5.39z" clip-path="url(#pbd942f4fc4)"/><path id="patch_42" d="m157.777 92.396-.384-15.368-8.683 4.664z" clip-path="url(#pbd942f4fc4)"/><path id="patch_43" d="m157.393 77.028-.075-14.917-9.205 3.995z" clip-path="url(#pbd942f4fc4)"/><path id="patch_44" d="m157.318 62.111.038-14.624-9.468 3.446z" clip-path="url(#pbd942f4fc4)"/><path id="patch_45" d="m157.356 47.487.079-14.432-9.598 3.008z" clip-path="url(#pbd942f4fc4)"/><path id="patch_46" d="m157.777 92.396-9.067-10.704 1.414 16.094z" clip-path="url(#pbd942f4fc4)"/><path id="patch_47" d="m157.393 77.028-9.28-10.922.597 15.586z" clip-path="url(#pbd942f4fc4)"/><path id="patch_48" d="m157.318 62.111-9.43-11.178.225 15.173z" clip-path="url(#pbd942f4fc4)"/><path id="patch_49" d="m157.356 47.487-9.52-11.424.052 14.87z" clip-path="url(#pbd942f4fc4)"/><path id="patch_50" d="m150.124 97.786-1.414-16.094-7.495 5.477z" clip-path="url(#pbd942f4fc4)"/><path id="patch_51" d="m148.71 81.692-.597-15.586-8.42 4.916z" clip-path="url(#pbd942f4fc4)"/><path id="patch_52" d="m148.113 66.106-.225-15.173-8.966 4.358z" clip-path="url(#pbd942f4fc4)"/><path id="patch_53" d="m147.888 50.933-.051-14.87-9.286 3.865z" clip-path="url(#pbd942f4fc4)"/><path id="patch_54" d="m148.71 81.692-9.017-10.67 1.522 16.147z" clip-path="url(#pbd942f4fc4)"/><path id="patch_55" d="m148.113 66.106-9.19-10.815.77 15.73z" clip-path="url(#pbd942f4fc4)"/><path id="patch_56" d="m147.888 50.933-9.337-11.005.371 15.363z" clip-path="url(#pbd942f4fc4)"/><path id="patch_57" d="m141.215 87.17-1.522-16.148-7.387 5.53z" clip-path="url(#pbd942f4fc4)"/><path id="patch_58" d="m139.693 71.022-.77-15.731-8.218 5.078z" clip-path="url(#pbd942f4fc4)"/><path id="patch_59" d="m138.922 55.29-.371-15.362-8.757 4.608z" clip-path="url(#pbd942f4fc4)"/><path id="patch_60" d="m139.693 71.022-8.988-10.653 1.6 16.183z" clip-path="url(#pbd942f4fc4)"/><path id="patch_61" d="m138.922 55.29-9.128-10.754.911 15.833z" clip-path="url(#pbd942f4fc4)"/><path id="patch_62" d="m132.306 76.552-1.6-16.183-7.31 5.565z" clip-path="url(#pbd942f4fc4)"/><path id="patch_63" d="m130.705 60.37-.91-15.834-8.058 5.191z" clip-path="url(#pbd942f4fc4)"/><path id="patch_64" d="m130.705 60.37-8.968-10.643 1.66 16.207z" clip-path="url(#pbd942f4fc4)"/><path id="patch_65" d="m123.397 65.934-1.66-16.207-7.25 5.59z" clip-path="url(#pbd942f4fc4)"/><path id="patch_66" d="m185.76 140.256-8.909-10.617-4.74 8.21z" clip-path="url(#pbd942f4fc4)"/><path id="patch_67" d="m176.851 129.639-8.91-10.618-6.187 7.375z" clip-path="url(#pbd942f4fc4)"/><path id="patch_68" d="m167.942 119.021-8.91-10.617-6.515 6.876z" clip-path="url(#pbd942f4fc4)"/><path id="patch_69" d="m159.033 108.404-8.91-10.618-6.637 6.602z" clip-path="url(#pbd942f4fc4)"/><path id="patch_70" d="m150.124 97.786-8.91-10.617-6.695 6.43z" clip-path="url(#pbd942f4fc4)"/><path id="patch_71" d="m141.215 87.17-8.91-10.618-6.728 6.314z" clip-path="url(#pbd942f4fc4)"/><path id="patch_72" d="m132.306 76.552-8.91-10.618-6.749 6.232z" clip-path="url(#pbd942f4fc4)"/><path id="patch_73" d="m123.397 65.934-8.91-10.617-6.763 6.168z" clip-path="url(#pbd942f4fc4)"/><path id="patch_74" d="m176.851 129.639-15.097-3.243 10.357 11.453z" clip-path="url(#pbd942f4fc4)"/><path id="patch_75" d="m167.942 119.021-15.425-3.74 9.237 11.115z" clip-path="url(#pbd942f4fc4)"/><path id="patch_76" d="m159.033 108.404-15.547-4.016 9.03 10.892z" clip-path="url(#pbd942f4fc4)"/><path id="patch_77" d="M150.124 97.786 134.519 93.6l8.967 10.789z" clip-path="url(#pbd942f4fc4)"/><path id="patch_78" d="m141.215 87.17-15.638-4.304 8.942 10.733z" clip-path="url(#pbd942f4fc4)"/><path id="patch_79" d="m132.306 76.552-15.659-4.386 8.93 10.7z" clip-path="url(#pbd942f4fc4)"/><path id="patch_80" d="m123.397 65.934-15.673-4.449 8.923 10.68z" clip-path="url(#pbd942f4fc4)"/><path id="patch_81" d="m172.11 137.85-10.356-11.454-3.293 9.046z" clip-path="url(#pbd942f4fc4)"/><path id="patch_82" d="m161.754 126.396-9.237-11.116-5.008 8.674z" clip-path="url(#pbd942f4fc4)"/><path id="patch_83" d="m152.517 115.28-9.03-10.892-5.74 8.148z" clip-path="url(#pbd942f4fc4)"/><path id="patch_84" d="m143.486 104.388-8.967-10.789-6.1 7.741z" clip-path="url(#pbd942f4fc4)"/><path id="patch_85" d="m134.519 93.6-8.942-10.734-6.304 7.439z" clip-path="url(#pbd942f4fc4)"/><path id="patch_86" d="m125.577 82.866-8.93-10.7-6.428 7.21z" clip-path="url(#pbd942f4fc4)"/><path id="patch_87" d="m116.647 72.166-8.923-10.68-6.511 7.033z" clip-path="url(#pbd942f4fc4)"/><path id="patch_88" d="m161.754 126.396-14.245-2.442 10.952 11.488z" clip-path="url(#pbd942f4fc4)"/><path id="patch_89" d="m152.517 115.28-14.77-2.744 9.762 11.418z" clip-path="url(#pbd942f4fc4)"/><path id="patch_90" d="m143.486 104.388-15.068-3.048 9.33 11.196z" clip-path="url(#pbd942f4fc4)"/><path id="patch_91" d="m134.519 93.6-15.246-3.295 9.145 11.035z" clip-path="url(#pbd942f4fc4)"/><path id="patch_92" d="m125.577 82.866-15.358-3.49 9.054 10.929z" clip-path="url(#pbd942f4fc4)"/><path id="patch_93" d="m116.647 72.166-15.434-3.647 9.006 10.857z" clip-path="url(#pbd942f4fc4)"/><path id="patch_94" d="m158.461 135.442-10.952-11.488-2.697 9.082z" clip-path="url(#pbd942f4fc4)"/><path id="patch_95" d="m147.509 123.954-9.761-11.418-4.188 9.044z" clip-path="url(#pbd942f4fc4)"/><path id="patch_96" d="m137.748 112.536-9.33-11.196-5.03 8.715z" clip-path="url(#pbd942f4fc4)"/><path id="patch_97" d="m128.418 101.34-9.145-11.035-5.532 8.371z" clip-path="url(#pbd942f4fc4)"/><path id="patch_98" d="m119.273 90.305-9.054-10.93-5.849 8.074z" clip-path="url(#pbd942f4fc4)"/><path id="patch_99" d="m110.219 79.376-9.006-10.857-6.059 7.823z" clip-path="url(#pbd942f4fc4)"/><path id="patch_100" d="m147.509 123.954-13.949-2.374 11.252 11.456z" clip-path="url(#pbd942f4fc4)"/><path id="patch_101" d="m137.748 112.536-14.36-2.481 10.172 11.525z" clip-path="url(#pbd942f4fc4)"/><path id="patch_102" d="m128.418 101.34-14.677-2.664 9.646 11.379z" clip-path="url(#pbd942f4fc4)"/><path id="patch_103" d="m119.273 90.305-14.903-2.856 9.371 11.227z" clip-path="url(#pbd942f4fc4)"/><path id="patch_104" d="m110.219 79.376-15.065-3.034 9.216 11.107z" clip-path="url(#pbd942f4fc4)"/><path id="patch_105" d="M144.812 133.036 133.56 121.58l-2.398 9.049z" clip-path="url(#pbd942f4fc4)"/><path id="patch_106" d="m133.56 121.58-10.173-11.525-3.653 9.153z" clip-path="url(#pbd942f4fc4)"/><path id="patch_107" d="m123.387 110.055-9.646-11.379-4.483 8.977z" clip-path="url(#pbd942f4fc4)"/><path id="patch_108" d="m113.741 98.676-9.37-11.227-5.038 8.725z" clip-path="url(#pbd942f4fc4)"/><path id="patch_109" d="m104.37 87.449-9.216-11.107-5.419 8.474z" clip-path="url(#pbd942f4fc4)"/><path id="patch_110" d="m133.56 121.58-13.826-2.372 11.428 11.42z" clip-path="url(#pbd942f4fc4)"/><path id="patch_111" d="m123.387 110.055-14.13-2.402 10.477 11.555z" clip-path="url(#pbd942f4fc4)"/><path id="patch_112" d="m113.741 98.676-14.408-2.502 9.925 11.479z" clip-path="url(#pbd942f4fc4)"/><path id="patch_113" d="m104.37 87.449-14.635-2.633 9.598 11.358z" clip-path="url(#pbd942f4fc4)"/><path id="patch_114" d="m131.162 130.629-11.428-11.42-2.221 9.013z" clip-path="url(#pbd942f4fc4)"/><path id="patch_115" d="m119.734 119.208-10.476-11.555-3.29 9.178z" clip-path="url(#pbd942f4fc4)"/><path id="patch_116" d="m109.258 107.653-9.925-11.479-4.067 9.101z" clip-path="url(#pbd942f4fc4)"/><path id="patch_117" d="m99.333 96.174-9.598-11.358-4.629 8.93z" clip-path="url(#pbd942f4fc4)"/><path id="patch_118" d="m119.734 119.208-13.767-2.377 11.546 11.391z" clip-path="url(#pbd942f4fc4)"/><path id="patch_119" d="m109.258 107.653-13.992-2.378 10.701 11.556z" clip-path="url(#pbd942f4fc4)"/><path id="patch_120" d="m99.333 96.174-14.227-2.428 10.16 11.53z" clip-path="url(#pbd942f4fc4)"/><path id="patch_121" d="m117.513 128.222-11.546-11.391-2.104 8.984z" clip-path="url(#pbd942f4fc4)"/><path id="patch_122" d="m105.967 116.83-10.701-11.555-3.03 9.173z" clip-path="url(#pbd942f4fc4)"/><path id="patch_123" d="m95.266 105.275-10.16-11.53-3.745 9.16z" clip-path="url(#pbd942f4fc4)"/><path id="patch_124" d="m105.967 116.83-13.731-2.382 11.627 11.367z" clip-path="url(#pbd942f4fc4)"/><path id="patch_125" d="m95.266 105.275-13.905-2.37 10.875 11.543z" clip-path="url(#pbd942f4fc4)"/><path id="patch_126" d="m103.863 125.815-11.627-11.367-2.022 8.96z" clip-path="url(#pbd942f4fc4)"/><path id="patch_127" d="M92.236 114.448 81.36 102.905l-2.836 9.155z" clip-path="url(#pbd942f4fc4)"/><path id="patch_128" d="m92.236 114.448-13.711-2.388 11.689 11.349z" clip-path="url(#pbd942f4fc4)"/><path id="patch_129" d="m90.214 123.409-11.69-11.349-1.96 8.942z" clip-path="url(#pbd942f4fc4)"/><path id="patch_130" d="m185.76 140.256-13.65-2.407 1.647 9.337z" clip-path="url(#pbd942f4fc4)"/><path id="patch_131" d="m172.11 137.85-13.649-2.408v9.628z" clip-path="url(#pbd942f4fc4)"/><path id="patch_132" d="m158.461 135.442-13.65-2.406-.57 9.456z" clip-path="url(#pbd942f4fc4)"/><path id="patch_133" d="m144.812 133.036-13.65-2.407-.841 9.323z" clip-path="url(#pbd942f4fc4)"/><path id="patch_134" d="m131.162 130.629-13.65-2.407-.995 9.23z" clip-path="url(#pbd942f4fc4)"/><path id="patch_135" d="m117.513 128.222-13.65-2.407-1.095 9.163z" clip-path="url(#pbd942f4fc4)"/><path id="patch_136" d="m103.863 125.815-13.649-2.406-1.165 9.112z" clip-path="url(#pbd942f4fc4)"/><path id="patch_137" d="m90.214 123.409-13.65-2.407-1.216 9.073z" clip-path="url(#pbd942f4fc4)"/><path id="patch_138" d="m172.11 137.85-13.649 7.22 15.296 2.116z" clip-path="url(#pbd942f4fc4)"/><path id="patch_139" d="m158.461 135.442-14.22 7.05 14.22 2.578z" clip-path="url(#pbd942f4fc4)"/><path id="patch_140" d="m144.812 133.036-14.491 6.916 13.92 2.54z" clip-path="url(#pbd942f4fc4)"/><path id="patch_141" d="m131.162 130.629-14.645 6.823 13.804 2.5z" clip-path="url(#pbd942f4fc4)"/><path id="patch_142" d="m117.513 128.222-14.745 6.756 13.749 2.474z" clip-path="url(#pbd942f4fc4)"/><path id="patch_143" d="m103.863 125.815-14.814 6.706 13.719 2.457z" clip-path="url(#pbd942f4fc4)"/><path id="patch_144" d="m90.214 123.409-14.866 6.666 13.7 2.446z" clip-path="url(#pbd942f4fc4)"/><path id="patch_145" d="m173.757 147.186-15.296-2.116 3.293 9.046z" clip-path="url(#pbd942f4fc4)"/><path id="patch_146" d="m158.461 145.07-14.22-2.578 1.738 9.864z" clip-path="url(#pbd942f4fc4)"/><path id="patch_147" d="m144.24 142.492-13.92-2.54.842 9.931z" clip-path="url(#pbd942f4fc4)"/><path id="patch_148" d="m130.32 139.952-13.803-2.5.302 9.851z" clip-path="url(#pbd942f4fc4)"/><path id="patch_149" d="m116.517 137.452-13.75-2.474-.047 9.75z" clip-path="url(#pbd942f4fc4)"/><path id="patch_150" d="m102.768 134.978-13.72-2.457-.289 9.655z" clip-path="url(#pbd942f4fc4)"/><path id="patch_151" d="m89.049 132.52-13.7-2.445-.467 9.573z" clip-path="url(#pbd942f4fc4)"/><path id="patch_152" d="m158.461 145.07-12.482 7.286 15.775 1.76z" clip-path="url(#pbd942f4fc4)"/><path id="patch_153" d="m144.24 142.492-13.078 7.391 14.817 2.473z" clip-path="url(#pbd942f4fc4)"/><path id="patch_154" d="m130.32 139.952-13.5 7.351 14.342 2.58z" clip-path="url(#pbd942f4fc4)"/><path id="patch_155" d="m116.517 137.452-13.797 7.276 14.1 2.575z" clip-path="url(#pbd942f4fc4)"/><path id="patch_156" d="m102.768 134.978-14.009 7.198 13.961 2.552z" clip-path="url(#pbd942f4fc4)"/><path id="patch_157" d="m89.049 132.52-14.167 7.128 13.877 2.528z" clip-path="url(#pbd942f4fc4)"/><path id="patch_158" d="m161.754 154.116-15.775-1.76 3.772 8.69z" clip-path="url(#pbd942f4fc4)"/><path id="patch_159" d="m145.98 152.356-14.818-2.473 2.606 9.62z" clip-path="url(#pbd942f4fc4)"/><path id="patch_160" d="m131.162 149.883-14.343-2.58 1.748 9.91z" clip-path="url(#pbd942f4fc4)"/><path id="patch_161" d="m116.82 147.303-14.1-2.575 1.143 9.969z" clip-path="url(#pbd942f4fc4)"/><path id="patch_162" d="m102.72 144.728-13.961-2.552.709 9.943z" clip-path="url(#pbd942f4fc4)"/><path id="patch_163" d="m88.759 142.176-13.877-2.528.387 9.888z" clip-path="url(#pbd942f4fc4)"/><path id="patch_164" d="m145.98 152.356-12.212 7.147 15.983 1.543z" clip-path="url(#pbd942f4fc4)"/><path id="patch_165" d="m131.162 149.883-12.595 7.33 15.201 2.29z" clip-path="url(#pbd942f4fc4)"/><path id="patch_166" d="m116.82 147.303-12.957 7.394 14.704 2.516z" clip-path="url(#pbd942f4fc4)"/><path id="patch_167" d="m102.72 144.728-13.252 7.391 14.395 2.578z" clip-path="url(#pbd942f4fc4)"/><path id="patch_168" d="m88.759 142.176-13.49 7.36 14.199 2.583z" clip-path="url(#pbd942f4fc4)"/><path id="patch_169" d="m149.75 161.046-15.982-1.543 3.98 8.473z" clip-path="url(#pbd942f4fc4)"/><path id="patch_170" d="m133.768 159.503-15.201-2.29 3.085 9.36z" clip-path="url(#pbd942f4fc4)"/><path id="patch_171" d="m118.567 157.213-14.704-2.516 2.336 9.758z" clip-path="url(#pbd942f4fc4)"/><path id="patch_172" d="m103.863 154.697-14.395-2.578 1.75 9.923z" clip-path="url(#pbd942f4fc4)"/><path id="patch_173" d="m89.468 152.12-14.199-2.584 1.296 9.974z" clip-path="url(#pbd942f4fc4)"/><path id="patch_174" d="m133.768 159.503-12.116 7.07 16.096 1.403z" clip-path="url(#pbd942f4fc4)"/><path id="patch_175" d="m118.567 157.213-12.368 7.242 15.453 2.119z" clip-path="url(#pbd942f4fc4)"/><path id="patch_176" d="m103.863 154.697-12.645 7.345 14.98 2.413z" clip-path="url(#pbd942f4fc4)"/><path id="patch_177" d="m89.468 152.12-12.903 7.39 14.653 2.532z" clip-path="url(#pbd942f4fc4)"/><path id="patch_178" d="m137.748 167.976-16.096-1.402 4.092 8.332z" clip-path="url(#pbd942f4fc4)"/><path id="patch_179" d="m121.652 166.574-15.453-2.119 3.379 9.146z" clip-path="url(#pbd942f4fc4)"/><path id="patch_180" d="m106.199 164.455-14.981-2.413 2.734 9.586z" clip-path="url(#pbd942f4fc4)"/><path id="patch_181" d="m91.218 162.042-14.653-2.532 2.194 9.816z" clip-path="url(#pbd942f4fc4)"/><path id="patch_182" d="m121.652 166.574-12.074 7.027 16.166 1.305z" clip-path="url(#pbd942f4fc4)"/><path id="patch_183" d="m106.199 164.455-12.247 7.173 15.626 1.973z" clip-path="url(#pbd942f4fc4)"/><path id="patch_184" d="m91.218 162.042-12.46 7.284 15.194 2.302z" clip-path="url(#pbd942f4fc4)"/><path id="patch_185" d="m125.744 174.906-16.166-1.305 4.163 8.235z" clip-path="url(#pbd942f4fc4)"/><path id="patch_186" d="m109.578 173.6-15.626-1.972 3.575 8.974z" clip-path="url(#pbd942f4fc4)"/><path id="patch_187" d="m93.952 171.628-15.193-2.302 3.017 9.424z" clip-path="url(#pbd942f4fc4)"/><path id="patch_188" d="m109.578 173.6-12.051 7.002 16.214 1.234z" clip-path="url(#pbd942f4fc4)"/><path id="patch_189" d="m93.952 171.628-12.176 7.122 15.75 1.852z" clip-path="url(#pbd942f4fc4)"/><path id="patch_190" d="m113.741 181.836-16.214-1.234 4.211 8.164z" clip-path="url(#pbd942f4fc4)"/><path id="patch_191" d="m97.527 180.602-15.75-1.852 3.712 8.836z" clip-path="url(#pbd942f4fc4)"/><path id="patch_192" d="m97.527 180.602-12.038 6.984 16.25 1.18z" clip-path="url(#pbd942f4fc4)"/><path id="patch_193" d="m101.738 188.766-16.249-1.18 4.246 8.11z" clip-path="url(#pbd942f4fc4)"/><path id="patch_194" d="m185.76 140.256-12.003 6.93 7.263 6.094z" clip-path="url(#pbd942f4fc4)"/><path id="patch_195" d="m173.757 147.186-12.003 6.93 6.188 7.375z" clip-path="url(#pbd942f4fc4)"/><path id="patch_196" d="m161.754 154.116-12.003 6.93 5.64 7.611z" clip-path="url(#pbd942f4fc4)"/><path id="patch_197" d="m149.75 161.046-12.002 6.93 5.348 7.683z" clip-path="url(#pbd942f4fc4)"/><path id="patch_198" d="m137.748 167.976-12.004 6.93 5.17 7.71z" clip-path="url(#pbd942f4fc4)"/><path id="patch_199" d="m125.744 174.906-12.003 6.93 5.05 7.723z" clip-path="url(#pbd942f4fc4)"/><path id="patch_200" d="m113.741 181.836-12.003 6.93 4.965 7.729z" clip-path="url(#pbd942f4fc4)"/><path id="patch_201" d="m101.738 188.766-12.003 6.93 4.9 7.732z" clip-path="url(#pbd942f4fc4)"/><path id="patch_202" d="m173.757 147.186-5.815 14.305 13.078-8.21z" clip-path="url(#pbd942f4fc4)"/><path id="patch_203" d="m161.754 154.116-6.363 14.541 12.55-7.166z" clip-path="url(#pbd942f4fc4)"/><path id="patch_204" d="m149.75 161.046-6.654 14.613 12.295-7.002z" clip-path="url(#pbd942f4fc4)"/><path id="patch_205" d="m137.748 167.976-6.834 14.64 12.182-6.957z" clip-path="url(#pbd942f4fc4)"/><path id="patch_206" d="m125.744 174.906-6.953 14.653 12.123-6.942z" clip-path="url(#pbd942f4fc4)"/><path id="patch_207" d="m113.741 181.836-7.038 14.659 12.088-6.936z" clip-path="url(#pbd942f4fc4)"/><path id="patch_208" d="m101.738 188.766-7.103 14.662 12.068-6.933z" clip-path="url(#pbd942f4fc4)"/><path id="patch_209" d="m181.02 153.28-13.078 8.21 8.337 4.814z" clip-path="url(#pbd942f4fc4)"/><path id="patch_210" d="m167.942 161.49-12.55 7.167 7.672 6.438z" clip-path="url(#pbd942f4fc4)"/><path id="patch_211" d="m155.391 168.657-12.295 7.002 7.028 7.067z" clip-path="url(#pbd942f4fc4)"/><path id="patch_212" d="m143.096 175.659-12.182 6.958 6.564 7.352z" clip-path="url(#pbd942f4fc4)"/><path id="patch_213" d="m130.914 182.617-12.123 6.942 6.231 7.5z" clip-path="url(#pbd942f4fc4)"/><path id="patch_214" d="m118.791 189.56-12.088 6.935 5.984 7.583z" clip-path="url(#pbd942f4fc4)"/><path id="patch_215" d="m106.703 196.495-12.068 6.933 5.797 7.634z" clip-path="url(#pbd942f4fc4)"/><path id="patch_216" d="m167.942 161.49-4.878 13.605 13.215-8.79z" clip-path="url(#pbd942f4fc4)"/><path id="patch_217" d="m155.391 168.657-5.267 14.069 12.94-7.63z" clip-path="url(#pbd942f4fc4)"/><path id="patch_218" d="m143.096 175.659-5.618 14.31 12.646-7.243z" clip-path="url(#pbd942f4fc4)"/><path id="patch_219" d="m130.914 182.617-5.892 14.441 12.456-7.09z" clip-path="url(#pbd942f4fc4)"/><path id="patch_220" d="m118.791 189.56-6.104 14.518 12.335-7.02z" clip-path="url(#pbd942f4fc4)"/><path id="patch_221" d="m106.703 196.495-6.271 14.567 12.255-6.984z" clip-path="url(#pbd942f4fc4)"/><path id="patch_222" d="m176.28 166.304-13.216 8.791 8.475 4.233z" clip-path="url(#pbd942f4fc4)"/><path id="patch_223" d="m163.064 175.095-12.94 7.63 8.18 5.695z" clip-path="url(#pbd942f4fc4)"/><path id="patch_224" d="m150.124 182.726-12.646 7.243 7.709 6.468z" clip-path="url(#pbd942f4fc4)"/><path id="patch_225" d="m137.478 189.969-12.456 7.09 7.284 6.901z" clip-path="url(#pbd942f4fc4)"/><path id="patch_226" d="m125.022 197.058-12.335 7.02 6.935 7.161z" clip-path="url(#pbd942f4fc4)"/><path id="patch_227" d="m112.687 204.078-12.255 6.984 6.652 7.325z" clip-path="url(#pbd942f4fc4)"/><path id="patch_228" d="m163.064 175.095-4.76 13.325 13.235-9.092z" clip-path="url(#pbd942f4fc4)"/><path id="patch_229" d="m150.124 182.726-4.937 13.71 13.117-8.016z" clip-path="url(#pbd942f4fc4)"/><path id="patch_230" d="m137.478 189.969-5.172 13.991 12.88-7.523z" clip-path="url(#pbd942f4fc4)"/><path id="patch_231" d="m125.022 197.058-5.4 14.181 12.684-7.279z" clip-path="url(#pbd942f4fc4)"/><path id="patch_232" d="m112.687 204.078-5.603 14.309 12.538-7.148z" clip-path="url(#pbd942f4fc4)"/><path id="patch_233" d="m171.539 179.328-13.235 9.092 8.494 3.933z" clip-path="url(#pbd942f4fc4)"/><path id="patch_234" d="m158.304 188.42-13.117 8.017 8.38 5.187z" clip-path="url(#pbd942f4fc4)"/><path id="patch_235" d="m145.187 196.437-12.881 7.523 8.061 5.975z" clip-path="url(#pbd942f4fc4)"/><path id="patch_236" d="m132.306 203.96-12.684 7.28 7.718 6.476z" clip-path="url(#pbd942f4fc4)"/><path id="patch_237" d="m119.622 211.24-12.538 7.147 7.404 6.808z" clip-path="url(#pbd942f4fc4)"/><path id="patch_238" d="m158.304 188.42-4.737 13.204 13.231-9.271z" clip-path="url(#pbd942f4fc4)"/><path id="patch_239" d="m145.187 196.437-4.82 13.498 13.2-8.31z" clip-path="url(#pbd942f4fc4)"/><path id="patch_240" d="m132.306 203.96-4.966 13.756 13.027-7.781z" clip-path="url(#pbd942f4fc4)"/><path id="patch_241" d="m119.622 211.24-5.134 13.955 12.852-7.48z" clip-path="url(#pbd942f4fc4)"/><path id="patch_242" d="m166.798 192.353-13.231 9.271 8.491 3.753z" clip-path="url(#pbd942f4fc4)"/><path id="patch_243" d="m153.567 201.624-13.2 8.31 8.468 4.835z" clip-path="url(#pbd942f4fc4)"/><path id="patch_244" d="m140.367 209.935-13.027 7.78 8.257 5.586z" clip-path="url(#pbd942f4fc4)"/><path id="patch_245" d="m127.34 217.716-12.852 7.479 7.99 6.11z" clip-path="url(#pbd942f4fc4)"/><path id="patch_246" d="m153.567 201.624-4.732 13.145 13.223-9.392z" clip-path="url(#pbd942f4fc4)"/><path id="patch_247" d="m140.367 209.935-4.77 13.366 13.238-8.532z" clip-path="url(#pbd942f4fc4)"/><path id="patch_248" d="m127.34 217.716-4.862 13.588 13.119-8.003z" clip-path="url(#pbd942f4fc4)"/><path id="patch_249" d="m162.058 205.377-13.223 9.392 8.483 3.632z" clip-path="url(#pbd942f4fc4)"/><path id="patch_250" d="m148.835 214.769-13.238 8.532 8.507 4.577z" clip-path="url(#pbd942f4fc4)"/><path id="patch_251" d="m135.597 223.301-13.119 8.003 8.37 5.28z" clip-path="url(#pbd942f4fc4)"/><path id="patch_252" d="m148.835 214.769-4.731 13.109 13.214-9.477z" clip-path="url(#pbd942f4fc4)"/><path id="patch_253" d="m135.597 223.301-4.75 13.282 13.257-8.705z" clip-path="url(#pbd942f4fc4)"/><path id="patch_254" d="m157.318 218.4-13.214 9.478 8.473 3.547z" clip-path="url(#pbd942f4fc4)"/><path id="patch_255" d="m144.104 227.878-13.257 8.705 8.524 4.383z" clip-path="url(#pbd942f4fc4)"/><path id="patch_256" d="m144.104 227.878-4.733 13.088 13.206-9.541z" clip-path="url(#pbd942f4fc4)"/><path id="patch_257" d="m152.577 231.425-13.206 9.54 8.466 3.484z" clip-path="url(#pbd942f4fc4)"/><path id="patch_258" d="m185.76 140.256-4.74 13.024h9.48z" clip-path="url(#pbd942f4fc4)"/><path id="patch_259" d="m181.02 153.28-4.74 13.024 9.48 1.672z" clip-path="url(#pbd942f4fc4)"/><path id="patch_260" d="m176.28 166.304-4.741 13.024 9.213 2.205z" clip-path="url(#pbd942f4fc4)"/><path id="patch_261" d="m171.539 179.328-4.74 13.025 9.035 2.447z" clip-path="url(#pbd942f4fc4)"/><path id="patch_262" d="m166.798 192.353-4.74 13.024 8.917 2.583z" clip-path="url(#pbd942f4fc4)"/><path id="patch_263" d="m162.058 205.377-4.74 13.024 8.833 2.67z" clip-path="url(#pbd942f4fc4)"/><path id="patch_264" d="m157.318 218.4-4.74 13.025 8.77 2.73z" clip-path="url(#pbd942f4fc4)"/><path id="patch_265" d="m152.577 231.425-4.74 13.024 8.724 2.773z" clip-path="url(#pbd942f4fc4)"/><path id="patch_266" d="m181.02 153.28 4.74 14.696 4.74-14.696z" clip-path="url(#pbd942f4fc4)"/><path id="patch_267" d="m176.28 166.304 4.472 15.23 5.008-13.558z" clip-path="url(#pbd942f4fc4)"/><path id="patch_268" d="m171.539 179.328 4.295 15.472 4.918-13.267z" clip-path="url(#pbd942f4fc4)"/><path id="patch_269" d="m166.798 192.353 4.177 15.607 4.859-13.16z" clip-path="url(#pbd942f4fc4)"/><path id="patch_270" d="m162.058 205.377 4.093 15.694 4.824-13.11z" clip-path="url(#pbd942f4fc4)"/><path id="patch_271" d="m157.318 218.4 4.03 15.755 4.803-13.084z" clip-path="url(#pbd942f4fc4)"/><path id="patch_272" d="m152.577 231.425 3.984 15.797 4.787-13.067z" clip-path="url(#pbd942f4fc4)"/><path id="patch_273" d="m190.5 153.28-4.74 14.696 9.48-1.672z" clip-path="url(#pbd942f4fc4)"/><path id="patch_274" d="m185.76 167.976-5.008 13.557h10.016z" clip-path="url(#pbd942f4fc4)"/><path id="patch_275" d="m180.752 181.533-4.918 13.267 9.926.896z" clip-path="url(#pbd942f4fc4)"/><path id="patch_276" d="m175.834 194.8-4.86 13.16 9.755 1.413z" clip-path="url(#pbd942f4fc4)"/><path id="patch_277" d="m170.975 207.96-4.824 13.11 9.593 1.74z" clip-path="url(#pbd942f4fc4)"/><path id="patch_278" d="m166.15 221.07-4.802 13.085 9.459 1.962z" clip-path="url(#pbd942f4fc4)"/><path id="patch_279" d="m161.348 234.155-4.787 13.067 9.347 2.122z" clip-path="url(#pbd942f4fc4)"/><path id="patch_280" d="m185.76 167.976 5.008 13.557 4.473-15.229z" clip-path="url(#pbd942f4fc4)"/><path id="patch_281" d="m180.752 181.533 5.008 14.163 5.008-14.163z" clip-path="url(#pbd942f4fc4)"/><path id="patch_282" d="m175.834 194.8 4.895 14.573 5.031-13.677z" clip-path="url(#pbd942f4fc4)"/><path id="patch_283" d="m170.975 207.96 4.77 14.85 4.984-13.437z" clip-path="url(#pbd942f4fc4)"/><path id="patch_284" d="m166.15 221.07 4.657 15.047 4.937-13.306z" clip-path="url(#pbd942f4fc4)"/><path id="patch_285" d="m161.348 234.155 4.56 15.19 4.899-13.228z" clip-path="url(#pbd942f4fc4)"/><path id="patch_286" d="m195.24 166.304-4.472 15.23 9.213-2.206z" clip-path="url(#pbd942f4fc4)"/><path id="patch_287" d="m190.768 181.533-5.008 14.163 9.926-.896z" clip-path="url(#pbd942f4fc4)"/><path id="patch_288" d="m185.76 195.696-5.031 13.677h10.062z" clip-path="url(#pbd942f4fc4)"/><path id="patch_289" d="m180.729 209.373-4.985 13.438 10.016.605z" clip-path="url(#pbd942f4fc4)"/><path id="patch_290" d="m175.744 222.81-4.937 13.307 9.915 1.028z" clip-path="url(#pbd942f4fc4)"/><path id="patch_291" d="m170.807 236.117-4.9 13.227 9.805 1.336z" clip-path="url(#pbd942f4fc4)"/><path id="patch_292" d="m190.768 181.533 4.918 13.267 4.295-15.472z" clip-path="url(#pbd942f4fc4)"/><path id="patch_293" d="m185.76 195.696 5.031 13.677 4.895-14.573z" clip-path="url(#pbd942f4fc4)"/><path id="patch_294" d="m180.729 209.373 5.031 14.043 5.031-14.043z" clip-path="url(#pbd942f4fc4)"/><path id="patch_295" d="m175.744 222.81 4.978 14.335 5.038-13.729z" clip-path="url(#pbd942f4fc4)"/><path id="patch_296" d="m170.807 236.117 4.905 14.563 5.01-13.535z" clip-path="url(#pbd942f4fc4)"/><path id="patch_297" d="m199.981 179.328-4.295 15.472 9.036-2.447z" clip-path="url(#pbd942f4fc4)"/><path id="patch_298" d="m195.686 194.8-4.895 14.573 9.754-1.413z" clip-path="url(#pbd942f4fc4)"/><path id="patch_299" d="m190.791 209.373-5.031 14.043 10.016-.605z" clip-path="url(#pbd942f4fc4)"/><path id="patch_300" d="m185.76 223.416-5.038 13.73h10.076z" clip-path="url(#pbd942f4fc4)"/><path id="patch_301" d="m180.722 237.145-5.01 13.535 10.048.456z" clip-path="url(#pbd942f4fc4)"/><path id="patch_302" d="m195.686 194.8 4.86 13.16 4.176-15.607z" clip-path="url(#pbd942f4fc4)"/><path id="patch_303" d="m190.791 209.373 4.985 13.438 4.77-14.85z" clip-path="url(#pbd942f4fc4)"/><path id="patch_304" d="m185.76 223.416 5.038 13.73 4.978-14.335z" clip-path="url(#pbd942f4fc4)"/><path id="patch_305" d="m180.722 237.145 5.038 13.991 5.038-13.99z" clip-path="url(#pbd942f4fc4)"/><path id="patch_306" d="m204.722 192.353-4.177 15.607 8.917-2.583z" clip-path="url(#pbd942f4fc4)"/><path id="patch_307" d="m200.545 207.96-4.77 14.85 9.594-1.74z" clip-path="url(#pbd942f4fc4)"/><path id="patch_308" d="m195.776 222.81-4.978 14.335 9.915-1.028z" clip-path="url(#pbd942f4fc4)"/><path id="patch_309" d="m190.798 237.145-5.038 13.991 10.048-.456z" clip-path="url(#pbd942f4fc4)"/><path id="patch_310" d="m200.545 207.96 4.824 13.11 4.093-15.693z" clip-path="url(#pbd942f4fc4)"/><path id="patch_311" d="m195.776 222.81 4.937 13.307 4.656-15.046z" clip-path="url(#pbd942f4fc4)"/><path id="patch_312" d="m190.798 237.145 5.01 13.535 4.905-14.563z" clip-path="url(#pbd942f4fc4)"/><path id="patch_313" d="m209.462 205.377-4.093 15.694 8.833-2.67z" clip-path="url(#pbd942f4fc4)"/><path id="patch_314" d="m205.37 221.07-4.657 15.047 9.459-1.962z" clip-path="url(#pbd942f4fc4)"/><path id="patch_315" d="m200.713 236.117-4.905 14.563 9.804-1.336z" clip-path="url(#pbd942f4fc4)"/><path id="patch_316" d="m205.37 221.07 4.802 13.085 4.03-15.754z" clip-path="url(#pbd942f4fc4)"/><path id="patch_317" d="m200.713 236.117 4.9 13.227 4.559-15.19z" clip-path="url(#pbd942f4fc4)"/><path id="patch_318" d="m214.202 218.4-4.03 15.755 8.77-2.73z" clip-path="url(#pbd942f4fc4)"/><path id="patch_319" d="m210.172 234.155-4.56 15.19 9.347-2.123z" clip-path="url(#pbd942f4fc4)"/><path id="patch_320" d="m210.172 234.155 4.787 13.067 3.984-15.797z" clip-path="url(#pbd942f4fc4)"/><path id="patch_321" d="m218.943 231.425-3.984 15.797 8.724-2.773z" clip-path="url(#pbd942f4fc4)"/><path id="patch_322" d="m185.76 140.256 4.74 13.024 7.263-6.094z" clip-path="url(#pbd942f4fc4)"/><path id="patch_323" d="m190.5 153.28 4.74 13.024 8.338-4.813z" clip-path="url(#pbd942f4fc4)"/><path id="patch_324" d="m195.24 166.304 4.741 13.024 8.475-4.233z" clip-path="url(#pbd942f4fc4)"/><path id="patch_325" d="m199.981 179.328 4.74 13.025 8.495-3.933z" clip-path="url(#pbd942f4fc4)"/><path id="patch_326" d="m204.722 192.353 4.74 13.024 8.491-3.753z" clip-path="url(#pbd942f4fc4)"/><path id="patch_327" d="m209.462 205.377 4.74 13.024 8.483-3.632z" clip-path="url(#pbd942f4fc4)"/><path id="patch_328" d="m214.202 218.4 4.74 13.025 8.474-3.547z" clip-path="url(#pbd942f4fc4)"/><path id="patch_329" d="m218.943 231.425 4.74 13.024 8.466-3.483z" clip-path="url(#pbd942f4fc4)"/><path id="patch_330" d="m190.5 153.28 13.078 8.21-5.815-14.304z" clip-path="url(#pbd942f4fc4)"/><path id="patch_331" d="m195.24 166.304 13.216 8.791-4.878-13.604z" clip-path="url(#pbd942f4fc4)"/><path id="patch_332" d="m199.981 179.328 13.235 9.092-4.76-13.325z" clip-path="url(#pbd942f4fc4)"/><path id="patch_333" d="m204.722 192.353 13.231 9.271-4.737-13.204z" clip-path="url(#pbd942f4fc4)"/><path id="patch_334" d="m209.462 205.377 13.223 9.392-4.732-13.145z" clip-path="url(#pbd942f4fc4)"/><path id="patch_335" d="m214.202 218.4 13.214 9.478-4.73-13.11z" clip-path="url(#pbd942f4fc4)"/><path id="patch_336" d="m218.943 231.425 13.206 9.54-4.733-13.087z" clip-path="url(#pbd942f4fc4)"/><path id="patch_337" d="m197.763 147.186 5.815 14.305 6.188-7.375z" clip-path="url(#pbd942f4fc4)"/><path id="patch_338" d="m203.578 161.49 4.878 13.605 7.673-6.438z" clip-path="url(#pbd942f4fc4)"/><path id="patch_339" d="m208.456 175.095 4.76 13.325 8.18-5.694z" clip-path="url(#pbd942f4fc4)"/><path id="patch_340" d="m213.216 188.42 4.737 13.204 8.38-5.187z" clip-path="url(#pbd942f4fc4)"/><path id="patch_341" d="m217.953 201.624 4.732 13.145 8.468-4.834z" clip-path="url(#pbd942f4fc4)"/><path id="patch_342" d="m222.685 214.769 4.731 13.109 8.507-4.577z" clip-path="url(#pbd942f4fc4)"/><path id="patch_343" d="m227.416 227.878 4.733 13.088 8.524-4.383z" clip-path="url(#pbd942f4fc4)"/><path id="patch_344" d="m203.578 161.49 12.55 7.167-6.362-14.541z" clip-path="url(#pbd942f4fc4)"/><path id="patch_345" d="m208.456 175.095 12.94 7.63-5.267-14.068z" clip-path="url(#pbd942f4fc4)"/><path id="patch_346" d="m213.216 188.42 13.117 8.017-4.937-13.711z" clip-path="url(#pbd942f4fc4)"/><path id="patch_347" d="m217.953 201.624 13.2 8.31-4.82-13.497z" clip-path="url(#pbd942f4fc4)"/><path id="patch_348" d="m222.685 214.769 13.238 8.532-4.77-13.366z" clip-path="url(#pbd942f4fc4)"/><path id="patch_349" d="m227.416 227.878 13.257 8.705-4.75-13.282z" clip-path="url(#pbd942f4fc4)"/><path id="patch_350" d="m209.766 154.116 6.363 14.541 5.64-7.611z" clip-path="url(#pbd942f4fc4)"/><path id="patch_351" d="m216.129 168.657 5.267 14.069 7.028-7.067z" clip-path="url(#pbd942f4fc4)"/><path id="patch_352" d="m221.396 182.726 4.937 13.71 7.709-6.467z" clip-path="url(#pbd942f4fc4)"/><path id="patch_353" d="m226.333 196.437 4.82 13.498 8.061-5.975z" clip-path="url(#pbd942f4fc4)"/><path id="patch_354" d="m231.153 209.935 4.77 13.366 8.257-5.585z" clip-path="url(#pbd942f4fc4)"/><path id="patch_355" d="m235.923 223.301 4.75 13.282 8.369-5.279z" clip-path="url(#pbd942f4fc4)"/><path id="patch_356" d="m216.129 168.657 12.295 7.002-6.655-14.613z" clip-path="url(#pbd942f4fc4)"/><path id="patch_357" d="m221.396 182.726 12.646 7.243-5.618-14.31z" clip-path="url(#pbd942f4fc4)"/><path id="patch_358" d="m226.333 196.437 12.881 7.523-5.172-13.991z" clip-path="url(#pbd942f4fc4)"/><path id="patch_359" d="m231.153 209.935 13.027 7.78-4.966-13.755z" clip-path="url(#pbd942f4fc4)"/><path id="patch_360" d="m235.923 223.301 13.119 8.003-4.862-13.588z" clip-path="url(#pbd942f4fc4)"/><path id="patch_361" d="m221.77 161.046 6.654 14.613 5.348-7.683z" clip-path="url(#pbd942f4fc4)"/><path id="patch_362" d="m228.424 175.659 5.618 14.31 6.564-7.352z" clip-path="url(#pbd942f4fc4)"/><path id="patch_363" d="m234.042 189.969 5.172 13.991 7.284-6.902z" clip-path="url(#pbd942f4fc4)"/><path id="patch_364" d="m239.214 203.96 4.966 13.756 7.718-6.477z" clip-path="url(#pbd942f4fc4)"/><path id="patch_365" d="m244.18 217.716 4.862 13.588 7.99-6.109z" clip-path="url(#pbd942f4fc4)"/><path id="patch_366" d="m228.424 175.659 12.182 6.958-6.834-14.641z" clip-path="url(#pbd942f4fc4)"/><path id="patch_367" d="m234.042 189.969 12.456 7.09-5.892-14.442z" clip-path="url(#pbd942f4fc4)"/><path id="patch_368" d="m239.214 203.96 12.684 7.28-5.4-14.182z" clip-path="url(#pbd942f4fc4)"/><path id="patch_369" d="m244.18 217.716 12.852 7.479-5.134-13.956z" clip-path="url(#pbd942f4fc4)"/><path id="patch_370" d="m233.772 167.976 6.834 14.64 5.17-7.71z" clip-path="url(#pbd942f4fc4)"/><path id="patch_371" d="m240.606 182.617 5.892 14.441 6.23-7.499z" clip-path="url(#pbd942f4fc4)"/><path id="patch_372" d="m246.498 197.058 5.4 14.181 6.935-7.161z" clip-path="url(#pbd942f4fc4)"/><path id="patch_373" d="m251.898 211.24 5.134 13.955 7.404-6.808z" clip-path="url(#pbd942f4fc4)"/><path id="patch_374" d="m240.606 182.617 12.123 6.942-6.953-14.653z" clip-path="url(#pbd942f4fc4)"/><path id="patch_375" d="m246.498 197.058 12.335 7.02-6.104-14.519z" clip-path="url(#pbd942f4fc4)"/><path id="patch_376" d="m251.898 211.24 12.538 7.147-5.603-14.309z" clip-path="url(#pbd942f4fc4)"/><path id="patch_377" d="m245.776 174.906 6.953 14.653 5.05-7.723z" clip-path="url(#pbd942f4fc4)"/><path id="patch_378" d="m252.729 189.56 6.104 14.518 5.984-7.583z" clip-path="url(#pbd942f4fc4)"/><path id="patch_379" d="m258.833 204.078 5.603 14.309 6.652-7.325z" clip-path="url(#pbd942f4fc4)"/><path id="patch_380" d="m252.729 189.56 12.088 6.935-7.038-14.659z" clip-path="url(#pbd942f4fc4)"/><path id="patch_381" d="m258.833 204.078 12.255 6.984-6.27-14.567z" clip-path="url(#pbd942f4fc4)"/><path id="patch_382" d="m257.779 181.836 7.038 14.659 4.965-7.729z" clip-path="url(#pbd942f4fc4)"/><path id="patch_383" d="m264.817 196.495 6.271 14.567 5.797-7.634z" clip-path="url(#pbd942f4fc4)"/><path id="patch_384" d="m264.817 196.495 12.068 6.933-7.103-14.662z" clip-path="url(#pbd942f4fc4)"/><path id="patch_385" d="m269.782 188.766 7.103 14.662 4.9-7.732z" clip-path="url(#pbd942f4fc4)"/><path id="patch_386" d="m185.76 140.256 12.003 6.93 1.646-9.337z" clip-path="url(#pbd942f4fc4)"/><path id="patch_387" d="m197.763 147.186 12.003 6.93 3.293-9.046z" clip-path="url(#pbd942f4fc4)"/><path id="patch_388" d="m209.766 154.116 12.003 6.93 3.772-8.69z" clip-path="url(#pbd942f4fc4)"/><path id="patch_389" d="m221.77 161.046 12.002 6.93 3.98-8.473z" clip-path="url(#pbd942f4fc4)"/><path id="patch_390" d="m233.772 167.976 12.004 6.93 4.092-8.332z" clip-path="url(#pbd942f4fc4)"/><path id="patch_391" d="m245.776 174.906 12.003 6.93 4.163-8.235z" clip-path="url(#pbd942f4fc4)"/><path id="patch_392" d="m257.779 181.836 12.003 6.93 4.211-8.164z" clip-path="url(#pbd942f4fc4)"/><path id="patch_393" d="m269.782 188.766 12.003 6.93 4.246-8.11z" clip-path="url(#pbd942f4fc4)"/><path id="patch_394" d="m197.763 147.186 15.296-2.116-13.65-7.22z" clip-path="url(#pbd942f4fc4)"/><path id="patch_395" d="m209.766 154.116 15.775-1.76-12.482-7.286z" clip-path="url(#pbd942f4fc4)"/><path id="patch_396" d="m221.77 161.046 15.982-1.543-12.211-7.147z" clip-path="url(#pbd942f4fc4)"/><path id="patch_397" d="m233.772 167.976 16.096-1.402-12.116-7.071z" clip-path="url(#pbd942f4fc4)"/><path id="patch_398" d="m245.776 174.906 16.166-1.305-12.074-7.027z" clip-path="url(#pbd942f4fc4)"/><path id="patch_399" d="m257.779 181.836 16.214-1.234-12.051-7.001z" clip-path="url(#pbd942f4fc4)"/><path id="patch_400" d="m269.782 188.766 16.249-1.18-12.038-6.984z" clip-path="url(#pbd942f4fc4)"/><path id="patch_401" d="m199.41 137.85 13.649 7.22v-9.628z" clip-path="url(#pbd942f4fc4)"/><path id="patch_402" d="m213.059 145.07 12.482 7.286 1.739-9.864z" clip-path="url(#pbd942f4fc4)"/><path id="patch_403" d="m225.54 152.356 12.212 7.147 2.606-9.62z" clip-path="url(#pbd942f4fc4)"/><path id="patch_404" d="m237.752 159.503 12.116 7.07 3.085-9.36z" clip-path="url(#pbd942f4fc4)"/><path id="patch_405" d="m249.868 166.574 12.074 7.027 3.38-9.146z" clip-path="url(#pbd942f4fc4)"/><path id="patch_406" d="m261.942 173.6 12.051 7.002 3.575-8.974z" clip-path="url(#pbd942f4fc4)"/><path id="patch_407" d="m273.993 180.602 12.038 6.984 3.713-8.836z" clip-path="url(#pbd942f4fc4)"/><path id="patch_408" d="m213.059 145.07 14.22-2.578-14.22-7.05z" clip-path="url(#pbd942f4fc4)"/><path id="patch_409" d="m225.54 152.356 14.818-2.473-13.078-7.391z" clip-path="url(#pbd942f4fc4)"/><path id="patch_410" d="m237.752 159.503 15.201-2.29-12.595-7.33z" clip-path="url(#pbd942f4fc4)"/><path id="patch_411" d="m249.868 166.574 15.453-2.119-12.368-7.242z" clip-path="url(#pbd942f4fc4)"/><path id="patch_412" d="m261.942 173.6 15.626-1.972-12.247-7.173z" clip-path="url(#pbd942f4fc4)"/><path id="patch_413" d="m273.993 180.602 15.75-1.852-12.175-7.122z" clip-path="url(#pbd942f4fc4)"/><path id="patch_414" d="m213.059 135.442 14.22 7.05-.57-9.456z" clip-path="url(#pbd942f4fc4)"/><path id="patch_415" d="m227.28 142.492 13.078 7.391.841-9.93z" clip-path="url(#pbd942f4fc4)"/><path id="patch_416" d="m240.358 149.883 12.595 7.33 1.748-9.91z" clip-path="url(#pbd942f4fc4)"/><path id="patch_417" d="m252.953 157.213 12.368 7.242 2.336-9.758z" clip-path="url(#pbd942f4fc4)"/><path id="patch_418" d="m265.321 164.455 12.247 7.173 2.734-9.586z" clip-path="url(#pbd942f4fc4)"/><path id="patch_419" d="m277.568 171.628 12.176 7.122 3.017-9.424z" clip-path="url(#pbd942f4fc4)"/><path id="patch_420" d="m227.28 142.492 13.92-2.54-14.492-6.916z" clip-path="url(#pbd942f4fc4)"/><path id="patch_421" d="m240.358 149.883 14.343-2.58-13.502-7.35z" clip-path="url(#pbd942f4fc4)"/><path id="patch_422" d="m252.953 157.213 14.704-2.516-12.956-7.394z" clip-path="url(#pbd942f4fc4)"/><path id="patch_423" d="m265.321 164.455 14.981-2.413-12.645-7.345z" clip-path="url(#pbd942f4fc4)"/><path id="patch_424" d="m277.568 171.628 15.193-2.302-12.459-7.284z" clip-path="url(#pbd942f4fc4)"/><path id="patch_425" d="m226.708 133.036 14.491 6.916-.841-9.323z" clip-path="url(#pbd942f4fc4)"/><path id="patch_426" d="m241.2 139.952 13.5 7.351.303-9.851z" clip-path="url(#pbd942f4fc4)"/><path id="patch_427" d="m254.7 147.303 12.957 7.394 1.143-9.97z" clip-path="url(#pbd942f4fc4)"/><path id="patch_428" d="m267.657 154.697 12.645 7.345 1.75-9.923z" clip-path="url(#pbd942f4fc4)"/><path id="patch_429" d="m280.302 162.042 12.46 7.284 2.193-9.816z" clip-path="url(#pbd942f4fc4)"/><path id="patch_430" d="m241.2 139.952 13.803-2.5-14.645-6.823z" clip-path="url(#pbd942f4fc4)"/><path id="patch_431" d="m254.7 147.303 14.1-2.575-13.797-7.276z" clip-path="url(#pbd942f4fc4)"/><path id="patch_432" d="m267.657 154.697 14.395-2.578-13.252-7.391z" clip-path="url(#pbd942f4fc4)"/><path id="patch_433" d="m280.302 162.042 14.653-2.532-12.903-7.39z" clip-path="url(#pbd942f4fc4)"/><path id="patch_434" d="m240.358 130.629 14.645 6.823-.996-9.23z" clip-path="url(#pbd942f4fc4)"/><path id="patch_435" d="m255.003 137.452 13.797 7.276-.048-9.75z" clip-path="url(#pbd942f4fc4)"/><path id="patch_436" d="m268.8 144.728 13.252 7.391.709-9.943z" clip-path="url(#pbd942f4fc4)"/><path id="patch_437" d="m282.052 152.12 12.903 7.39 1.296-9.974z" clip-path="url(#pbd942f4fc4)"/><path id="patch_438" d="m255.003 137.452 13.75-2.474-14.746-6.756z" clip-path="url(#pbd942f4fc4)"/><path id="patch_439" d="m268.8 144.728 13.961-2.552-14.009-7.198z" clip-path="url(#pbd942f4fc4)"/><path id="patch_440" d="m282.052 152.12 14.199-2.584-13.49-7.36z" clip-path="url(#pbd942f4fc4)"/><path id="patch_441" d="m254.007 128.222 14.745 6.756-1.095-9.163z" clip-path="url(#pbd942f4fc4)"/><path id="patch_442" d="m268.752 134.978 14.009 7.198-.29-9.655z" clip-path="url(#pbd942f4fc4)"/><path id="patch_443" d="m282.761 142.176 13.49 7.36.387-9.888z" clip-path="url(#pbd942f4fc4)"/><path id="patch_444" d="m268.752 134.978 13.72-2.457-14.815-6.706z" clip-path="url(#pbd942f4fc4)"/><path id="patch_445" d="m282.761 142.176 13.877-2.528-14.167-7.127z" clip-path="url(#pbd942f4fc4)"/><path id="patch_446" d="m267.657 125.815 14.814 6.706-1.165-9.112z" clip-path="url(#pbd942f4fc4)"/><path id="patch_447" d="m282.471 132.52 14.167 7.128-.466-9.573z" clip-path="url(#pbd942f4fc4)"/><path id="patch_448" d="m282.471 132.52 13.7-2.445-14.865-6.666z" clip-path="url(#pbd942f4fc4)"/><path id="patch_449" d="m281.306 123.409 14.866 6.666-1.217-9.073z" clip-path="url(#pbd942f4fc4)"/><path id="patch_450" d="m185.76 140.256 13.65-2.407-4.741-8.21z" clip-path="url(#pbd942f4fc4)"/><path id="patch_451" d="m199.41 137.85 13.649-2.408-3.293-9.046z" clip-path="url(#pbd942f4fc4)"/><path id="patch_452" d="m213.059 135.442 13.65-2.406-2.698-9.082z" clip-path="url(#pbd942f4fc4)"/><path id="patch_453" d="m226.708 133.036 13.65-2.407-2.398-9.049z" clip-path="url(#pbd942f4fc4)"/><path id="patch_454" d="m240.358 130.629 13.65-2.407-2.222-9.014z" clip-path="url(#pbd942f4fc4)"/><path id="patch_455" d="m254.007 128.222 13.65-2.407-2.104-8.984z" clip-path="url(#pbd942f4fc4)"/><path id="patch_456" d="m267.657 125.815 13.649-2.406-2.022-8.961z" clip-path="url(#pbd942f4fc4)"/><path id="patch_457" d="m281.306 123.409 13.65-2.407-1.96-8.942z" clip-path="url(#pbd942f4fc4)"/><path id="patch_458" d="m199.41 137.85 10.356-11.454-15.097 3.243z" clip-path="url(#pbd942f4fc4)"/><path id="patch_459" d="m213.059 135.442 10.952-11.488-14.245 2.442z" clip-path="url(#pbd942f4fc4)"/><path id="patch_460" d="m226.708 133.036 11.252-11.456-13.949 2.374z" clip-path="url(#pbd942f4fc4)"/><path id="patch_461" d="m240.358 130.629 11.428-11.42-13.826 2.371z" clip-path="url(#pbd942f4fc4)"/><path id="patch_462" d="m254.007 128.222 11.546-11.391-13.767 2.377z" clip-path="url(#pbd942f4fc4)"/><path id="patch_463" d="m267.657 125.815 11.627-11.367-13.731 2.383z" clip-path="url(#pbd942f4fc4)"/><path id="patch_464" d="m281.306 123.409 11.69-11.349-13.712 2.388z" clip-path="url(#pbd942f4fc4)"/><path id="patch_465" d="m194.669 129.639 15.097-3.243-6.188-7.375z" clip-path="url(#pbd942f4fc4)"/><path id="patch_466" d="m209.766 126.396 14.245-2.442-5.008-8.674z" clip-path="url(#pbd942f4fc4)"/><path id="patch_467" d="m224.011 123.954 13.949-2.374-4.188-9.044z" clip-path="url(#pbd942f4fc4)"/><path id="patch_468" d="m237.96 121.58 13.826-2.372-3.653-9.153z" clip-path="url(#pbd942f4fc4)"/><path id="patch_469" d="m251.786 119.208 13.767-2.377-3.29-9.178z" clip-path="url(#pbd942f4fc4)"/><path id="patch_470" d="m265.553 116.83 13.731-2.382-3.03-9.173z" clip-path="url(#pbd942f4fc4)"/><path id="patch_471" d="m279.284 114.448 13.711-2.388-2.836-9.155z" clip-path="url(#pbd942f4fc4)"/><path id="patch_472" d="m209.766 126.396 9.237-11.116-15.425 3.741z" clip-path="url(#pbd942f4fc4)"/><path id="patch_473" d="m224.011 123.954 9.761-11.418-14.769 2.744z" clip-path="url(#pbd942f4fc4)"/><path id="patch_474" d="m237.96 121.58 10.173-11.525-14.36 2.481z" clip-path="url(#pbd942f4fc4)"/><path id="patch_475" d="m251.786 119.208 10.476-11.555-14.13 2.402z" clip-path="url(#pbd942f4fc4)"/><path id="patch_476" d="m265.553 116.83 10.701-11.555-13.992 2.378z" clip-path="url(#pbd942f4fc4)"/><path id="patch_477" d="m279.284 114.448 10.875-11.543-13.905 2.37z" clip-path="url(#pbd942f4fc4)"/><path id="patch_478" d="m203.578 119.021 15.425-3.74-6.516-6.877z" clip-path="url(#pbd942f4fc4)"/><path id="patch_479" d="m219.003 115.28 14.77-2.744-5.74-8.148z" clip-path="url(#pbd942f4fc4)"/><path id="patch_480" d="m233.772 112.536 14.36-2.481-5.03-8.715z" clip-path="url(#pbd942f4fc4)"/><path id="patch_481" d="m248.133 110.055 14.13-2.402-4.484-8.977z" clip-path="url(#pbd942f4fc4)"/><path id="patch_482" d="m262.262 107.653 13.992-2.378-4.067-9.1z" clip-path="url(#pbd942f4fc4)"/><path id="patch_483" d="m276.254 105.275 13.905-2.37-3.745-9.16z" clip-path="url(#pbd942f4fc4)"/><path id="patch_484" d="m219.003 115.28 9.03-10.892-15.546 4.016z" clip-path="url(#pbd942f4fc4)"/><path id="patch_485" d="m233.772 112.536 9.33-11.196-15.068 3.048z" clip-path="url(#pbd942f4fc4)"/><path id="patch_486" d="m248.133 110.055 9.646-11.379-14.677 2.664z" clip-path="url(#pbd942f4fc4)"/><path id="patch_487" d="m262.262 107.653 9.925-11.479-14.408 2.502z" clip-path="url(#pbd942f4fc4)"/><path id="patch_488" d="m276.254 105.275 10.16-11.53-14.227 2.43z" clip-path="url(#pbd942f4fc4)"/><path id="patch_489" d="m212.487 108.404 15.547-4.016-6.638-6.602z" clip-path="url(#pbd942f4fc4)"/><path id="patch_490" d="m228.034 104.388 15.068-3.048L237 93.6z" clip-path="url(#pbd942f4fc4)"/><path id="patch_491" d="m243.102 101.34 14.677-2.664-5.532-8.371z" clip-path="url(#pbd942f4fc4)"/><path id="patch_492" d="m257.779 98.676 14.408-2.502-5.037-8.725z" clip-path="url(#pbd942f4fc4)"/><path id="patch_493" d="m272.187 96.174 14.227-2.428-4.63-8.93z" clip-path="url(#pbd942f4fc4)"/><path id="patch_494" d="M228.034 104.388 237 93.599l-15.605 4.187z" clip-path="url(#pbd942f4fc4)"/><path id="patch_495" d="m243.102 101.34 9.145-11.035L237 93.599z" clip-path="url(#pbd942f4fc4)"/><path id="patch_496" d="m257.779 98.676 9.37-11.227-14.902 2.856z" clip-path="url(#pbd942f4fc4)"/><path id="patch_497" d="m272.187 96.174 9.598-11.358-14.635 2.633z" clip-path="url(#pbd942f4fc4)"/><path id="patch_498" d="m221.396 97.786 15.605-4.187-6.696-6.43z" clip-path="url(#pbd942f4fc4)"/><path id="patch_499" d="m237.001 93.6 15.246-3.295-6.304-7.439z" clip-path="url(#pbd942f4fc4)"/><path id="patch_500" d="m252.247 90.305 14.903-2.856-5.849-8.073z" clip-path="url(#pbd942f4fc4)"/><path id="patch_501" d="m267.15 87.449 14.635-2.633-5.42-8.474z" clip-path="url(#pbd942f4fc4)"/><path id="patch_502" d="m237.001 93.6 8.942-10.734-15.638 4.303z" clip-path="url(#pbd942f4fc4)"/><path id="patch_503" d="m252.247 90.305 9.054-10.93-15.358 3.491z" clip-path="url(#pbd942f4fc4)"/><path id="patch_504" d="m267.15 87.449 9.216-11.107-15.065 3.034z" clip-path="url(#pbd942f4fc4)"/><path id="patch_505" d="m230.305 87.17 15.638-4.304-6.729-6.314z" clip-path="url(#pbd942f4fc4)"/><path id="patch_506" d="m245.943 82.866 15.358-3.49-6.428-7.21z" clip-path="url(#pbd942f4fc4)"/><path id="patch_507" d="m261.301 79.376 15.065-3.034-6.059-7.823z" clip-path="url(#pbd942f4fc4)"/><path id="patch_508" d="m245.943 82.866 8.93-10.7-15.659 4.386z" clip-path="url(#pbd942f4fc4)"/><path id="patch_509" d="m261.301 79.376 9.006-10.857-15.434 3.647z" clip-path="url(#pbd942f4fc4)"/><path id="patch_510" d="m239.214 76.552 15.659-4.386-6.75-6.232z" clip-path="url(#pbd942f4fc4)"/><path id="patch_511" d="m254.873 72.166 15.434-3.647-6.511-7.034z" clip-path="url(#pbd942f4fc4)"/><path id="patch_512" d="m254.873 72.166 8.923-10.68-15.673 4.448z" clip-path="url(#pbd942f4fc4)"/><path id="patch_513" d="m248.123 65.934 15.673-4.449-6.764-6.168z" clip-path="url(#pbd942f4fc4)"/><path id="patch_514" d="m185.76 140.256 8.909-10.617-8.909-3.243z" clip-path="url(#pbd942f4fc4)"/><path id="patch_515" d="m194.669 129.639 8.91-10.618-8.338-4.813z" clip-path="url(#pbd942f4fc4)"/><path id="patch_516" d="m203.578 119.021 8.91-10.617-7.904-5.223z" clip-path="url(#pbd942f4fc4)"/><path id="patch_517" d="m212.487 108.404 8.91-10.618-7.654-5.39z" clip-path="url(#pbd942f4fc4)"/><path id="patch_518" d="m221.396 97.786 8.91-10.617-7.496-5.477z" clip-path="url(#pbd942f4fc4)"/><path id="patch_519" d="m230.305 87.17 8.91-10.618-7.388-5.53z" clip-path="url(#pbd942f4fc4)"/><path id="patch_520" d="m239.214 76.552 8.91-10.618-7.31-5.565z" clip-path="url(#pbd942f4fc4)"/><path id="patch_521" d="m248.123 65.934 8.91-10.617-7.25-5.59z" clip-path="url(#pbd942f4fc4)"/><path id="patch_522" d="m194.669 129.639.572-15.431-9.481 12.188z" clip-path="url(#pbd942f4fc4)"/><path id="patch_523" d="m203.578 119.021 1.006-15.84-9.343 11.027z" clip-path="url(#pbd942f4fc4)"/><path id="patch_524" d="m212.487 108.404 1.256-16.008-9.16 10.785z" clip-path="url(#pbd942f4fc4)"/><path id="patch_525" d="m221.396 97.786 1.414-16.094-9.067 10.704z" clip-path="url(#pbd942f4fc4)"/><path id="patch_526" d="m230.305 87.17 1.522-16.148-9.017 10.67z" clip-path="url(#pbd942f4fc4)"/><path id="patch_527" d="m239.214 76.552 1.6-16.183-8.987 10.653z" clip-path="url(#pbd942f4fc4)"/><path id="patch_528" d="m248.123 65.934 1.66-16.207-8.968 10.642z" clip-path="url(#pbd942f4fc4)"/><path id="patch_529" d="m185.76 126.396 9.48-12.188-9.48-1.672z" clip-path="url(#pbd942f4fc4)"/><path id="patch_530" d="m195.24 114.208 9.344-11.027-9.412-3.426z" clip-path="url(#pbd942f4fc4)"/><path id="patch_531" d="m204.584 103.18 9.159-10.784-9.021-4.237z" clip-path="url(#pbd942f4fc4)"/><path id="patch_532" d="m213.743 92.396 9.067-10.704-8.683-4.664z" clip-path="url(#pbd942f4fc4)"/><path id="patch_533" d="m222.81 81.692 9.017-10.67-8.42-4.916z" clip-path="url(#pbd942f4fc4)"/><path id="patch_534" d="m231.827 71.022 8.988-10.653-8.217-5.078z" clip-path="url(#pbd942f4fc4)"/><path id="patch_535" d="m240.815 60.37 8.968-10.643-8.057-5.19z" clip-path="url(#pbd942f4fc4)"/><path id="patch_536" d="m195.24 114.208-.068-14.453-9.412 12.781z" clip-path="url(#pbd942f4fc4)"/><path id="patch_537" d="m204.584 103.18.138-15.02-9.55 11.595z" clip-path="url(#pbd942f4fc4)"/><path id="patch_538" d="m213.743 92.396.384-15.368-9.405 11.131z" clip-path="url(#pbd942f4fc4)"/><path id="patch_539" d="m222.81 81.692.597-15.586-9.28 10.922z" clip-path="url(#pbd942f4fc4)"/><path id="patch_540" d="m231.827 71.022.77-15.731-9.19 10.815z" clip-path="url(#pbd942f4fc4)"/><path id="patch_541" d="m240.815 60.37.91-15.834-9.127 10.755z" clip-path="url(#pbd942f4fc4)"/><path id="patch_542" d="m185.76 112.536 9.412-12.78-9.412-1.08z" clip-path="url(#pbd942f4fc4)"/><path id="patch_543" d="m195.172 99.755 9.55-11.596-9.634-2.553z" clip-path="url(#pbd942f4fc4)"/><path id="patch_544" d="m204.722 88.16 9.405-11.132-9.455-3.442z" clip-path="url(#pbd942f4fc4)"/><path id="patch_545" d="m214.127 77.028 9.28-10.922-9.205-3.995z" clip-path="url(#pbd942f4fc4)"/><path id="patch_546" d="m223.407 66.106 9.19-10.815-8.965-4.358z" clip-path="url(#pbd942f4fc4)"/><path id="patch_547" d="m232.598 55.29 9.128-10.754-8.757-4.608z" clip-path="url(#pbd942f4fc4)"/><path id="patch_548" d="m195.172 99.755-.084-14.149-9.328 13.07z" clip-path="url(#pbd942f4fc4)"/><path id="patch_549" d="m204.722 88.16-.05-14.574-9.584 12.02z" clip-path="url(#pbd942f4fc4)"/><path id="patch_550" d="m214.127 77.028.075-14.917-9.53 11.475z" clip-path="url(#pbd942f4fc4)"/><path id="patch_551" d="m223.407 66.106.225-15.173-9.43 11.178z" clip-path="url(#pbd942f4fc4)"/><path id="patch_552" d="m232.598 55.29.371-15.362-9.337 11.005z" clip-path="url(#pbd942f4fc4)"/><path id="patch_553" d="m185.76 98.676 9.328-13.07-9.328-.79z" clip-path="url(#pbd942f4fc4)"/><path id="patch_554" d="m195.088 85.606 9.584-12.02-9.65-2.008z" clip-path="url(#pbd942f4fc4)"/><path id="patch_555" d="m204.672 73.586 9.53-11.475-9.618-2.857z" clip-path="url(#pbd942f4fc4)"/><path id="patch_556" d="m214.202 62.111 9.43-11.178-9.468-3.446z" clip-path="url(#pbd942f4fc4)"/><path id="patch_557" d="m223.632 50.933 9.337-11.005-9.286-3.865z" clip-path="url(#pbd942f4fc4)"/><path id="patch_558" d="m195.088 85.606-.065-14.028-9.263 13.238z" clip-path="url(#pbd942f4fc4)"/><path id="patch_559" d="m204.672 73.586-.088-14.332-9.561 12.324z" clip-path="url(#pbd942f4fc4)"/><path id="patch_560" d="m214.202 62.111-.038-14.624-9.58 11.767z" clip-path="url(#pbd942f4fc4)"/><path id="patch_561" d="m223.632 50.933.051-14.87-9.519 11.424z" clip-path="url(#pbd942f4fc4)"/><path id="patch_562" d="m185.76 84.816 9.263-13.238-9.263-.622z" clip-path="url(#pbd942f4fc4)"/><path id="patch_563" d="m195.023 71.578 9.56-12.324-9.61-1.646z" clip-path="url(#pbd942f4fc4)"/><path id="patch_564" d="m204.584 59.254 9.58-11.767-9.669-2.425z" clip-path="url(#pbd942f4fc4)"/><path id="patch_565" d="m214.164 47.487 9.52-11.424-9.599-3.008z" clip-path="url(#pbd942f4fc4)"/><path id="patch_566" d="m195.023 71.578-.05-13.97-9.213 13.348z" clip-path="url(#pbd942f4fc4)"/><path id="patch_567" d="m204.584 59.254-.089-14.192-9.522 12.546z" clip-path="url(#pbd942f4fc4)"/><path id="patch_568" d="m214.164 47.487-.079-14.432-9.59 12.007z" clip-path="url(#pbd942f4fc4)"/><path id="patch_569" d="m185.76 70.956 9.213-13.348-9.213-.512z" clip-path="url(#pbd942f4fc4)"/><path id="patch_570" d="m194.973 57.608 9.522-12.546-9.56-1.391z" clip-path="url(#pbd942f4fc4)"/><path id="patch_571" d="m204.495 45.062 9.59-12.007-9.67-2.098z" clip-path="url(#pbd942f4fc4)"/><path id="patch_572" d="m194.973 57.608-.037-13.937-9.176 13.425z" clip-path="url(#pbd942f4fc4)"/><path id="patch_573" d="m204.495 45.062-.08-14.105-9.48 12.714z" clip-path="url(#pbd942f4fc4)"/><path id="patch_574" d="m185.76 57.096 9.176-13.425-9.176-.435z" clip-path="url(#pbd942f4fc4)"/><path id="patch_575" d="m194.936 43.67 9.48-12.713-9.51-1.203z" clip-path="url(#pbd942f4fc4)"/><path id="patch_576" d="m194.936 43.67-.03-13.916-9.146 13.482z" clip-path="url(#pbd942f4fc4)"/><path id="patch_577" d="m185.76 43.236 9.146-13.482-9.146-.378z" clip-path="url(#pbd942f4fc4)"/></g></g><defs id="defs587"><clipPath id="pbd942f4fc4"><path id="path584" d="M7.2 7.2h357.12v266.112H7.2z"/></clipPath></defs></svg>