<svg xmlns="http://www.w3.org/2000/svg" height="297.013" viewBox="0 0 222.76 222.76" width="297.013" version="1.1" id="svg210"><defs id="defs4"><style id="style2">*{stroke-linecap:butt;stroke-linejoin:round}</style></defs><g id="figure_1" transform="translate(-74.38 -28.876)"><path d="M0 280.512h371.52V0H0z" fill="none" id="patch_1"/><g id="axes_1" fill="#ddd" stroke="#000"><path clip-path="url(#pd46cef10bd)" d="m107.356 218.66 6.244 5.782 4.957-16.983-16.983 4.957z" id="patch_2"/><path clip-path="url(#pd46cef10bd)" d="m101.574 212.416 16.983-4.957-5.809-6.36-17.215 3.605z" id="patch_3"/><path clip-path="url(#pd46cef10bd)" d="m95.533 204.704 17.215-3.605-6.066-8.124-17.193 2.293z" id="patch_4"/><path clip-path="url(#pd46cef10bd)" d="m89.49 195.268 17.192-2.293-5.928-10.216-16.909 1.175z" id="patch_5"/><path clip-path="url(#pd46cef10bd)" d="m83.845 183.934 16.909-1.175-5.157-12.449-16.45.407z" id="patch_6"/><path clip-path="url(#pd46cef10bd)" d="m79.146 170.717 16.451-.407-3.584-14.43-16.019.057z" id="patch_7"/><path clip-path="url(#pd46cef10bd)" d="m75.994 155.937 16.02-.057-1.294-15.624H74.88z" id="patch_8"/><path clip-path="url(#pd46cef10bd)" d="M74.88 140.256h15.84l1.293-15.624-16.019-.057z" id="patch_9"/><path clip-path="url(#pd46cef10bd)" d="m75.994 124.575 16.02.057 3.583-14.43-16.45-.407z" id="patch_10"/><path clip-path="url(#pd46cef10bd)" d="m79.146 109.795 16.451.407 5.157-12.45-16.909-1.174z" id="patch_11"/><path clip-path="url(#pd46cef10bd)" d="m83.845 96.578 16.909 1.175 5.928-10.216-17.193-2.293z" id="patch_12"/><path clip-path="url(#pd46cef10bd)" d="m89.49 85.244 17.192 2.293 6.066-8.124-17.215-3.605z" id="patch_13"/><path clip-path="url(#pd46cef10bd)" d="m95.533 75.808 17.215 3.605 5.809-6.36-16.983-4.957z" id="patch_14"/><path clip-path="url(#pd46cef10bd)" d="m101.574 68.096 16.983 4.957L113.6 56.07l-6.244 5.782z" id="patch_15"/><path clip-path="url(#pd46cef10bd)" d="m113.6 224.442 7.712 6.04 3.605-17.214-6.36-5.809z" id="patch_16"/><path clip-path="url(#pd46cef10bd)" d="m118.557 207.46 6.36 5.808 4.84-17.01-17.009 4.841z" id="patch_17"/><path clip-path="url(#pd46cef10bd)" d="m112.748 201.1 17.01-4.841-5.843-6.527-17.233 3.243z" id="patch_18"/><path clip-path="url(#pd46cef10bd)" d="m106.682 192.975 17.233-3.243-6.068-8.728-17.093 1.755z" id="patch_19"/><path clip-path="url(#pd46cef10bd)" d="m100.754 182.76 17.093-1.756-5.622-11.334-16.628.64z" id="patch_20"/><path clip-path="url(#pd46cef10bd)" d="m95.597 170.31 16.628-.64-4.127-13.882-16.085.092z" id="patch_21"/><path clip-path="url(#pd46cef10bd)" d="m92.013 155.88 16.085-.092-1.538-15.532H90.72z" id="patch_22"/><path clip-path="url(#pd46cef10bd)" d="M90.72 140.256h15.84l1.538-15.532-16.085-.092z" id="patch_23"/><path clip-path="url(#pd46cef10bd)" d="m92.013 124.632 16.085.092 4.127-13.882-16.628-.64z" id="patch_24"/><path clip-path="url(#pd46cef10bd)" d="m95.597 110.202 16.628.64 5.622-11.334-17.093-1.755z" id="patch_25"/><path clip-path="url(#pd46cef10bd)" d="m100.754 97.753 17.093 1.755 6.068-8.728-17.233-3.243z" id="patch_26"/><path clip-path="url(#pd46cef10bd)" d="m106.682 87.537 17.233 3.243 5.842-6.527-17.009-4.84z" id="patch_27"/><path clip-path="url(#pd46cef10bd)" d="m112.748 79.413 17.01 4.84-4.841-17.009-6.36 5.809z" id="patch_28"/><path clip-path="url(#pd46cef10bd)" d="m118.557 73.053 6.36-5.809-3.605-17.215-7.712 6.04z" id="patch_29"/><path clip-path="url(#pd46cef10bd)" d="m121.312 230.483 9.436 6.044 2.293-17.193-8.124-6.066z" id="patch_30"/><path clip-path="url(#pd46cef10bd)" d="m124.917 213.268 8.124 6.066 3.243-17.233-6.527-5.842z" id="patch_31"/><path clip-path="url(#pd46cef10bd)" d="m129.757 196.259 6.527 5.842 4.674-17.043-17.043 4.674z" id="patch_32"/><path clip-path="url(#pd46cef10bd)" d="m123.915 189.732 17.043-4.674-5.886-6.786-17.225 2.732z" id="patch_33"/><path clip-path="url(#pd46cef10bd)" d="m117.847 181.004 17.225-2.732-5.983-9.68-16.864 1.078z" id="patch_34"/><path clip-path="url(#pd46cef10bd)" d="m112.225 169.67 16.864-1.079-4.797-12.968-16.194.165z" id="patch_35"/><path clip-path="url(#pd46cef10bd)" d="m108.098 155.788 16.194-.165-1.892-15.367h-15.84z" id="patch_36"/><path clip-path="url(#pd46cef10bd)" d="M106.56 140.256h15.84l1.892-15.367-16.194-.165z" id="patch_37"/><path clip-path="url(#pd46cef10bd)" d="m108.098 124.724 16.194.165 4.797-12.968-16.864-1.08z" id="patch_38"/><path clip-path="url(#pd46cef10bd)" d="m112.225 110.842 16.864 1.079 5.983-9.681-17.225-2.732z" id="patch_39"/><path clip-path="url(#pd46cef10bd)" d="m117.847 99.508 17.225 2.732 5.886-6.786-17.043-4.674z" id="patch_40"/><path clip-path="url(#pd46cef10bd)" d="m123.915 90.78 17.043 4.674-4.674-17.043-6.527 5.842z" id="patch_41"/><path clip-path="url(#pd46cef10bd)" d="m129.757 84.253 6.527-5.842-3.243-17.233-8.124 6.066z" id="patch_42"/><path clip-path="url(#pd46cef10bd)" d="m124.917 67.244 8.124-6.066-2.293-17.193-9.436 6.044z" id="patch_43"/><path clip-path="url(#pd46cef10bd)" d="m130.748 236.527 11.334 5.644 1.175-16.909-10.216-5.928z" id="patch_44"/><path clip-path="url(#pd46cef10bd)" d="m133.041 219.334 10.216 5.928 1.755-17.093-8.728-6.068z" id="patch_45"/><path clip-path="url(#pd46cef10bd)" d="m136.284 202.1 8.728 6.07 2.732-17.226-6.786-5.886z" id="patch_46"/><path clip-path="url(#pd46cef10bd)" d="m140.958 185.058 6.786 5.886 4.414-17.086-17.086 4.414z" id="patch_47"/><path clip-path="url(#pd46cef10bd)" d="m135.072 178.272 17.086-4.414-5.937-7.243-17.132 1.976z" id="patch_48"/><path clip-path="url(#pd46cef10bd)" d="m129.09 168.591 17.131-1.976-5.542-11.332-16.387.34z" id="patch_49"/><path clip-path="url(#pd46cef10bd)" d="m124.292 155.623 16.387-.34-2.439-15.027H122.4z" id="patch_50"/><path clip-path="url(#pd46cef10bd)" d="M122.4 140.256h15.84l2.439-15.027-16.387-.34z" id="patch_51"/><path clip-path="url(#pd46cef10bd)" d="m124.292 124.889 16.387.34 5.542-11.332-17.132-1.976z" id="patch_52"/><path clip-path="url(#pd46cef10bd)" d="m129.09 111.92 17.131 1.977 5.937-7.243-17.086-4.414z" id="patch_53"/><path clip-path="url(#pd46cef10bd)" d="m135.072 102.24 17.086 4.414-4.414-17.086-6.786 5.886z" id="patch_54"/><path clip-path="url(#pd46cef10bd)" d="m140.958 95.454 6.786-5.886-2.732-17.225-8.728 6.068z" id="patch_55"/><path clip-path="url(#pd46cef10bd)" d="m136.284 78.411 8.728-6.068-1.755-17.093-10.216 5.928z" id="patch_56"/><path clip-path="url(#pd46cef10bd)" d="m133.041 61.178 10.216-5.928-1.175-16.909-11.334 5.644z" id="patch_57"/><path clip-path="url(#pd46cef10bd)" d="m142.082 242.17 13.217 4.7.407-16.451-12.45-5.157z" id="patch_58"/><path clip-path="url(#pd46cef10bd)" d="m143.257 225.262 12.449 5.157.64-16.628-11.334-5.622z" id="patch_59"/><path clip-path="url(#pd46cef10bd)" d="m145.012 208.17 11.334 5.621 1.079-16.864-9.681-5.983z" id="patch_60"/><path clip-path="url(#pd46cef10bd)" d="m147.744 190.944 9.68 5.983 1.977-17.132-7.243-5.937z" id="patch_61"/><path clip-path="url(#pd46cef10bd)" d="m152.158 173.858 7.243 5.937 3.958-17.138-17.138 3.958z" id="patch_62"/><path clip-path="url(#pd46cef10bd)" d="m146.221 166.615 17.138-3.958-5.934-8.233-16.746.86z" id="patch_63"/><path clip-path="url(#pd46cef10bd)" d="m140.679 155.283 16.746-.86-3.345-14.167h-15.84z" id="patch_64"/><path clip-path="url(#pd46cef10bd)" d="M138.24 140.256h15.84l3.345-14.168-16.746-.86z" id="patch_65"/><path clip-path="url(#pd46cef10bd)" d="m140.679 125.229 16.746.86 5.934-8.234-17.138-3.958z" id="patch_66"/><path clip-path="url(#pd46cef10bd)" d="m146.221 113.897 17.138 3.958-3.958-17.138-7.243 5.937z" id="patch_67"/><path clip-path="url(#pd46cef10bd)" d="m152.158 106.654 7.243-5.937-1.976-17.132-9.681 5.983z" id="patch_68"/><path clip-path="url(#pd46cef10bd)" d="m147.744 89.568 9.68-5.983-1.078-16.864-11.334 5.622z" id="patch_69"/><path clip-path="url(#pd46cef10bd)" d="m145.012 72.343 11.334-5.622-.64-16.628-12.45 5.157z" id="patch_70"/><path clip-path="url(#pd46cef10bd)" d="m143.257 55.25 12.449-5.157-.407-16.45-13.217 4.698z" id="patch_71"/><path clip-path="url(#pd46cef10bd)" d="m155.299 246.87 14.78 3.152.057-16.02-14.43-3.583z" id="patch_72"/><path clip-path="url(#pd46cef10bd)" d="m155.706 230.419 14.43 3.584.092-16.085-13.882-4.127z" id="patch_73"/><path clip-path="url(#pd46cef10bd)" d="m156.346 213.791 13.882 4.127.165-16.194-12.968-4.797z" id="patch_74"/><path clip-path="url(#pd46cef10bd)" d="m157.425 196.927 12.968 4.797.34-16.387-11.332-5.542z" id="patch_75"/><path clip-path="url(#pd46cef10bd)" d="m159.4 179.795 11.333 5.542.86-16.746-8.234-5.934z" id="patch_76"/><path clip-path="url(#pd46cef10bd)" d="m163.359 162.657 8.233 5.934 2.967-17.134-17.134 2.967z" id="patch_77"/><path clip-path="url(#pd46cef10bd)" d="m157.425 154.424 17.134-2.967-4.639-11.201h-15.84z" id="patch_78"/><path clip-path="url(#pd46cef10bd)" d="M154.08 140.256h15.84l4.64-11.2-17.135-2.968z" id="patch_79"/><path clip-path="url(#pd46cef10bd)" d="m157.425 126.088 17.134 2.967-2.967-17.134-8.233 5.934z" id="patch_80"/><path clip-path="url(#pd46cef10bd)" d="m163.359 117.855 8.233-5.934-.86-16.746-11.331 5.542z" id="patch_81"/><path clip-path="url(#pd46cef10bd)" d="m159.4 100.717 11.333-5.542-.34-16.387-12.968 4.797z" id="patch_82"/><path clip-path="url(#pd46cef10bd)" d="m157.425 83.585 12.968-4.797-.165-16.194-13.882 4.127z" id="patch_83"/><path clip-path="url(#pd46cef10bd)" d="m156.346 66.72 13.882-4.126-.092-16.085-14.43 3.584z" id="patch_84"/><path clip-path="url(#pd46cef10bd)" d="m155.706 50.093 14.43-3.584-.057-16.019-14.78 3.152z" id="patch_85"/><path clip-path="url(#pd46cef10bd)" d="m170.08 250.022 15.68 1.114v-15.84l-15.624-1.293z" id="patch_86"/><path clip-path="url(#pd46cef10bd)" d="m170.136 234.003 15.624 1.293v-15.84l-15.532-1.538z" id="patch_87"/><path clip-path="url(#pd46cef10bd)" d="m170.228 217.918 15.532 1.538v-15.84l-15.367-1.892z" id="patch_88"/><path clip-path="url(#pd46cef10bd)" d="m170.393 201.724 15.367 1.892v-15.84l-15.027-2.439z" id="patch_89"/><path clip-path="url(#pd46cef10bd)" d="m170.733 185.337 15.027 2.439v-15.84l-14.168-3.345z" id="patch_90"/><path clip-path="url(#pd46cef10bd)" d="m171.592 168.591 14.168 3.345v-15.84l-11.2-4.64z" id="patch_91"/><path clip-path="url(#pd46cef10bd)" d="m174.56 151.457 11.2 4.639v-15.84h-15.84z" id="patch_92"/><path clip-path="url(#pd46cef10bd)" d="M169.92 140.256h15.84v-15.84l-11.2 4.64z" id="patch_93"/><path clip-path="url(#pd46cef10bd)" d="m174.56 129.055 11.2-4.639v-15.84l-14.168 3.345z" id="patch_94"/><path clip-path="url(#pd46cef10bd)" d="m171.592 111.92 14.168-3.344v-15.84l-15.027 2.439z" id="patch_95"/><path clip-path="url(#pd46cef10bd)" d="m170.733 95.175 15.027-2.439v-15.84l-15.367 1.892z" id="patch_96"/><path clip-path="url(#pd46cef10bd)" d="m170.393 78.788 15.367-1.892v-15.84l-15.532 1.538z" id="patch_97"/><path clip-path="url(#pd46cef10bd)" d="m170.228 62.594 15.532-1.538v-15.84l-15.624 1.293z" id="patch_98"/><path clip-path="url(#pd46cef10bd)" d="m170.136 46.51 15.624-1.294v-15.84l-15.68 1.114z" id="patch_99"/><path clip-path="url(#pd46cef10bd)" d="m185.76 251.136 15.68-1.114-.056-16.02-15.624 1.294z" id="patch_100"/><path clip-path="url(#pd46cef10bd)" d="m185.76 235.296 15.624-1.293-.092-16.085-15.532 1.538z" id="patch_101"/><path clip-path="url(#pd46cef10bd)" d="m185.76 219.456 15.532-1.538-.165-16.194-15.367 1.892z" id="patch_102"/><path clip-path="url(#pd46cef10bd)" d="m185.76 203.616 15.367-1.892-.34-16.387-15.027 2.439z" id="patch_103"/><path clip-path="url(#pd46cef10bd)" d="m185.76 187.776 15.027-2.439-.86-16.746-14.167 3.345z" id="patch_104"/><path clip-path="url(#pd46cef10bd)" d="m185.76 171.936 14.168-3.345-2.967-17.134-11.201 4.639z" id="patch_105"/><path clip-path="url(#pd46cef10bd)" d="m185.76 156.096 11.2-4.64 4.64-11.2h-15.84z" id="patch_106"/><path clip-path="url(#pd46cef10bd)" d="M185.76 140.256h15.84l-4.64-11.2-11.2-4.64z" id="patch_107"/><path clip-path="url(#pd46cef10bd)" d="m185.76 124.416 11.2 4.64 2.968-17.135-14.168-3.345z" id="patch_108"/><path clip-path="url(#pd46cef10bd)" d="m185.76 108.576 14.168 3.345.86-16.746-15.028-2.439z" id="patch_109"/><path clip-path="url(#pd46cef10bd)" d="m185.76 92.736 15.027 2.439.34-16.387-15.367-1.892z" id="patch_110"/><path clip-path="url(#pd46cef10bd)" d="m185.76 76.896 15.367 1.892.165-16.194-15.532-1.538z" id="patch_111"/><path clip-path="url(#pd46cef10bd)" d="m185.76 61.056 15.532 1.538.092-16.085-15.624-1.293z" id="patch_112"/><path clip-path="url(#pd46cef10bd)" d="m185.76 45.216 15.624 1.293.057-16.019-15.681-1.114z" id="patch_113"/><path clip-path="url(#pd46cef10bd)" d="m201.44 250.022 14.781-3.152-.407-16.451-14.43 3.584z" id="patch_114"/><path clip-path="url(#pd46cef10bd)" d="m201.384 234.003 14.43-3.584-.64-16.628-13.882 4.127z" id="patch_115"/><path clip-path="url(#pd46cef10bd)" d="m201.292 217.918 13.882-4.127-1.079-16.864-12.968 4.797z" id="patch_116"/><path clip-path="url(#pd46cef10bd)" d="m201.127 201.724 12.968-4.797-1.976-17.132-11.332 5.542z" id="patch_117"/><path clip-path="url(#pd46cef10bd)" d="m200.787 185.337 11.332-5.542-3.958-17.138-8.233 5.934z" id="patch_118"/><path clip-path="url(#pd46cef10bd)" d="m199.928 168.591 8.233-5.934 5.934-8.233-17.134-2.967z" id="patch_119"/><path clip-path="url(#pd46cef10bd)" d="m196.96 151.457 17.135 2.967 3.345-14.168H201.6z" id="patch_120"/><path clip-path="url(#pd46cef10bd)" d="M201.6 140.256h15.84l-3.345-14.168-17.134 2.967z" id="patch_121"/><path clip-path="url(#pd46cef10bd)" d="m196.96 129.055 17.135-2.967-5.934-8.233-8.233-5.934z" id="patch_122"/><path clip-path="url(#pd46cef10bd)" d="m199.928 111.92 8.233 5.935 3.958-17.138-11.332-5.542z" id="patch_123"/><path clip-path="url(#pd46cef10bd)" d="m200.787 95.175 11.332 5.542 1.976-17.132-12.968-4.797z" id="patch_124"/><path clip-path="url(#pd46cef10bd)" d="m201.127 78.788 12.968 4.797 1.08-16.864-13.883-4.127z" id="patch_125"/><path clip-path="url(#pd46cef10bd)" d="m201.292 62.594 13.882 4.127.64-16.628-14.43-3.584z" id="patch_126"/><path clip-path="url(#pd46cef10bd)" d="m201.384 46.51 14.43 3.583.407-16.45-14.78-3.153z" id="patch_127"/><path clip-path="url(#pd46cef10bd)" d="m216.221 246.87 13.217-4.7-1.175-16.908-12.449 5.157z" id="patch_128"/><path clip-path="url(#pd46cef10bd)" d="m215.814 230.419 12.45-5.157-1.756-17.093-11.334 5.622z" id="patch_129"/><path clip-path="url(#pd46cef10bd)" d="m215.174 213.791 11.334-5.622-2.732-17.225-9.68 5.983z" id="patch_130"/><path clip-path="url(#pd46cef10bd)" d="m214.095 196.927 9.681-5.983-4.414-17.086-7.243 5.937z" id="patch_131"/><path clip-path="url(#pd46cef10bd)" d="m212.12 179.795 7.242-5.937 5.937-7.243-17.138-3.958z" id="patch_132"/><path clip-path="url(#pd46cef10bd)" d="m208.161 162.657 17.138 3.958 5.542-11.332-16.746-.86z" id="patch_133"/><path clip-path="url(#pd46cef10bd)" d="m214.095 154.424 16.746.86 2.439-15.028h-15.84z" id="patch_134"/><path clip-path="url(#pd46cef10bd)" d="M217.44 140.256h15.84l-2.439-15.027-16.746.86z" id="patch_135"/><path clip-path="url(#pd46cef10bd)" d="m214.095 126.088 16.746-.86-5.542-11.331-17.138 3.958z" id="patch_136"/><path clip-path="url(#pd46cef10bd)" d="m208.161 117.855 17.138-3.958-5.937-7.243-7.243-5.937z" id="patch_137"/><path clip-path="url(#pd46cef10bd)" d="m212.12 100.717 7.242 5.937 4.414-17.086-9.68-5.983z" id="patch_138"/><path clip-path="url(#pd46cef10bd)" d="m214.095 83.585 9.681 5.983 2.732-17.225-11.334-5.622z" id="patch_139"/><path clip-path="url(#pd46cef10bd)" d="m215.174 66.72 11.334 5.623 1.755-17.093-12.449-5.157z" id="patch_140"/><path clip-path="url(#pd46cef10bd)" d="m215.814 50.093 12.45 5.157 1.174-16.909-13.217-4.699z" id="patch_141"/><path clip-path="url(#pd46cef10bd)" d="m229.438 242.17 11.334-5.643-2.293-17.193-10.216 5.928z" id="patch_142"/><path clip-path="url(#pd46cef10bd)" d="m228.263 225.262 10.216-5.928-3.243-17.233-8.728 6.068z" id="patch_143"/><path clip-path="url(#pd46cef10bd)" d="m226.508 208.17 8.728-6.07-4.674-17.042-6.786 5.886z" id="patch_144"/><path clip-path="url(#pd46cef10bd)" d="m223.776 190.944 6.786-5.886 5.886-6.786-17.086-4.414z" id="patch_145"/><path clip-path="url(#pd46cef10bd)" d="m219.362 173.858 17.086 4.414 5.983-9.68-17.132-1.977z" id="patch_146"/><path clip-path="url(#pd46cef10bd)" d="m225.299 166.615 17.132 1.976 4.797-12.968-16.387-.34z" id="patch_147"/><path clip-path="url(#pd46cef10bd)" d="m230.841 155.283 16.387.34 1.892-15.367h-15.84z" id="patch_148"/><path clip-path="url(#pd46cef10bd)" d="M233.28 140.256h15.84l-1.892-15.367-16.387.34z" id="patch_149"/><path clip-path="url(#pd46cef10bd)" d="m230.841 125.229 16.387-.34-4.797-12.968-17.132 1.976z" id="patch_150"/><path clip-path="url(#pd46cef10bd)" d="m225.299 113.897 17.132-1.976-5.983-9.681-17.086 4.414z" id="patch_151"/><path clip-path="url(#pd46cef10bd)" d="m219.362 106.654 17.086-4.414-5.886-6.786-6.786-5.886z" id="patch_152"/><path clip-path="url(#pd46cef10bd)" d="m223.776 89.568 6.786 5.886 4.674-17.043-8.728-6.068z" id="patch_153"/><path clip-path="url(#pd46cef10bd)" d="m226.508 72.343 8.728 6.068 3.243-17.233-10.216-5.928z" id="patch_154"/><path clip-path="url(#pd46cef10bd)" d="m228.263 55.25 10.216 5.928 2.293-17.193-11.334-5.644z" id="patch_155"/><path clip-path="url(#pd46cef10bd)" d="m240.772 236.527 9.436-6.044-3.605-17.215-8.124 6.066z" id="patch_156"/><path clip-path="url(#pd46cef10bd)" d="m238.479 219.334 8.124-6.066-4.84-17.01-6.527 5.843z" id="patch_157"/><path clip-path="url(#pd46cef10bd)" d="m235.236 202.1 6.527-5.841 5.842-6.527-17.043-4.674z" id="patch_158"/><path clip-path="url(#pd46cef10bd)" d="m230.562 185.058 17.043 4.674 6.068-8.728-17.225-2.732z" id="patch_159"/><path clip-path="url(#pd46cef10bd)" d="m236.448 178.272 17.225 2.732 5.622-11.334-16.864-1.079z" id="patch_160"/><path clip-path="url(#pd46cef10bd)" d="m242.43 168.591 16.865 1.08 4.127-13.883-16.194-.165z" id="patch_161"/><path clip-path="url(#pd46cef10bd)" d="m247.228 155.623 16.194.165 1.538-15.532h-15.84z" id="patch_162"/><path clip-path="url(#pd46cef10bd)" d="M249.12 140.256h15.84l-1.538-15.532-16.194.165z" id="patch_163"/><path clip-path="url(#pd46cef10bd)" d="m247.228 124.889 16.194-.165-4.127-13.882-16.864 1.079z" id="patch_164"/><path clip-path="url(#pd46cef10bd)" d="m242.43 111.92 16.865-1.078-5.622-11.334-17.225 2.732z" id="patch_165"/><path clip-path="url(#pd46cef10bd)" d="m236.448 102.24 17.225-2.732-6.068-8.728-17.043 4.674z" id="patch_166"/><path clip-path="url(#pd46cef10bd)" d="m230.562 95.454 17.043-4.674-5.842-6.527-6.527-5.842z" id="patch_167"/><path clip-path="url(#pd46cef10bd)" d="m235.236 78.411 6.527 5.842 4.84-17.009-8.124-6.066z" id="patch_168"/><path clip-path="url(#pd46cef10bd)" d="m238.479 61.178 8.124 6.066 3.605-17.215-9.436-6.044z" id="patch_169"/><path clip-path="url(#pd46cef10bd)" d="m250.208 230.483 7.712-6.04-4.957-16.984-6.36 5.809z" id="patch_170"/><path clip-path="url(#pd46cef10bd)" d="m246.603 213.268 6.36-5.809 5.809-6.36-17.01-4.84z" id="patch_171"/><path clip-path="url(#pd46cef10bd)" d="m241.763 196.259 17.009 4.84 6.066-8.124-17.233-3.243z" id="patch_172"/><path clip-path="url(#pd46cef10bd)" d="m247.605 189.732 17.233 3.243 5.928-10.216-17.093-1.755z" id="patch_173"/><path clip-path="url(#pd46cef10bd)" d="m253.673 181.004 17.093 1.755 5.157-12.449-16.628-.64z" id="patch_174"/><path clip-path="url(#pd46cef10bd)" d="m259.295 169.67 16.628.64 3.584-14.43-16.085-.092z" id="patch_175"/><path clip-path="url(#pd46cef10bd)" d="m263.422 155.788 16.085.092 1.293-15.624h-15.84z" id="patch_176"/><path clip-path="url(#pd46cef10bd)" d="M264.96 140.256h15.84l-1.293-15.624-16.085.092z" id="patch_177"/><path clip-path="url(#pd46cef10bd)" d="m263.422 124.724 16.085-.092-3.584-14.43-16.628.64z" id="patch_178"/><path clip-path="url(#pd46cef10bd)" d="m259.295 110.842 16.628-.64-5.157-12.45-17.093 1.756z" id="patch_179"/><path clip-path="url(#pd46cef10bd)" d="m253.673 99.508 17.093-1.755-5.928-10.216-17.233 3.243z" id="patch_180"/><path clip-path="url(#pd46cef10bd)" d="m247.605 90.78 17.233-3.243-6.066-8.124-17.01 4.84z" id="patch_181"/><path clip-path="url(#pd46cef10bd)" d="m241.763 84.253 17.009-4.84-5.809-6.36-6.36-5.809z" id="patch_182"/><path clip-path="url(#pd46cef10bd)" d="m246.603 67.244 6.36 5.809 4.957-16.983-7.712-6.04z" id="patch_183"/><path clip-path="url(#pd46cef10bd)" d="m257.92 224.442 6.244-5.782 5.782-6.244-16.983-4.957z" id="patch_184"/><path clip-path="url(#pd46cef10bd)" d="m252.963 207.46 16.983 4.956 6.04-7.712-17.214-3.605z" id="patch_185"/><path clip-path="url(#pd46cef10bd)" d="m258.772 201.1 17.215 3.604 6.044-9.436-17.193-2.293z" id="patch_186"/><path clip-path="url(#pd46cef10bd)" d="m264.838 192.975 17.193 2.293 5.644-11.334-16.909-1.175z" id="patch_187"/><path clip-path="url(#pd46cef10bd)" d="m270.766 182.76 16.909 1.174 4.699-13.217-16.451-.407z" id="patch_188"/><path clip-path="url(#pd46cef10bd)" d="m275.923 170.31 16.45.407 3.153-14.78-16.02-.057z" id="patch_189"/><path clip-path="url(#pd46cef10bd)" d="m279.507 155.88 16.019.057 1.114-15.681H280.8z" id="patch_190"/><path clip-path="url(#pd46cef10bd)" d="M280.8 140.256h15.84l-1.114-15.68-16.02.056z" id="patch_191"/><path clip-path="url(#pd46cef10bd)" d="m279.507 124.632 16.019-.057-3.152-14.78-16.451.407z" id="patch_192"/><path clip-path="url(#pd46cef10bd)" d="m275.923 110.202 16.45-.407-4.698-13.217-16.909 1.175z" id="patch_193"/><path clip-path="url(#pd46cef10bd)" d="m270.766 97.753 16.909-1.175-5.644-11.334-17.193 2.293z" id="patch_194"/><path clip-path="url(#pd46cef10bd)" d="m264.838 87.537 17.193-2.293-6.044-9.436-17.215 3.605z" id="patch_195"/><path clip-path="url(#pd46cef10bd)" d="m258.772 79.413 17.215-3.605-6.04-7.712-16.984 4.957z" id="patch_196"/><path clip-path="url(#pd46cef10bd)" d="m252.963 73.053 16.983-4.957-5.782-6.244-6.244-5.782z" id="patch_197"/></g></g><defs id="defs208"><clipPath id="pd46cef10bd"><path d="M7.2 7.2h357.12v266.112H7.2z" id="path205"/></clipPath></defs></svg>