<svg xmlns="http://www.w3.org/2000/svg" viewBox="-50 0 100 86.603"><style>path{fill:#ddd;stroke:#000;stroke-width:1;stroke-linejoin:bevel}</style><path d="M28.125 27.063h-6.25L25 32.476z"/><path d="m18.75 32.476 3.125-5.413L25 32.476zm12.5 0-3.125-5.413L25 32.476zM25 21.651l3.125 5.412h-6.25zm3.125 5.412h6.25l-3.125-5.412z"/><path d="m37.5 21.651-3.125 5.412-3.125-5.412zm-6.25 10.825-3.125-5.413h6.25zM25 21.651l3.125 5.412 3.125-5.412zm-3.125 5.412h-6.25l3.125-5.412z"/><path d="m12.5 21.651 3.125 5.412 3.125-5.412zm6.25 10.825 3.125-5.413h-6.25zM25 21.651l-3.125 5.412-3.125-5.412zm0 10.825-3.125 5.413h6.25zm0 10.825-3.125-5.412h6.25z"/><path d="M18.75 32.476H25l-3.125 5.413zm12.5 0H25l3.125 5.413zM9.375 37.889l3.125-5.413 3.125 5.413z"/><path d="M18.75 32.476H12.5l3.125 5.413zm-12.5 0 3.125 5.413 3.125-5.413zm6.25 10.825-3.125-5.412h6.25zm-3.125-5.412h-6.25l3.125 5.412z"/><path d="m0 43.301 3.125-5.412 3.125 5.412zm6.25-10.825 3.125 5.413h-6.25zm6.25 10.825-3.125-5.412-3.125 5.412zm0-10.825 3.125-5.413h-6.25zm0-10.825 3.125 5.412h-6.25zm6.25 10.825H12.5l3.125-5.413z"/><path d="M6.25 32.476h6.25l-3.125-5.413zm9.375 5.413h6.25l-3.125 5.412zM25 43.301l-3.125-5.412-3.125 5.412zm-6.25-10.825-3.125 5.413h6.25zM12.5 43.301l3.125-5.412 3.125 5.412zm28.125-5.412L37.5 32.476l-3.125 5.413z"/><path d="M31.25 32.476h6.25l-3.125 5.413zm12.5 0-3.125 5.413-3.125-5.413zM37.5 43.301l3.125-5.412h-6.25zm3.125-5.412h6.25l-3.125 5.412zM50 43.301l-3.125-5.412-3.125 5.412zm-6.25-10.825-3.125 5.413h6.25z"/><path d="m37.5 43.301 3.125-5.412 3.125 5.412zm0-10.825-3.125-5.413h6.25zm0-10.825-3.125 5.412h6.25z"/><path d="M31.25 32.476h6.25l-3.125-5.413zm12.5 0H37.5l3.125-5.413zm-9.375 5.413h-6.25l3.125 5.412z"/><path d="m25 43.301 3.125-5.412 3.125 5.412zm6.25-10.825 3.125 5.413h-6.25zm6.25 10.825-3.125-5.412-3.125 5.412zM25 10.825l3.125 5.413h-6.25zm0 10.826 3.125-5.413h-6.25z"/><path d="M31.25 10.825H25l3.125 5.413zm-12.5 0H25l-3.125 5.413zm6.25 0 3.125-5.412h-6.25z"/><path d="m25 0 3.125 5.413h-6.25z"/><path d="M31.25 10.825H25l3.125-5.412zm-12.5 0H25l-3.125-5.412zm9.375 5.413 3.125 5.413 3.125-5.413zm9.375 5.413h-6.25l3.125-5.413z"/><path d="m25 21.651 3.125-5.413 3.125 5.413zm6.25-10.826-3.125 5.413h6.25zm-9.375 5.413-3.125 5.413-3.125-5.413z"/><path d="M12.5 21.651h6.25l-3.125-5.413zm12.5 0-3.125-5.413-3.125 5.413zm-6.25-10.826 3.125 5.413h-6.25zm-18.75 0-3.125 5.413h6.25zm0 10.826-3.125-5.413h6.25z"/><path d="M6.25 10.825H0l3.125 5.413zm-12.5 0H0l-3.125 5.413zm6.25 0 3.125-5.412h-6.25z"/><path d="m0 0 3.125 5.413h-6.25z"/><path d="M6.25 10.825H0l3.125-5.412zm-12.5 0H0l-3.125-5.412zm3.125 5.413-3.125 5.413-3.125-5.413z"/><path d="M-12.5 21.651h6.25l-3.125-5.413zm12.5 0-3.125-5.413-3.125 5.413zm-6.25-10.826 3.125 5.413h-6.25zm9.375 5.413 3.125 5.413 3.125-5.413zm9.375 5.413H6.25l3.125-5.413z"/><path d="m0 21.651 3.125-5.413 3.125 5.413zm6.25-10.826-3.125 5.413h6.25zM0 32.476l-3.125-5.413h6.25zm0-10.825-3.125 5.412h6.25z"/><path d="M-6.25 32.476H0l-3.125-5.413zm12.5 0H0l3.125-5.413zm-6.25 0-3.125 5.413h6.25zm0 10.825-3.125-5.412h6.25z"/><path d="M-6.25 32.476H0l-3.125 5.413zm12.5 0H0l3.125 5.413zm-9.375-5.413-3.125-5.412-3.125 5.412z"/><path d="M-12.5 21.651h6.25l-3.125 5.412zm12.5 0-3.125 5.412-3.125-5.412zm-6.25 10.825 3.125-5.413h-6.25zm9.375-5.413 3.125-5.412 3.125 5.412z"/><path d="M12.5 21.651H6.25l3.125 5.412zm-12.5 0 3.125 5.412 3.125-5.412zm6.25 10.825-3.125-5.413h6.25zm9.375-27.063h-6.25l3.125 5.412z"/><path d="m6.25 10.825 3.125-5.412 3.125 5.412z"/><path d="m12.5 0 3.125 5.413h-6.25z"/><path d="m18.75 10.825-3.125-5.412-3.125 5.412z"/><path d="M15.625 5.413 18.75 0l3.125 5.413z"/><path d="M25 0h-6.25l3.125 5.413zM12.5 0l3.125 5.413L18.75 0z"/><path d="m18.75 10.825-3.125-5.412h6.25zM9.375 5.413h-6.25L6.25 0z"/><path d="m0 0 3.125 5.413L6.25 0z"/><path d="m6.25 10.825 3.125-5.412h-6.25z"/><path d="M12.5 0 9.375 5.413 6.25 0zm0 10.825-3.125 5.413h6.25zm0 10.826-3.125-5.413h6.25z"/><path d="M6.25 10.825h6.25l-3.125 5.413zm12.5 0H12.5l3.125 5.413zm-34.375-5.412h6.25l-3.125 5.412zm9.375 5.412-3.125-5.412-3.125 5.412z"/><path d="m-12.5 0-3.125 5.413h6.25z"/><path d="m-18.75 10.825 3.125-5.412 3.125 5.412z"/><path d="M-15.625 5.413-18.75 0l-3.125 5.413z"/><path d="M-25 0h6.25l-3.125 5.413zm12.5 0-3.125 5.413L-18.75 0z"/><path d="m-18.75 10.825 3.125-5.412h-6.25zm9.375-5.412h6.25L-6.25 0z"/><path d="m0 0-3.125 5.413L-6.25 0z"/><path d="m-6.25 10.825-3.125-5.412h6.25z"/><path d="m-12.5 0 3.125 5.413L-6.25 0zm0 10.825 3.125 5.413h-6.25zm0 10.826 3.125-5.413h-6.25z"/><path d="M-6.25 10.825h-6.25l3.125 5.413zm-12.5 0h6.25l-3.125 5.413zm-9.375 16.238L-25 32.476l3.125-5.413zm9.375 5.413H-25l3.125-5.413zM-25 21.651l-3.125 5.412h6.25z"/><path d="m-31.25 32.476 3.125-5.413L-25 32.476zm3.125-5.413-3.125-5.412-3.125 5.412z"/><path d="M-37.5 21.651h6.25l-3.125 5.412zm12.5 0-3.125 5.412-3.125-5.412zm-6.25 10.825 3.125-5.413h-6.25zm6.25 0 3.125 5.413h-6.25zm0 10.825 3.125-5.412h-6.25z"/><path d="M-18.75 32.476H-25l3.125 5.413zm-12.5 0H-25l-3.125 5.413zm9.375-5.413h6.25l-3.125-5.412z"/><path d="m-12.5 21.651-3.125 5.412-3.125-5.412zm-6.25 10.825-3.125-5.413h6.25zM-25 21.651l3.125 5.412 3.125-5.412zm15.625 16.238h-6.25l3.125-5.413zm-9.375-5.413 3.125 5.413 3.125-5.413zm6.25 10.825 3.125-5.412h-6.25zm6.25-10.825-3.125 5.413-3.125-5.413zm-3.125 5.413 3.125 5.412 3.125-5.412zM0 43.301h-6.25l3.125-5.412z"/><path d="m-12.5 43.301 3.125-5.412 3.125 5.412zm6.25-10.825-3.125 5.413h6.25zm-9.375 5.413h-6.25l3.125 5.412z"/><path d="m-25 43.301 3.125-5.412 3.125 5.412zm6.25-10.825 3.125 5.413h-6.25zm6.25 10.825-3.125-5.412-3.125 5.412zm0-10.825-3.125-5.413h6.25zm0-10.825-3.125 5.412h6.25z"/><path d="M-18.75 32.476h6.25l-3.125-5.413zm12.5 0h-6.25l3.125-5.413zM-25 10.825l-3.125 5.413h6.25zm0 10.826-3.125-5.413h6.25z"/><path d="M-31.25 10.825H-25l-3.125 5.413zm12.5 0H-25l3.125 5.413zm-6.25 0-3.125-5.412h6.25z"/><path d="m-25 0-3.125 5.413h6.25z"/><path d="M-31.25 10.825H-25l-3.125-5.412zm12.5 0H-25l3.125-5.412zm-9.375 5.413-3.125 5.413-3.125-5.413z"/><path d="M-37.5 21.651h6.25l-3.125-5.413zm12.5 0-3.125-5.413-3.125 5.413zm-6.25-10.826 3.125 5.413h-6.25zm9.375 5.413 3.125 5.413 3.125-5.413zm9.375 5.413h-6.25l3.125-5.413z"/><path d="m-25 21.651 3.125-5.413 3.125 5.413zm6.25-10.826-3.125 5.413h6.25zm-21.875 27.064 3.125-5.413 3.125 5.413z"/><path d="M-31.25 32.476h-6.25l3.125 5.413zm-12.5 0 3.125 5.413 3.125-5.413zm6.25 10.825-3.125-5.412h6.25zm-3.125-5.412h-6.25l3.125 5.412z"/><path d="m-50 43.301 3.125-5.412 3.125 5.412zm6.25-10.825 3.125 5.413h-6.25zm6.25 10.825-3.125-5.412-3.125 5.412zm0-10.825 3.125-5.413h-6.25zm0-10.825 3.125 5.412h-6.25zm6.25 10.825h-6.25l3.125-5.413z"/><path d="M-43.75 32.476h6.25l-3.125-5.413zm9.375 5.413h6.25l-3.125 5.412zM-25 43.301l-3.125-5.412-3.125 5.412zm-6.25-10.825-3.125 5.413h6.25zm-6.25 10.825 3.125-5.412 3.125 5.412zm9.375 16.238h6.25L-25 54.127z"/><path d="m-18.75 54.127-3.125 5.412L-25 54.127zm-12.5 0 3.125 5.412L-25 54.127zM-25 64.952l-3.125-5.413h6.25zm-3.125-5.413h-6.25l3.125 5.413z"/><path d="m-37.5 64.952 3.125-5.413 3.125 5.413zm6.25-10.825 3.125 5.412h-6.25zM-25 64.952l-3.125-5.413-3.125 5.413zm3.125-5.413h6.25l-3.125 5.413zm9.375 5.413-3.125-5.413-3.125 5.413zm-6.25-10.825-3.125 5.412h6.25z"/><path d="m-25 64.952 3.125-5.413 3.125 5.413zm0-10.825 3.125-5.413h-6.25zm0-10.826 3.125 5.413h-6.25zm6.25 10.826H-25l3.125-5.413zm-12.5 0H-25l-3.125-5.413zm21.875-5.413-3.125 5.413-3.125-5.413zm-9.375 5.413h6.25l-3.125-5.413zm12.5 0-3.125-5.413-3.125 5.413zm-6.25-10.826 3.125 5.413h-6.25zm3.125 5.413h6.25l-3.125-5.413z"/><path d="m0 43.301-3.125 5.413-3.125-5.413zm-6.25 10.826-3.125-5.413h6.25zm-6.25-10.826 3.125 5.413 3.125-5.413zm0 10.826-3.125 5.412h6.25zm0 10.825-3.125-5.413h6.25z"/><path d="M-18.75 54.127h6.25l-3.125 5.412zm12.5 0h-6.25l3.125 5.412zm-9.375-5.413h-6.25l3.125-5.413z"/><path d="m-25 43.301 3.125 5.413 3.125-5.413zm6.25 10.826 3.125-5.413h-6.25zm6.25-10.826-3.125 5.413-3.125-5.413zm-28.125 5.413 3.125 5.413 3.125-5.413zm9.375 5.413h-6.25l3.125-5.413z"/><path d="m-43.75 54.127 3.125-5.413 3.125 5.413zm6.25-10.826-3.125 5.413h6.25zm-3.125 5.413h-6.25l3.125-5.413z"/><path d="m-50 43.301 3.125 5.413 3.125-5.413zm6.25 10.826 3.125-5.413h-6.25zm6.25-10.826-3.125 5.413-3.125-5.413zm0 10.826 3.125 5.412h-6.25zm0 10.825 3.125-5.413h-6.25z"/><path d="M-31.25 54.127h-6.25l3.125 5.412zm-12.5 0h6.25l-3.125 5.412zm9.375-5.413h6.25l-3.125-5.413z"/><path d="m-25 43.301-3.125 5.413-3.125-5.413zm-6.25 10.826-3.125-5.413h6.25zm-6.25-10.826 3.125 5.413 3.125-5.413zM-25 75.777l-3.125-5.412h6.25zm0-10.825-3.125 5.413h6.25z"/><path d="M-31.25 75.777H-25l-3.125-5.412zm12.5 0H-25l3.125-5.412zm-6.25 0-3.125 5.413h6.25zm0 10.826-3.125-5.413h6.25z"/><path d="M-31.25 75.777H-25l-3.125 5.413zm12.5 0H-25l3.125 5.413zm-9.375-5.412-3.125-5.413-3.125 5.413z"/><path d="M-37.5 64.952h6.25l-3.125 5.413zm12.5 0-3.125 5.413-3.125-5.413zm-6.25 10.825 3.125-5.412h-6.25zm9.375-5.412 3.125-5.413 3.125 5.413z"/><path d="M-12.5 64.952h-6.25l3.125 5.413zm-12.5 0 3.125 5.413 3.125-5.413zm6.25 10.825-3.125-5.412h6.25zm18.75 0 3.125-5.412h-6.25zm0-10.825 3.125 5.413h-6.25z"/><path d="M-6.25 75.777H0l-3.125-5.412zm12.5 0H0l3.125-5.412zm-6.25 0-3.125 5.413h6.25zm0 10.826-3.125-5.413h6.25z"/><path d="M-6.25 75.777H0l-3.125 5.413zm12.5 0H0l3.125 5.413zm-3.125-5.412 3.125-5.413 3.125 5.413z"/><path d="M12.5 64.952H6.25l3.125 5.413zm-12.5 0 3.125 5.413 3.125-5.413zm6.25 10.825-3.125-5.412h6.25zm-9.375-5.412-3.125-5.413-3.125 5.413z"/><path d="M-12.5 64.952h6.25l-3.125 5.413zm12.5 0-3.125 5.413-3.125-5.413zm-6.25 10.825 3.125-5.412h-6.25zM0 54.127l3.125 5.412h-6.25zm0 10.825 3.125-5.413h-6.25z"/><path d="M6.25 54.127H0l3.125 5.412zm-12.5 0H0l-3.125 5.412zm6.25 0 3.125-5.413h-6.25zm0-10.826 3.125 5.413h-6.25z"/><path d="M6.25 54.127H0l3.125-5.413zm-12.5 0H0l-3.125-5.413zm9.375 5.412 3.125 5.413 3.125-5.413zm9.375 5.413H6.25l3.125-5.413z"/><path d="m0 64.952 3.125-5.413 3.125 5.413zm6.25-10.825-3.125 5.412h6.25zm-9.375 5.412-3.125 5.413-3.125-5.413z"/><path d="M-12.5 64.952h6.25l-3.125-5.413zm12.5 0-3.125-5.413-3.125 5.413zm-6.25-10.825 3.125 5.412h-6.25zm-9.375 27.063h6.25l-3.125-5.413z"/><path d="m-6.25 75.777-3.125 5.413-3.125-5.413zm-6.25 10.826-3.125-5.413h6.25zm-6.25-10.826 3.125 5.413 3.125-5.413zm3.125 5.413-3.125 5.413-3.125-5.413z"/><path d="M-25 86.603h6.25l-3.125-5.413zm12.5 0-3.125-5.413-3.125 5.413zm-6.25-10.826 3.125 5.413h-6.25zm9.375 5.413h6.25l-3.125 5.413zM0 86.603l-3.125-5.413-3.125 5.413zm-6.25-10.826-3.125 5.413h6.25zm-6.25 10.826 3.125-5.413 3.125 5.413zm0-10.826 3.125-5.412h-6.25zm0-10.825 3.125 5.413h-6.25zm6.25 10.825h-6.25l3.125-5.412z"/><path d="M-18.75 75.777h6.25l-3.125-5.412zm34.375 5.413h-6.25l3.125-5.413z"/><path d="m6.25 75.777 3.125 5.413 3.125-5.413zm6.25 10.826 3.125-5.413h-6.25zm6.25-10.826-3.125 5.413-3.125-5.413zm-3.125 5.413 3.125 5.413 3.125-5.413zM25 86.603h-6.25l3.125-5.413z"/><path d="m12.5 86.603 3.125-5.413 3.125 5.413zm6.25-10.826-3.125 5.413h6.25zM9.375 81.19h-6.25l3.125 5.413z"/><path d="m0 86.603 3.125-5.413 3.125 5.413zm6.25-10.826 3.125 5.413h-6.25zm6.25 10.826L9.375 81.19 6.25 86.603zm0-10.826-3.125-5.412h6.25zm0-10.825-3.125 5.413h6.25z"/><path d="M6.25 75.777h6.25l-3.125-5.412zm12.5 0H12.5l3.125-5.412zm9.375-16.238L25 54.127l-3.125 5.412z"/><path d="M18.75 54.127H25l-3.125 5.412zM25 64.952l3.125-5.413h-6.25zm6.25-10.825-3.125 5.412L25 54.127zm-3.125 5.412 3.125 5.413 3.125-5.413zm9.375 5.413h-6.25l3.125-5.413zm-12.5 0 3.125-5.413 3.125 5.413zm6.25-10.825-3.125 5.412h6.25zm-6.25 0-3.125-5.413h6.25zm0-10.826-3.125 5.413h6.25z"/><path d="M18.75 54.127H25l-3.125-5.413zm12.5 0H25l3.125-5.413zm-9.375 5.412h-6.25l3.125 5.413z"/><path d="m12.5 64.952 3.125-5.413 3.125 5.413zm6.25-10.825 3.125 5.412h-6.25zM25 64.952l-3.125-5.413-3.125 5.413zM9.375 48.714h6.25L12.5 54.127z"/><path d="m18.75 54.127-3.125-5.413-3.125 5.413zM12.5 43.301l-3.125 5.413h6.25zM6.25 54.127l3.125-5.413 3.125 5.413zm3.125-5.413L6.25 43.301l-3.125 5.413z"/><path d="M0 43.301h6.25l-3.125 5.413zm12.5 0-3.125 5.413-3.125-5.413zM6.25 54.127l3.125-5.413h-6.25zm9.375-5.413h6.25l-3.125-5.413z"/><path d="m25 43.301-3.125 5.413-3.125-5.413zm-6.25 10.826-3.125-5.413h6.25zM12.5 43.301l3.125 5.413 3.125-5.413zm0 10.826 3.125 5.412h-6.25zm0 10.825 3.125-5.413h-6.25z"/><path d="M18.75 54.127H12.5l3.125 5.412zm-12.5 0h6.25l-3.125 5.412zM25 75.777l3.125-5.412h-6.25zm0-10.825 3.125 5.413h-6.25zm6.25 10.825H25l3.125-5.412z"/><path d="M18.75 75.777H25l-3.125-5.412zm6.25 0 3.125 5.413h-6.25zm0 10.826 3.125-5.413h-6.25z"/><path d="M31.25 75.777H25l3.125 5.413zm-12.5 0H25l-3.125 5.413zm9.375-5.412 3.125-5.413 3.125 5.413z"/><path d="M37.5 64.952h-6.25l3.125 5.413zm-12.5 0 3.125 5.413 3.125-5.413zm6.25 10.825-3.125-5.412h6.25zm-9.375-5.412-3.125-5.413-3.125 5.413z"/><path d="M12.5 64.952h6.25l-3.125 5.413zm12.5 0-3.125 5.413-3.125-5.413zm-6.25 10.825 3.125-5.412h-6.25zm21.875-27.063L37.5 54.127l-3.125-5.413z"/><path d="M31.25 54.127h6.25l-3.125-5.413zm12.5 0-3.125-5.413-3.125 5.413zM37.5 43.301l3.125 5.413h-6.25zm3.125 5.413h6.25l-3.125-5.413z"/><path d="m50 43.301-3.125 5.413-3.125-5.413zm-6.25 10.826-3.125-5.413h6.25zM37.5 43.301l3.125 5.413 3.125-5.413zm0 10.826-3.125 5.412h6.25zm0 10.825-3.125-5.413h6.25z"/><path d="M31.25 54.127h6.25l-3.125 5.412zm12.5 0H37.5l3.125 5.412zm-9.375-5.413h-6.25l3.125-5.413z"/><path d="m25 43.301 3.125 5.413 3.125-5.413zm6.25 10.826 3.125-5.413h-6.25zm6.25-10.826-3.125 5.413-3.125-5.413z"/></svg>