<svg width="85.91" height="34.594" viewBox="0 0 22.73 9.153" xmlns="http://www.w3.org/2000/svg"><defs><path id="a" d="M47.88 157.774h670.305v284.858H47.88z"/></defs><path style="fill:#0d1926;fill-opacity:1;stroke-width:.79375;stroke-linejoin:bevel" d="M-1.045-2.353h25.766v14.078H-1.045z"/><g aria-label="meshzoo" transform="matrix(.26458 0 0 .26458 -9.673 -40.226)" style="font-style:italic;font-weight:700;font-size:18.6667px;line-height:1.25;font-family:'Cascadia Code';-inkscape-font-specification:'Cascadia Code Bold Italic';letter-spacing:0;word-spacing:0;white-space:pre;shape-inside:url(#a)"><path d="M51.753 165.347H49.62l-1.723 9.662h2.47l1.112-6.344c.182-.802.465-1.203.884-1.203.374 0 .529.31.438.838l-1.185 6.709h1.75l1.121-6.362c.173-.793.52-1.185.939-1.185.328 0 .474.31.383.838l-1.194 6.709h2.47l1.303-7.292c.3-1.686-.191-2.552-1.513-2.552-.911 0-1.486.374-1.878 1.385h-.255c-.027-.957-.42-1.385-1.14-1.385-.801 0-1.284.392-1.649 1.385h-.264z" style="fill:#e74c3c"/><path d="M66.016 171.969v-.214c0-1.986-1.226-3.253-3.186-3.253-1.08 0-1.96.347-2.627 1.027a3.51 3.51 0 0 0-.96 2.386c0 .96.413 1.907 1.08 2.48.613.52 1.507.814 2.52.814 1.56 0 2.587-.694 3.173-2.12l-.653-.267c-.533 1.04-1.12 1.48-2 1.48a1.738 1.738 0 0 1-1.48-.8c-.227-.36-.32-.773-.333-1.533zm-4.453-.734c0-1.266.507-2.04 1.307-2.04.693 0 1.053.56 1.053 1.614 0 .32-.093.426-.36.426z" style="font-size:13.3333px;fill:#2ecc71"/><path d="M74.664 166.086h-.802l-.69.41c-.71-.41-1.4-.597-2.316-.597-2.109 0-3.602 1.251-3.602 3.024 0 .71.261 1.363.784 1.848.56.542 1.101.803 2.314 1.064l1.363.3c.933.204 1.307.522 1.307 1.082 0 .672-.616 1.101-1.606 1.101-1.437 0-2.5-.803-3.397-2.576h-.84l.093 3.23h.784l.728-.337c.71.411 1.662.654 2.632.654 2.203 0 3.752-1.307 3.752-3.174 0-.784-.28-1.437-.802-1.904-.486-.429-.878-.597-2.222-.933l-1.68-.41c-.914-.243-1.157-.43-1.157-.915 0-.635.635-1.083 1.568-1.083 1.195 0 2.072.635 2.987 2.165h.877z" style="fill:#f1c40f"/><path d="M79.19 169.963c.005-1.125.693-1.784 1.681-1.784.983 0 1.563.63 1.557 1.705v5.125h2.42v-5.557c.006-2.046-1.198-3.284-3.017-3.284-1.323 0-2.21.625-2.607 1.653h-.103v-4.449H76.77v11.637h2.42z" style="font-style:normal;font-size:16px;font-family:Inter;-inkscape-font-specification:'Inter Bold';fill:#3498db"/><path d="M94.912 173.089a1.12 1.12 0 0 0-1.136-1.136c-.544 0-1.008.352-1.216.912-.24.672-.896.816-1.744.816-.4 0-.64-.032-.976-.128l5.328-5.44-.368-1.136h-.464c-1.248 0-2.928-.288-4.176-.288-1.712 0-2.976.88-2.976 2.08 0 .672.4 1.136.992 1.136.56 0 1.024-.384 1.28-1.024.24-.608.528-.784 1.264-.784.448 0 .704.032 1.008.16l-5.36 5.488.448 1.28c.784-.096.832-.096 1.264-.096 1.92 0 3.408.224 4.128.224 1.456 0 2.704-.944 2.704-2.064z" style="font-size:16px;font-family:'TeX Gyre Bonum';-inkscape-font-specification:'TeX Gyre Bonum Bold Italic';fill:#9b59b6"/><path d="M98.628 168.205c-1.932 0-3.516 1.572-3.516 3.48 0 1.92 1.584 3.48 3.528 3.48 1.932 0 3.54-1.56 3.54-3.432 0-1.98-1.548-3.528-3.552-3.528zm.012 1.464c1.068 0 1.932.9 1.932 2.016s-.864 2.016-1.92 2.016c-1.08 0-1.932-.9-1.932-2.04 0-1.092.864-1.992 1.92-1.992z" style="font-style:normal;font-size:12px;font-family:'URW Gothic';-inkscape-font-specification:'URW Gothic Bold';fill:#2aa198"/><path d="M111.13 170.66c0-2.558-1.792-4.63-3.994-4.63-2.278 0-4.07 2.035-4.07 4.648 0 2.557 1.792 4.61 4.032 4.61s4.032-2.053 4.032-4.629zm-1.96 0c0 2.482-.728 3.826-2.072 3.826s-2.072-1.344-2.072-3.808c0-2.539.71-3.845 2.11-3.845 1.306 0 2.034 1.362 2.034 3.826z" style="font-style:normal;font-family:'TeX Gyre Schola Math';-inkscape-font-specification:'TeX Gyre Schola Math Bold';fill:#ecf0f1"/></g></svg>