<svg xmlns="http://www.w3.org/2000/svg" height="297.013" viewBox="0 0 222.76 222.76" width="297.013" version="1.1" id="svg328"><defs id="defs218"><style id="style216">*{stroke-linecap:butt;stroke-linejoin:round}</style></defs><g id="figure_1" transform="translate(-74.38 -28.876)"><path d="M0 280.512h371.52V0H0z" fill="none" id="patch_1"/><g id="axes_1" fill="#ddd" stroke="#000"><path clip-path="url(#pbaace59f05)" d="M74.88 251.136h22.176V228.96H74.88z" id="patch_2"/><path clip-path="url(#pbaace59f05)" d="M74.88 228.96h22.176v-22.176H74.88z" id="patch_3"/><path clip-path="url(#pbaace59f05)" d="M74.88 206.784h22.176v-22.176H74.88z" id="patch_4"/><path clip-path="url(#pbaace59f05)" d="M74.88 184.608h22.176v-22.176H74.88z" id="patch_5"/><path clip-path="url(#pbaace59f05)" d="M74.88 162.432h22.176v-22.176H74.88z" id="patch_6"/><path clip-path="url(#pbaace59f05)" d="M74.88 140.256h22.176V118.08H74.88z" id="patch_7"/><path clip-path="url(#pbaace59f05)" d="M74.88 118.08h22.176V95.904H74.88z" id="patch_8"/><path clip-path="url(#pbaace59f05)" d="M74.88 95.904h22.176V73.728H74.88z" id="patch_9"/><path clip-path="url(#pbaace59f05)" d="M74.88 73.728h22.176V51.552H74.88z" id="patch_10"/><path clip-path="url(#pbaace59f05)" d="M74.88 51.552h22.176V29.376H74.88z" id="patch_11"/><path clip-path="url(#pbaace59f05)" d="M97.056 251.136h22.176V228.96H97.056z" id="patch_12"/><path clip-path="url(#pbaace59f05)" d="M97.056 228.96h22.176v-22.176H97.056z" id="patch_13"/><path clip-path="url(#pbaace59f05)" d="M97.056 206.784h22.176v-22.176H97.056z" id="patch_14"/><path clip-path="url(#pbaace59f05)" d="M97.056 184.608h22.176v-22.176H97.056z" id="patch_15"/><path clip-path="url(#pbaace59f05)" d="M97.056 162.432h22.176v-22.176H97.056z" id="patch_16"/><path clip-path="url(#pbaace59f05)" d="M97.056 140.256h22.176V118.08H97.056z" id="patch_17"/><path clip-path="url(#pbaace59f05)" d="M97.056 118.08h22.176V95.904H97.056z" id="patch_18"/><path clip-path="url(#pbaace59f05)" d="M97.056 95.904h22.176V73.728H97.056z" id="patch_19"/><path clip-path="url(#pbaace59f05)" d="M97.056 73.728h22.176V51.552H97.056z" id="patch_20"/><path clip-path="url(#pbaace59f05)" d="M97.056 51.552h22.176V29.376H97.056z" id="patch_21"/><path clip-path="url(#pbaace59f05)" d="M119.232 251.136h22.176V228.96h-22.176z" id="patch_22"/><path clip-path="url(#pbaace59f05)" d="M119.232 228.96h22.176v-22.176h-22.176z" id="patch_23"/><path clip-path="url(#pbaace59f05)" d="M119.232 206.784h22.176v-22.176h-22.176z" id="patch_24"/><path clip-path="url(#pbaace59f05)" d="M119.232 184.608h22.176v-22.176h-22.176z" id="patch_25"/><path clip-path="url(#pbaace59f05)" d="M119.232 162.432h22.176v-22.176h-22.176z" id="patch_26"/><path clip-path="url(#pbaace59f05)" d="M119.232 140.256h22.176V118.08h-22.176z" id="patch_27"/><path clip-path="url(#pbaace59f05)" d="M119.232 118.08h22.176V95.904h-22.176z" id="patch_28"/><path clip-path="url(#pbaace59f05)" d="M119.232 95.904h22.176V73.728h-22.176z" id="patch_29"/><path clip-path="url(#pbaace59f05)" d="M119.232 73.728h22.176V51.552h-22.176z" id="patch_30"/><path clip-path="url(#pbaace59f05)" d="M119.232 51.552h22.176V29.376h-22.176z" id="patch_31"/><path clip-path="url(#pbaace59f05)" d="M141.408 251.136h22.176V228.96h-22.176z" id="patch_32"/><path clip-path="url(#pbaace59f05)" d="M141.408 228.96h22.176v-22.176h-22.176z" id="patch_33"/><path clip-path="url(#pbaace59f05)" d="M141.408 206.784h22.176v-22.176h-22.176z" id="patch_34"/><path clip-path="url(#pbaace59f05)" d="M141.408 184.608h22.176v-22.176h-22.176z" id="patch_35"/><path clip-path="url(#pbaace59f05)" d="M141.408 162.432h22.176v-22.176h-22.176z" id="patch_36"/><path clip-path="url(#pbaace59f05)" d="M141.408 140.256h22.176V118.08h-22.176z" id="patch_37"/><path clip-path="url(#pbaace59f05)" d="M141.408 118.08h22.176V95.904h-22.176z" id="patch_38"/><path clip-path="url(#pbaace59f05)" d="M141.408 95.904h22.176V73.728h-22.176z" id="patch_39"/><path clip-path="url(#pbaace59f05)" d="M141.408 73.728h22.176V51.552h-22.176z" id="patch_40"/><path clip-path="url(#pbaace59f05)" d="M141.408 51.552h22.176V29.376h-22.176z" id="patch_41"/><path clip-path="url(#pbaace59f05)" d="M163.584 251.136h22.176V228.96h-22.176z" id="patch_42"/><path clip-path="url(#pbaace59f05)" d="M163.584 228.96h22.176v-22.176h-22.176z" id="patch_43"/><path clip-path="url(#pbaace59f05)" d="M163.584 206.784h22.176v-22.176h-22.176z" id="patch_44"/><path clip-path="url(#pbaace59f05)" d="M163.584 184.608h22.176v-22.176h-22.176z" id="patch_45"/><path clip-path="url(#pbaace59f05)" d="M163.584 162.432h22.176v-22.176h-22.176z" id="patch_46"/><path clip-path="url(#pbaace59f05)" d="M163.584 140.256h22.176V118.08h-22.176z" id="patch_47"/><path clip-path="url(#pbaace59f05)" d="M163.584 118.08h22.176V95.904h-22.176z" id="patch_48"/><path clip-path="url(#pbaace59f05)" d="M163.584 95.904h22.176V73.728h-22.176z" id="patch_49"/><path clip-path="url(#pbaace59f05)" d="M163.584 73.728h22.176V51.552h-22.176z" id="patch_50"/><path clip-path="url(#pbaace59f05)" d="M163.584 51.552h22.176V29.376h-22.176z" id="patch_51"/><path clip-path="url(#pbaace59f05)" d="M185.76 251.136h22.176V228.96H185.76z" id="patch_52"/><path clip-path="url(#pbaace59f05)" d="M185.76 228.96h22.176v-22.176H185.76z" id="patch_53"/><path clip-path="url(#pbaace59f05)" d="M185.76 206.784h22.176v-22.176H185.76z" id="patch_54"/><path clip-path="url(#pbaace59f05)" d="M185.76 184.608h22.176v-22.176H185.76z" id="patch_55"/><path clip-path="url(#pbaace59f05)" d="M185.76 162.432h22.176v-22.176H185.76z" id="patch_56"/><path clip-path="url(#pbaace59f05)" d="M185.76 140.256h22.176V118.08H185.76z" id="patch_57"/><path clip-path="url(#pbaace59f05)" d="M185.76 118.08h22.176V95.904H185.76z" id="patch_58"/><path clip-path="url(#pbaace59f05)" d="M185.76 95.904h22.176V73.728H185.76z" id="patch_59"/><path clip-path="url(#pbaace59f05)" d="M185.76 73.728h22.176V51.552H185.76z" id="patch_60"/><path clip-path="url(#pbaace59f05)" d="M185.76 51.552h22.176V29.376H185.76z" id="patch_61"/><path clip-path="url(#pbaace59f05)" d="M207.936 251.136h22.176V228.96h-22.176z" id="patch_62"/><path clip-path="url(#pbaace59f05)" d="M207.936 228.96h22.176v-22.176h-22.176z" id="patch_63"/><path clip-path="url(#pbaace59f05)" d="M207.936 206.784h22.176v-22.176h-22.176z" id="patch_64"/><path clip-path="url(#pbaace59f05)" d="M207.936 184.608h22.176v-22.176h-22.176z" id="patch_65"/><path clip-path="url(#pbaace59f05)" d="M207.936 162.432h22.176v-22.176h-22.176z" id="patch_66"/><path clip-path="url(#pbaace59f05)" d="M207.936 140.256h22.176V118.08h-22.176z" id="patch_67"/><path clip-path="url(#pbaace59f05)" d="M207.936 118.08h22.176V95.904h-22.176z" id="patch_68"/><path clip-path="url(#pbaace59f05)" d="M207.936 95.904h22.176V73.728h-22.176z" id="patch_69"/><path clip-path="url(#pbaace59f05)" d="M207.936 73.728h22.176V51.552h-22.176z" id="patch_70"/><path clip-path="url(#pbaace59f05)" d="M207.936 51.552h22.176V29.376h-22.176z" id="patch_71"/><path clip-path="url(#pbaace59f05)" d="M230.112 251.136h22.176V228.96h-22.176z" id="patch_72"/><path clip-path="url(#pbaace59f05)" d="M230.112 228.96h22.176v-22.176h-22.176z" id="patch_73"/><path clip-path="url(#pbaace59f05)" d="M230.112 206.784h22.176v-22.176h-22.176z" id="patch_74"/><path clip-path="url(#pbaace59f05)" d="M230.112 184.608h22.176v-22.176h-22.176z" id="patch_75"/><path clip-path="url(#pbaace59f05)" d="M230.112 162.432h22.176v-22.176h-22.176z" id="patch_76"/><path clip-path="url(#pbaace59f05)" d="M230.112 140.256h22.176V118.08h-22.176z" id="patch_77"/><path clip-path="url(#pbaace59f05)" d="M230.112 118.08h22.176V95.904h-22.176z" id="patch_78"/><path clip-path="url(#pbaace59f05)" d="M230.112 95.904h22.176V73.728h-22.176z" id="patch_79"/><path clip-path="url(#pbaace59f05)" d="M230.112 73.728h22.176V51.552h-22.176z" id="patch_80"/><path clip-path="url(#pbaace59f05)" d="M230.112 51.552h22.176V29.376h-22.176z" id="patch_81"/><path clip-path="url(#pbaace59f05)" d="M252.288 251.136h22.176V228.96h-22.176z" id="patch_82"/><path clip-path="url(#pbaace59f05)" d="M252.288 228.96h22.176v-22.176h-22.176z" id="patch_83"/><path clip-path="url(#pbaace59f05)" d="M252.288 206.784h22.176v-22.176h-22.176z" id="patch_84"/><path clip-path="url(#pbaace59f05)" d="M252.288 184.608h22.176v-22.176h-22.176z" id="patch_85"/><path clip-path="url(#pbaace59f05)" d="M252.288 162.432h22.176v-22.176h-22.176z" id="patch_86"/><path clip-path="url(#pbaace59f05)" d="M252.288 140.256h22.176V118.08h-22.176z" id="patch_87"/><path clip-path="url(#pbaace59f05)" d="M252.288 118.08h22.176V95.904h-22.176z" id="patch_88"/><path clip-path="url(#pbaace59f05)" d="M252.288 95.904h22.176V73.728h-22.176z" id="patch_89"/><path clip-path="url(#pbaace59f05)" d="M252.288 73.728h22.176V51.552h-22.176z" id="patch_90"/><path clip-path="url(#pbaace59f05)" d="M252.288 51.552h22.176V29.376h-22.176z" id="patch_91"/><path clip-path="url(#pbaace59f05)" d="M274.464 251.136h22.176V228.96h-22.176z" id="patch_92"/><path clip-path="url(#pbaace59f05)" d="M274.464 228.96h22.176v-22.176h-22.176z" id="patch_93"/><path clip-path="url(#pbaace59f05)" d="M274.464 206.784h22.176v-22.176h-22.176z" id="patch_94"/><path clip-path="url(#pbaace59f05)" d="M274.464 184.608h22.176v-22.176h-22.176z" id="patch_95"/><path clip-path="url(#pbaace59f05)" d="M274.464 162.432h22.176v-22.176h-22.176z" id="patch_96"/><path clip-path="url(#pbaace59f05)" d="M274.464 140.256h22.176V118.08h-22.176z" id="patch_97"/><path clip-path="url(#pbaace59f05)" d="M274.464 118.08h22.176V95.904h-22.176z" id="patch_98"/><path clip-path="url(#pbaace59f05)" d="M274.464 95.904h22.176V73.728h-22.176z" id="patch_99"/><path clip-path="url(#pbaace59f05)" d="M274.464 73.728h22.176V51.552h-22.176z" id="patch_100"/><path clip-path="url(#pbaace59f05)" d="M274.464 51.552h22.176V29.376h-22.176z" id="patch_101"/></g></g><defs id="defs326"><clipPath id="pbaace59f05"><path d="M7.2 7.2h357.12v266.112H7.2z" id="path323"/></clipPath></defs></svg>