<svg xmlns="http://www.w3.org/2000/svg" viewBox="0 0 100 100"><style>path{fill:none;stroke:#000;stroke-width:1;stroke-linejoin:bevel}</style><path d="M0 100h10V90zM10 90V80H0zM0 80h10V70zM10 70V60H0zM0 60h10V50zM10 50V40H0zM0 40h10V30zM10 30V20H0zM0 20h10V10zM10 10V0H0zM20 100V90H10zM10 90h10V80zM20 80V70H10zM10 70h10V60zM20 60V50H10zM10 50h10V40zM20 40V30H10zM10 30h10V20zM20 20V10H10zM10 10h10V0zM20 100h10V90zM30 90V80H20zM20 80h10V70zM30 70V60H20zM20 60h10V50zM30 50V40H20zM20 40h10V30zM30 30V20H20zM20 20h10V10zM30 10V0H20zM40 100V90H30zM30 90h10V80zM40 80V70H30zM30 70h10V60zM40 60V50H30zM30 50h10V40zM40 40V30H30zM30 30h10V20zM40 20V10H30zM30 10h10V0zM40 100h10V90zM50 90V80H40zM40 80h10V70zM50 70V60H40zM40 60h10V50zM50 50V40H40zM40 40h10V30zM50 30V20H40zM40 20h10V10zM50 10V0H40zM60 100V90H50zM50 90h10V80zM60 80V70H50zM50 70h10V60zM60 60V50H50zM50 50h10V40zM60 40V30H50zM50 30h10V20zM60 20V10H50zM50 10h10V0zM60 100h10V90zM70 90V80H60zM60 80h10V70zM70 70V60H60zM60 60h10V50zM70 50V40H60zM60 40h10V30zM70 30V20H60zM60 20h10V10zM70 10V0H60zM80 100V90H70zM70 90h10V80zM80 80V70H70zM70 70h10V60zM80 60V50H70zM70 50h10V40zM80 40V30H70zM70 30h10V20zM80 20V10H70zM70 10h10V0zM80 100h10V90zM90 90V80H80zM80 80h10V70zM90 70V60H80zM80 60h10V50zM90 50V40H80zM80 40h10V30zM90 30V20H80zM80 20h10V10zM90 10V0H80zM100 100V90H90zM90 90h10V80zM100 80V70H90zM90 70h10V60zM100 60V50H90zM90 50h10V40zM100 40V30H90zM90 30h10V20zM100 20V10H90zM90 10h10V0z"/><path d="M0 100l10-10H0zM0 90h10L0 80zM0 80l10-10H0zM0 70h10L0 60zM0 60l10-10H0zM0 50h10L0 40zM0 40l10-10H0zM0 30h10L0 20zM0 20l10-10H0zM0 10h10L0 0zM10 100h10L10 90zM10 90l10-10H10zM10 80h10L10 70zM10 70l10-10H10zM10 60h10L10 50zM10 50l10-10H10zM10 40h10L10 30zM10 30l10-10H10zM10 20h10L10 10zM10 10L20 0H10zM20 100l10-10H20zM20 90h10L20 80zM20 80l10-10H20zM20 70h10L20 60zM20 60l10-10H20zM20 50h10L20 40zM20 40l10-10H20zM20 30h10L20 20zM20 20l10-10H20zM20 10h10L20 0zM30 100h10L30 90zM30 90l10-10H30zM30 80h10L30 70zM30 70l10-10H30zM30 60h10L30 50zM30 50l10-10H30zM30 40h10L30 30zM30 30l10-10H30zM30 20h10L30 10zM30 10L40 0H30zM40 100l10-10H40zM40 90h10L40 80zM40 80l10-10H40zM40 70h10L40 60zM40 60l10-10H40zM40 50h10L40 40zM40 40l10-10H40zM40 30h10L40 20zM40 20l10-10H40zM40 10h10L40 0zM50 100h10L50 90zM50 90l10-10H50zM50 80h10L50 70zM50 70l10-10H50zM50 60h10L50 50zM50 50l10-10H50zM50 40h10L50 30zM50 30l10-10H50zM50 20h10L50 10zM50 10L60 0H50zM60 100l10-10H60zM60 90h10L60 80zM60 80l10-10H60zM60 70h10L60 60zM60 60l10-10H60zM60 50h10L60 40zM60 40l10-10H60zM60 30h10L60 20zM60 20l10-10H60zM60 10h10L60 0zM70 100h10L70 90zM70 90l10-10H70zM70 80h10L70 70zM70 70l10-10H70zM70 60h10L70 50zM70 50l10-10H70zM70 40h10L70 30zM70 30l10-10H70zM70 20h10L70 10zM70 10L80 0H70zM80 100l10-10H80zM80 90h10L80 80zM80 80l10-10H80zM80 70h10L80 60zM80 60l10-10H80zM80 50h10L80 40zM80 40l10-10H80zM80 30h10L80 20zM80 20l10-10H80zM80 10h10L80 0zM90 100h10L90 90zM90 90l10-10H90zM90 80h10L90 70zM90 70l10-10H90zM90 60h10L90 50zM90 50l10-10H90zM90 40h10L90 30zM90 30l10-10H90zM90 20h10L90 10zM90 10l10-10H90z"/></svg>