<svg xmlns="http://www.w3.org/2000/svg" viewBox="0 0 100 100"><style>path{fill:#ddd;stroke:#000;stroke-width:1;stroke-linejoin:bevel}</style><path d="M0 100h10V90zm10-10V80H0zM0 80h10V70zm10-10V60H0zM0 60h10V50zm10-10V40H0zM0 40h10V30zm10-10V20H0zM0 20h10V10zm10-10V0H0zm10 90V90H10zM10 90h10V80zm10-10V70H10zM10 70h10V60zm10-10V50H10zM10 50h10V40zm10-10V30H10zM10 30h10V20zm10-10V10H10zM10 10h10V0zm10 90h10V90zm10-10V80H20zM20 80h10V70zm10-10V60H20zM20 60h10V50zm10-10V40H20zM20 40h10V30zm10-10V20H20zM20 20h10V10zm10-10V0H20zm10 90V90H30zM30 90h10V80zm10-10V70H30zM30 70h10V60zm10-10V50H30zM30 50h10V40zm10-10V30H30zM30 30h10V20zm10-10V10H30zM30 10h10V0zm10 90h10V90zm10-10V80H40zM40 80h10V70zm10-10V60H40zM40 60h10V50zm10-10V40H40zM40 40h10V30zm10-10V20H40zM40 20h10V10zm10-10V0H40zm10 90V90H50zM50 90h10V80zm10-10V70H50zM50 70h10V60zm10-10V50H50zM50 50h10V40zm10-10V30H50zM50 30h10V20zm10-10V10H50zM50 10h10V0zm10 90h10V90zm10-10V80H60zM60 80h10V70zm10-10V60H60zM60 60h10V50zm10-10V40H60zM60 40h10V30zm10-10V20H60zM60 20h10V10zm10-10V0H60zm10 90V90H70zM70 90h10V80zm10-10V70H70zM70 70h10V60zm10-10V50H70zM70 50h10V40zm10-10V30H70zM70 30h10V20zm10-10V10H70zM70 10h10V0zm10 90h10V90zm10-10V80H80zM80 80h10V70zm10-10V60H80zM80 60h10V50zm10-10V40H80zM80 40h10V30zm10-10V20H80zM80 20h10V10zm10-10V0H80zm10 90V90H90zM90 90h10V80zm10-10V70H90zM90 70h10V60zm10-10V50H90zM90 50h10V40zm10-10V30H90zM90 30h10V20zm10-10V10H90zM90 10h10V0z"/><path d="m0 100 10-10H0zm0-10h10L0 80zm0-10 10-10H0zm0-10h10L0 60zm0-10 10-10H0zm0-10h10L0 40zm0-10 10-10H0zm0-10h10L0 20zm0-10 10-10H0zm0-10h10L0 0zm10 90h10L10 90zm0-10 10-10H10zm0-10h10L10 70zm0-10 10-10H10zm0-10h10L10 50zm0-10 10-10H10zm0-10h10L10 30zm0-10 10-10H10zm0-10h10L10 10zm0-10L20 0H10zm10 90 10-10H20zm0-10h10L20 80zm0-10 10-10H20zm0-10h10L20 60zm0-10 10-10H20zm0-10h10L20 40zm0-10 10-10H20zm0-10h10L20 20zm0-10 10-10H20zm0-10h10L20 0zm10 90h10L30 90zm0-10 10-10H30zm0-10h10L30 70zm0-10 10-10H30zm0-10h10L30 50zm0-10 10-10H30zm0-10h10L30 30zm0-10 10-10H30zm0-10h10L30 10zm0-10L40 0H30zm10 90 10-10H40zm0-10h10L40 80zm0-10 10-10H40zm0-10h10L40 60zm0-10 10-10H40zm0-10h10L40 40zm0-10 10-10H40zm0-10h10L40 20zm0-10 10-10H40zm0-10h10L40 0zm10 90h10L50 90zm0-10 10-10H50zm0-10h10L50 70zm0-10 10-10H50zm0-10h10L50 50zm0-10 10-10H50zm0-10h10L50 30zm0-10 10-10H50zm0-10h10L50 10zm0-10L60 0H50zm10 90 10-10H60zm0-10h10L60 80zm0-10 10-10H60zm0-10h10L60 60zm0-10 10-10H60zm0-10h10L60 40zm0-10 10-10H60zm0-10h10L60 20zm0-10 10-10H60zm0-10h10L60 0zm10 90h10L70 90zm0-10 10-10H70zm0-10h10L70 70zm0-10 10-10H70zm0-10h10L70 50zm0-10 10-10H70zm0-10h10L70 30zm0-10 10-10H70zm0-10h10L70 10zm0-10L80 0H70zm10 90 10-10H80zm0-10h10L80 80zm0-10 10-10H80zm0-10h10L80 60zm0-10 10-10H80zm0-10h10L80 40zm0-10 10-10H80zm0-10h10L80 20zm0-10 10-10H80zm0-10h10L80 0zm10 90h10L90 90zm0-10 10-10H90zm0-10h10L90 70zm0-10 10-10H90zm0-10h10L90 50zm0-10 10-10H90zm0-10h10L90 30zm0-10 10-10H90zm0-10h10L90 10zm0-10 10-10H90z"/></svg>