<svg height="374.016" viewBox="0 0 371.52 280.512" width="495.36" xmlns="http://www.w3.org/2000/svg"><defs><style>*{stroke-linecap:butt;stroke-linejoin:round}</style></defs><g id="figure_1"><path d="M0 280.512h371.52V0H0z" fill="none" id="patch_1"/><g id="axes_1"><path clip-path="url(#p70c0c46b60)" d="M185.76 29.376v22.25l-7.122-22.022z" fill="#ddd" stroke="#000" id="patch_2"/><path clip-path="url(#p70c0c46b60)" d="M178.444 51.927l.194-22.323-8.77.913z" fill="#ddd" stroke="#000" id="patch_3"/><path clip-path="url(#p70c0c46b60)" d="M168.941 53.23l.927-22.713-10.829 2.116z" fill="#ddd" stroke="#000" id="patch_4"/><path clip-path="url(#p70c0c46b60)" d="M156.629 56.528l2.41-23.895L145.8 36.8z" fill="#ddd" stroke="#000" id="patch_5"/><path clip-path="url(#p70c0c46b60)" d="M141.261 63.549L145.8 36.8l-15.663 7.48z" fill="#ddd" stroke="#000" id="patch_6"/><path clip-path="url(#p70c0c46b60)" d="M130.136 44.28l-17.204 12.248 28.33 7.02z" fill="#ddd" stroke="#000" id="patch_7"/><path clip-path="url(#p70c0c46b60)" d="M112.932 56.528L96.434 74.315l27.617 2.178z" fill="#ddd" stroke="#000" id="patch_8"/><path clip-path="url(#p70c0c46b60)" d="M96.434 74.315L83.673 96.418l25.013-.294z" fill="#ddd" stroke="#000" id="patch_9"/><path clip-path="url(#p70c0c46b60)" d="M83.673 96.418l-7.156 23.181 22.85-.352z" fill="#ddd" stroke="#000" id="patch_10"/><path clip-path="url(#p70c0c46b60)" d="M76.517 119.6l-2.004 21.023h22.25z" fill="#ddd" stroke="#000" id="patch_11"/><path clip-path="url(#p70c0c46b60)" d="M75.867 157.927l20.895-17.304 1.604 16.82z" fill="#ddd" stroke="#000" id="patch_12"/><path clip-path="url(#p70c0c46b60)" d="M98.366 157.442l-19.489 14.036 22.788-1.724z" fill="#ddd" stroke="#000" id="patch_13"/><path clip-path="url(#p70c0c46b60)" d="M82.46 181.913l19.205-12.159 3.624 8.882z" fill="#ddd" stroke="#000" id="patch_14"/><path clip-path="url(#p70c0c46b60)" d="M86.054 189.965l19.235-11.329 3.397 6.486z" fill="#ddd" stroke="#000" id="patch_15"/><path clip-path="url(#p70c0c46b60)" d="M108.686 185.122l-19.269 11.125 3.759 6.053z" fill="#ddd" stroke="#000" id="patch_16"/><path clip-path="url(#p70c0c46b60)" d="M185.76 29.376v22.25l7.122-22.022z" fill="#ddd" stroke="#000" id="patch_17"/><path clip-path="url(#p70c0c46b60)" d="M178.444 51.927l.194-22.323 7.122 22.021z" fill="#ddd" stroke="#000" id="patch_18"/><path clip-path="url(#p70c0c46b60)" d="M168.941 53.23l.927-22.713 8.576 21.41z" fill="#ddd" stroke="#000" id="patch_19"/><path clip-path="url(#p70c0c46b60)" d="M156.629 56.528l2.41-23.895 9.902 20.596z" fill="#ddd" stroke="#000" id="patch_20"/><path clip-path="url(#p70c0c46b60)" d="M141.261 63.549L145.8 36.8l10.83 19.727z" fill="#ddd" stroke="#000" id="patch_21"/><path clip-path="url(#p70c0c46b60)" d="M112.932 56.528l11.12 19.965 17.21-12.944z" fill="#ddd" stroke="#000" id="patch_22"/><path clip-path="url(#p70c0c46b60)" d="M96.434 74.315l12.252 21.81 15.365-19.632z" fill="#ddd" stroke="#000" id="patch_23"/><path clip-path="url(#p70c0c46b60)" d="M83.673 96.418l15.695 22.829 9.318-23.123z" fill="#ddd" stroke="#000" id="patch_24"/><path clip-path="url(#p70c0c46b60)" d="M76.517 119.6l20.245 21.023 2.606-21.376z" fill="#ddd" stroke="#000" id="patch_25"/><path clip-path="url(#p70c0c46b60)" d="M75.867 157.927l20.895-17.304h-22.25z" fill="#ddd" stroke="#000" id="patch_26"/><path clip-path="url(#p70c0c46b60)" d="M98.366 157.442l-19.489 14.036-3.01-13.551z" fill="#ddd" stroke="#000" id="patch_27"/><path clip-path="url(#p70c0c46b60)" d="M82.46 181.913l19.205-12.159-22.788 1.724z" fill="#ddd" stroke="#000" id="patch_28"/><path clip-path="url(#p70c0c46b60)" d="M86.054 189.965l19.235-11.329-22.83 3.277z" fill="#ddd" stroke="#000" id="patch_29"/><path clip-path="url(#p70c0c46b60)" d="M108.686 185.122l-19.269 11.125-3.363-6.282z" fill="#ddd" stroke="#000" id="patch_30"/><path clip-path="url(#p70c0c46b60)" d="M193.076 51.927l-.194-22.323-7.122 22.021z" fill="#ddd" stroke="#000" id="patch_31"/><path clip-path="url(#p70c0c46b60)" d="M185.76 51.625v22.25l-7.316-21.948z" fill="#ddd" stroke="#000" id="patch_32"/><path clip-path="url(#p70c0c46b60)" d="M178.103 74.315l.341-22.388-9.503 1.302z" fill="#ddd" stroke="#000" id="patch_33"/><path clip-path="url(#p70c0c46b60)" d="M168.941 53.23l-1.694 23.263-10.618-19.965z" fill="#ddd" stroke="#000" id="patch_34"/><path clip-path="url(#p70c0c46b60)" d="M156.629 56.528l-4.243 26.29-11.125-19.27z" fill="#ddd" stroke="#000" id="patch_35"/><path clip-path="url(#p70c0c46b60)" d="M141.261 63.549l-17.21 12.944 28.335 6.324z" fill="#ddd" stroke="#000" id="patch_36"/><path clip-path="url(#p70c0c46b60)" d="M124.051 76.493l-15.365 19.631 26.617.802z" fill="#ddd" stroke="#000" id="patch_37"/><path clip-path="url(#p70c0c46b60)" d="M108.686 96.124l-9.318 23.123 23.32-.472z" fill="#ddd" stroke="#000" id="patch_38"/><path clip-path="url(#p70c0c46b60)" d="M99.368 119.247l-2.606 21.376h22.25z" fill="#ddd" stroke="#000" id="patch_39"/><path clip-path="url(#p70c0c46b60)" d="M119.012 140.623l-20.646 16.82 22.6-.787z" fill="#ddd" stroke="#000" id="patch_40"/><path clip-path="url(#p70c0c46b60)" d="M101.665 169.755l19.3-13.1 3.543 10.491z" fill="#ddd" stroke="#000" id="patch_41"/><path clip-path="url(#p70c0c46b60)" d="M124.508 167.146l-19.22 11.49 22.666-4.639z" fill="#ddd" stroke="#000" id="patch_42"/><path clip-path="url(#p70c0c46b60)" d="M108.686 185.122l19.268-11.125-15.35 17.31z" fill="#ddd" stroke="#000" id="patch_43"/><path clip-path="url(#p70c0c46b60)" d="M112.604 191.307L93.176 202.3l5.176 7.14z" fill="#ddd" stroke="#000" id="patch_44"/><path clip-path="url(#p70c0c46b60)" d="M193.076 51.927l-.194-22.323 8.77.913z" fill="#ddd" stroke="#000" id="patch_45"/><path clip-path="url(#p70c0c46b60)" d="M185.76 51.625v22.25l7.316-21.948z" fill="#ddd" stroke="#000" id="patch_46"/><path clip-path="url(#p70c0c46b60)" d="M178.103 74.315l.341-22.388 7.316 21.948z" fill="#ddd" stroke="#000" id="patch_47"/><path clip-path="url(#p70c0c46b60)" d="M168.941 53.23l-1.694 23.263 10.856-2.178z" fill="#ddd" stroke="#000" id="patch_48"/><path clip-path="url(#p70c0c46b60)" d="M156.629 56.528l-4.243 26.29 14.861-6.325z" fill="#ddd" stroke="#000" id="patch_49"/><path clip-path="url(#p70c0c46b60)" d="M124.051 76.493l11.252 20.433 17.083-14.109z" fill="#ddd" stroke="#000" id="patch_50"/><path clip-path="url(#p70c0c46b60)" d="M108.686 96.124l14.003 22.65 12.614-21.848z" fill="#ddd" stroke="#000" id="patch_51"/><path clip-path="url(#p70c0c46b60)" d="M99.368 119.247l19.644 21.376 3.677-21.848z" fill="#ddd" stroke="#000" id="patch_52"/><path clip-path="url(#p70c0c46b60)" d="M119.012 140.623l-20.646 16.82-1.604-16.82z" fill="#ddd" stroke="#000" id="patch_53"/><path clip-path="url(#p70c0c46b60)" d="M101.665 169.755l19.3-13.1-22.599.787z" fill="#ddd" stroke="#000" id="patch_54"/><path clip-path="url(#p70c0c46b60)" d="M124.508 167.146l-19.22 11.49-3.623-8.881z" fill="#ddd" stroke="#000" id="patch_55"/><path clip-path="url(#p70c0c46b60)" d="M108.686 185.122l19.268-11.125-22.665 4.639z" fill="#ddd" stroke="#000" id="patch_56"/><path clip-path="url(#p70c0c46b60)" d="M112.604 191.307L93.176 202.3l15.51-17.178z" fill="#ddd" stroke="#000" id="patch_57"/><path clip-path="url(#p70c0c46b60)" d="M201.652 30.517l.927 22.712-9.503-1.302z" fill="#ddd" stroke="#000" id="patch_58"/><path clip-path="url(#p70c0c46b60)" d="M193.417 74.315l-.341-22.388-7.316 21.948z" fill="#ddd" stroke="#000" id="patch_59"/><path clip-path="url(#p70c0c46b60)" d="M185.76 73.875v22.25l-7.657-21.81z" fill="#ddd" stroke="#000" id="patch_60"/><path clip-path="url(#p70c0c46b60)" d="M177.35 96.926l.753-22.61-10.856 2.177z" fill="#ddd" stroke="#000" id="patch_61"/><path clip-path="url(#p70c0c46b60)" d="M163.51 102.086l3.737-25.593-14.861 6.324z" fill="#ddd" stroke="#000" id="patch_62"/><path clip-path="url(#p70c0c46b60)" d="M152.386 82.817l-17.083 14.11 28.208 5.159z" fill="#ddd" stroke="#000" id="patch_63"/><path clip-path="url(#p70c0c46b60)" d="M135.303 96.926l-12.614 21.849 24.534-.401z" fill="#ddd" stroke="#000" id="patch_64"/><path clip-path="url(#p70c0c46b60)" d="M122.689 118.775l-3.677 21.848h22.25z" fill="#ddd" stroke="#000" id="patch_65"/><path clip-path="url(#p70c0c46b60)" d="M141.261 140.623l-20.295 16.033 22.747-1.467z" fill="#ddd" stroke="#000" id="patch_66"/><path clip-path="url(#p70c0c46b60)" d="M124.508 167.146l19.205-11.957 3.51 7.684z" fill="#ddd" stroke="#000" id="patch_67"/><path clip-path="url(#p70c0c46b60)" d="M127.954 173.997l19.269-11.124-15.059 17.535z" fill="#ddd" stroke="#000" id="patch_68"/><path clip-path="url(#p70c0c46b60)" d="M132.164 180.408l-19.56 10.899 5.88 7.579z" fill="#ddd" stroke="#000" id="patch_69"/><path clip-path="url(#p70c0c46b60)" d="M118.484 198.886l-20.132 10.553 7.246 8.32z" fill="#ddd" stroke="#000" id="patch_70"/><path clip-path="url(#p70c0c46b60)" d="M201.652 30.517l.927 22.712 9.902-20.596z" fill="#ddd" stroke="#000" id="patch_71"/><path clip-path="url(#p70c0c46b60)" d="M193.417 74.315l-.341-22.388 9.503 1.302z" fill="#ddd" stroke="#000" id="patch_72"/><path clip-path="url(#p70c0c46b60)" d="M185.76 73.875v22.25l7.657-21.81z" fill="#ddd" stroke="#000" id="patch_73"/><path clip-path="url(#p70c0c46b60)" d="M177.35 96.926l.753-22.61 7.657 21.808z" fill="#ddd" stroke="#000" id="patch_74"/><path clip-path="url(#p70c0c46b60)" d="M163.51 102.086l3.737-25.593 10.104 20.433z" fill="#ddd" stroke="#000" id="patch_75"/><path clip-path="url(#p70c0c46b60)" d="M135.303 96.926l11.92 21.448 16.288-16.288z" fill="#ddd" stroke="#000" id="patch_76"/><path clip-path="url(#p70c0c46b60)" d="M122.689 118.775l18.572 21.848 5.962-22.25z" fill="#ddd" stroke="#000" id="patch_77"/><path clip-path="url(#p70c0c46b60)" d="M141.261 140.623l-20.295 16.033-1.954-16.033z" fill="#ddd" stroke="#000" id="patch_78"/><path clip-path="url(#p70c0c46b60)" d="M124.508 167.146l19.205-11.957-22.747 1.467z" fill="#ddd" stroke="#000" id="patch_79"/><path clip-path="url(#p70c0c46b60)" d="M127.954 173.997l19.269-11.124-22.715 4.273z" fill="#ddd" stroke="#000" id="patch_80"/><path clip-path="url(#p70c0c46b60)" d="M132.164 180.408l-19.56 10.899 15.35-17.31z" fill="#ddd" stroke="#000" id="patch_81"/><path clip-path="url(#p70c0c46b60)" d="M118.484 198.886l-20.132 10.553 14.252-18.132z" fill="#ddd" stroke="#000" id="patch_82"/><path clip-path="url(#p70c0c46b60)" d="M212.48 32.633l2.411 23.895-12.312-3.299z" fill="#ddd" stroke="#000" id="patch_83"/><path clip-path="url(#p70c0c46b60)" d="M202.579 53.23l1.694 23.263-10.856-2.178z" fill="#ddd" stroke="#000" id="patch_84"/><path clip-path="url(#p70c0c46b60)" d="M194.17 96.926l-.753-22.61-7.657 21.808z" fill="#ddd" stroke="#000" id="patch_85"/><path clip-path="url(#p70c0c46b60)" d="M185.76 118.374v-22.25l-8.41.802z" fill="#ddd" stroke="#000" id="patch_86"/><path clip-path="url(#p70c0c46b60)" d="M177.35 96.926l-2.715 24.429-11.124-19.269z" fill="#ddd" stroke="#000" id="patch_87"/><path clip-path="url(#p70c0c46b60)" d="M163.51 102.086l-16.287 16.288 27.412 2.98z" fill="#ddd" stroke="#000" id="patch_88"/><path clip-path="url(#p70c0c46b60)" d="M147.223 118.374l-5.962 22.25h22.25z" fill="#ddd" stroke="#000" id="patch_89"/><path clip-path="url(#p70c0c46b60)" d="M143.713 155.189l19.798-14.566 2.98 11.125z" fill="#ddd" stroke="#000" id="patch_90"/><path clip-path="url(#p70c0c46b60)" d="M166.491 151.748l-19.268 11.125 4.899 6.882z" fill="#ddd" stroke="#000" id="patch_91"/><path clip-path="url(#p70c0c46b60)" d="M132.164 180.408l19.958-10.653-12.644 18.965z" fill="#ddd" stroke="#000" id="patch_92"/><path clip-path="url(#p70c0c46b60)" d="M139.478 188.72l-20.994 10.166 9.013 9.013z" fill="#ddd" stroke="#000" id="patch_93"/><path clip-path="url(#p70c0c46b60)" d="M105.598 217.76l21.9-9.86-11.67 19.242z" fill="#ddd" stroke="#000" id="patch_94"/><path clip-path="url(#p70c0c46b60)" d="M212.48 32.633l2.411 23.895 10.83-19.727z" fill="#ddd" stroke="#000" id="patch_95"/><path clip-path="url(#p70c0c46b60)" d="M202.579 53.23l1.694 23.263 10.618-19.965z" fill="#ddd" stroke="#000" id="patch_96"/><path clip-path="url(#p70c0c46b60)" d="M194.17 96.926l-.753-22.61 10.856 2.177z" fill="#ddd" stroke="#000" id="patch_97"/><path clip-path="url(#p70c0c46b60)" d="M185.76 118.374v-22.25l8.41.802z" fill="#ddd" stroke="#000" id="patch_98"/><path clip-path="url(#p70c0c46b60)" d="M177.35 96.926l-2.715 24.429 11.125-2.981z" fill="#ddd" stroke="#000" id="patch_99"/><path clip-path="url(#p70c0c46b60)" d="M147.223 118.374l16.288 22.25 11.124-19.27z" fill="#ddd" stroke="#000" id="patch_100"/><path clip-path="url(#p70c0c46b60)" d="M143.713 155.189l19.798-14.566h-22.25z" fill="#ddd" stroke="#000" id="patch_101"/><path clip-path="url(#p70c0c46b60)" d="M166.491 151.748l-19.268 11.125-3.51-7.684z" fill="#ddd" stroke="#000" id="patch_102"/><path clip-path="url(#p70c0c46b60)" d="M132.164 180.408l19.958-10.653-4.9-6.882z" fill="#ddd" stroke="#000" id="patch_103"/><path clip-path="url(#p70c0c46b60)" d="M139.478 188.72l-20.994 10.166 13.68-18.478z" fill="#ddd" stroke="#000" id="patch_104"/><path clip-path="url(#p70c0c46b60)" d="M105.598 217.76l21.9-9.86-9.014-9.014z" fill="#ddd" stroke="#000" id="patch_105"/><path clip-path="url(#p70c0c46b60)" d="M225.721 36.801l4.538 26.748-15.368-7.02z" fill="#ddd" stroke="#000" id="patch_106"/><path clip-path="url(#p70c0c46b60)" d="M214.891 56.528l4.243 26.29-14.861-6.325z" fill="#ddd" stroke="#000" id="patch_107"/><path clip-path="url(#p70c0c46b60)" d="M208.01 102.086l-3.737-25.593-10.104 20.433z" fill="#ddd" stroke="#000" id="patch_108"/><path clip-path="url(#p70c0c46b60)" d="M196.885 121.355l-2.716-24.429-8.409 21.448z" fill="#ddd" stroke="#000" id="patch_109"/><path clip-path="url(#p70c0c46b60)" d="M185.76 118.374v22.25l-11.125-19.27z" fill="#ddd" stroke="#000" id="patch_110"/><path clip-path="url(#p70c0c46b60)" d="M174.635 121.355l-11.124 19.268h22.249z" fill="#ddd" stroke="#000" id="patch_111"/><path clip-path="url(#p70c0c46b60)" d="M185.76 140.623l-19.269 11.125 8.144 8.144z" fill="#ddd" stroke="#000" id="patch_112"/><path clip-path="url(#p70c0c46b60)" d="M174.635 159.892l-22.513 9.863 11.389 9.405z" fill="#ddd" stroke="#000" id="patch_113"/><path clip-path="url(#p70c0c46b60)" d="M163.51 179.16l-24.032 9.56 12.908 9.709z" fill="#ddd" stroke="#000" id="patch_114"/><path clip-path="url(#p70c0c46b60)" d="M127.497 207.9l24.889-9.471-11.125 19.268z" fill="#ddd" stroke="#000" id="patch_115"/><path clip-path="url(#p70c0c46b60)" d="M115.828 227.142l25.433-9.445-11.125 19.269z" fill="#ddd" stroke="#000" id="patch_116"/><path clip-path="url(#p70c0c46b60)" d="M225.721 36.801l4.538 26.748 11.125-19.269z" fill="#ddd" stroke="#000" id="patch_117"/><path clip-path="url(#p70c0c46b60)" d="M214.891 56.528l4.243 26.29 11.125-19.27z" fill="#ddd" stroke="#000" id="patch_118"/><path clip-path="url(#p70c0c46b60)" d="M208.01 102.086l-3.737-25.593 14.861 6.324z" fill="#ddd" stroke="#000" id="patch_119"/><path clip-path="url(#p70c0c46b60)" d="M196.885 121.355l-2.716-24.429 13.84 5.16z" fill="#ddd" stroke="#000" id="patch_120"/><path clip-path="url(#p70c0c46b60)" d="M185.76 118.374v22.25l11.125-19.27z" fill="#ddd" stroke="#000" id="patch_121"/><path clip-path="url(#p70c0c46b60)" d="M185.76 140.623l-19.269 11.125-2.98-11.125z" fill="#ddd" stroke="#000" id="patch_122"/><path clip-path="url(#p70c0c46b60)" d="M174.635 159.892l-22.513 9.863 14.37-18.007z" fill="#ddd" stroke="#000" id="patch_123"/><path clip-path="url(#p70c0c46b60)" d="M163.51 179.16l-24.032 9.56 12.644-18.965z" fill="#ddd" stroke="#000" id="patch_124"/><path clip-path="url(#p70c0c46b60)" d="M127.497 207.9l24.889-9.471-12.908-9.709z" fill="#ddd" stroke="#000" id="patch_125"/><path clip-path="url(#p70c0c46b60)" d="M115.828 227.142l25.433-9.445-13.764-9.798z" fill="#ddd" stroke="#000" id="patch_126"/><path clip-path="url(#p70c0c46b60)" d="M241.384 44.28L230.259 63.55l28.33-7.02z" fill="#ddd" stroke="#000" id="patch_127"/><path clip-path="url(#p70c0c46b60)" d="M230.259 63.549l-11.125 19.268 28.335-6.324z" fill="#ddd" stroke="#000" id="patch_128"/><path clip-path="url(#p70c0c46b60)" d="M219.134 82.817l-11.125 19.269 28.208-5.16z" fill="#ddd" stroke="#000" id="patch_129"/><path clip-path="url(#p70c0c46b60)" d="M208.01 102.086l-11.125 19.269 27.412-2.981z" fill="#ddd" stroke="#000" id="patch_130"/><path clip-path="url(#p70c0c46b60)" d="M196.885 121.355l-11.125 19.268h22.25z" fill="#ddd" stroke="#000" id="patch_131"/><path clip-path="url(#p70c0c46b60)" d="M185.76 140.623l-11.125 19.269h22.25z" fill="#ddd" stroke="#000" id="patch_132"/><path clip-path="url(#p70c0c46b60)" d="M174.635 159.892l-11.124 19.268 22.249 5.962z" fill="#ddd" stroke="#000" id="patch_133"/><path clip-path="url(#p70c0c46b60)" d="M163.51 179.16l-11.124 19.269 20.76 7.74z" fill="#ddd" stroke="#000" id="patch_134"/><path clip-path="url(#p70c0c46b60)" d="M152.386 198.429l-11.125 19.268 19.815 8.432z" fill="#ddd" stroke="#000" id="patch_135"/><path clip-path="url(#p70c0c46b60)" d="M141.261 217.697l-11.125 19.269 19.21 8.776z" fill="#ddd" stroke="#000" id="patch_136"/><path clip-path="url(#p70c0c46b60)" d="M230.259 63.549l17.21 12.944 11.12-19.965z" fill="#ddd" stroke="#000" id="patch_137"/><path clip-path="url(#p70c0c46b60)" d="M219.134 82.817l17.083 14.11 11.252-20.434z" fill="#ddd" stroke="#000" id="patch_138"/><path clip-path="url(#p70c0c46b60)" d="M208.01 102.086l16.287 16.288 11.92-21.448z" fill="#ddd" stroke="#000" id="patch_139"/><path clip-path="url(#p70c0c46b60)" d="M196.885 121.355l11.124 19.268 16.288-22.25z" fill="#ddd" stroke="#000" id="patch_140"/><path clip-path="url(#p70c0c46b60)" d="M205.029 151.748l-19.269-11.125 11.125 19.269z" fill="#ddd" stroke="#000" id="patch_141"/><path clip-path="url(#p70c0c46b60)" d="M174.635 159.892l11.125 25.23 11.125-25.23z" fill="#ddd" stroke="#000" id="patch_142"/><path clip-path="url(#p70c0c46b60)" d="M163.51 179.16l9.636 27.009 12.614-21.047z" fill="#ddd" stroke="#000" id="patch_143"/><path clip-path="url(#p70c0c46b60)" d="M152.386 198.429l8.69 27.7 12.07-19.96z" fill="#ddd" stroke="#000" id="patch_144"/><path clip-path="url(#p70c0c46b60)" d="M141.261 217.697l8.085 28.045 11.73-19.613z" fill="#ddd" stroke="#000" id="patch_145"/><path clip-path="url(#p70c0c46b60)" d="M258.588 56.528l-11.12 19.965 27.618-2.178z" fill="#ddd" stroke="#000" id="patch_146"/><path clip-path="url(#p70c0c46b60)" d="M247.469 76.493l-11.252 20.433 26.617-.802z" fill="#ddd" stroke="#000" id="patch_147"/><path clip-path="url(#p70c0c46b60)" d="M236.217 96.926l-11.92 21.448 24.534.4z" fill="#ddd" stroke="#000" id="patch_148"/><path clip-path="url(#p70c0c46b60)" d="M224.297 118.374l-16.288 22.25h22.25z" fill="#ddd" stroke="#000" id="patch_149"/><path clip-path="url(#p70c0c46b60)" d="M205.029 151.748l-19.269-11.125h22.25z" fill="#ddd" stroke="#000" id="patch_150"/><path clip-path="url(#p70c0c46b60)" d="M196.885 159.892l-11.125 25.23 22.25-5.962z" fill="#ddd" stroke="#000" id="patch_151"/><path clip-path="url(#p70c0c46b60)" d="M185.76 185.122l-12.614 21.047h25.228z" fill="#ddd" stroke="#000" id="patch_152"/><path clip-path="url(#p70c0c46b60)" d="M173.146 206.169l-12.07 19.96 24.684 3.492z" fill="#ddd" stroke="#000" id="patch_153"/><path clip-path="url(#p70c0c46b60)" d="M161.076 226.13l-11.73 19.612 23.653 5.394z" fill="#ddd" stroke="#000" id="patch_154"/><path clip-path="url(#p70c0c46b60)" d="M247.469 76.493l15.365 19.631 12.252-21.809z" fill="#ddd" stroke="#000" id="patch_155"/><path clip-path="url(#p70c0c46b60)" d="M236.217 96.926l12.614 21.849 14.003-22.65z" fill="#ddd" stroke="#000" id="patch_156"/><path clip-path="url(#p70c0c46b60)" d="M224.297 118.374l5.962 22.25 18.572-21.85z" fill="#ddd" stroke="#000" id="patch_157"/><path clip-path="url(#p70c0c46b60)" d="M208.01 140.623l19.797 14.566-22.778-3.441z" fill="#ddd" stroke="#000" id="patch_158"/><path clip-path="url(#p70c0c46b60)" d="M196.885 159.892l22.513 9.863-11.389 9.405z" fill="#ddd" stroke="#000" id="patch_159"/><path clip-path="url(#p70c0c46b60)" d="M185.76 185.122l12.614 21.047 9.635-27.009z" fill="#ddd" stroke="#000" id="patch_160"/><path clip-path="url(#p70c0c46b60)" d="M173.146 206.169l12.614 23.452 12.614-23.452z" fill="#ddd" stroke="#000" id="patch_161"/><path clip-path="url(#p70c0c46b60)" d="M161.076 226.13L173 251.135l12.761-21.515z" fill="#ddd" stroke="#000" id="patch_162"/><path clip-path="url(#p70c0c46b60)" d="M275.086 74.315l-12.252 21.81 25.013.293z" fill="#ddd" stroke="#000" id="patch_163"/><path clip-path="url(#p70c0c46b60)" d="M262.834 96.124l-14.003 22.65 23.321.473z" fill="#ddd" stroke="#000" id="patch_164"/><path clip-path="url(#p70c0c46b60)" d="M248.831 118.775l-18.572 21.848h22.25z" fill="#ddd" stroke="#000" id="patch_165"/><path clip-path="url(#p70c0c46b60)" d="M208.01 140.623l19.797 14.566 2.452-14.566z" fill="#ddd" stroke="#000" id="patch_166"/><path clip-path="url(#p70c0c46b60)" d="M196.885 159.892l22.513 9.863-14.37-18.007z" fill="#ddd" stroke="#000" id="patch_167"/><path clip-path="url(#p70c0c46b60)" d="M208.01 179.16l-9.636 27.009 20.76-7.74z" fill="#ddd" stroke="#000" id="patch_168"/><path clip-path="url(#p70c0c46b60)" d="M198.374 206.169L185.76 229.62l24.684-3.492z" fill="#ddd" stroke="#000" id="patch_169"/><path clip-path="url(#p70c0c46b60)" d="M185.76 229.62L173 251.137h25.52z" fill="#ddd" stroke="#000" id="patch_170"/><path clip-path="url(#p70c0c46b60)" d="M262.834 96.124l9.318 23.123 15.695-22.829z" fill="#ddd" stroke="#000" id="patch_171"/><path clip-path="url(#p70c0c46b60)" d="M248.831 118.775l3.677 21.848 19.644-21.376z" fill="#ddd" stroke="#000" id="patch_172"/><path clip-path="url(#p70c0c46b60)" d="M250.554 156.656l-20.295-16.033-2.452 14.566z" fill="#ddd" stroke="#000" id="patch_173"/><path clip-path="url(#p70c0c46b60)" d="M205.029 151.748l19.268 11.125-4.899 6.882z" fill="#ddd" stroke="#000" id="patch_174"/><path clip-path="url(#p70c0c46b60)" d="M232.042 188.72l-24.033-9.56 11.125 19.269z" fill="#ddd" stroke="#000" id="patch_175"/><path clip-path="url(#p70c0c46b60)" d="M198.374 206.169l12.07 19.96 8.69-27.7z" fill="#ddd" stroke="#000" id="patch_176"/><path clip-path="url(#p70c0c46b60)" d="M185.76 229.62l12.76 21.516 11.924-25.007z" fill="#ddd" stroke="#000" id="patch_177"/><path clip-path="url(#p70c0c46b60)" d="M287.847 96.418l-15.695 22.829 22.85.352z" fill="#ddd" stroke="#000" id="patch_178"/><path clip-path="url(#p70c0c46b60)" d="M272.152 119.247l-19.644 21.376h22.25z" fill="#ddd" stroke="#000" id="patch_179"/><path clip-path="url(#p70c0c46b60)" d="M250.554 156.656l-20.295-16.033h22.25z" fill="#ddd" stroke="#000" id="patch_180"/><path clip-path="url(#p70c0c46b60)" d="M205.029 151.748l19.268 11.125 3.51-7.684z" fill="#ddd" stroke="#000" id="patch_181"/><path clip-path="url(#p70c0c46b60)" d="M232.042 188.72l-24.033-9.56 11.389-9.405z" fill="#ddd" stroke="#000" id="patch_182"/><path clip-path="url(#p70c0c46b60)" d="M219.134 198.429l-8.69 27.7 19.815-8.432z" fill="#ddd" stroke="#000" id="patch_183"/><path clip-path="url(#p70c0c46b60)" d="M210.444 226.13l-11.923 25.006 23.653-5.394z" fill="#ddd" stroke="#000" id="patch_184"/><path clip-path="url(#p70c0c46b60)" d="M272.152 119.247l2.606 21.376 20.245-21.024z" fill="#ddd" stroke="#000" id="patch_185"/><path clip-path="url(#p70c0c46b60)" d="M252.508 140.623l20.646 16.82-22.6-.787z" fill="#ddd" stroke="#000" id="patch_186"/><path clip-path="url(#p70c0c46b60)" d="M227.807 155.189l19.205 11.957-22.715-4.273z" fill="#ddd" stroke="#000" id="patch_187"/><path clip-path="url(#p70c0c46b60)" d="M239.356 180.408l-19.958-10.653 12.644 18.965z" fill="#ddd" stroke="#000" id="patch_188"/><path clip-path="url(#p70c0c46b60)" d="M244.023 207.9l-24.889-9.471 11.125 19.268z" fill="#ddd" stroke="#000" id="patch_189"/><path clip-path="url(#p70c0c46b60)" d="M210.444 226.13l11.73 19.612 8.085-28.045z" fill="#ddd" stroke="#000" id="patch_190"/><path clip-path="url(#p70c0c46b60)" d="M295.003 119.6l-20.245 21.023h22.25z" fill="#ddd" stroke="#000" id="patch_191"/><path clip-path="url(#p70c0c46b60)" d="M252.508 140.623l20.646 16.82 1.604-16.82z" fill="#ddd" stroke="#000" id="patch_192"/><path clip-path="url(#p70c0c46b60)" d="M227.807 155.189l19.205 11.957 3.542-10.49z" fill="#ddd" stroke="#000" id="patch_193"/><path clip-path="url(#p70c0c46b60)" d="M239.356 180.408l-19.958-10.653 4.9-6.882z" fill="#ddd" stroke="#000" id="patch_194"/><path clip-path="url(#p70c0c46b60)" d="M244.023 207.9l-24.889-9.471 12.908-9.709z" fill="#ddd" stroke="#000" id="patch_195"/><path clip-path="url(#p70c0c46b60)" d="M230.259 217.697l-8.085 28.045 19.21-8.776z" fill="#ddd" stroke="#000" id="patch_196"/><path clip-path="url(#p70c0c46b60)" d="M274.758 140.623l20.895 17.304-22.499-.485z" fill="#ddd" stroke="#000" id="patch_197"/><path clip-path="url(#p70c0c46b60)" d="M269.855 169.755l-19.3-13.1-3.543 10.491z" fill="#ddd" stroke="#000" id="patch_198"/><path clip-path="url(#p70c0c46b60)" d="M224.297 162.873l19.269 11.124-4.21 6.41z" fill="#ddd" stroke="#000" id="patch_199"/><path clip-path="url(#p70c0c46b60)" d="M253.036 198.886l-20.994-10.166 11.98 19.18z" fill="#ddd" stroke="#000" id="patch_200"/><path clip-path="url(#p70c0c46b60)" d="M255.692 227.142l-25.433-9.445 11.125 19.269z" fill="#ddd" stroke="#000" id="patch_201"/><path clip-path="url(#p70c0c46b60)" d="M274.758 140.623l20.895 17.304 1.354-17.304z" fill="#ddd" stroke="#000" id="patch_202"/><path clip-path="url(#p70c0c46b60)" d="M269.855 169.755l-19.3-13.1 22.599.787z" fill="#ddd" stroke="#000" id="patch_203"/><path clip-path="url(#p70c0c46b60)" d="M224.297 162.873l19.269 11.124 3.446-6.85z" fill="#ddd" stroke="#000" id="patch_204"/><path clip-path="url(#p70c0c46b60)" d="M253.036 198.886l-20.994-10.166 7.314-8.312z" fill="#ddd" stroke="#000" id="patch_205"/><path clip-path="url(#p70c0c46b60)" d="M255.692 227.142l-25.433-9.445 13.764-9.798z" fill="#ddd" stroke="#000" id="patch_206"/><path clip-path="url(#p70c0c46b60)" d="M273.154 157.442l19.489 14.036-22.788-1.724z" fill="#ddd" stroke="#000" id="patch_207"/><path clip-path="url(#p70c0c46b60)" d="M247.012 167.146l19.22 11.49-22.666-4.639z" fill="#ddd" stroke="#000" id="patch_208"/><path clip-path="url(#p70c0c46b60)" d="M258.916 191.307l-19.56-10.9 13.68 18.479z" fill="#ddd" stroke="#000" id="patch_209"/><path clip-path="url(#p70c0c46b60)" d="M244.023 207.9l21.9 9.86-10.231 9.382z" fill="#ddd" stroke="#000" id="patch_210"/><path clip-path="url(#p70c0c46b60)" d="M273.154 157.442l19.489 14.036 3.01-13.551z" fill="#ddd" stroke="#000" id="patch_211"/><path clip-path="url(#p70c0c46b60)" d="M247.012 167.146l19.22 11.49 3.623-8.881z" fill="#ddd" stroke="#000" id="patch_212"/><path clip-path="url(#p70c0c46b60)" d="M258.916 191.307l-19.56-10.9 4.21-6.41z" fill="#ddd" stroke="#000" id="patch_213"/><path clip-path="url(#p70c0c46b60)" d="M244.023 207.9l21.9 9.86-12.887-18.874z" fill="#ddd" stroke="#000" id="patch_214"/><path clip-path="url(#p70c0c46b60)" d="M269.855 169.755l19.206 12.158-22.83-3.277z" fill="#ddd" stroke="#000" id="patch_215"/><path clip-path="url(#p70c0c46b60)" d="M262.834 185.122l-19.268-11.125 15.35 17.31z" fill="#ddd" stroke="#000" id="patch_216"/><path clip-path="url(#p70c0c46b60)" d="M253.036 198.886l20.132 10.553-7.246 8.32z" fill="#ddd" stroke="#000" id="patch_217"/><path clip-path="url(#p70c0c46b60)" d="M269.855 169.755l19.206 12.158 3.582-10.435z" fill="#ddd" stroke="#000" id="patch_218"/><path clip-path="url(#p70c0c46b60)" d="M262.834 185.122l-19.268-11.125 22.665 4.639z" fill="#ddd" stroke="#000" id="patch_219"/><path clip-path="url(#p70c0c46b60)" d="M253.036 198.886l20.132 10.553-14.252-18.132z" fill="#ddd" stroke="#000" id="patch_220"/><path clip-path="url(#p70c0c46b60)" d="M266.231 178.636l19.235 11.329-22.632-4.843z" fill="#ddd" stroke="#000" id="patch_221"/><path clip-path="url(#p70c0c46b60)" d="M278.344 202.3l-19.428-10.993 14.252 18.132z" fill="#ddd" stroke="#000" id="patch_222"/><path clip-path="url(#p70c0c46b60)" d="M266.231 178.636l19.235 11.329 3.595-8.052z" fill="#ddd" stroke="#000" id="patch_223"/><path clip-path="url(#p70c0c46b60)" d="M278.344 202.3l-19.428-10.993 3.918-6.185z" fill="#ddd" stroke="#000" id="patch_224"/><path clip-path="url(#p70c0c46b60)" d="M262.834 185.122l19.269 11.125-3.759 6.053z" fill="#ddd" stroke="#000" id="patch_225"/><path clip-path="url(#p70c0c46b60)" d="M262.834 185.122l19.269 11.125 3.363-6.282z" fill="#ddd" stroke="#000" id="patch_226"/></g></g><defs><clipPath id="p70c0c46b60"><path d="M7.2 7.2h357.12v266.112H7.2z"/></clipPath></defs></svg>