<svg xmlns="http://www.w3.org/2000/svg" viewBox="-50 0 100 86.603"><style>path{fill:#ccc;stroke:#000;stroke-width:1;stroke-linejoin:bevel}</style><path d="M0 0l-6.25 10.825h12.5zm-6.25 10.825l-6.25 10.826H0zm-6.25 10.826l-6.25 10.825h12.5zm-6.25 10.825L-25 43.301h12.5zM-25 43.301l-6.25 10.826h12.5zm-6.25 10.826l-6.25 10.825H-25zm-6.25 10.825l-6.25 10.825h12.5zm-6.25 10.825L-50 86.603h12.5z"/><path d="M-6.25 10.825L0 21.651l6.25-10.826zm-6.25 10.826l6.25 10.825L0 21.651zm-6.25 10.825l6.25 10.825 6.25-10.825zM-25 43.301l6.25 10.826 6.25-10.826z"/><path d="M-31.25 54.127L-25 64.952l6.25-10.825zm-6.25 10.825l6.25 10.825L-25 64.952zm-6.25 10.825l6.25 10.826 6.25-10.826zm50-64.952L0 21.651h12.5zM0 21.651l-6.25 10.825h12.5zm-6.25 10.825l-6.25 10.825H0zm-6.25 10.825l-6.25 10.826h12.5zm-6.25 10.826L-25 64.952h12.5zM-25 64.952l-6.25 10.825h12.5z"/><path d="M-31.25 75.777l-6.25 10.826H-25zM0 21.651l6.25 10.825 6.25-10.825zm-6.25 10.825L0 43.301l6.25-10.825zm-6.25 10.825l6.25 10.826L0 43.301z"/><path d="M-18.75 54.127l6.25 10.825 6.25-10.825zM-25 64.952l6.25 10.825 6.25-10.825z"/><path d="M-31.25 75.777L-25 86.603l6.25-10.826zM12.5 21.651L6.25 32.476h12.5zM6.25 32.476L0 43.301h12.5zM0 43.301l-6.25 10.826h12.5zm-6.25 10.826l-6.25 10.825H0zm-6.25 10.825l-6.25 10.825h12.5zm-6.25 10.825L-25 86.603h12.5z"/><path d="M6.25 32.476l6.25 10.825 6.25-10.825zM0 43.301l6.25 10.826 6.25-10.826z"/><path d="M-6.25 54.127L0 64.952l6.25-10.825zm-6.25 10.825l6.25 10.825L0 64.952zm-6.25 10.825l6.25 10.826 6.25-10.826zm37.5-43.301L12.5 43.301H25zM12.5 43.301L6.25 54.127h12.5zM6.25 54.127L0 64.952h12.5zM0 64.952l-6.25 10.825h12.5z"/><path d="M-6.25 75.777l-6.25 10.826H0zM12.5 43.301l6.25 10.826L25 43.301z"/><path d="M6.25 54.127l6.25 10.825 6.25-10.825zM0 64.952l6.25 10.825 6.25-10.825z"/><path d="M-6.25 75.777L0 86.603l6.25-10.826zM25 43.301l-6.25 10.826h12.5zm-6.25 10.826L12.5 64.952H25zM12.5 64.952L6.25 75.777h12.5zM6.25 75.777L0 86.603h12.5z"/><path d="M18.75 54.127L25 64.952l6.25-10.825zM12.5 64.952l6.25 10.825L25 64.952zM6.25 75.777l6.25 10.826 6.25-10.826zm25-21.65L25 64.952h12.5zM25 64.952l-6.25 10.825h12.5z"/><path d="M18.75 75.777L12.5 86.603H25zM25 64.952l6.25 10.825 6.25-10.825z"/><path d="M18.75 75.777L25 86.603l6.25-10.826zM37.5 64.952l-6.25 10.825h12.5zm-6.25 10.825L25 86.603h12.5z"/><path d="M31.25 75.777l6.25 10.826 6.25-10.826z"/><path d="M43.75 75.777L37.5 86.603H50z"/></svg>
