<svg xmlns="http://www.w3.org/2000/svg" viewBox="-1 -1 102 102"><path fill="#e9ecef" stroke="#2b4c7e" stroke-linejoin="round" stroke-width=".3" d="M75 50h5l-.37-4.69-4.94.78Zm5 0h5l-.43-5.48-4.94.79Zm5 0h5l-.49-6.26-4.94.78Zm5 0h5l-.55-7.04-4.94.78Zm5 0h5l-.62-7.82-4.93.78Zm-20.31-3.91 4.94-.78-1.1-4.58-4.75 1.54Zm4.94-.78 4.94-.79-1.28-5.34-4.76 1.55Zm4.94-.79 4.94-.78-1.47-6.1-4.75 1.54Zm4.94-.78 4.94-.78-1.65-6.87-4.76 1.55Zm4.94-.78 4.93-.78-1.83-7.63-4.75 1.54Zm-20.67-.69 4.75-1.54-1.8-4.35-4.45 2.27Zm4.75-1.54 4.76-1.55-2.1-5.07-4.46 2.27Zm4.76-1.55 4.75-1.54-2.4-5.8-4.45 2.27Zm4.75-1.54 4.76-1.55-2.7-6.52-4.46 2.27Zm4.76-1.55 4.75-1.54-3-7.25-4.45 2.27Zm-20.52 2.56 4.45-2.27-2.46-4.01-4.04 2.94Zm4.45-2.27 4.46-2.27-2.87-4.68-4.05 2.94Zm4.46-2.27 4.45-2.27-3.28-5.35-4.04 2.94Zm4.45-2.27 4.46-2.27-3.69-6.02-4.05 2.94Zm4.46-2.27 4.45-2.27-4.1-6.69-4.04 2.94Zm-19.87 5.74 4.04-2.94-3.06-3.58-3.53 3.53Zm4.04-2.94 4.05-2.94-3.57-4.18-3.54 3.54Zm4.05-2.94 4.04-2.94-4.08-4.77-3.53 3.53Zm4.04-2.94 4.05-2.94-4.59-5.37-3.54 3.54Zm4.05-2.94 4.04-2.94-5.09-5.97-3.54 3.54Zm-18.73 8.77 3.53-3.53-3.58-3.06-2.94 4.04Zm3.53-3.53 3.54-3.54-4.18-3.57-2.94 4.05Zm3.54-3.54 3.53-3.53-4.77-4.08-2.94 4.04Zm3.53-3.53 3.54-3.54-5.37-4.59-2.94 4.05Zm3.54-3.54 3.54-3.54-5.97-5.09-2.94 4.04ZM64.69 29.77l2.94-4.04-4.01-2.46-2.27 4.45Zm2.94-4.04 2.94-4.05-4.68-2.87-2.27 4.46Zm2.94-4.05 2.94-4.04-5.35-3.28-2.27 4.45Zm2.94-4.04 2.94-4.05-6.02-3.69-2.27 4.46Zm2.94-4.05 2.94-4.04-6.69-4.1-2.27 4.45Zm-15.1 14.13 2.27-4.45-4.35-1.8-1.54 4.75Zm2.27-4.45 2.27-4.46-5.07-2.1-1.55 4.76Zm2.27-4.46 2.27-4.45-5.8-2.4-1.54 4.75Zm2.27-4.45 2.27-4.46-6.52-2.7-1.55 4.76Zm2.27-4.46 2.27-4.45-7.25-3-1.54 4.75Zm-12.7 16.32 1.54-4.75-4.58-1.1-.78 4.94Zm1.54-4.75 1.55-4.76-5.34-1.28-.79 4.94Zm1.55-4.76 1.54-4.75-6.1-1.47-.78 4.94Zm1.54-4.75 1.55-4.76-6.87-1.65-.78 4.94Zm1.55-4.76 1.54-4.75L57.82.62l-.78 4.93Zm-10 18.11.78-4.94L50 20v5Zm.78-4.94.79-4.94L50 15v5Zm.79-4.94.78-4.94L50 10v5Zm.78-4.94.78-4.94L50 5v5Zm.78-4.94.78-4.93L50 0v5ZM50 25v-5l-4.69.37.78 4.94Zm0-5v-5l-5.48.43.79 4.94Zm0-5v-5l-6.26.49.78 4.94Zm0-5V5l-7.04.55.78 4.94Zm0-5V0l-7.82.62.78 4.93Zm-3.91 20.31-.78-4.94-4.58 1.1 1.54 4.75Zm-.78-4.94-.79-4.94-5.34 1.28 1.55 4.76Zm-.79-4.94-.78-4.94-6.1 1.47 1.54 4.75Zm-.78-4.94-.78-4.94-6.87 1.65 1.55 4.76Zm-.78-4.94L42.18.62l-7.63 1.83 1.54 4.75Zm-.69 20.67-1.54-4.75-4.35 1.8 2.27 4.45Zm-1.54-4.75-1.55-4.76-5.07 2.1 2.27 4.46Zm-1.55-4.76-1.54-4.75-5.8 2.4 2.27 4.45Zm-1.54-4.75L36.09 7.2l-6.52 2.7 2.27 4.46ZM36.09 7.2l-1.54-4.75-7.25 3 2.27 4.45Zm2.56 20.52-2.27-4.45-4.01 2.46 2.94 4.04Zm-2.27-4.45-2.27-4.46-4.68 2.87 2.94 4.05Zm-2.27-4.46-2.27-4.45-5.35 3.28 2.94 4.04Zm-2.27-4.45L29.57 9.9l-6.02 3.69 2.94 4.05ZM29.57 9.9 27.3 5.45l-6.69 4.1 2.94 4.04Zm5.74 19.87-2.94-4.04-3.58 3.06 3.53 3.53Zm-2.94-4.04-2.94-4.05-4.18 3.57 3.54 3.54Zm-2.94-4.05-2.94-4.04-4.77 4.08 3.53 3.53Zm-2.94-4.04-2.94-4.05-5.37 4.59 3.54 3.54Zm-2.94-4.05-2.94-4.04-5.97 5.09 3.54 3.54Zm8.77 18.73-3.53-3.53-3.06 3.58 4.04 2.94Zm-3.53-3.53-3.54-3.54-3.57 4.18 4.05 2.94Zm-3.54-3.54-3.53-3.53-4.08 4.77 4.04 2.94Zm-3.53-3.53-3.54-3.54-4.59 5.37 4.05 2.94Zm-3.54-3.54-3.54-3.54-5.09 5.97 4.04 2.94Zm11.59 17.13-4.04-2.94-2.46 4.01 4.45 2.27Zm-4.04-2.94-4.05-2.94-2.87 4.68 4.46 2.27Zm-4.05-2.94-4.04-2.94-3.28 5.35 4.45 2.27Zm-4.04-2.94-4.05-2.94-3.69 6.02 4.46 2.27Zm-4.05-2.94-4.04-2.94-4.1 6.69 4.45 2.27Zm14.13 15.1-4.45-2.27-1.8 4.35 4.75 1.54Zm-4.45-2.27-4.46-2.27-2.1 5.07 4.76 1.55Zm-4.46-2.27-4.45-2.27-2.4 5.8 4.75 1.54Zm-4.45-2.27L9.9 29.57l-2.7 6.52 4.76 1.55ZM9.9 29.57 5.45 27.3l-3 7.25 4.75 1.54Zm16.32 12.7-4.75-1.54-1.1 4.58 4.94.78Zm-4.75-1.54-4.76-1.55-1.28 5.34 4.94.79Zm-4.76-1.55-4.75-1.54-1.47 6.1 4.94.78Zm-4.75-1.54L7.2 36.09l-1.65 6.87 4.94.78ZM7.2 36.09l-4.75-1.54-1.83 7.63 4.93.78Zm18.11 10-4.94-.78L20 50h5Zm-4.94-.78-4.94-.79L15 50h5Zm-4.94-.79-4.94-.78L10 50h5Zm-4.94-.78-4.94-.78L5 50h5Zm-4.94-.78-4.93-.78L0 50h5ZM25 50h-5l.37 4.69 4.94-.78Zm-5 0h-5l.43 5.48 4.94-.79Zm-5 0h-5l.49 6.26 4.94-.78Zm-5 0H5l.55 7.04 4.94-.78Zm-5 0H0l.62 7.82 4.93-.78Zm20.31 3.91-4.94.78 1.1 4.58 4.75-1.54Zm-4.94.78-4.94.79 1.28 5.34 4.76-1.55Zm-4.94.79-4.94.78 1.47 6.1 4.75-1.54Zm-4.94.78-4.94.78 1.65 6.87 4.76-1.55Zm-4.94.78-4.93.78 1.83 7.63 4.75-1.54Zm20.67.69-4.75 1.54 1.8 4.35 4.45-2.27Zm-4.75 1.54-4.76 1.55 2.1 5.07 4.46-2.27Zm-4.76 1.55-4.75 1.54 2.4 5.8 4.45-2.27Zm-4.75 1.54L7.2 63.91l2.7 6.52 4.46-2.27ZM7.2 63.91l-4.75 1.54 3 7.25 4.45-2.27Zm20.52-2.56-4.45 2.27 2.46 4.01 4.04-2.94Zm-4.45 2.27-4.46 2.27 2.87 4.68 4.05-2.94Zm-4.46 2.27-4.45 2.27 3.28 5.35 4.04-2.94Zm-4.45 2.27L9.9 70.43l3.69 6.02 4.05-2.94ZM9.9 70.43 5.45 72.7l4.1 6.69 4.04-2.94Zm19.87-5.74-4.04 2.94 3.06 3.58 3.53-3.53Zm-4.04 2.94-4.05 2.94 3.57 4.18 3.54-3.54Zm-4.05 2.94-4.04 2.94 4.08 4.77 3.53-3.53Zm-4.04 2.94-4.05 2.94 4.59 5.37 3.54-3.54Zm-4.05 2.94-4.04 2.94 5.09 5.97 3.54-3.54Zm18.73-8.77-3.53 3.53 3.58 3.06 2.94-4.04Zm-3.53 3.53-3.54 3.54 4.18 3.57 2.94-4.05Zm-3.54 3.54-3.53 3.53 4.77 4.08 2.94-4.04Zm-3.53 3.53-3.54 3.54 5.37 4.59 2.94-4.05Zm-3.54 3.54-3.54 3.54 5.97 5.09 2.94-4.04Zm17.13-11.59-2.94 4.04 4.01 2.46 2.27-4.45Zm-2.94 4.04-2.94 4.05 4.68 2.87 2.27-4.46Zm-2.94 4.05-2.94 4.04 5.35 3.28 2.27-4.45Zm-2.94 4.04-2.94 4.05 6.02 3.69 2.27-4.46Zm-2.94 4.05-2.94 4.04 6.69 4.1 2.27-4.45Zm15.1-14.13-2.27 4.45 4.35 1.8 1.54-4.75Zm-2.27 4.45-2.27 4.46 5.07 2.1 1.55-4.76Zm-2.27 4.46-2.27 4.45 5.8 2.4 1.54-4.75Zm-2.27 4.45-2.27 4.46 6.52 2.7 1.55-4.76Zm-2.27 4.46-2.27 4.45 7.25 3 1.54-4.75Zm12.7-16.32-1.54 4.75 4.58 1.1.78-4.94Zm-1.54 4.75-1.55 4.76 5.34 1.28.79-4.94Zm-1.55 4.76-1.54 4.75 6.1 1.47.78-4.94Zm-1.54 4.75-1.55 4.76 6.87 1.65.78-4.94Zm-1.55 4.76-1.54 4.75 7.63 1.83.78-4.93Zm10-18.11-.78 4.94L50 80v-5Zm-.78 4.94-.79 4.94L50 85v-5Zm-.79 4.94-.78 4.94L50 90v-5Zm-.78 4.94-.78 4.94L50 95v-5Zm-.78 4.94-.78 4.93L50 100v-5ZM50 75v5l4.69-.37-.78-4.94Zm0 5v5l5.48-.43-.79-4.94Zm0 5v5l6.26-.49-.78-4.94Zm0 5v5l7.04-.55-.78-4.94Zm0 5v5l7.82-.62-.78-4.93Zm3.91-20.31.78 4.94 4.58-1.1-1.54-4.75Zm.78 4.94.79 4.94 5.34-1.28-1.55-4.76Zm.79 4.94.78 4.94 6.1-1.47-1.54-4.75Zm.78 4.94.78 4.94 6.87-1.65-1.55-4.76Zm.78 4.94.78 4.93 7.63-1.83-1.54-4.75Zm.69-20.67 1.54 4.75 4.35-1.8-2.27-4.45Zm1.54 4.75 1.55 4.76 5.07-2.1-2.27-4.46Zm1.55 4.76 1.54 4.75 5.8-2.4-2.27-4.45Zm1.54 4.75 1.55 4.76 6.52-2.7-2.27-4.46Zm1.55 4.76 1.54 4.75 7.25-3-2.27-4.45Zm-2.56-20.52 2.27 4.45 4.01-2.46-2.94-4.04Zm2.27 4.45 2.27 4.46 4.68-2.87-2.94-4.05Zm2.27 4.46 2.27 4.45 5.35-3.28-2.94-4.04Zm2.27 4.45 2.27 4.46 6.02-3.69-2.94-4.05Zm2.27 4.46 2.27 4.45 6.69-4.1-2.94-4.04Zm-5.74-19.87 2.94 4.04 3.58-3.06-3.53-3.53Zm2.94 4.04 2.94 4.05 4.18-3.57-3.54-3.54Zm2.94 4.05 2.94 4.04 4.77-4.08-3.53-3.53Zm2.94 4.04 2.94 4.05 5.37-4.59-3.54-3.54Zm2.94 4.05 2.94 4.04 5.97-5.09-3.54-3.54Zm-8.77-18.73 3.53 3.53 3.06-3.58-4.04-2.94Zm3.53 3.53 3.54 3.54 3.57-4.18-4.05-2.94Zm3.54 3.54 3.53 3.53 4.08-4.77-4.04-2.94Zm3.53 3.53 3.54 3.54 4.59-5.37-4.05-2.94Zm3.54 3.54 3.54 3.54 5.09-5.97-4.04-2.94ZM70.23 64.69l4.04 2.94 2.46-4.01-4.45-2.27Zm4.04 2.94 4.05 2.94 2.87-4.68-4.46-2.27Zm4.05 2.94 4.04 2.94 3.28-5.35-4.45-2.27Zm4.04 2.94 4.05 2.94 3.69-6.02-4.46-2.27Zm4.05 2.94 4.04 2.94 4.1-6.69-4.45-2.27Zm-14.13-15.1 4.45 2.27 1.8-4.35-4.75-1.54Zm4.45 2.27 4.46 2.27 2.1-5.07-4.76-1.55Zm4.46 2.27 4.45 2.27 2.4-5.8-4.75-1.54Zm4.45 2.27 4.46 2.27 2.7-6.52-4.76-1.55Zm4.46 2.27 4.45 2.27 3-7.25-4.75-1.54Zm-16.32-12.7 4.75 1.54 1.1-4.58-4.94-.78Zm4.75 1.54 4.76 1.55 1.28-5.34-4.94-.79Zm4.76 1.55 4.75 1.54 1.47-6.1-4.94-.78Zm4.75 1.54 4.76 1.55 1.65-6.87-4.94-.78Zm4.76 1.55 4.75 1.54 1.83-7.63-4.93-.78Zm-18.11-10 4.94.78L80 50h-5Zm4.94.78 4.94.79L85 50h-5Zm4.94.79 4.94.78L90 50h-5Zm4.94.78 4.94.78L95 50h-5Zm4.94.78 4.93.78L100 50h-5Z"/></svg>