<svg xmlns="http://www.w3.org/2000/svg" viewBox="-1 -1 102 102"><path fill="#e9ecef" stroke="#2b4c7e" stroke-linejoin="round" stroke-width=".3" d="M0 100h10V90H0Zm10 0h10V90H10Zm10 0h10V90H20Zm10 0h10V90H30Zm10 0h10V90H40Zm10 0h10V90H50Zm10 0h10V90H60Zm10 0h10V90H70Zm10 0h10V90H80Zm10 0h10V90H90ZM0 90h10V80H0Zm10 0h10V80H10Zm10 0h10V80H20Zm10 0h10V80H30Zm10 0h10V80H40Zm10 0h10V80H50Zm10 0h10V80H60Zm10 0h10V80H70Zm10 0h10V80H80Zm10 0h10V80H90ZM0 80h10V70H0Zm10 0h10V70H10Zm10 0h10V70H20Zm10 0h10V70H30Zm10 0h10V70H40Zm10 0h10V70H50Zm10 0h10V70H60Zm10 0h10V70H70Zm10 0h10V70H80Zm10 0h10V70H90ZM0 70h10V60H0Zm10 0h10V60H10Zm10 0h10V60H20Zm10 0h10V60H30Zm10 0h10V60H40Zm10 0h10V60H50Zm10 0h10V60H60Zm10 0h10V60H70Zm10 0h10V60H80Zm10 0h10V60H90ZM0 60h10V50H0Zm10 0h10V50H10Zm10 0h10V50H20Zm10 0h10V50H30Zm10 0h10V50H40Zm10 0h10V50H50Zm10 0h10V50H60Zm10 0h10V50H70Zm10 0h10V50H80Zm10 0h10V50H90ZM0 50h10V40H0Zm10 0h10V40H10Zm10 0h10V40H20Zm10 0h10V40H30Zm10 0h10V40H40Zm10 0h10V40H50Zm10 0h10V40H60Zm10 0h10V40H70Zm10 0h10V40H80Zm10 0h10V40H90ZM0 40h10V30H0Zm10 0h10V30H10Zm10 0h10V30H20Zm10 0h10V30H30Zm10 0h10V30H40Zm10 0h10V30H50Zm10 0h10V30H60Zm10 0h10V30H70Zm10 0h10V30H80Zm10 0h10V30H90ZM0 30h10V20H0Zm10 0h10V20H10Zm10 0h10V20H20Zm10 0h10V20H30Zm10 0h10V20H40Zm10 0h10V20H50Zm10 0h10V20H60Zm10 0h10V20H70Zm10 0h10V20H80Zm10 0h10V20H90ZM0 20h10V10H0Zm10 0h10V10H10Zm10 0h10V10H20Zm10 0h10V10H30Zm10 0h10V10H40Zm10 0h10V10H50Zm10 0h10V10H60Zm10 0h10V10H70Zm10 0h10V10H80Zm10 0h10V10H90ZM0 10h10V0H0Zm10 0h10V0H10Zm10 0h10V0H20Zm10 0h10V0H30Zm10 0h10V0H40Zm10 0h10V0H50Zm10 0h10V0H60Zm10 0h10V0H70Zm10 0h10V0H80Zm10 0h10V0H90Z"/></svg>